<?xml version="1.0" encoding="UTF-8" standalone="no"?>
<svg
   xmlns:dc="http://purl.org/dc/elements/1.1/"
   xmlns:cc="http://creativecommons.org/ns#"
   xmlns:rdf="http://www.w3.org/1999/02/22-rdf-syntax-ns#"
   xmlns:svg="http://www.w3.org/2000/svg"
   xmlns="http://www.w3.org/2000/svg"
   xmlns:sodipodi="http://sodipodi.sourceforge.net/DTD/sodipodi-0.dtd"
   xmlns:inkscape="http://www.inkscape.org/namespaces/inkscape"
   inkscape:version="1.0rc1 (09960d6, 2020-04-09)"
   sodipodi:docname="RISC-V-Logo.svg"
   viewBox="0 0 483.01334 76.599998"
   height="76.599998"
   width="483.01334"
   xml:space="preserve"
   id="svg10"
   version="1.1"><metadata
     id="metadata16"><rdf:RDF><cc:Work
         rdf:about=""><dc:format>image/svg+xml</dc:format><dc:type
           rdf:resource="http://purl.org/dc/dcmitype/StillImage" /><dc:title></dc:title></cc:Work></rdf:RDF></metadata><defs
     id="defs14" /><sodipodi:namedview
     inkscape:current-layer="g18"
     inkscape:window-maximized="0"
     inkscape:window-y="25"
     inkscape:window-x="0"
     inkscape:cy="38.299999"
     inkscape:cx="241.50667"
     inkscape:zoom="0.960636"
     showgrid="false"
     id="namedview12"
     inkscape:window-height="638"
     inkscape:window-width="1875"
     inkscape:pageshadow="2"
     inkscape:pageopacity="0"
     guidetolerance="10"
     gridtolerance="10"
     objecttolerance="10"
     borderopacity="1"
     bordercolor="#666666"
     pagecolor="#ffffff" /><g
     transform="matrix(1.3333333,0,0,-1.3333333,0,76.6)"
     inkscape:label="ink_ext_XXXXXX"
     inkscape:groupmode="layer"
     id="g18"><g
       transform="scale(0.1)"
       id="g20"><path
         inkscape:connector-curvature="0"
         id="path22"
         style="fill:#f3ab0d;fill-opacity:1;fill-rule:nonzero;stroke:none"
         d="m 321.398,394.781 c 0,-83.511 -50.644,-159.398 -149.281,-177.176 L 311.27,53.1445 323.859,70.7969 574.465,425.184 V 574.461 H 167.051 c 103.703,-10.125 154.347,-96.133 154.347,-179.68" /><path
         inkscape:connector-curvature="0"
         id="path24"
         style="fill:#283272;fill-opacity:1;fill-rule:nonzero;stroke:none"
         d="M 392.188,25.3398 576.926,283.469 V 0 H 373.672 Z M 35.4609,293.59 h 96.1331 c 70.801,0 106.289,50.547 106.289,101.191 0,50.68 -35.488,98.731 -106.289,98.731 L 0,493.512 V 0 H 245.535 L 35.4609,253.066 v 40.524" /><path
         inkscape:connector-curvature="0"
         id="path26"
         style="fill:#283272;fill-opacity:1;fill-rule:nonzero;stroke:none"
         d="m 1419.67,478.328 h 83.54 V 86.0117 h -83.54 V 478.328" /><path
         inkscape:connector-curvature="0"
         id="path28"
         style="fill:#283272;fill-opacity:1;fill-rule:nonzero;stroke:none"
         d="m 2000.97,171.859 -434.5,0.254 V 86.0117 h 437.78 c 32.87,0 60.8,12.7149 83.54,35.4613 22.75,22.715 35.46,50.64 35.46,83.507 0,32.872 -12.71,60.676 -35.46,83.547 -22.74,22.743 -50.67,35.336 -83.54,35.336 l -318.47,2.379 c -18.78,0.141 -33.96,15.332 -34.1,34.106 v 0 0 c 0.14,18.867 15.46,34.097 34.33,34.113 l 437.24,0.32 v 83.547 h -437.8 c -32.99,0 -60.8,-12.719 -83.51,-35.461 -22.74,-22.746 -35.47,-50.679 -35.47,-83.547 0,-32.863 12.73,-60.672 35.47,-83.507 22.71,-22.747 50.52,-32.868 83.51,-32.868 l 318.11,-0.015 c 18.9,0 34.19,-15.352 34.12,-34.242 v 0 0 c 0.07,-20.329 -16.39,-36.836 -36.71,-36.829" /><path
         inkscape:connector-curvature="0"
         id="path30"
         style="fill:#283272;fill-opacity:1;fill-rule:nonzero;stroke:none"
         d="m 2358.55,478.328 h 361.91 v -83.547 h -361.91 c -30.28,0 -55.62,-9.996 -78.49,-32.867 -22.75,-22.742 -32.86,-48.051 -32.86,-78.445 0,-30.274 10.11,-55.617 32.86,-78.489 22.87,-22.707 48.21,-32.867 78.49,-32.867 h 361.91 l -0.02,-86.1013 h -361.71 c -53.14,0 -98.82,20.3713 -136.87,58.3013 -37.93,37.96 -55.62,83.539 -55.62,136.683 0,53.117 17.69,98.731 55.62,136.656 38.05,40.395 83.54,60.676 136.69,60.676" /><path
         inkscape:connector-curvature="0"
         id="path32"
         style="fill:#283272;fill-opacity:1;fill-rule:nonzero;stroke:none"
         d="M 1358.99,86.0117 1247.65,240.445 c 30.27,2.5 55.61,12.621 75.89,35.368 22.74,22.835 35.45,50.644 35.45,83.507 0,32.868 -12.71,60.801 -35.45,83.547 -22.75,22.742 -50.68,35.461 -83.55,35.461 H 802.188 V 86.0117 h 83.546 V 240.445 H 1143.86 L 1255.21,86.0117 Z m -124,234.7613 -349.256,0.622 v 70.793 l 352.726,0.718 c 19.01,0.039 34.47,-15.316 34.56,-34.332 v 0 0 c -0.09,-20.926 -17.1,-37.836 -38.03,-37.801" /><path
         inkscape:connector-curvature="0"
         id="path34"
         style="fill:#f3ab0d;fill-opacity:1;fill-rule:nonzero;stroke:none"
         d="M 3137.99,86.0117 2908.74,478.328 h 98.13 l 179.19,-311.269 179.3,311.269 h 96.62 L 3234.12,86.0117" /><path
         inkscape:connector-curvature="0"
         id="path36"
         style="fill:#f3ab0d;fill-opacity:1;fill-rule:nonzero;stroke:none"
         d="m 2771.13,318.926 h 164.47 v -75.981 h -164.47 v 75.981" /><path
         inkscape:connector-curvature="0"
         id="path38"
         style="fill:#283272;fill-opacity:1;fill-rule:nonzero;stroke:none"
         d="m 3551.73,418.332 h 6.6 c 7.72,0 13.96,2.566 13.96,8.809 0,5.507 -4.04,9.179 -12.85,9.179 -3.68,0 -6.24,-0.367 -7.71,-0.734 z m -0.37,-34.144 h -13.95 v 60.207 c 5.51,1.097 13.22,1.835 23.13,1.835 11.38,0 16.52,-1.835 20.93,-4.402 3.3,-2.574 5.86,-7.344 5.86,-13.219 0,-6.613 -5.13,-11.75 -12.48,-13.949 v -0.738 c 5.88,-2.195 9.18,-6.606 11.02,-14.684 1.84,-9.179 2.94,-12.851 4.4,-15.05 h -15.05 c -1.83,2.199 -2.93,7.707 -4.77,14.683 -1.1,6.609 -4.77,9.547 -12.48,9.547 h -6.61 z m -37.08,31.57 c 0,-26.797 19.82,-48.09 46.99,-48.09 26.44,0 45.89,21.293 45.89,47.723 0,26.8 -19.45,48.464 -46.25,48.464 -26.81,0 -46.63,-21.664 -46.63,-48.097 z m 108.3,0 c 0,-34.141 -26.8,-60.938 -61.67,-60.938 -34.51,0 -62.05,26.797 -62.05,60.938 0,33.406 27.54,60.211 62.05,60.211 34.87,0 61.67,-26.805 61.67,-60.211" /></g></g></svg>
