<?xml version="1.0" encoding="UTF-8"?>
<svg width="904" height="583" xmlns="http://www.w3.org/2000/svg" xmlns:lucid="lucid" xmlns:xlink="http://www.w3.org/1999/xlink">
 <g transform="translate(-138 2)" lucid:page-tab-id="yKrbZg4oeKXE">
  <path d="M180 386a6 6 0 0 1 6-6h348a6 6 0 0 1 6 6v48a6 6 0 0 1-6 6H186a6 6 0 0 1-6-6z" fill="#fff" stroke="#282c33" stroke-width="2"/>
  <use transform="matrix(1 0 0 1 185 385) translate(157.72 30.278)" xlink:href="#a"/>
  <path d="m560 86a6 6 0 0 1 6-6h48a6 6 0 0 1 6 6v268a6 6 0 0 1-6 6h-48a6 6 0 0 1-6-6z" fill="#fff" stroke="#282c33" stroke-width="2"/>
  <use transform="matrix(1 0 0 1 565 85) translate(7.716 140.12)" xlink:href="#b"/>
  <path d="m620 86a6 6 0 0 1 6-6h48a6 6 0 0 1 6 6v268a6 6 0 0 1-6 6h-48a6 6 0 0 1-6-6z" fill="#fff" stroke="#282c33" stroke-width="2"/>
  <use transform="matrix(1 0 0 1 625 85) translate(-4.9383 139.44)" xlink:href="#c"/>
  <path d="m680 86a6 6 0 0 1 6-6h48a6 6 0 0 1 6 6v268a6 6 0 0 1-6 6h-48a6 6 0 0 1-6-6z" fill="#fff" stroke="#282c33" stroke-width="2"/>
  <use transform="matrix(1 0 0 1 685 85) translate(-4.9383 139.44)" xlink:href="#d"/>
  <path d="m940 86a6 6 0 0 1 6-6h48a6 6 0 0 1 6 6v268a6 6 0 0 1-6 6h-48a6 6 0 0 1-6-6z" fill="#fff" stroke="#282c33" stroke-width="2"/>
  <use transform="matrix(1 0 0 1 945 85) translate(-4.9383 139.44)" xlink:href="#e"/>
  <path d="m741.5 220h181.12" fill="none" stroke="#3a414a"/>
  <path d="M741.5 220.47h-.5v-.94h.5z" fill="#3a414a" stroke="#3a414a" stroke-width=".05"/>
  <path d="m937.38 220-14.26 4.63v-9.26z" fill="#3a414a" stroke="#3a414a"/>
  <path d="M772.6 40.48H574.5v-.95h198.1zm211.02 0h-196.2v-.95h196.2z" fill="#3a414a" stroke="#3a414a" stroke-width=".05"/>
  <path d="m574 47.5-13-7.5 13-7.5z" fill="#3a414a"/>
  <path d="M574.47 48.32L560.05 40l14.42-8.32zM561.95 40l11.56 6.68V33.32z" fill="#3a414a" stroke="#3a414a" stroke-width=".05"/>
  <path d="m998.38 40-14.26 4.63v-9.27z" fill="#3a414a"/>
  <path d="m999.92 40-16.28 5.3v-10.6zm-15.33 3.98 12.25-3.98-12.26-3.98z" fill="#3a414a" stroke="#3a414a" stroke-width=".05"/>
  <use transform="matrix(1 0 0 1 772.59 24) translate(0 21.333)" xlink:href="#f"/>
  <path d="m560 386a6 6 0 0 1 6-6h48a6 6 0 0 1 6 6v48a6 6 0 0 1-6 6h-48a6 6 0 0 1-6-6zm60 0a6 6 0 0 1 6-6h48a6 6 0 0 1 6 6v48a6 6 0 0 1-6 6h-48a6 6 0 0 1-6-6zm60 0a6 6 0 0 1 6-6h48a6 6 0 0 1 6 6v48a6 6 0 0 1-6 6h-48a6 6 0 0 1-6-6zm260 0a6 6 0 0 1 6-6h48a6 6 0 0 1 6 6v48a6 6 0 0 1-6 6h-48a6 6 0 0 1-6-6z" fill="#fff" stroke="#282c33" stroke-width="2"/>
  <path d="m741.5 410h181.12" fill="none" stroke="#3a414a"/>
  <path d="M741.5 410.48h-.5v-.96h.5z" fill="#3a414a" stroke="#3a414a" stroke-width=".05"/>
  <path d="m937.38 410-14.26 4.63v-9.26z" fill="#3a414a" stroke="#3a414a"/>
  <path d="M560 506a6 6 0 0 1 6-6h428a6 6 0 0 1 6 6v48a6 6 0 0 1-6 6H566a6 6 0 0 1-6-6z" fill="#fff" stroke="#282c33" stroke-width="2"/>
  <path d="m560 506a6 6 0 0 1 6-6h48a6 6 0 0 1 6 6v48a6 6 0 0 1-6 6h-48a6 6 0 0 1-6-6z" fill="#fff" stroke="#282c33" stroke-width="2"/>
  <use transform="matrix(1 0 0 1 565 505) translate(4.0432 30.278)" xlink:href="#g"/>
  <use transform="matrix(1 0 0 1 565 505) translate(33.611 30.278)" xlink:href="#h"/>
  <path d="m680 506a6 6 0 0 1 6-6h48a6 6 0 0 1 6 6v48a6 6 0 0 1-6 6h-48a6 6 0 0 1-6-6z" fill="#fff" stroke="#282c33" stroke-width="2"/>
  <path d="M795.1 530.48h-53.6v-.96h53.6zm127.52 0H818.57v-.96h104.05z" fill="#3a414a" stroke="#3a414a" stroke-width=".05"/>
  <path d="M741.5 530.48h-.5v-.96h.5z" fill="#3a414a"/>
  <path d="m937.38 530-14.26 4.63v-9.26z" fill="#3a414a"/>
  <path d="m938.92 530-16.28 5.3v-10.6zm-15.33 3.98 12.25-3.98-12.26-3.98z" fill="#3a414a" stroke="#3a414a" stroke-width=".05"/>
  <use transform="matrix(1 0 0 1 795.11 516.67) translate(0 17.778)" xlink:href="#i"/>
  <path d="m940 506a6 6 0 0 1 6-6h48a6 6 0 0 1 6 6v48a6 6 0 0 1-6 6h-48a6 6 0 0 1-6-6z" fill="#fff" stroke="#282c33" stroke-width="2"/>
  <use transform="matrix(1 0 0 1 945 505) translate(4.0432 30.278)" xlink:href="#g"/>
  <use transform="matrix(1 0 0 1 945 505) translate(33.611 30.278)" xlink:href="#j"/>
  <path d="m480 280c0 22.1-17.9 40-40 40s-40-17.9-40-40 17.9-40 40-40 40 17.9 40 40zm-68.3-28.3 56.6 56.6m-56.6 0 56.6-56.6" fill="#fff" stroke="#282c33" stroke-width="2"/>
  <path d="m590 441.5v41.12" fill="none" stroke="#3a414a"/>
  <path d="M590.48 441.5h-.96v-.5h.96z" fill="#3a414a" stroke="#3a414a" stroke-width=".05"/>
  <path d="m590 497.38-4.63-14.26h9.26z" fill="#3a414a" stroke="#3a414a"/>
  <path d="m970 441.5v41.12" fill="none" stroke="#3a414a"/>
  <path d="M970.48 441.5h-.96v-.5h.96z" fill="#3a414a" stroke="#3a414a" stroke-width=".05"/>
  <path d="m970 497.38-4.63-14.26h9.26z" fill="#3a414a" stroke="#3a414a"/>
  <path d="M348.9 360.48H194.5v-.96h154.4zm174.72 0h-152.5v-.96h152.5z" fill="#3a414a" stroke="#3a414a" stroke-width=".05"/>
  <path d="m194 367.5-13-7.5 13-7.5z" fill="#3a414a"/>
  <path d="M194.47 368.32L180.05 360l14.4-8.32zM181.94 360l11.56 6.68v-13.36z" fill="#3a414a" stroke="#3a414a" stroke-width=".05"/>
  <path d="m538.38 360-14.26 4.63v-9.26z" fill="#3a414a"/>
  <path d="m539.92 360-16.28 5.3v-10.6zm-15.33 3.98 12.25-3.98-12.26-3.98z" fill="#3a414a" stroke="#3a414a" stroke-width=".05"/>
  <use transform="matrix(1 0 0 1 348.89 344) translate(0 21.333)" xlink:href="#k"/>
  <path d="M540.48 343.62h-.96V236h.96zm0-139.62h-.96V94.5h.96z" fill="#3a414a" stroke="#3a414a" stroke-width=".05"/>
  <path d="m547.5 94h-15l7.5-13z" fill="#3a414a"/>
  <path d="M548.32 94.47h-16.64L540 80.05zm-15-.95h13.36L540 81.94z" fill="#3a414a" stroke="#3a414a" stroke-width=".05"/>
  <path d="m540 358.38-4.63-14.26h9.26z" fill="#3a414a"/>
  <path d="m540 359.92-5.3-16.28h10.6zm-3.98-15.33 3.98 12.25 3.98-12.26z" fill="#3a414a" stroke="#3a414a" stroke-width=".05"/>
  <use transform="matrix(1 0 0 1 528.89 204) translate(0 21.333)" xlink:href="#l"/>
  <path d="m480 446a6 6 0 0 1 6-6h48a6 6 0 0 1 6 6v48a6 6 0 0 1-6 6h-48a6 6 0 0 1-6-6z" fill="#fff" fill-opacity="0" stroke="#000" stroke-opacity="0" stroke-width="2"/>
  <use transform="matrix(1 0 0 1 485 445) translate(4.0432 30.278)" xlink:href="#g"/>
  <use transform="matrix(1 0 0 1 485 445) translate(33.611 30.278)" xlink:href="#h"/>
  <path d="m620 506a6 6 0 0 1 6-6h48a6 6 0 0 1 6 6v48a6 6 0 0 1-6 6h-48a6 6 0 0 1-6-6z" fill="#fff" stroke="#282c33" stroke-width="2"/>
  <defs>
   <path id="m" d="M108 0H70L1-190h34L89-25l56-165h34" fill="#3a414a"/>
   <path id="n" d="M135-143c-3-34-86-38-87 0 15 53 115 12 119 90S17 21 10-45l28-5c4 36 97 45 98 0-10-56-113-15-118-90-4-57 82-63 122-42 12 7 21 19 24 35" fill="#3a414a"/>
   <path id="o" d="M27 0v-27h64v-190l-56 39v-29l58-41h29v221h61V0H27" fill="#3a414a"/>
   <g id="a">
    <use transform="scale(.061728)" xlink:href="#m"/>
    <use transform="matrix(.061728 0 0 .061728 11.111 0)" xlink:href="#n"/>
    <use transform="matrix(.061728 0 0 .061728 22.222 0)" xlink:href="#o"/>
   </g>
   <path id="p" d="M101-251c82-7 93 87 43 132L82-64C71-53 59-42 53-27h129V0H18c2-99 128-94 128-182 0-28-16-43-45-43s-46 15-49 41l-32-3c6-41 34-60 81-64" fill="#3a414a"/>
   <g id="b">
    <use transform="scale(.061728)" xlink:href="#m"/>
    <use transform="matrix(.061728 0 0 .061728 11.111 0)" xlink:href="#n"/>
    <use transform="matrix(.061728 0 0 .061728 22.222 0)" xlink:href="#p"/>
   </g>
   <path id="q" d="M118-107v75H92v-75H18v-26h74v-75h26v75h74v26h-74" fill="#3a414a"/>
   <g id="c">
    <use transform="scale(.061728)" xlink:href="#m"/>
    <use transform="matrix(.061728 0 0 .061728 11.111 0)" xlink:href="#n"/>
    <use transform="matrix(.061728 0 0 .061728 22.222 0)" xlink:href="#p"/>
    <use transform="matrix(.061728 0 0 .061728 34.568 0)" xlink:href="#q"/>
    <use transform="matrix(.061728 0 0 .061728 47.531 0)" xlink:href="#o"/>
   </g>
   <g id="d">
    <use transform="scale(.061728)" xlink:href="#m"/>
    <use transform="matrix(.061728 0 0 .061728 11.111 0)" xlink:href="#n"/>
    <use transform="matrix(.061728 0 0 .061728 22.222 0)" xlink:href="#p"/>
    <use transform="matrix(.061728 0 0 .061728 34.568 0)" xlink:href="#q"/>
    <use transform="matrix(.061728 0 0 .061728 47.531 0)" xlink:href="#p"/>
   </g>
   <path id="r" d="M64 0c3-98 48-159 88-221H18v-27h164v26C143-157 98-101 97 0H64" fill="#3a414a"/>
   <g id="e">
    <use transform="scale(.061728)" xlink:href="#m"/>
    <use transform="matrix(.061728 0 0 .061728 11.111 0)" xlink:href="#n"/>
    <use transform="matrix(.061728 0 0 .061728 22.222 0)" xlink:href="#p"/>
    <use transform="matrix(.061728 0 0 .061728 34.568 0)" xlink:href="#q"/>
    <use transform="matrix(.061728 0 0 .061728 47.531 0)" xlink:href="#r"/>
   </g>
   <path id="s" d="M138-131c27 9 52 24 51 61 0 53-36 74-89 74S11-19 11-69c0-35 22-54 51-61-78-25-46-121 38-121 51 0 83 19 83 66 0 30-18 49-45 54zm-38-16c24 0 32-13 32-36 1-23-11-34-32-34-22 0-33 12-32 34 0 22 9 36 32 36zm1 116c27 0 37-17 37-43 0-25-13-39-39-39-24 0-37 15-37 40 0 27 11 42 39 42" fill="#333"/>
   <use id="f" transform="scale(.074074)" xlink:href="#s"/>
   <path id="t" d="M100-194c63 0 86 42 84 106H49c0 40 14 67 53 68 26 1 43-12 49-29l28 8c-11 28-37 45-77 45C44 4 14-33 15-96c1-61 26-98 85-98zm52 81c6-60-76-77-97-28-3 7-6 17-6 28h103" fill="#3a414a"/>
   <path id="u" d="M24 0v-261h32V0H24" fill="#3a414a"/>
   <path id="v" d="M59-47c-2 24 18 29 38 22v24C64 9 27 4 27-40v-127H5v-23h24l9-43h21v43h35v23H59v120" fill="#3a414a"/>
   <g id="g">
    <use transform="scale(.061728)" xlink:href="#t"/>
    <use transform="matrix(.061728 0 0 .061728 12.346 0)" xlink:href="#u"/>
    <use transform="matrix(.061728 0 0 .061728 17.222 0)" xlink:href="#v"/>
   </g>
   <path id="w" d="M101-251c68 0 85 55 85 127S166 4 100 4C33 4 14-52 14-124c0-73 17-127 87-127zm-1 229c47 0 54-49 54-102s-4-102-53-102c-51 0-55 48-55 102 0 53 5 102 54 102" fill="#3a414a"/>
   <use id="h" transform="scale(.061728)" xlink:href="#w"/>
   <path id="x" d="M85-194c31 0 48 13 60 33l-1-100h32l1 261h-30c-2-10 0-23-3-31C134-8 116 4 85 4 32 4 16-35 15-94c0-66 23-100 70-100zm9 24c-40 0-46 34-46 75 0 40 6 74 45 74 42 0 51-32 51-76 0-42-9-74-50-73" fill="#3a414a"/>
   <g id="i">
    <use transform="scale(.061728)" xlink:href="#m"/>
    <use transform="matrix(.061728 0 0 .061728 11.111 0)" xlink:href="#x"/>
   </g>
   <use id="j" transform="scale(.061728)" xlink:href="#r"/>
   <path id="y" d="M128 0H69L1-190h53L99-40l48-150h52" fill="#333"/>
   <path id="z" d="M25 0v-261h50V0H25" fill="#333"/>
   <g id="k">
    <use transform="scale(.074074)" xlink:href="#y"/>
    <use transform="matrix(.074074 0 0 .074074 14.815 0)" xlink:href="#z"/>
   </g>
   <g id="l">
    <use transform="scale(.074074)" xlink:href="#y"/>
    <use transform="matrix(.074074 0 0 .074074 14.815 0)" xlink:href="#z"/>
   </g>
  </defs>
 </g>
</svg>
