<?xml version="1.0" encoding="UTF-8"?>
<svg width="1524.7" height="584.67" xmlns="http://www.w3.org/2000/svg" xmlns:lucid="lucid" xmlns:xlink="http://www.w3.org/1999/xlink">
 <g transform="translate(-19 2)" lucid:page-tab-id="L80h.Pe4_e67">
  <path d="M180 386a6 6 0 0 1 6-6h348a6 6 0 0 1 6 6v48a6 6 0 0 1-6 6H186a6 6 0 0 1-6-6z" fill="#fff" stroke="#282c33" stroke-width="2"/>
  <use transform="matrix(1 0 0 1 185 385) translate(157.72 30.278)" xlink:href="#a"/>
  <path d="m560 86a6 6 0 0 1 6-6h48a6 6 0 0 1 6 6v268a6 6 0 0 1-6 6h-48a6 6 0 0 1-6-6z" fill="#fff" stroke="#282c33" stroke-width="2"/>
  <use transform="matrix(1 0 0 1 565 85) translate(7.716 140.12)" xlink:href="#b"/>
  <path d="m620 86a6 6 0 0 1 6-6h48a6 6 0 0 1 6 6v268a6 6 0 0 1-6 6h-48a6 6 0 0 1-6-6z" fill="#fff" stroke="#282c33" stroke-width="2"/>
  <use transform="matrix(1 0 0 1 625 85) translate(-4.9383 139.44)" xlink:href="#c"/>
  <path d="m680 86a6 6 0 0 1 6-6h48a6 6 0 0 1 6 6v268a6 6 0 0 1-6 6h-48a6 6 0 0 1-6-6z" fill="#fff" stroke="#282c33" stroke-width="2"/>
  <use transform="matrix(1 0 0 1 685 85) translate(-4.9383 139.44)" xlink:href="#d"/>
  <path d="m940 86a6 6 0 0 1 6-6h48a6 6 0 0 1 6 6v268a6 6 0 0 1-6 6h-48a6 6 0 0 1-6-6z" fill="#fff" stroke="#282c33" stroke-width="2"/>
  <use transform="matrix(1 0 0 1 945 85) translate(-4.9383 139.44)" xlink:href="#e"/>
  <path d="m741.5 220h181.12" fill="none" stroke="#3a414a"/>
  <path d="M741.5 220.47h-.5v-.94h.5z" fill="#3a414a" stroke="#3a414a" stroke-width=".05"/>
  <path d="m937.38 220-14.26 4.63v-9.26z" fill="#3a414a" stroke="#3a414a"/>
  <path d="M772.6 40.48H574.5v-.95h198.1zm211.02 0h-196.2v-.95h196.2z" fill="#3a414a" stroke="#3a414a" stroke-width=".05"/>
  <path d="m574 47.5-13-7.5 13-7.5z" fill="#3a414a"/>
  <path d="M574.47 48.32L560.05 40l14.42-8.32zM561.95 40l11.56 6.68V33.32z" fill="#3a414a" stroke="#3a414a" stroke-width=".05"/>
  <path d="m998.38 40-14.26 4.63v-9.27z" fill="#3a414a"/>
  <path d="m999.92 40-16.28 5.3v-10.6zm-15.33 3.98 12.25-3.98-12.26-3.98z" fill="#3a414a" stroke="#3a414a" stroke-width=".05"/>
  <use transform="matrix(1 0 0 1 772.59 24) translate(0 21.333)" xlink:href="#f"/>
  <path d="m560 386a6 6 0 0 1 6-6h48a6 6 0 0 1 6 6v48a6 6 0 0 1-6 6h-48a6 6 0 0 1-6-6zm60 0a6 6 0 0 1 6-6h48a6 6 0 0 1 6 6v48a6 6 0 0 1-6 6h-48a6 6 0 0 1-6-6zm60 0a6 6 0 0 1 6-6h48a6 6 0 0 1 6 6v48a6 6 0 0 1-6 6h-48a6 6 0 0 1-6-6zm260 0a6 6 0 0 1 6-6h48a6 6 0 0 1 6 6v48a6 6 0 0 1-6 6h-48a6 6 0 0 1-6-6z" fill="#fff" stroke="#282c33" stroke-width="2"/>
  <path d="m741.5 410h181.12" fill="none" stroke="#3a414a"/>
  <path d="M741.5 410.48h-.5v-.96h.5z" fill="#3a414a" stroke="#3a414a" stroke-width=".05"/>
  <path d="m937.38 410-14.26 4.63v-9.26z" fill="#3a414a" stroke="#3a414a"/>
  <path d="M560 506a6 6 0 0 1 6-6h428a6 6 0 0 1 6 6v48a6 6 0 0 1-6 6H566a6 6 0 0 1-6-6z" fill="#fff" stroke="#282c33" stroke-width="2"/>
  <path d="m560 504.33a6 6 0 0 1 6-6h48a6 6 0 0 1 6 6v51.34a6 6 0 0 1-6 6h-48a6 6 0 0 1-6-6z" fill="#fff" stroke="#282c33" stroke-width="2"/>
  <use transform="matrix(1 0 0 1 565 503.33) translate(13.302 21.153)" xlink:href="#g"/>
  <use transform="matrix(1 0 0 1 565 503.33) translate(4.3519 47.819)" xlink:href="#h"/>
  <path d="m680 504.33a6 6 0 0 1 6-6h48a6 6 0 0 1 6 6v51.34a6 6 0 0 1-6 6h-48a6 6 0 0 1-6-6z" fill="#fff" stroke="#282c33" stroke-width="2"/>
  <use transform="matrix(1 0 0 1 685 503.33) translate(13.302 21.153)" xlink:href="#g"/>
  <use transform="matrix(1 0 0 1 685 503.33) translate(4.3519 47.819)" xlink:href="#i"/>
  <path d="M795.1 530.48h-53.6v-.96h53.6zm127.52 0H818.57v-.96h104.05z" fill="#3a414a" stroke="#3a414a" stroke-width=".05"/>
  <path d="M741.5 530.48h-.5v-.96h.5z" fill="#3a414a"/>
  <path d="m937.38 530-14.26 4.63v-9.26z" fill="#3a414a"/>
  <path d="m938.92 530-16.28 5.3v-10.6zm-15.33 3.98 12.25-3.98-12.26-3.98z" fill="#3a414a" stroke="#3a414a" stroke-width=".05"/>
  <use transform="matrix(1 0 0 1 795.11 516.67) translate(0 17.778)" xlink:href="#j"/>
  <path d="m940 504.33a6 6 0 0 1 6-6h48a6 6 0 0 1 6 6v51.34a6 6 0 0 1-6 6h-48a6 6 0 0 1-6-6z" fill="#fff" stroke="#282c33" stroke-width="2"/>
  <use transform="matrix(1 0 0 1 945 503.33) translate(13.302 21.153)" xlink:href="#g"/>
  <use transform="matrix(1 0 0 1 945 503.33) translate(4.3519 47.819)" xlink:href="#k"/>
  <path d="m480 280c0 22.1-17.9 40-40 40s-40-17.9-40-40 17.9-40 40-40 40 17.9 40 40zm-68.3-28.3 56.6 56.6m-56.6 0 56.6-56.6" fill="#fff" stroke="#282c33" stroke-width="2"/>
  <path d="m590 441.5v39.45" fill="none" stroke="#3a414a"/>
  <path d="M590.48 441.5h-.96v-.5h.96z" fill="#3a414a" stroke="#3a414a" stroke-width=".05"/>
  <path d="m590 495.7-4.63-14.25h9.26z" fill="#3a414a" stroke="#3a414a"/>
  <path d="m970 441.5v39.45" fill="none" stroke="#3a414a"/>
  <path d="M970.48 441.5h-.96v-.5h.96z" fill="#3a414a" stroke="#3a414a" stroke-width=".05"/>
  <path d="m970 495.7-4.63-14.25h9.26z" fill="#3a414a" stroke="#3a414a"/>
  <path d="M348.9 360.48H194.5v-.96h154.4zm174.72 0h-152.5v-.96h152.5z" fill="#3a414a" stroke="#3a414a" stroke-width=".05"/>
  <path d="m194 367.5-13-7.5 13-7.5z" fill="#3a414a"/>
  <path d="M194.47 368.32L180.05 360l14.4-8.32zM181.94 360l11.56 6.68v-13.36z" fill="#3a414a" stroke="#3a414a" stroke-width=".05"/>
  <path d="m538.38 360-14.26 4.63v-9.26z" fill="#3a414a"/>
  <path d="m539.92 360-16.28 5.3v-10.6zm-15.33 3.98 12.25-3.98-12.26-3.98z" fill="#3a414a" stroke="#3a414a" stroke-width=".05"/>
  <use transform="matrix(1 0 0 1 348.89 344) translate(0 21.333)" xlink:href="#l"/>
  <path d="M540.48 343.62h-.96V236h.96zm0-139.62h-.96V94.5h.96z" fill="#3a414a" stroke="#3a414a" stroke-width=".05"/>
  <path d="m547.5 94h-15l7.5-13z" fill="#3a414a"/>
  <path d="M548.32 94.47h-16.64L540 80.05zm-15-.95h13.36L540 81.94z" fill="#3a414a" stroke="#3a414a" stroke-width=".05"/>
  <path d="m540 358.38-4.63-14.26h9.26z" fill="#3a414a"/>
  <path d="m540 359.92-5.3-16.28h10.6zm-3.98-15.33 3.98 12.25 3.98-12.26z" fill="#3a414a" stroke="#3a414a" stroke-width=".05"/>
  <use transform="matrix(1 0 0 1 528.89 204) translate(0 21.333)" xlink:href="#m"/>
  <path d="m480 446a6 6 0 0 1 6-6h48a6 6 0 0 1 6 6v48a6 6 0 0 1-6 6h-48a6 6 0 0 1-6-6z" fill="#fff" fill-opacity="0" stroke="#000" stroke-opacity="0" stroke-width="2"/>
  <use transform="matrix(1 0 0 1 485 445) translate(4.0432 30.278)" xlink:href="#n"/>
  <use transform="matrix(1 0 0 1 485 445) translate(33.611 30.278)" xlink:href="#o"/>
  <path d="m620 504.33a6 6 0 0 1 6-6h48a6 6 0 0 1 6 6v51.34a6 6 0 0 1-6 6h-48a6 6 0 0 1-6-6z" fill="#fff" stroke="#282c33" stroke-width="2"/>
  <use transform="matrix(1 0 0 1 625 503.33) translate(13.302 21.153)" xlink:href="#g"/>
  <use transform="matrix(1 0 0 1 625 503.33) translate(4.3519 47.819)" xlink:href="#p"/>
  <path d="M40 507.67a6 6 0 0 1 6-6h428a6 6 0 0 1 6 6v48a6 6 0 0 1-6 6H46a6 6 0 0 1-6-6z" fill="#fff" stroke="#282c33" stroke-width="2"/>
  <path d="M40 507.67a6 6 0 0 1 6-6h48a6 6 0 0 1 6 6v48a6 6 0 0 1-6 6H46a6 6 0 0 1-6-6z" fill="#fff" stroke="#282c33" stroke-width="2"/>
  <use transform="matrix(1 0 0 1 45 506.67) translate(4.0432 30.278)" xlink:href="#n"/>
  <use transform="matrix(1 0 0 1 45 506.67) translate(33.611 30.278)" xlink:href="#o"/>
  <path d="m160 507.67a6 6 0 0 1 6-6h48a6 6 0 0 1 6 6v48a6 6 0 0 1-6 6h-48a6 6 0 0 1-6-6z" fill="#fff" stroke="#282c33" stroke-width="2"/>
  <use transform="matrix(1 0 0 1 165 506.67) translate(4.0432 30.278)" xlink:href="#n"/>
  <use transform="matrix(1 0 0 1 165 506.67) translate(33.611 30.278)" xlink:href="#q"/>
  <path d="M275.1 532.14h-53.6v-.95h53.6zm127.52 0H298.57v-.95h104.05z" fill="#3a414a" stroke="#3a414a" stroke-width=".05"/>
  <path d="M221.5 532.14h-.5v-.95h.5z" fill="#3a414a"/>
  <path d="m417.38 531.67-14.26 4.63v-9.27z" fill="#3a414a"/>
  <path d="m418.92 531.67-16.28 5.3v-10.6zm-15.33 3.98 12.25-3.98-12.26-4z" fill="#3a414a" stroke="#3a414a" stroke-width=".05"/>
  <use transform="matrix(1 0 0 1 275.11 518.33) translate(0 17.778)" xlink:href="#j"/>
  <path d="m420 507.67a6 6 0 0 1 6-6h48a6 6 0 0 1 6 6v48a6 6 0 0 1-6 6h-48a6 6 0 0 1-6-6z" fill="#fff" stroke="#282c33" stroke-width="2"/>
  <use transform="matrix(1 0 0 1 425 506.67) translate(4.0432 30.278)" xlink:href="#n"/>
  <use transform="matrix(1 0 0 1 425 506.67) translate(33.611 30.278)" xlink:href="#r"/>
  <path d="m481.5 531.67h61.12" fill="none" stroke="#3a414a"/>
  <path d="M481.5 532.14h-.5v-.95h.5z" fill="#3a414a" stroke="#3a414a" stroke-width=".05"/>
  <path d="m557.38 531.67-14.26 4.63v-9.27z" fill="#3a414a" stroke="#3a414a"/>
  <path d="m1082.7 504.33a6 6 0 0 1 6-6h428a6 6 0 0 1 6 6v48a6 6 0 0 1-6 6h-428a6 6 0 0 1-6-6z" fill="#fff" stroke="#282c33" stroke-width="2"/>
  <path d="M1082.67 502.67a6 6 0 0 1 6-6h48a6 6 0 0 1 6 6V554a6 6 0 0 1-6 6h-48a6 6 0 0 1-6-6z" fill="#fff" stroke="#282c33" stroke-width="2"/>
  <use transform="matrix(1 0 0 1 1087.7 501.67) translate(16.812 20.778)" xlink:href="#s"/>
  <use transform="matrix(1 0 0 1 1087.7 501.67) translate(-2.1574 39.444)" xlink:href="#t"/>
  <path d="M1202.67 502.67a6 6 0 0 1 6-6h48a6 6 0 0 1 6 6V554a6 6 0 0 1-6 6h-48a6 6 0 0 1-6-6z" fill="#fff" stroke="#282c33" stroke-width="2"/>
  <use transform="matrix(1 0 0 1 1207.7 501.67) translate(16.812 20.778)" xlink:href="#s"/>
  <use transform="matrix(1 0 0 1 1207.7 501.67) translate(-2.1574 39.444)" xlink:href="#u"/>
  <path d="M1317.78 528.8h-53.6v-.94h53.6zm127.5 0h-104.04v-.94h104.04z" fill="#3a414a" stroke="#3a414a" stroke-width=".05"/>
  <path d="M1264.18 528.8h-.5v-.94h.5z" fill="#3a414a"/>
  <path d="m1460 528.33-14.27 4.64v-9.27z" fill="#3a414a"/>
  <path d="m1461.6 528.33-16.3 5.3v-10.6zm-15.34 4 12.25-4-12.24-3.98z" fill="#3a414a" stroke="#3a414a" stroke-width=".05"/>
  <use transform="matrix(1 0 0 1 1317.8 515) translate(0 17.778)" xlink:href="#j"/>
  <path d="M1462.67 502.67a6 6 0 0 1 6-6h48a6 6 0 0 1 6 6V554a6 6 0 0 1-6 6h-48a6 6 0 0 1-6-6z" fill="#fff" stroke="#282c33" stroke-width="2"/>
  <use transform="matrix(1 0 0 1 1467.7 501.67) translate(16.812 20.778)" xlink:href="#s"/>
  <use transform="matrix(1 0 0 1 1467.7 501.67) translate(-2.1574 39.444)" xlink:href="#v"/>
  <path d="M1142.67 502.67a6 6 0 0 1 6-6h48a6 6 0 0 1 6 6V554a6 6 0 0 1-6 6h-48a6 6 0 0 1-6-6z" fill="#fff" stroke="#282c33" stroke-width="2"/>
  <use transform="matrix(1 0 0 1 1147.7 501.67) translate(16.812 20.778)" xlink:href="#s"/>
  <use transform="matrix(1 0 0 1 1147.7 501.67) translate(-2.1574 39.444)" xlink:href="#w"/>
  <path d="M1001.5 530l63.78.07" fill="none" stroke="#3a414a"/>
  <path d="M1001.5 529.53v.95h-.5v-.96z" fill="#3a414a" stroke="#3a414a" stroke-width=".05"/>
  <path d="m1080 530.1-14.27 4.6v-9.26z" fill="#3a414a" stroke="#3a414a"/>
  <path d="m100 507.67a6 6 0 0 1 6-6h48a6 6 0 0 1 6 6v48a6 6 0 0 1-6 6h-48a6 6 0 0 1-6-6z" fill="#fff" stroke="#282c33" stroke-width="2"/>
  <use transform="matrix(1 0 0 1 105 506.67) translate(4.0432 30.278)" xlink:href="#n"/>
  <use transform="matrix(1 0 0 1 105 506.67) translate(33.611 30.278)" xlink:href="#x"/>
  <defs>
   <path id="y" d="M108 0H70L1-190h34L89-25l56-165h34" fill="#3a414a"/>
   <path id="z" d="M135-143c-3-34-86-38-87 0 15 53 115 12 119 90S17 21 10-45l28-5c4 36 97 45 98 0-10-56-113-15-118-90-4-57 82-63 122-42 12 7 21 19 24 35" fill="#3a414a"/>
   <path id="A" d="M27 0v-27h64v-190l-56 39v-29l58-41h29v221h61V0H27" fill="#3a414a"/>
   <g id="a">
    <use transform="scale(.061728)" xlink:href="#y"/>
    <use transform="matrix(.061728 0 0 .061728 11.111 0)" xlink:href="#z"/>
    <use transform="matrix(.061728 0 0 .061728 22.222 0)" xlink:href="#A"/>
   </g>
   <path id="B" d="M101-251c82-7 93 87 43 132L82-64C71-53 59-42 53-27h129V0H18c2-99 128-94 128-182 0-28-16-43-45-43s-46 15-49 41l-32-3c6-41 34-60 81-64" fill="#3a414a"/>
   <g id="b">
    <use transform="scale(.061728)" xlink:href="#y"/>
    <use transform="matrix(.061728 0 0 .061728 11.111 0)" xlink:href="#z"/>
    <use transform="matrix(.061728 0 0 .061728 22.222 0)" xlink:href="#B"/>
   </g>
   <path id="C" d="M118-107v75H92v-75H18v-26h74v-75h26v75h74v26h-74" fill="#3a414a"/>
   <g id="c">
    <use transform="scale(.061728)" xlink:href="#y"/>
    <use transform="matrix(.061728 0 0 .061728 11.111 0)" xlink:href="#z"/>
    <use transform="matrix(.061728 0 0 .061728 22.222 0)" xlink:href="#B"/>
    <use transform="matrix(.061728 0 0 .061728 34.568 0)" xlink:href="#C"/>
    <use transform="matrix(.061728 0 0 .061728 47.531 0)" xlink:href="#A"/>
   </g>
   <g id="d">
    <use transform="scale(.061728)" xlink:href="#y"/>
    <use transform="matrix(.061728 0 0 .061728 11.111 0)" xlink:href="#z"/>
    <use transform="matrix(.061728 0 0 .061728 22.222 0)" xlink:href="#B"/>
    <use transform="matrix(.061728 0 0 .061728 34.568 0)" xlink:href="#C"/>
    <use transform="matrix(.061728 0 0 .061728 47.531 0)" xlink:href="#B"/>
   </g>
   <path id="D" d="M64 0c3-98 48-159 88-221H18v-27h164v26C143-157 98-101 97 0H64" fill="#3a414a"/>
   <g id="e">
    <use transform="scale(.061728)" xlink:href="#y"/>
    <use transform="matrix(.061728 0 0 .061728 11.111 0)" xlink:href="#z"/>
    <use transform="matrix(.061728 0 0 .061728 22.222 0)" xlink:href="#B"/>
    <use transform="matrix(.061728 0 0 .061728 34.568 0)" xlink:href="#C"/>
    <use transform="matrix(.061728 0 0 .061728 47.531 0)" xlink:href="#D"/>
   </g>
   <path id="E" d="M138-131c27 9 52 24 51 61 0 53-36 74-89 74S11-19 11-69c0-35 22-54 51-61-78-25-46-121 38-121 51 0 83 19 83 66 0 30-18 49-45 54zm-38-16c24 0 32-13 32-36 1-23-11-34-32-34-22 0-33 12-32 34 0 22 9 36 32 36zm1 116c27 0 37-17 37-43 0-25-13-39-39-39-24 0-37 15-37 40 0 27 11 42 39 42" fill="#333"/>
   <use id="f" transform="scale(.074074)" xlink:href="#E"/>
   <path id="F" d="M100-194c63 0 86 42 84 106H49c0 40 14 67 53 68 26 1 43-12 49-29l28 8c-11 28-37 45-77 45C44 4 14-33 15-96c1-61 26-98 85-98zm52 81c6-60-76-77-97-28-3 7-6 17-6 28h103" fill="#3a414a"/>
   <path id="G" d="M24 0v-261h32V0H24" fill="#3a414a"/>
   <path id="H" d="M59-47c-2 24 18 29 38 22v24C64 9 27 4 27-40v-127H5v-23h24l9-43h21v43h35v23H59v120" fill="#3a414a"/>
   <g id="g">
    <use transform="scale(.061728)" xlink:href="#F"/>
    <use transform="matrix(.061728 0 0 .061728 12.346 0)" xlink:href="#G"/>
    <use transform="matrix(.061728 0 0 .061728 17.222 0)" xlink:href="#H"/>
   </g>
   <path id="I" d="m96-169c-40 0-48 33-48 73s9 75 48 75c24 0 41-14 43-38l32 2c-6 37-31 61-74 61-59 0-76-41-82-99-10-93 101-131 147-64 4 7 5 14 7 22l-32 3c-4-21-16-35-41-35" fill="#3a414a"/>
   <path id="J" d="M24-231v-30h32v30H24zM24 0v-190h32V0H24" fill="#3a414a"/>
   <path id="K" d="M101-251c68 0 85 55 85 127S166 4 100 4C33 4 14-52 14-124c0-73 17-127 87-127zm-1 229c47 0 54-49 54-102s-4-102-53-102c-51 0-55 48-55 102 0 53 5 102 54 102" fill="#3a414a"/>
   <g id="h">
    <use transform="scale(.061728)" xlink:href="#I"/>
    <use transform="matrix(.061728 0 0 .061728 11.111 0)" xlink:href="#J"/>
    <use transform="matrix(.061728 0 0 .061728 15.988 0)" xlink:href="#C"/>
    <use transform="matrix(.061728 0 0 .061728 28.951 0)" xlink:href="#K"/>
   </g>
   <g id="i">
    <use transform="scale(.061728)" xlink:href="#I"/>
    <use transform="matrix(.061728 0 0 .061728 11.111 0)" xlink:href="#J"/>
    <use transform="matrix(.061728 0 0 .061728 15.988 0)" xlink:href="#C"/>
    <use transform="matrix(.061728 0 0 .061728 28.951 0)" xlink:href="#B"/>
   </g>
   <path id="L" d="M85-194c31 0 48 13 60 33l-1-100h32l1 261h-30c-2-10 0-23-3-31C134-8 116 4 85 4 32 4 16-35 15-94c0-66 23-100 70-100zm9 24c-40 0-46 34-46 75 0 40 6 74 45 74 42 0 51-32 51-76 0-42-9-74-50-73" fill="#3a414a"/>
   <g id="j">
    <use transform="scale(.061728)" xlink:href="#y"/>
    <use transform="matrix(.061728 0 0 .061728 11.111 0)" xlink:href="#L"/>
   </g>
   <g id="k">
    <use transform="scale(.061728)" xlink:href="#I"/>
    <use transform="matrix(.061728 0 0 .061728 11.111 0)" xlink:href="#J"/>
    <use transform="matrix(.061728 0 0 .061728 15.988 0)" xlink:href="#C"/>
    <use transform="matrix(.061728 0 0 .061728 28.951 0)" xlink:href="#D"/>
   </g>
   <path id="M" d="M128 0H69L1-190h53L99-40l48-150h52" fill="#333"/>
   <path id="N" d="M25 0v-261h50V0H25" fill="#333"/>
   <g id="l">
    <use transform="scale(.074074)" xlink:href="#M"/>
    <use transform="matrix(.074074 0 0 .074074 14.815 0)" xlink:href="#N"/>
   </g>
   <g id="m">
    <use transform="scale(.074074)" xlink:href="#M"/>
    <use transform="matrix(.074074 0 0 .074074 14.815 0)" xlink:href="#N"/>
   </g>
   <g id="n">
    <use transform="scale(.061728)" xlink:href="#F"/>
    <use transform="matrix(.061728 0 0 .061728 12.346 0)" xlink:href="#G"/>
    <use transform="matrix(.061728 0 0 .061728 17.222 0)" xlink:href="#H"/>
   </g>
   <use id="o" transform="scale(.061728)" xlink:href="#K"/>
   <g id="p">
    <use transform="scale(.061728)" xlink:href="#I"/>
    <use transform="matrix(.061728 0 0 .061728 11.111 0)" xlink:href="#J"/>
    <use transform="matrix(.061728 0 0 .061728 15.988 0)" xlink:href="#C"/>
    <use transform="matrix(.061728 0 0 .061728 28.951 0)" xlink:href="#A"/>
   </g>
   <use id="q" transform="scale(.061728)" xlink:href="#B"/>
   <use id="r" transform="scale(.061728)" xlink:href="#D"/>
   <g id="s">
    <use transform="scale(.04321)" xlink:href="#F"/>
    <use transform="matrix(.04321 0 0 .04321 8.642 0)" xlink:href="#G"/>
    <use transform="matrix(.04321 0 0 .04321 12.056 0)" xlink:href="#H"/>
   </g>
   <path id="O" d="M210-169c-67 3-38 105-44 169h-31v-121c0-29-5-50-35-48C34-165 62-65 56 0H25l-1-190h30c1 10-1 24 2 32 10-44 99-50 107 0 11-21 27-35 58-36 85-2 47 119 55 194h-31v-121c0-29-5-49-35-48" fill="#3a414a"/>
   <path id="P" d="M141-36C126-15 110 5 73 4 37 3 15-17 15-53c-1-64 63-63 125-63 3-35-9-54-41-54-24 1-41 7-42 31l-33-3c5-37 33-52 76-52 45 0 72 20 72 64v82c-1 20 7 32 28 27v20c-31 9-61-2-59-35zM48-53c0 20 12 33 32 33 41-3 63-29 60-74-43 2-92-5-92 41" fill="#3a414a"/>
   <path id="Q" d="M141 0L90-78 38 0H4l68-98-65-92h35l48 74 47-74h35l-64 92 68 98h-35" fill="#3a414a"/>
   <path id="R" d="M16-82v-28h88v28H16" fill="#3a414a"/>
   <path id="S" d="M134-131c28 9 52 24 51 62-1 50-34 73-85 73S17-19 16-69c0-36 21-54 49-61-75-25-45-126 34-121 46 3 78 18 79 63 0 33-17 51-44 57zm-34-11c31 1 46-15 46-44 0-28-17-43-47-42-29 0-46 13-45 42 1 28 16 44 46 44zm1 122c35 0 51-18 51-52 0-30-18-46-53-46-33 0-51 17-51 47 0 34 19 51 53 51" fill="#3a414a"/>
   <g id="t">
    <use transform="scale(.04321)" xlink:href="#y"/>
    <use transform="matrix(.04321 0 0 .04321 7.7778 0)" xlink:href="#G"/>
    <use transform="matrix(.04321 0 0 .04321 11.191 0)" xlink:href="#O"/>
    <use transform="matrix(.04321 0 0 .04321 24.111 0)" xlink:href="#P"/>
    <use transform="matrix(.04321 0 0 .04321 32.753 0)" xlink:href="#Q"/>
    <use transform="matrix(.04321 0 0 .04321 40.531 0)" xlink:href="#R"/>
    <use transform="matrix(.04321 0 0 .04321 45.673 0)" xlink:href="#S"/>
   </g>
   <path id="T" d="m110-160c48 1 74 30 74 79 0 53-28 85-80 85-65 0-83-55-86-122-5-90 50-162 133-122 14 7 22 21 27 39l-31 6c-5-40-67-38-82-6-9 19-15 44-15 74 11-20 30-34 60-33zm-7 138c34 0 49-23 49-58s-16-56-50-56c-29 0-50 16-49 49 1 36 15 65 50 65" fill="#3a414a"/>
   <g id="u">
    <use transform="scale(.04321)" xlink:href="#y"/>
    <use transform="matrix(.04321 0 0 .04321 7.7778 0)" xlink:href="#G"/>
    <use transform="matrix(.04321 0 0 .04321 11.191 0)" xlink:href="#O"/>
    <use transform="matrix(.04321 0 0 .04321 24.111 0)" xlink:href="#P"/>
    <use transform="matrix(.04321 0 0 .04321 32.753 0)" xlink:href="#Q"/>
    <use transform="matrix(.04321 0 0 .04321 40.531 0)" xlink:href="#R"/>
    <use transform="matrix(.04321 0 0 .04321 45.673 0)" xlink:href="#T"/>
   </g>
   <g id="v">
    <use transform="scale(.04321)" xlink:href="#y"/>
    <use transform="matrix(.04321 0 0 .04321 7.7778 0)" xlink:href="#G"/>
    <use transform="matrix(.04321 0 0 .04321 11.191 0)" xlink:href="#O"/>
    <use transform="matrix(.04321 0 0 .04321 24.111 0)" xlink:href="#P"/>
    <use transform="matrix(.04321 0 0 .04321 32.753 0)" xlink:href="#Q"/>
    <use transform="matrix(.04321 0 0 .04321 40.531 0)" xlink:href="#R"/>
    <use transform="matrix(.04321 0 0 .04321 45.673 0)" xlink:href="#A"/>
   </g>
   <g id="w">
    <use transform="scale(.04321)" xlink:href="#y"/>
    <use transform="matrix(.04321 0 0 .04321 7.7778 0)" xlink:href="#G"/>
    <use transform="matrix(.04321 0 0 .04321 11.191 0)" xlink:href="#O"/>
    <use transform="matrix(.04321 0 0 .04321 24.111 0)" xlink:href="#P"/>
    <use transform="matrix(.04321 0 0 .04321 32.753 0)" xlink:href="#Q"/>
    <use transform="matrix(.04321 0 0 .04321 40.531 0)" xlink:href="#R"/>
    <use transform="matrix(.04321 0 0 .04321 45.673 0)" xlink:href="#D"/>
   </g>
   <use id="x" transform="scale(.061728)" xlink:href="#A"/>
  </defs>
 </g>
</svg>
