<?xml version="1.0" encoding="utf-8"?>
<!-- Generator: Adobe Illustrator 26.4.0, SVG Export Plug-In . SVG Version: 6.00 Build 0)  -->
<svg version="1.1" id="Layer_1" xmlns="http://www.w3.org/2000/svg" xmlns:xlink="http://www.w3.org/1999/xlink" x="0px" y="0px"
	 viewBox="0 0 1000 175.4" style="enable-background:new 0 0 1000 175.4;" xml:space="preserve">
<style type="text/css">
	.st0{fill:#E6AC2C;}
	.st1{fill:#2C356D;}
</style>
<g>
	<g>
		<path class="st0" d="M91.6,58.2c0,22.9-13.9,43.7-40.9,48.6l38.1,45.1l3.4-4.8L161,49.9V9H49.3C77.7,11.7,91.6,35.3,91.6,58.2z"/>
		<path class="st1" d="M13.2,85.9h26.4C59,85.9,68.7,72,68.7,58.2c0-13.9-9.7-27.1-29.1-27.1H3.5v135.3h67.3L13.2,97.1V85.9z
			 M111,159.5l50.6-70.8v77.7H106L111,159.5z"/>
		<rect x="392.7" y="35.3" class="st1" width="22.9" height="107.5"/>
		<path class="st1" d="M552,119.3l-119.1-0.1v23.6h120c9,0,16.7-3.5,22.9-9.7s9.7-13.9,9.7-22.9s-3.5-16.6-9.7-22.9
			c-6.2-6.2-13.9-9.7-22.9-9.7L465.6,77c-5.1,0-9.3-4.2-9.4-9.3l0,0l0,0c0-5.2,4.2-9.3,9.4-9.3l119.9-0.1v-23h-120
			c-9,0-16.7,3.5-22.9,9.7c-6.2,6.2-9.7,13.9-9.7,22.9s3.5,16.6,9.7,22.9c6.2,6.2,13.9,9,22.9,9h87.2c5.2,0,9.4,4.2,9.3,9.4l0,0l0,0
			C562.1,114.8,557.6,119.3,552,119.3z"/>
		<path class="st1" d="M650,35.3h99.2v22.9H650c-8.3,0-15.2,2.7-21.5,9c-6.2,6.2-9,13.2-9,21.5s2.8,15.2,9,21.5
			c6.3,6.2,13.2,9,21.5,9h99.2v23.6H650c-14.6,0-27.1-5.6-37.5-16s-15.2-22.9-15.2-37.5s4.8-27.1,15.2-37.5
			C623,40.9,635.4,35.3,650,35.3z"/>
		<path class="st1" d="M342,78.5l-95.7-0.2V58.9l96.7-0.2c5.2,0,9.5,4.2,9.5,9.4l0,0l0,0C352.4,73.9,347.8,78.5,342,78.5z
			 M376,142.8l-30.5-42.3c8.3-0.7,15.2-3.5,20.8-9.7c6.2-6.3,9.7-13.9,9.7-22.9s-3.5-16.7-9.7-22.9s-13.9-9.7-22.9-9.7h-120v107.5
			h22.9v-42.3h70.8l30.5,42.3H376z"/>
		<polyline class="st0" points="863.7,142.8 800.8,35.3 827.7,35.3 876.8,120.6 926,35.3 952.5,35.3 890,142.8 		"/>
		<rect x="763.1" y="79" class="st0" width="45.1" height="20.8"/>
	</g>
	<g>
		<path class="st1" d="M996.5,52.5c0,9.4-7.3,16.7-16.9,16.7c-9.5,0-17-7.3-17-16.7c0-9.2,7.5-16.5,17-16.5
			C989.1,36,996.5,43.3,996.5,52.5z M966.8,52.5c0,7.3,5.4,13.2,12.9,13.2c7.2,0,12.6-5.8,12.6-13.1s-5.3-13.3-12.7-13.3
			S966.8,45.2,966.8,52.5z M977,61.1h-3.8V44.6c1.5-0.3,3.6-0.5,6.3-0.5c3.1,0,4.5,0.5,5.7,1.2c0.9,0.7,1.6,2,1.6,3.6
			c0,1.8-1.4,3.2-3.4,3.8V53c1.6,0.6,2.5,1.8,3,4c0.5,2.5,0.8,3.5,1.2,4.1h-4.1c-0.5-0.6-0.8-2.1-1.3-4c-0.3-1.8-1.3-2.6-3.4-2.6
			H977V61.1L977,61.1z M977,51.8h1.8c2.1,0,3.8-0.7,3.8-2.4c0-1.5-1.1-2.5-3.5-2.5c-1,0-1.7,0.1-2.1,0.2V51.8z"/>
	</g>
</g>
</svg>
