<svg xmlns="http://www.w3.org/2000/svg" xmlns:xlink="http://www.w3.org/1999/xlink" xmlns:lucid="lucid" width="1556" height="743.33"><g transform="translate(161 -719.3333333333334)" lucid:page-tab-id="_26rgEPhPjs8"><path d="M-500 500h2000v1000H-500z" fill="#fff"/><path d="M793 1167.77a6 6 0 0 1 6-6h28a6 6 0 0 1 6 6v28a6 6 0 0 1-6 6h-28a6 6 0 0 1-6-6z" fill="#fff"/><path d="M796.28 1162.42l.87-.36.9-.22.95-.07h2.8m3.73 0h5.6m3.74 0h5.6m3.73 0h2.8l.94.07.9.22.88.36m2.63 2.62l.36.87.23.93.07.94v2.8m0 3.73v5.6m0 3.73v5.6m0 3.73v2.8l-.07.94-.22.92-.35.87m-2.63 2.6l-.87.37-.9.22-.95.07h-2.8m-3.73 0h-5.6m-3.74 0h-5.6m-3.73 0H799l-.94-.08-.9-.23-.88-.36m-2.63-2.6l-.36-.88-.23-.92-.07-.93v-2.8m0-3.74v-5.6m0-3.73v-5.6m0-3.73v-2.8l.07-.94.22-.92.35-.86" stroke="#282c33" stroke-width="2" fill="none"/><path d="M833 1076.83a6 6 0 0 1 6-6h109a6 6 0 0 1 6 6v28a6 6 0 0 1-6 6H839a6 6 0 0 1-6-6z" stroke="#000" stroke-opacity="0" stroke-width="2" fill="#ffdda6"/><path d="M213 891.4a6 6 0 0 1 6-6h314a6 6 0 0 1 6 6v28a6 6 0 0 1-6 6H219a6 6 0 0 1-6-6z" fill="#fff"/><path d="M216.28 886.04l.87-.36.9-.22.95-.07h3.04m4.05 0h6.07m4.05 0h6.08m4.05 0h6.08m4.05 0h6.07m4.06 0h6.08m4.06 0h6.07m4.06 0h6.08m4.05 0h6.07m4.05 0h6.08m4.05 0h6.08m4.05 0h6.08m4.05 0h6.1m4.04 0h6.08m4.05 0h6.08m4.05 0h6.07m4.06 0h6.07m4.05 0h6.08m4.05 0h6.08m4.05 0h6.1m4.04 0h6.08m4.05 0h6.08m4.05 0h6.08m4.05 0H455m4.06 0h6.07m4.06 0h6.06m4.06 0h6.07m4.05 0h6.07m4.05 0h6.08m4.05 0h6.08m4.05 0h6.08m4.06 0H533l.94.06.9.22.88.36m2.63 2.62l.36.87.23.92.07.94v2.8m0 3.72v5.6m0 3.73v5.6m0 3.74v2.8l-.07.93-.22.9-.35.88m-2.63 2.63l-.87.36-.9.2-.95.1h-3.04m-4.05 0h-6.07m-4.05 0h-6.08m-4.05 0h-6.08m-4.05 0h-6.07m-4.06 0h-6.08m-4.06 0h-6.07m-4.06 0h-6.08m-4.05 0h-6.07m-4.05 0h-6.08m-4.05 0h-6.08m-4.05 0h-6.08m-4.05 0h-6.1m-4.04 0h-6.08m-4.05 0h-6.08m-4.05 0h-6.07m-4.06 0h-6.07m-4.05 0h-6.08m-4.05 0h-6.08m-4.05 0h-6.1m-4.04 0h-6.08m-4.05 0h-6.08m-4.05 0h-6.08m-4.05 0H297m-4.06 0h-6.07m-4.06 0h-6.06m-4.06 0h-6.07m-4.05 0h-6.07m-4.05 0h-6.08m-4.05 0h-6.08m-4.05 0h-6.08m-4.06 0H219l-.94-.1-.9-.2-.88-.37m-2.63-2.62l-.36-.86-.23-.9-.07-.95v-2.8m0-3.75v-5.6m0-3.73v-5.6m0-3.73v-2.8l.07-.95.22-.92.35-.87" stroke="#282c33" stroke-width="2" fill="none"/><path d="M375.24 851.45H187.1v-2.96h188.14zm153.65 0H406.27v-2.96h122.6z" stroke="#3a414a" stroke-width=".05" fill="#3a414a"/><path d="M191.86 857.6l-12.9-7.63 12.9-7.64z" fill="#3a414a"/><path d="M193.33 860.2l-17.28-10.23 17.28-10.22zm-11.5-10.23l8.55 5.05v-10.1z" stroke="#3a414a" stroke-width=".05" fill="#3a414a"/><path d="M537.05 849.97l-12.9 7.64v-15.27z" fill="#3a414a"/><path d="M539.95 849.97l-17.28 10.22v-20.45zm-14.33 5.05l8.53-5.05-8.53-5.05z" stroke="#3a414a" stroke-width=".05" fill="#3a414a"/><use xlink:href="#a" transform="matrix(1,0,0,1,375.24048148148154,833.9701209324879) translate(0.005000000000000782 21.333333333333332)"/><path d="M-140 873.03a6 6 0 0 1 6-6H94a6 6 0 0 1 6 6v72.67a6 6 0 0 1-6 6h-228a6 6 0 0 1-6-6z" stroke="#000" stroke-opacity="0" stroke-width="2" fill="#fff" fill-opacity="0"/><use xlink:href="#b" transform="matrix(1,0,0,1,-135,872.0298790675122) translate(55.604938271604965 43.638888888888886)"/><use xlink:href="#c" transform="matrix(1,0,0,1,-135,872.0298790675122) translate(122.92592592592592 43.638888888888886)"/><path d="M174 891.4a6 6 0 0 1 6-6h28a6 6 0 0 1 6 6v28a6 6 0 0 1-6 6h-28a6 6 0 0 1-6-6z" fill="#fff"/><path d="M177.28 886.04l.87-.36.9-.22.95-.07h2.8m3.73 0h5.6m3.74 0h5.6m3.73 0h2.8l.94.06.9.22.88.36m2.63 2.62l.36.87.23.92.07.94v2.8m0 3.72v5.6m0 3.73v5.6m0 3.74v2.8l-.07.93-.22.9-.35.88m-2.63 2.63l-.87.36-.9.2-.95.1h-2.8m-3.73 0h-5.6m-3.74 0h-5.6m-3.73 0H180l-.94-.1-.9-.2-.88-.37m-2.63-2.62l-.36-.86-.23-.9-.07-.95v-2.8m0-3.75v-5.6m0-3.73v-5.6m0-3.73v-2.8l.07-.95.22-.92.35-.87" stroke="#282c33" stroke-width="2" fill="none"/><path d="M374 975.97a6 6 0 0 1 6-6h188a6 6 0 0 1 6 6v28a6 6 0 0 1-6 6H380a6 6 0 0 1-6-6zM574 975.97a6 6 0 0 1 6-6h188a6 6 0 0 1 6 6v28a6 6 0 0 1-6 6H580a6 6 0 0 1-6-6z" stroke="#282c33" stroke-width="2" fill="#fff"/><path d="M374 975.97a6 6 0 0 1 6-6h28a6 6 0 0 1 6 6v28a6 6 0 0 1-6 6h-28a6 6 0 0 1-6-6zM414 975.97a6 6 0 0 1 6-6h28a6 6 0 0 1 6 6v28a6 6 0 0 1-6 6h-28a6 6 0 0 1-6-6z" stroke="#282c33" stroke-width="2" fill="#fff"/><path d="M463.76 1009.9c0 5.52-4.48 10-10 10s-10-4.48-10-10 4.48-10 10-10 10 4.48 10 10z" stroke="#282c33" stroke-width="2"/><path d="M250.16 991.45H176.5v-2.96h73.66zm102.22 0h-18.52v-2.96h18.52z" stroke="#3a414a" stroke-width=".05" fill="#3a414a"/><path d="M176.54 991.45H175v-2.96h1.54z" stroke="#3a414a" stroke-width=".05" fill="#3a414a"/><path d="M368.15 989.97l-14.27 4.63v-9.26z" fill="#3a414a"/><path d="M372.92 989.97l-20.52 6.67V983.3zm-17.56 2.6l8-2.6-8-2.6z" stroke="#3a414a" stroke-width=".05" fill="#3a414a"/><use xlink:href="#d" transform="matrix(1,0,0,1,250.15717307049374,979.3034542658213) translate(0 14.222222222222223)"/><use xlink:href="#e" transform="matrix(1,0,0,1,250.15717307049374,979.3034542658213) translate(46.320987654320994 14.222222222222223)"/><path d="M554 1076.83a6 6 0 0 1 6-6h188a6 6 0 0 1 6 6v28a6 6 0 0 1-6 6H560a6 6 0 0 1-6-6zM754 1076.83a6 6 0 0 1 6-6h188a6 6 0 0 1 6 6v28a6 6 0 0 1-6 6H760a6 6 0 0 1-6-6z" stroke="#282c33" stroke-width="2" fill="#fff"/><path d="M554 1076.83a6 6 0 0 1 6-6h28a6 6 0 0 1 6 6v28a6 6 0 0 1-6 6h-28a6 6 0 0 1-6-6zM594 1076.83a6 6 0 0 1 6-6h28a6 6 0 0 1 6 6v28a6 6 0 0 1-6 6h-28a6 6 0 0 1-6-6z" stroke="#282c33" stroke-width="2" fill="#fff"/><path d="M643.76 1110.77c0 5.52-4.48 10-10 10s-10-4.48-10-10c0-5.53 4.48-10 10-10s10 4.47 10 10z" stroke="#282c33" stroke-width="2"/><path d="M332.9 1092.3H176.5v-2.94h156.4zm159.48 0H416.6v-2.94h75.78z" stroke="#3a414a" stroke-width=".05" fill="#3a414a"/><path d="M176.54 1092.3H175v-2.94h1.54z" stroke="#3a414a" stroke-width=".05" fill="#3a414a"/><path d="M508.15 1090.83l-14.27 4.64v-9.27z" fill="#3a414a"/><path d="M512.92 1090.83l-20.5 6.67-.02-13.33zm-17.56 2.6l8-2.6-8-2.6z" stroke="#3a414a" stroke-width=".05" fill="#3a414a"/><use xlink:href="#d" transform="matrix(1,0,0,1,332.89082062485625,1080.1666666666667) translate(0 14.222222222222223)"/><use xlink:href="#e" transform="matrix(1,0,0,1,332.89082062485625,1080.1666666666667) translate(46.320987654320994 14.222222222222223)"/><path d="M216 1256.83a6 6 0 0 1 6-6h468a6 6 0 0 1 6 6v28a6 6 0 0 1-6 6H222a6 6 0 0 1-6-6z" stroke="#282c33" stroke-width="2" fill="#fff"/><path d="M447.9 1312.3H231.1v-2.94h216.8zm233 0H464.1v-2.94h216.8z" stroke="#3a414a" stroke-width=".05" fill="#3a414a"/><path d="M235.86 1318.47l-12.9-7.64 12.9-7.63z" fill="#3a414a"/><path d="M237.33 1321.06l-17.28-10.23 17.28-10.22zm-11.5-10.23l8.55 5.05v-10.1z" stroke="#3a414a" stroke-width=".05" fill="#3a414a"/><path d="M689.05 1310.83l-12.9 7.64v-15.27z" fill="#3a414a"/><path d="M691.95 1310.83l-17.28 10.23v-20.45zm-14.33 5.05l8.54-5.05-8.54-5.05z" stroke="#3a414a" stroke-width=".05" fill="#3a414a"/><use xlink:href="#f" transform="matrix(1,0,0,1,447.888888888889,1294.8333333333335) translate(0.005000000000000782 21.333333333333332)"/><path d="M54 1256.83a6 6 0 0 1 6-6h108a6 6 0 0 1 6 6v28a6 6 0 0 1-6 6H60a6 6 0 0 1-6-6z" stroke="#282c33" stroke-width="2" fill="#fff"/><path d="M105.9 1312.3H65.1v-2.94h40.8zm57 0h-40.8v-2.94h40.8z" stroke="#3a414a" stroke-width=".05" fill="#3a414a"/><path d="M69.86 1318.47l-12.9-7.64 12.9-7.63z" fill="#3a414a"/><path d="M71.33 1321.06l-17.28-10.23 17.28-10.22zm-11.5-10.23l8.55 5.05v-10.1z" stroke="#3a414a" stroke-width=".05" fill="#3a414a"/><path d="M171.05 1310.83l-12.9 7.64v-15.27z" fill="#3a414a"/><path d="M173.95 1310.83l-17.28 10.23v-20.45zm-14.33 5.05l8.54-5.05-8.54-5.05z" stroke="#3a414a" stroke-width=".05" fill="#3a414a"/><use xlink:href="#g" transform="matrix(1,0,0,1,105.88888888888883,1294.8333333333335) translate(0.005000000000000782 21.333333333333332)"/><path d="M834 821.76V1369" stroke="#282c33" stroke-width="2" stroke-linecap="round" fill="none"/><path d="M694 1256.83a6 6 0 0 1 6-6h127a6 6 0 0 1 6 6v28a6 6 0 0 1-6 6H700a6 6 0 0 1-6-6z" stroke="#282c33" stroke-width="2" fill="#fff"/><path d="M755.9 1312.3h-50.8v-2.94h50.8zm67 0h-50.8v-2.94h50.8z" stroke="#3a414a" stroke-width=".05" fill="#3a414a"/><path d="M709.86 1318.47l-12.9-7.64 12.9-7.63z" fill="#3a414a"/><path d="M711.33 1321.06l-17.28-10.23 17.28-10.22zm-11.5-10.23l8.55 5.05v-10.1z" stroke="#3a414a" stroke-width=".05" fill="#3a414a"/><path d="M831.05 1310.83l-12.9 7.64v-15.27z" fill="#3a414a"/><path d="M833.95 1310.83l-17.28 10.23v-20.45zm-14.33 5.05l8.54-5.05-8.54-5.05z" stroke="#3a414a" stroke-width=".05" fill="#3a414a"/><use xlink:href="#h" transform="matrix(1,0,0,1,755.888888888889,1294.8333333333335) translate(0.005000000000000782 21.333333333333332)"/><path d="M835 1076.83a6 6 0 0 1 6-6h107a6 6 0 0 1 6 6v28a6 6 0 0 1-6 6H841a6 6 0 0 1-6-6z" stroke="#282c33" stroke-width="2" fill="#ffdda6"/><path d="M894.5 1068.33v-32.5a6 6 0 0 0-6-6h-71.54a6 6 0 0 0-6 6v13.38" stroke="#3a414a" stroke-width="3" fill="none"/><path d="M895.98 1069.83H893v-1.53H896z" stroke="#3a414a" stroke-width=".05" fill="#3a414a"/><path d="M810.96 1064.98l-4.64-14.27h9.27z" stroke="#3a414a" stroke-width="3" fill="#3a414a"/><use xlink:href="#i" transform="matrix(1,0,0,1,853.914646518154,1005.5376436333668) translate(0 14.222222222222223)"/><use xlink:href="#j" transform="matrix(1,0,0,1,853.914646518154,1005.5376436333668) translate(35.55555555555556 14.222222222222223)"/><use xlink:href="#k" transform="matrix(1,0,0,1,853.914646518154,1005.5376436333668) translate(64.09876543209876 14.222222222222223)"/><path d="M1253 1167.77a6 6 0 0 1 6-6h109a6 6 0 0 1 6 6v28a6 6 0 0 1-6 6h-109a6 6 0 0 1-6-6z" stroke="#000" stroke-opacity="0" stroke-width="2" fill="#ffdda6"/><path d="M974 1167.77a6 6 0 0 1 6-6h188a6 6 0 0 1 6 6v28a6 6 0 0 1-6 6H980a6 6 0 0 1-6-6z" stroke="#282c33" stroke-width="2" fill="#ffdda6"/><path d="M1174 1167.77a6 6 0 0 1 6-6h188a6 6 0 0 1 6 6v28a6 6 0 0 1-6 6h-188a6 6 0 0 1-6-6z" stroke="#282c33" stroke-width="2" fill="#fff"/><path d="M974 1167.77a6 6 0 0 1 6-6h28a6 6 0 0 1 6 6v28a6 6 0 0 1-6 6h-28a6 6 0 0 1-6-6zM1014 1167.77a6 6 0 0 1 6-6h28a6 6 0 0 1 6 6v28a6 6 0 0 1-6 6h-28a6 6 0 0 1-6-6z" stroke="#282c33" stroke-width="2" fill="#ffdda6"/><path d="M604.73 1183.24H176.5v-2.95h428.23zm347.65 0H688.43v-2.95h263.95z" stroke="#3a414a" stroke-width=".05" fill="#3a414a"/><path d="M176.54 1183.24H175v-2.95h1.54z" stroke="#3a414a" stroke-width=".05" fill="#3a414a"/><path d="M968.15 1181.77l-14.27 4.63v-9.27z" fill="#3a414a"/><path d="M972.92 1181.77l-20.5 6.66v-13.33zm-17.56 2.6l8-2.6-8-2.6z" stroke="#3a414a" stroke-width=".05" fill="#3a414a"/><use xlink:href="#d" transform="matrix(1,0,0,1,604.7299483034761,1171.0982478670896) translate(0 14.222222222222223)"/><use xlink:href="#e" transform="matrix(1,0,0,1,604.7299483034761,1171.0982478670896) translate(46.320987654320994 14.222222222222223)"/><path d="M1174 1167.77a6 6 0 0 1 6-6h188a6 6 0 0 1 6 6v28a6 6 0 0 1-6 6h-188a6 6 0 0 1-6-6z" stroke="#282c33" stroke-width="2" fill="#ffdda6"/><path d="M1176.54 1160.2v-33.43a6 6 0 0 0-6-6H819a6 6 0 0 0-6 6v13.38" stroke="#3a414a" stroke-width="3" fill="none"/><path d="M1178.02 1161.06l-.18.05-1.02.43-.94.57-.8.7v-2.64h2.94z" stroke="#3a414a" stroke-width=".05" fill="#3a414a"/><path d="M813 1155.9l-4.63-14.26h9.26z" stroke="#3a414a" stroke-width="3" fill="#3a414a"/><use xlink:href="#i" transform="matrix(1,0,0,1,1047.2200219440629,1095.4316312004164) translate(0 14.222222222222223)"/><use xlink:href="#j" transform="matrix(1,0,0,1,1047.2200219440629,1095.4316312004164) translate(35.55555555555556 14.222222222222223)"/><use xlink:href="#k" transform="matrix(1,0,0,1,1047.2200219440629,1095.4316312004164) translate(64.09876543209876 14.222222222222223)"/><path d="M1054 1167.77a6 6 0 0 1 6-6h108a6 6 0 0 1 6 6v28a6 6 0 0 1-6 6h-108a6 6 0 0 1-6-6z" stroke="#282c33" stroke-width="2" fill="#ffdda6"/><path d="M1063.76 1201.7c0 5.52-4.48 10-10 10s-10-4.48-10-10c0-5.53 4.48-10 10-10s10 4.47 10 10z" stroke="#282c33" stroke-width="2"/><path d="M-120 996.83a6 6 0 0 1 6-6h228a6 6 0 0 1 6 6v208.87a6 6 0 0 1-6 6h-228a6 6 0 0 1-6-6z" fill="none"/><path d="M120 1211.7c-5.52 0-10-4.48-10-10v-90.43c0-5.53-4.48-10-10-10 5.52 0 10-4.48 10-10v-90.44c0-5.52 4.48-10 10-10" stroke="#282c33" stroke-width="2" fill="none"/><use xlink:href="#l" transform="matrix(1,0,0,1,-115,995.8333333333334) translate(122.30864197530866 93.05555555555556)"/><use xlink:href="#m" transform="matrix(1,0,0,1,-115,995.8333333333334) translate(56.80246913580248 130.38888888888889)"/><path d="M693 1231.83v118M175 806.73v553.1" stroke="#282c33" stroke-width="2" stroke-linecap="round" fill="none"/><path d="M214 891.4a6 6 0 0 1 6-6h28a6 6 0 0 1 6 6v28a6 6 0 0 1-6 6h-28a6 6 0 0 1-6-6z" fill="#fff"/><path d="M217.28 886.04l.87-.36.9-.22.95-.07h2.8m3.73 0h5.6m3.74 0h5.6m3.73 0h2.8l.94.06.9.22.88.36m2.63 2.62l.36.87.23.92.07.94v2.8m0 3.72v5.6m0 3.73v5.6m0 3.74v2.8l-.07.93-.22.9-.35.88m-2.63 2.63l-.87.36-.9.2-.95.1h-2.8m-3.73 0h-5.6m-3.74 0h-5.6m-3.73 0H220l-.94-.1-.9-.2-.88-.37m-2.63-2.62l-.36-.86-.23-.9-.07-.95v-2.8m0-3.75v-5.6m0-3.73v-5.6m0-3.73v-2.8l.07-.95.22-.92.35-.87" stroke="#282c33" stroke-width="2" fill="none"/><path d="M259 924.55c0 5.53-4.48 10-10 10s-10-4.47-10-10c0-5.52 4.48-10 10-10s10 4.48 10 10z" stroke="#282c33" stroke-width="2"/><path d="M793 1076.83a6 6 0 0 1 6-6h28a6 6 0 0 1 6 6v28a6 6 0 0 1-6 6h-28a6 6 0 0 1-6-6z" fill="#fff"/><path d="M796.28 1071.5l.87-.37.9-.22.95-.07h2.8m3.73 0h5.6m3.74 0h5.6m3.73 0h2.8l.94.08.9.23.88.36m2.63 2.6l.36.88.23.9.07.95v2.8m0 3.74v5.6m0 3.73v5.6m0 3.73v2.8l-.07.94-.22.92-.35.86m-2.63 2.62l-.87.36-.9.22-.95.07h-2.8m-3.73 0h-5.6m-3.74 0h-5.6m-3.73 0H799l-.94-.07-.9-.22-.88-.36m-2.63-2.62l-.36-.87-.23-.93-.07-.94v-2.8m0-3.73v-5.6m0-3.73v-5.6m0-3.74v-2.8l.07-.93.22-.92.35-.87" stroke="#282c33" stroke-width="2" fill="none"/><path d="M793 975.97a6 6 0 0 1 6-6h28a6 6 0 0 1 6 6v28a6 6 0 0 1-6 6h-28a6 6 0 0 1-6-6z" fill="#fff"/><path d="M796.28 970.62l.87-.36.9-.22.95-.07h2.8m3.73 0h5.6m3.74 0h5.6m3.73 0h2.8l.94.07.9.22.88.36m2.63 2.63l.36.87.23.9.07.95v2.8m0 3.73v5.6m0 3.74v5.6m0 3.73v2.8l-.07.94-.22.92-.35.87m-2.63 2.62l-.87.36-.9.22-.95.07h-2.8m-3.73 0h-5.6m-3.74 0h-5.6m-3.73 0H799l-.94-.07-.9-.22-.88-.36m-2.63-2.63l-.36-.88-.23-.9-.07-.95v-2.8m0-3.73v-5.6m0-3.74v-5.6m0-3.73v-2.8l.07-.94.22-.9.35-.88" stroke="#282c33" stroke-width="2" fill="none"/><use xlink:href="#n" transform="matrix(1,0,0,1,804.9999999999999,981.9701209324879) translate(-0.6419753086419728 24.888888888888886)"/><path d="M938.5 979.14H906a6 6 0 0 1-6-6v-38.17a6 6 0 0 0-6-6h-75a6 6 0 0 0-6 6v13.38M938.46 979.14H940" stroke="#3a414a" stroke-width="3" fill="none"/><path d="M813 964.12l-4.63-14.27h9.26z" stroke="#3a414a" stroke-width="3" fill="#3a414a"/><use xlink:href="#i" transform="matrix(1,0,0,1,907.9999999999999,940.8099683125554) translate(0 14.222222222222223)"/><use xlink:href="#j" transform="matrix(1,0,0,1,907.9999999999999,940.8099683125554) translate(35.55555555555556 14.222222222222223)"/><use xlink:href="#k" transform="matrix(1,0,0,1,907.9999999999999,940.8099683125554) translate(64.09876543209876 14.222222222222223)"/><path d="M-140 746a6 6 0 0 1 6-6H94a6 6 0 0 1 6 6v72.67a6 6 0 0 1-6 6h-228a6 6 0 0 1-6-6z" fill="#fff" fill-opacity="0"/><use xlink:href="#o" transform="matrix(1,0,0,1,-135,745) translate(89.13580246913583 43.638888888888886)"/><use xlink:href="#p" transform="matrix(1,0,0,1,-135,745) translate(133.98765432098767 43.638888888888886)"/><path d="M233.8 877.5h-.94V758.68h.95z" stroke="#54c45e" stroke-width=".05" fill="#54c45e"/><path d="M233.33 883.4l-7.63-12.9h15.27z" fill="#54c45e"/><path d="M233.33 884.34l-8.47-14.32h16.94zm-6.8-13.37l6.8 11.5 6.8-11.5z" stroke="#54c45e" stroke-width=".05" fill="#54c45e"/><path stroke="#54c45e" stroke-width=".05" fill="#54c45e"/><use xlink:href="#q" transform="matrix(1,0,0,1,224.6913577232738,721.3333333333334) translate(0 24.88888888888888)"/><path d="M200.47 877.5h-.94V758.68h.94z" stroke="#54c45e" stroke-width=".05" fill="#54c45e"/><path d="M200 883.4l-7.64-12.9h15.28z" fill="#54c45e"/><path d="M200 884.34l-8.47-14.32h16.94zm-6.8-13.37l6.8 11.5 6.8-11.5z" stroke="#54c45e" stroke-width=".05" fill="#54c45e"/><path stroke="#54c45e" stroke-width=".05" fill="#54c45e"/><use xlink:href="#r" transform="matrix(1,0,0,1,191.35802469135803,721.3333333333334) translate(0 24.88888888888888)"/><path d="M820.48 878.5h-.96V759.68h.96z" stroke="#54c45e" stroke-width=".05" fill="#54c45e"/><path d="M820 884.4l-7.64-12.9h15.28z" fill="#54c45e"/><path d="M820 885.34l-8.47-14.32h16.94zm-6.8-13.37l6.8 11.5 6.8-11.5z" stroke="#54c45e" stroke-width=".05" fill="#54c45e"/><path stroke="#54c45e" stroke-width=".05" fill="#54c45e"/><use xlink:href="#s" transform="matrix(1,0,0,1,773.0740740740741,722.3332378980891) translate(0 24.88888888888888)"/><path d="M259 1290c0 5.52-4.48 10-10 10s-10-4.48-10-10 4.48-10 10-10 10 4.48 10 10z" stroke="#282c33" stroke-width="2"/><path d="M176 1256.83a6 6 0 0 1 6-6h28a6 6 0 0 1 6 6v28a6 6 0 0 1-6 6h-28a6 6 0 0 1-6-6z" stroke="#282c33" stroke-width="2" fill="#fff"/><path d="M251.47 979.3h-1.3v21.34h1.3V1363h-4.94V938.06h4.94z" stroke="#54c45e" stroke-width=".05" fill="#54c45e"/><path d="M249 1373.42l-7.64-12.9h15.28z" fill="#54c45e"/><path d="M249 1378.28l-11.97-20.24h23.95zm-3.3-15.3l3.3 5.58 3.3-5.57z" stroke="#54c45e" stroke-width=".05" fill="#54c45e"/><path d="M251.47 938.13h-4.94v-2.96l2.47.4 2.47-.4z" fill="#54c45e"/><path stroke="#54c45e" stroke-width=".05" fill="#54c45e"/><path d="M129 1384.33a6 6 0 0 1 6-6h228a6 6 0 0 1 6 6v51.34a6 6 0 0 1-6 6H135a6 6 0 0 1-6-6z" stroke="#000" stroke-opacity="0" stroke-width="2" fill="#fff" fill-opacity="0"/><g><use xlink:href="#t" transform="matrix(1,0,0,1,133.99999999999994,1383.3333333333333) translate(77 20.97222222222222)"/><use xlink:href="#u" transform="matrix(1,0,0,1,133.99999999999994,1383.3333333333333) translate(27.320987654320987 42.30555555555556)"/><use xlink:href="#v" transform="matrix(1,0,0,1,133.99999999999994,1383.3333333333333) translate(118.03703703703704 42.30555555555556)"/></g><path d="M187.1 1310.97h21.8" stroke="#3a414a" stroke-width="3" fill="none"/><path d="M178.95 1310.97l12.9-7.63v15.27zM217.05 1310.97l-12.9 7.64v-15.26z" stroke="#3a414a" stroke-width="3" fill="#3a414a"/><g><use xlink:href="#w" transform="matrix(1,0,0,1,190.59259259259252,1319.6099686467005) translate(0.004999999999999893 21.333333333333332)"/></g><path d="M938 781.98H122.74V778H938z" stroke="#54c45e" stroke-width=".05" fill="#54c45e"/><path d="M120.74 784.63L106.47 780l14.27-4.63z" fill="#54c45e"/><path d="M122.7 787.35L100.1 780l22.63-7.35zm-9.84-7.35l5.9 1.92v-3.84zM940 781.98h-2.05V778H940z" stroke="#54c45e" stroke-width=".05" fill="#54c45e"/><defs><path fill="#333" d="M182-182c0 78-84 86-111 141h115V0H12c-6-101 99-100 120-180 1-22-12-31-33-32-23 0-32 14-35 34l-49-3c5-45 32-70 84-70 51 0 83 22 83 69" id="x"/><path fill="#333" d="M135-194c53 0 70 44 70 98 0 56-19 98-73 100-31 1-45-17-59-34 3 33 2 69 2 105H25l-1-265h48c2 10 0 23 3 31 11-24 29-35 60-35zM114-30c33 0 39-31 40-66 0-38-9-64-40-64-56 0-55 130 0 130" id="y"/><g id="a"><use transform="matrix(0.07407407407407407,0,0,0.07407407407407407,0,0)" xlink:href="#x"/><use transform="matrix(0.07407407407407407,0,0,0.07407407407407407,14.814814814814813,0)" xlink:href="#y"/></g><path fill="#3a414a" d="M240 0l2-218c-23 76-54 145-80 218h-23L58-218 59 0H30v-248h44l77 211c21-75 51-140 76-211h43V0h-30" id="z"/><path fill="#3a414a" d="M141-36C126-15 110 5 73 4 37 3 15-17 15-53c-1-64 63-63 125-63 3-35-9-54-41-54-24 1-41 7-42 31l-33-3c5-37 33-52 76-52 45 0 72 20 72 64v82c-1 20 7 32 28 27v20c-31 9-61-2-59-35zM48-53c0 20 12 33 32 33 41-3 63-29 60-74-43 2-92-5-92 41" id="A"/><path fill="#3a414a" d="M141 0L90-78 38 0H4l68-98-65-92h35l48 74 47-74h35l-64 92 68 98h-35" id="B"/><g id="b"><use transform="matrix(0.08641975308641973,0,0,0.08641975308641973,0,0)" xlink:href="#z"/><use transform="matrix(0.08641975308641973,0,0,0.08641975308641973,25.8395061728395,0)" xlink:href="#A"/><use transform="matrix(0.08641975308641973,0,0,0.08641975308641973,43.12345679012344,0)" xlink:href="#B"/></g><path fill="#3a414a" d="M30-248c87 1 191-15 191 75 0 78-77 80-158 76V0H30v-248zm33 125c57 0 124 11 124-50 0-59-68-47-124-48v98" id="C"/><path fill="#3a414a" d="M114-163C36-179 61-72 57 0H25l-1-190h30c1 12-1 29 2 39 6-27 23-49 58-41v29" id="D"/><path fill="#3a414a" d="M100-194c62-1 85 37 85 99 1 63-27 99-86 99S16-35 15-95c0-66 28-99 85-99zM99-20c44 1 53-31 53-75 0-43-8-75-51-75s-53 32-53 75 10 74 51 75" id="E"/><path fill="#3a414a" d="M85-194c31 0 48 13 60 33l-1-100h32l1 261h-30c-2-10 0-23-3-31C134-8 116 4 85 4 32 4 16-35 15-94c0-66 23-100 70-100zm9 24c-40 0-46 34-46 75 0 40 6 74 45 74 42 0 51-32 51-76 0-42-9-74-50-73" id="F"/><path fill="#3a414a" d="M84 4C-5 8 30-112 23-190h32v120c0 31 7 50 39 49 72-2 45-101 50-169h31l1 190h-30c-1-10 1-25-2-33-11 22-28 36-60 37" id="G"/><path fill="#3a414a" d="M96-169c-40 0-48 33-48 73s9 75 48 75c24 0 41-14 43-38l32 2c-6 37-31 61-74 61-59 0-76-41-82-99-10-93 101-131 147-64 4 7 5 14 7 22l-32 3c-4-21-16-35-41-35" id="H"/><path fill="#3a414a" d="M59-47c-2 24 18 29 38 22v24C64 9 27 4 27-40v-127H5v-23h24l9-43h21v43h35v23H59v120" id="I"/><g id="c"><use transform="matrix(0.08641975308641973,0,0,0.08641975308641973,0,0)" xlink:href="#C"/><use transform="matrix(0.08641975308641973,0,0,0.08641975308641973,20.740740740740737,0)" xlink:href="#D"/><use transform="matrix(0.08641975308641973,0,0,0.08641975308641973,31.024691358024686,0)" xlink:href="#E"/><use transform="matrix(0.08641975308641973,0,0,0.08641975308641973,48.30864197530863,0)" xlink:href="#F"/><use transform="matrix(0.08641975308641973,0,0,0.08641975308641973,65.59259259259258,0)" xlink:href="#G"/><use transform="matrix(0.08641975308641973,0,0,0.08641975308641973,82.87654320987653,0)" xlink:href="#H"/><use transform="matrix(0.08641975308641973,0,0,0.08641975308641973,98.4320987654321,0)" xlink:href="#I"/></g><path fill="#333" d="M133-34C117-15 103 5 69 4 32 3 11-16 11-54c-1-60 55-63 116-61 1-26-3-47-28-47-18 1-26 9-28 27l-52-2c7-38 36-58 82-57s74 22 75 68l1 82c-1 14 12 18 25 15v27c-30 8-71 5-69-32zm-48 3c29 0 43-24 42-57-32 0-66-3-65 30 0 17 8 27 23 27" id="J"/><path fill="#333" d="M25 0v-261h50V0H25" id="K"/><path fill="#333" d="M25-224v-37h50v37H25zM25 0v-190h50V0H25" id="L"/><path fill="#333" d="M195-6C206 82 75 100 31 46c-4-6-6-13-8-21l49-6c3 16 16 24 34 25 40 0 42-37 40-79-11 22-30 35-61 35-53 0-70-43-70-97 0-56 18-96 73-97 30 0 46 14 59 34l2-30h47zm-90-29c32 0 41-27 41-63 0-35-9-62-40-62-32 0-39 29-40 63 0 36 9 62 39 62" id="M"/><path fill="#333" d="M135-194c87-1 58 113 63 194h-50c-7-57 23-157-34-157-59 0-34 97-39 157H25l-1-190h47c2 12-1 28 3 38 12-26 28-41 61-42" id="N"/><g id="d"><use transform="matrix(0.04938271604938272,0,0,0.04938271604938272,0,0)" xlink:href="#J"/><use transform="matrix(0.04938271604938272,0,0,0.04938271604938272,9.876543209876544,0)" xlink:href="#K"/><use transform="matrix(0.04938271604938272,0,0,0.04938271604938272,14.814814814814817,0)" xlink:href="#L"/><use transform="matrix(0.04938271604938272,0,0,0.04938271604938272,19.75308641975309,0)" xlink:href="#M"/><use transform="matrix(0.04938271604938272,0,0,0.04938271604938272,30.567901234567906,0)" xlink:href="#N"/></g><path fill="#333" d="M137-138c1-29-70-34-71-4 15 46 118 7 119 86 1 83-164 76-172 9l43-7c4 19 20 25 44 25 33 8 57-30 24-41C81-84 22-81 20-136c-2-80 154-74 161-7" id="O"/><path fill="#333" d="M114-157C55-157 80-60 75 0H25v-261h50l-1 109c12-26 28-41 61-42 86-1 58 113 63 194h-50c-7-57 23-157-34-157" id="P"/><path fill="#333" d="M121-226c-27-7-43 5-38 36h38v33H83V0H34v-157H6v-33h28c-9-59 32-81 87-68v32" id="Q"/><path fill="#333" d="M115-3C79 11 28 4 28-45v-112H4v-33h27l15-45h31v45h36v33H77v99c-1 23 16 31 38 25v30" id="R"/><g id="e"><use transform="matrix(0.04938271604938272,0,0,0.04938271604938272,0,0)" xlink:href="#O"/><use transform="matrix(0.04938271604938272,0,0,0.04938271604938272,9.876543209876544,0)" xlink:href="#P"/><use transform="matrix(0.04938271604938272,0,0,0.04938271604938272,20.69135802469136,0)" xlink:href="#L"/><use transform="matrix(0.04938271604938272,0,0,0.04938271604938272,25.629629629629633,0)" xlink:href="#Q"/><use transform="matrix(0.04938271604938272,0,0,0.04938271604938272,31.506172839506174,0)" xlink:href="#R"/></g><path fill="#333" d="M84 4C32 4 15-41 15-95c0-55 18-99 73-99 29 0 47 12 58 34l2-30h48l-1 265h-49V-32C136-9 114 4 84 4zm21-34c32 0 41-29 41-66 0-36-9-64-40-64-33 0-39 30-40 65 0 43 13 65 39 65" id="S"/><use transform="matrix(0.07407407407407407,0,0,0.07407407407407407,0,0)" xlink:href="#S" id="f"/><path fill="#333" d="M110-194c64 0 96 36 96 99 0 64-35 99-97 99-61 0-95-36-95-99 0-62 34-99 96-99zm-1 164c35 0 45-28 45-65 0-40-10-65-43-65-34 0-45 26-45 65 0 36 10 65 43 65" id="T"/><use transform="matrix(0.07407407407407407,0,0,0.07407407407407407,0,0)" xlink:href="#T" id="g"/><use transform="matrix(0.07407407407407407,0,0,0.07407407407407407,0,0)" xlink:href="#M" id="h"/><path fill="#333" d="M25-224v-37h50v37H25zM75 22c2 45-34 59-81 51V38c22 5 31-5 31-27v-201h50V22" id="U"/><path fill="#333" d="M220-157c-53 9-28 100-34 157h-49v-107c1-27-5-49-29-50C55-147 81-57 75 0H25l-1-190h47c2 12-1 28 3 38 10-53 101-56 108 0 13-22 24-43 59-42 82 1 51 116 57 194h-49v-107c-1-25-5-48-29-50" id="V"/><g id="i"><use transform="matrix(0.04938271604938272,0,0,0.04938271604938272,0,0)" xlink:href="#U"/><use transform="matrix(0.04938271604938272,0,0,0.04938271604938272,4.938271604938272,0)" xlink:href="#J"/><use transform="matrix(0.04938271604938272,0,0,0.04938271604938272,14.814814814814817,0)" xlink:href="#V"/></g><path fill="#333" d="M135-150c-39-12-60 13-60 57V0H25l-1-190h47c2 13-1 29 3 40 6-28 27-53 61-41v41" id="W"/><g id="j"><use transform="matrix(0.04938271604938272,0,0,0.04938271604938272,0,0)" xlink:href="#Q"/><use transform="matrix(0.04938271604938272,0,0,0.04938271604938272,5.8765432098765435,0)" xlink:href="#T"/><use transform="matrix(0.04938271604938272,0,0,0.04938271604938272,16.691358024691358,0)" xlink:href="#W"/></g><path fill="#333" d="M240-174c0 40-23 61-54 70L253 0h-59l-57-94H76V0H24v-248c93 4 217-23 216 74zM76-134c48-2 112 12 112-38 0-48-66-32-112-35v73" id="X"/><path fill="#333" d="M136-208V0H84v-208H4v-40h212v40h-80" id="Y"/><path fill="#333" d="M140-251c80 0 125 45 125 126S219 4 139 4C58 4 15-44 15-125s44-126 125-126zm-1 214c52 0 73-35 73-88 0-50-21-86-72-86-52 0-73 35-73 86s22 88 72 88" id="Z"/><g id="k"><use transform="matrix(0.04938271604938272,0,0,0.04938271604938272,0,0)" xlink:href="#X"/><use transform="matrix(0.04938271604938272,0,0,0.04938271604938272,12.790123456790125,0)" xlink:href="#Y"/><use transform="matrix(0.04938271604938272,0,0,0.04938271604938272,23.25925925925926,0)" xlink:href="#Z"/></g><path fill="#3a414a" d="M140-251c81 0 123 46 123 126C263-46 219 4 140 4 59 4 17-45 17-125s42-126 123-126zm0 227c63 0 89-41 89-101s-29-99-89-99c-61 0-89 39-89 99S79-25 140-24" id="aa"/><path fill="#3a414a" d="M106-169C34-169 62-67 57 0H25v-261h32l-1 103c12-21 28-36 61-36 89 0 53 116 60 194h-32v-121c2-32-8-49-39-48" id="ab"/><path fill="#3a414a" d="M100-194c63 0 86 42 84 106H49c0 40 14 67 53 68 26 1 43-12 49-29l28 8c-11 28-37 45-77 45C44 4 14-33 15-96c1-61 26-98 85-98zm52 81c6-60-76-77-97-28-3 7-6 17-6 28h103" id="ac"/><g id="l"><use transform="matrix(0.08641975308641973,0,0,0.08641975308641973,0,0)" xlink:href="#aa"/><use transform="matrix(0.08641975308641973,0,0,0.08641975308641973,24.197530864197525,0)" xlink:href="#I"/><use transform="matrix(0.08641975308641973,0,0,0.08641975308641973,32.8395061728395,0)" xlink:href="#ab"/><use transform="matrix(0.08641975308641973,0,0,0.08641975308641973,50.12345679012345,0)" xlink:href="#ac"/><use transform="matrix(0.08641975308641973,0,0,0.08641975308641973,67.40740740740739,0)" xlink:href="#D"/></g><path fill="#3a414a" d="M87 75C49 33 22-17 22-94c0-76 28-126 65-167h31c-38 41-64 92-64 168S80 34 118 75H87" id="ad"/><path fill="#3a414a" d="M135-143c-3-34-86-38-87 0 15 53 115 12 119 90S17 21 10-45l28-5c4 36 97 45 98 0-10-56-113-15-118-90-4-57 82-63 122-42 12 7 21 19 24 35" id="ae"/><path fill="#3a414a" d="M33-261c38 41 65 92 65 168S71 34 33 75H2C39 34 66-17 66-93S39-220 2-261h31" id="af"/><g id="m"><use transform="matrix(0.08641975308641973,0,0,0.08641975308641973,0,0)" xlink:href="#C"/><use transform="matrix(0.08641975308641973,0,0,0.08641975308641973,20.740740740740737,0)" xlink:href="#D"/><use transform="matrix(0.08641975308641973,0,0,0.08641975308641973,31.024691358024686,0)" xlink:href="#E"/><use transform="matrix(0.08641975308641973,0,0,0.08641975308641973,48.30864197530863,0)" xlink:href="#F"/><use transform="matrix(0.08641975308641973,0,0,0.08641975308641973,65.59259259259258,0)" xlink:href="#G"/><use transform="matrix(0.08641975308641973,0,0,0.08641975308641973,82.87654320987653,0)" xlink:href="#H"/><use transform="matrix(0.08641975308641973,0,0,0.08641975308641973,98.4320987654321,0)" xlink:href="#I"/><use transform="matrix(0.08641975308641973,0,0,0.08641975308641973,107.07407407407408,0)" xlink:href="#ad"/><use transform="matrix(0.08641975308641973,0,0,0.08641975308641973,117.35802469135803,0)" xlink:href="#ae"/><use transform="matrix(0.08641975308641973,0,0,0.08641975308641973,132.91358024691357,0)" xlink:href="#af"/></g><path fill="#3a414a" d="M101-251c68 0 85 55 85 127S166 4 100 4C33 4 14-52 14-124c0-73 17-127 87-127zm-1 229c47 0 54-49 54-102s-4-102-53-102c-51 0-55 48-55 102 0 53 5 102 54 102" id="ag"/><use transform="matrix(0.08641975308641973,0,0,0.08641975308641973,0,0)" xlink:href="#ag" id="n"/><path fill="#54c45e" d="M160-131c35 5 61 23 61 61C221 17 115-2 30 0v-248c76 3 177-17 177 60 0 33-19 50-47 57zm-97-11c50-1 110 9 110-42 0-47-63-36-110-37v79zm0 115c55-2 124 14 124-45 0-56-70-42-124-44v89" id="ah"/><path fill="#54c45e" d="M24-231v-30h32v30H24zM24 0v-190h32V0H24" id="ai"/><path fill="#54c45e" d="M59-47c-2 24 18 29 38 22v24C64 9 27 4 27-40v-127H5v-23h24l9-43h21v43h35v23H59v120" id="aj"/><g id="o"><use transform="matrix(0.08641975308641973,0,0,0.08641975308641973,0,0)" xlink:href="#ah"/><use transform="matrix(0.08641975308641973,0,0,0.08641975308641973,20.740740740740737,0)" xlink:href="#ai"/><use transform="matrix(0.08641975308641973,0,0,0.08641975308641973,27.567901234567895,0)" xlink:href="#aj"/></g><path fill="#54c45e" d="M266 0h-40l-56-210L115 0H75L2-248h35L96-30l15-64 43-154h32l59 218 59-218h35" id="ak"/><path fill="#54c45e" d="M100-194c63 0 86 42 84 106H49c0 40 14 67 53 68 26 1 43-12 49-29l28 8c-11 28-37 45-77 45C44 4 14-33 15-96c1-61 26-98 85-98zm52 81c6-60-76-77-97-28-3 7-6 17-6 28h103" id="al"/><path fill="#54c45e" d="M177-190C167-65 218 103 67 71c-23-6-38-20-44-43l32-5c15 47 100 32 89-28v-30C133-14 115 1 83 1 29 1 15-40 15-95c0-56 16-97 71-98 29-1 48 16 59 35 1-10 0-23 2-32h30zM94-22c36 0 50-32 50-73 0-42-14-75-50-75-39 0-46 34-46 75s6 73 46 73" id="am"/><path fill="#54c45e" d="M106-169C34-169 62-67 57 0H25v-261h32l-1 103c12-21 28-36 61-36 89 0 53 116 60 194h-32v-121c2-32-8-49-39-48" id="an"/><g id="p"><use transform="matrix(0.08641975308641973,0,0,0.08641975308641973,0,0)" xlink:href="#ak"/><use transform="matrix(0.08641975308641973,0,0,0.08641975308641973,28.69135802469135,0)" xlink:href="#al"/><use transform="matrix(0.08641975308641973,0,0,0.08641975308641973,45.975308641975296,0)" xlink:href="#ai"/><use transform="matrix(0.08641975308641973,0,0,0.08641975308641973,52.80246913580246,0)" xlink:href="#am"/><use transform="matrix(0.08641975308641973,0,0,0.08641975308641973,70.0864197530864,0)" xlink:href="#an"/><use transform="matrix(0.08641975308641973,0,0,0.08641975308641973,87.37037037037035,0)" xlink:href="#aj"/></g><path fill="#54c45e" d="M101-251c68 0 84 54 84 127C185-50 166 4 99 4S15-52 14-124c-1-75 17-127 87-127zm-1 216c37-5 36-46 36-89s4-89-36-89c-39 0-36 45-36 89 0 43-3 85 36 89" id="ao"/><use transform="matrix(0.0864197530864197,0,0,0.0864197530864197,0,0)" xlink:href="#ao" id="q"/><path fill="#54c45e" d="M23 0v-37h61v-169l-59 37v-38l62-41h46v211h57V0H23" id="ap"/><use transform="matrix(0.0864197530864197,0,0,0.0864197530864197,0,0)" xlink:href="#ap" id="r"/><path fill="#54c45e" d="M14-72v-43h91v43H14" id="aq"/><path fill="#54c45e" d="M84 4C32 4 15-41 15-95c0-55 18-99 73-99 29 0 47 12 58 34l2-30h48l-1 265h-49V-32C136-9 114 4 84 4zm21-34c32 0 41-29 41-66 0-36-9-64-40-64-33 0-39 30-40 65 0 43 13 65 39 65" id="ar"/><path fill="#54c45e" d="M125-100v72H85v-72H15v-39h70v-72h40v72h71v39h-71" id="as"/><path fill="#54c45e" d="M195-6C206 82 75 100 31 46c-4-6-6-13-8-21l49-6c3 16 16 24 34 25 40 0 42-37 40-79-11 22-30 35-61 35-53 0-70-43-70-97 0-56 18-96 73-97 30 0 46 14 59 34l2-30h47zm-90-29c32 0 41-27 41-63 0-35-9-62-40-62-32 0-39 29-40 63 0 36 9 62 39 62" id="at"/><g id="s"><use transform="matrix(0.0864197530864197,0,0,0.0864197530864197,0,0)" xlink:href="#aq"/><use transform="matrix(0.0864197530864197,0,0,0.0864197530864197,10.283950617283946,0)" xlink:href="#ar"/><use transform="matrix(0.0864197530864197,0,0,0.0864197530864197,29.209876543209862,0)" xlink:href="#as"/><use transform="matrix(0.0864197530864197,0,0,0.0864197530864197,47.358024691358,0)" xlink:href="#ap"/><use transform="matrix(0.0864197530864197,0,0,0.0864197530864197,64.64197530864195,0)" xlink:href="#aq"/><use transform="matrix(0.0864197530864197,0,0,0.0864197530864197,74.9259259259259,0)" xlink:href="#at"/></g><path fill="#3a414a" d="M220-157c-53 9-28 100-34 157h-49v-107c1-27-5-49-29-50C55-147 81-57 75 0H25l-1-190h47c2 12-1 28 3 38 10-53 101-56 108 0 13-22 24-43 59-42 82 1 51 116 57 194h-49v-107c-1-25-5-48-29-50" id="au"/><path fill="#3a414a" d="M133-34C117-15 103 5 69 4 32 3 11-16 11-54c-1-60 55-63 116-61 1-26-3-47-28-47-18 1-26 9-28 27l-52-2c7-38 36-58 82-57s74 22 75 68l1 82c-1 14 12 18 25 15v27c-30 8-71 5-69-32zm-48 3c29 0 43-24 42-57-32 0-66-3-65 30 0 17 8 27 23 27" id="av"/><path fill="#3a414a" d="M144 0l-44-69L55 0H2l70-98-66-92h53l41 62 40-62h54l-67 91 71 99h-54" id="aw"/><path fill="#3a414a" d="M-4 44V30h207v14H-4" id="ax"/><path fill="#3a414a" d="M185-48c-13 30-37 53-82 52C43 2 14-33 14-96s30-98 90-98c62 0 83 45 84 108H66c0 31 8 55 39 56 18 0 30-7 34-22zm-45-69c5-46-57-63-70-21-2 6-4 13-4 21h74" id="ay"/><path fill="#3a414a" d="M135-194c53 0 70 44 70 98 0 56-19 98-73 100-31 1-45-17-59-34 3 33 2 69 2 105H25l-1-265h48c2 10 0 23 3 31 11-24 29-35 60-35zM114-30c33 0 39-31 40-66 0-38-9-64-40-64-56 0-55 130 0 130" id="az"/><g id="t"><use transform="matrix(0.04938271604938272,0,0,0.04938271604938272,0,0)" xlink:href="#au"/><use transform="matrix(0.04938271604938272,0,0,0.04938271604938272,15.80246913580247,0)" xlink:href="#av"/><use transform="matrix(0.04938271604938272,0,0,0.04938271604938272,25.679012345679016,0)" xlink:href="#aw"/><use transform="matrix(0.04938271604938272,0,0,0.04938271604938272,35.55555555555556,0)" xlink:href="#ax"/><use transform="matrix(0.04938271604938272,0,0,0.04938271604938272,45.4320987654321,0)" xlink:href="#ay"/><use transform="matrix(0.04938271604938272,0,0,0.04938271604938272,55.308641975308646,0)" xlink:href="#aw"/><use transform="matrix(0.04938271604938272,0,0,0.04938271604938272,65.18518518518519,0)" xlink:href="#az"/></g><path fill="#3a414a" d="M67-93c0 74 22 123 53 168H70C40 30 18-18 18-93s22-123 52-168h50c-32 44-53 94-53 168" id="aA"/><path fill="#3a414a" d="M135-150c-39-12-60 13-60 57V0H25l-1-190h47c2 13-1 29 3 40 6-28 27-53 61-41v41" id="aB"/><path fill="#3a414a" d="M121-226c-27-7-43 5-38 36h38v33H83V0H34v-157H6v-33h28c-9-59 32-81 87-68v32" id="aC"/><path fill="#3a414a" d="M135-194c87-1 58 113 63 194h-50c-7-57 23-157-34-157-59 0-34 97-39 157H25l-1-190h47c2 12-1 28 3 38 12-26 28-41 61-42" id="aD"/><path fill="#3a414a" d="M190-63c-7 42-38 67-86 67-59 0-84-38-90-98-12-110 154-137 174-36l-49 2c-2-19-15-32-35-32-30 0-35 28-38 64-6 74 65 87 74 30" id="aE"/><g id="u"><use transform="matrix(0.04938271604938272,0,0,0.04938271604938272,0,0)" xlink:href="#aA"/><use transform="matrix(0.04938271604938272,0,0,0.04938271604938272,5.8765432098765435,0)" xlink:href="#aB"/><use transform="matrix(0.04938271604938272,0,0,0.04938271604938272,12.790123456790125,0)" xlink:href="#ay"/><use transform="matrix(0.04938271604938272,0,0,0.04938271604938272,22.666666666666668,0)" xlink:href="#aC"/><use transform="matrix(0.04938271604938272,0,0,0.04938271604938272,28.543209876543212,0)" xlink:href="#ay"/><use transform="matrix(0.04938271604938272,0,0,0.04938271604938272,38.41975308641976,0)" xlink:href="#aB"/><use transform="matrix(0.04938271604938272,0,0,0.04938271604938272,45.33333333333334,0)" xlink:href="#ay"/><use transform="matrix(0.04938271604938272,0,0,0.04938271604938272,55.209876543209894,0)" xlink:href="#aD"/><use transform="matrix(0.04938271604938272,0,0,0.04938271604938272,66.0246913580247,0)" xlink:href="#aE"/><use transform="matrix(0.04938271604938272,0,0,0.04938271604938272,75.90123456790124,0)" xlink:href="#ay"/></g><path fill="#3a414a" d="M110-194c64 0 96 36 96 99 0 64-35 99-97 99-61 0-95-36-95-99 0-62 34-99 96-99zm-1 164c35 0 45-28 45-65 0-40-10-65-43-65-34 0-45 26-45 65 0 36 10 65 43 65" id="aF"/><path fill="#3a414a" d="M115-3C79 11 28 4 28-45v-112H4v-33h27l15-45h31v45h36v33H77v99c-1 23 16 31 38 25v30" id="aG"/><path fill="#3a414a" d="M102-93c0 74-22 123-52 168H0C30 29 54-18 53-93c0-74-22-123-53-168h50c30 45 52 94 52 168" id="aH"/><g id="v"><use transform="matrix(0.04938271604938272,0,0,0.04938271604938272,0,0)" xlink:href="#ay"/><use transform="matrix(0.04938271604938272,0,0,0.04938271604938272,9.876543209876544,0)" xlink:href="#aw"/><use transform="matrix(0.04938271604938272,0,0,0.04938271604938272,19.75308641975309,0)" xlink:href="#az"/><use transform="matrix(0.04938271604938272,0,0,0.04938271604938272,30.567901234567906,0)" xlink:href="#aF"/><use transform="matrix(0.04938271604938272,0,0,0.04938271604938272,41.38271604938272,0)" xlink:href="#aD"/><use transform="matrix(0.04938271604938272,0,0,0.04938271604938272,52.19753086419754,0)" xlink:href="#ay"/><use transform="matrix(0.04938271604938272,0,0,0.04938271604938272,62.074074074074076,0)" xlink:href="#aD"/><use transform="matrix(0.04938271604938272,0,0,0.04938271604938272,72.8888888888889,0)" xlink:href="#aG"/><use transform="matrix(0.04938271604938272,0,0,0.04938271604938272,78.76543209876544,0)" xlink:href="#aH"/></g><path fill="#333" d="M23 0v-37h61v-169l-59 37v-38l62-41h46v211h57V0H23" id="aI"/><use transform="matrix(0.07407407407407407,0,0,0.07407407407407407,0,0)" xlink:href="#aI" id="w"/></defs></g></svg>