<?xml version="1.0" encoding="UTF-8"?>
<svg width="1556" height="743.33" xmlns="http://www.w3.org/2000/svg" xmlns:lucid="lucid" xmlns:xlink="http://www.w3.org/1999/xlink">
 <g transform="translate(161 -719.33)" lucid:page-tab-id="_26rgEPhPjs8">
  <path d="m-500 500h2e3v1e3h-2e3z" fill="#fff"/>
  <path d="m793 1167.8a6 6 0 0 1 6-6h28a6 6 0 0 1 6 6v28a6 6 0 0 1-6 6h-28a6 6 0 0 1-6-6z" fill="#fff"/>
  <path d="M796.28 1162.42l.87-.36.9-.22.95-.07h2.8m3.73 0h5.6m3.74 0h5.6m3.73 0h2.8l.94.07.9.22.88.36m2.63 2.62l.36.87.23.93.07.94v2.8m0 3.73v5.6m0 3.73v5.6m0 3.73v2.8l-.07.94-.22.92-.35.87m-2.63 2.6l-.87.37-.9.22-.95.07h-2.8m-3.73 0h-5.6m-3.74 0h-5.6m-3.73 0H799l-.94-.08-.9-.23-.88-.36m-2.63-2.6l-.36-.88-.23-.92-.07-.93v-2.8m0-3.74v-5.6m0-3.73v-5.6m0-3.73v-2.8l.07-.94.22-.92.35-.86" fill="none" stroke="#282c33" stroke-width="2"/>
  <path d="m833 1076.8a6 6 0 0 1 6-6h109a6 6 0 0 1 6 6v28a6 6 0 0 1-6 6h-109a6 6 0 0 1-6-6z" fill="#ffdda6" stroke="#000" stroke-opacity="0" stroke-width="2"/>
  <path d="M213 891.4a6 6 0 0 1 6-6h314a6 6 0 0 1 6 6v28a6 6 0 0 1-6 6H219a6 6 0 0 1-6-6z" fill="#fff"/>
  <path d="M216.28 886.04l.87-.36.9-.22.95-.07h3.04m4.05 0h6.07m4.05 0h6.08m4.05 0h6.08m4.05 0h6.07m4.06 0h6.08m4.06 0h6.07m4.06 0h6.08m4.05 0h6.07m4.05 0h6.08m4.05 0h6.08m4.05 0h6.08m4.05 0h6.1m4.04 0h6.08m4.05 0h6.08m4.05 0h6.07m4.06 0h6.07m4.05 0h6.08m4.05 0h6.08m4.05 0h6.1m4.04 0h6.08m4.05 0h6.08m4.05 0h6.08m4.05 0H455m4.06 0h6.07m4.06 0h6.06m4.06 0h6.07m4.05 0h6.07m4.05 0h6.08m4.05 0h6.08m4.05 0h6.08m4.06 0H533l.94.06.9.22.88.36m2.63 2.62l.36.87.23.92.07.94v2.8m0 3.72v5.6m0 3.73v5.6m0 3.74v2.8l-.07.93-.22.9-.35.88m-2.63 2.63l-.87.36-.9.2-.95.1h-3.04m-4.05 0h-6.07m-4.05 0h-6.08m-4.05 0h-6.08m-4.05 0h-6.07m-4.06 0h-6.08m-4.06 0h-6.07m-4.06 0h-6.08m-4.05 0h-6.07m-4.05 0h-6.08m-4.05 0h-6.08m-4.05 0h-6.08m-4.05 0h-6.1m-4.04 0h-6.08m-4.05 0h-6.08m-4.05 0h-6.07m-4.06 0h-6.07m-4.05 0h-6.08m-4.05 0h-6.08m-4.05 0h-6.1m-4.04 0h-6.08m-4.05 0h-6.08m-4.05 0h-6.08m-4.05 0H297m-4.06 0h-6.07m-4.06 0h-6.06m-4.06 0h-6.07m-4.05 0h-6.07m-4.05 0h-6.08m-4.05 0h-6.08m-4.05 0h-6.08m-4.06 0H219l-.94-.1-.9-.2-.88-.37m-2.63-2.62l-.36-.86-.23-.9-.07-.95v-2.8m0-3.75v-5.6m0-3.73v-5.6m0-3.73v-2.8l.07-.95.22-.92.35-.87" fill="none" stroke="#282c33" stroke-width="2"/>
  <path d="M375.24 851.45H187.1v-2.96h188.14zm153.65 0H406.27v-2.96h122.6z" fill="#3a414a" stroke="#3a414a" stroke-width=".05"/>
  <path d="m191.86 857.6-12.9-7.63 12.9-7.64z" fill="#3a414a"/>
  <path d="m193.33 860.2-17.28-10.23 17.28-10.22zm-11.5-10.23 8.55 5.05v-10.1z" fill="#3a414a" stroke="#3a414a" stroke-width=".05"/>
  <path d="m537.05 849.97-12.9 7.64v-15.27z" fill="#3a414a"/>
  <path d="m539.95 849.97-17.28 10.22v-20.45zm-14.33 5.05 8.53-5.05-8.53-5.05z" fill="#3a414a" stroke="#3a414a" stroke-width=".05"/>
  <use transform="matrix(1 0 0 1 375.24 833.97) translate(.005 21.333)" xlink:href="#a"/>
  <path d="M-140 873.03a6 6 0 0 1 6-6H94a6 6 0 0 1 6 6v72.67a6 6 0 0 1-6 6h-228a6 6 0 0 1-6-6z" fill="#fff" fill-opacity="0" stroke="#000" stroke-opacity="0" stroke-width="2"/>
  <use transform="matrix(1 0 0 1 -135 872.03) translate(55.605 43.639)" xlink:href="#b"/>
  <use transform="matrix(1 0 0 1 -135 872.03) translate(122.93 43.639)" xlink:href="#c"/>
  <path d="m174 891.4a6 6 0 0 1 6-6h28a6 6 0 0 1 6 6v28a6 6 0 0 1-6 6h-28a6 6 0 0 1-6-6z" fill="#fff"/>
  <path d="M177.28 886.04l.87-.36.9-.22.95-.07h2.8m3.73 0h5.6m3.74 0h5.6m3.73 0h2.8l.94.06.9.22.88.36m2.63 2.62l.36.87.23.92.07.94v2.8m0 3.72v5.6m0 3.73v5.6m0 3.74v2.8l-.07.93-.22.9-.35.88m-2.63 2.63l-.87.36-.9.2-.95.1h-2.8m-3.73 0h-5.6m-3.74 0h-5.6m-3.73 0H180l-.94-.1-.9-.2-.88-.37m-2.63-2.62l-.36-.86-.23-.9-.07-.95v-2.8m0-3.75v-5.6m0-3.73v-5.6m0-3.73v-2.8l.07-.95.22-.92.35-.87" fill="none" stroke="#282c33" stroke-width="2"/>
  <path d="m374 975.97a6 6 0 0 1 6-6h188a6 6 0 0 1 6 6v28a6 6 0 0 1-6 6h-188a6 6 0 0 1-6-6zm200 0a6 6 0 0 1 6-6h188a6 6 0 0 1 6 6v28a6 6 0 0 1-6 6h-188a6 6 0 0 1-6-6z" fill="#fff" stroke="#282c33" stroke-width="2"/>
  <path d="m374 975.97a6 6 0 0 1 6-6h28a6 6 0 0 1 6 6v28a6 6 0 0 1-6 6h-28a6 6 0 0 1-6-6zm40 0a6 6 0 0 1 6-6h28a6 6 0 0 1 6 6v28a6 6 0 0 1-6 6h-28a6 6 0 0 1-6-6z" fill="#fff" stroke="#282c33" stroke-width="2"/>
  <path d="m463.76 1009.9c0 5.52-4.48 10-10 10s-10-4.48-10-10 4.48-10 10-10 10 4.48 10 10z" stroke="#282c33" stroke-width="2"/>
  <path d="M250.16 991.45H176.5v-2.96h73.66zm102.22 0h-18.52v-2.96h18.52z" fill="#3a414a" stroke="#3a414a" stroke-width=".05"/>
  <path d="M176.54 991.45H175v-2.96h1.54z" fill="#3a414a" stroke="#3a414a" stroke-width=".05"/>
  <path d="m368.15 989.97-14.27 4.63v-9.26z" fill="#3a414a"/>
  <path d="m372.92 989.97-20.52 6.67v-13.34zm-17.56 2.6 8-2.6-8-2.6z" fill="#3a414a" stroke="#3a414a" stroke-width=".05"/>
  <use transform="matrix(1 0 0 1 250.16 979.3) translate(0 14.222)" xlink:href="#d"/>
  <use transform="matrix(1 0 0 1 250.16 979.3) translate(46.321 14.222)" xlink:href="#e"/>
  <path d="m554 1076.8a6 6 0 0 1 6-6h188a6 6 0 0 1 6 6v28a6 6 0 0 1-6 6h-188a6 6 0 0 1-6-6zm200 0a6 6 0 0 1 6-6h188a6 6 0 0 1 6 6v28a6 6 0 0 1-6 6h-188a6 6 0 0 1-6-6z" fill="#fff" stroke="#282c33" stroke-width="2"/>
  <path d="m554 1076.8a6 6 0 0 1 6-6h28a6 6 0 0 1 6 6v28a6 6 0 0 1-6 6h-28a6 6 0 0 1-6-6zm40 0a6 6 0 0 1 6-6h28a6 6 0 0 1 6 6v28a6 6 0 0 1-6 6h-28a6 6 0 0 1-6-6z" fill="#fff" stroke="#282c33" stroke-width="2"/>
  <path d="m643.76 1110.8c0 5.52-4.48 10-10 10s-10-4.48-10-10c0-5.53 4.48-10 10-10s10 4.47 10 10z" stroke="#282c33" stroke-width="2"/>
  <path d="M332.9 1092.3H176.5v-2.94h156.4zm159.48 0H416.6v-2.94h75.78z" fill="#3a414a" stroke="#3a414a" stroke-width=".05"/>
  <path d="M176.54 1092.3H175v-2.94h1.54z" fill="#3a414a" stroke="#3a414a" stroke-width=".05"/>
  <path d="m508.15 1090.8-14.27 4.64v-9.27z" fill="#3a414a"/>
  <path d="m512.92 1090.8-20.5 6.67-0.02-13.33zm-17.56 2.6 8-2.6-8-2.6z" fill="#3a414a" stroke="#3a414a" stroke-width=".05"/>
  <use transform="matrix(1 0 0 1 332.89 1080.2) translate(0 14.222)" xlink:href="#d"/>
  <use transform="matrix(1 0 0 1 332.89 1080.2) translate(46.321 14.222)" xlink:href="#e"/>
  <path d="m216 1256.8a6 6 0 0 1 6-6h468a6 6 0 0 1 6 6v28a6 6 0 0 1-6 6h-468a6 6 0 0 1-6-6z" fill="#fff" stroke="#282c33" stroke-width="2"/>
  <path d="M447.9 1312.3H231.1v-2.94h216.8zm233 0H464.1v-2.94h216.8z" fill="#3a414a" stroke="#3a414a" stroke-width=".05"/>
  <path d="m235.86 1318.5-12.9-7.64 12.9-7.63z" fill="#3a414a"/>
  <path d="m237.33 1321.1-17.28-10.23 17.28-10.22zm-11.5-10.23 8.55 5.05v-10.1z" fill="#3a414a" stroke="#3a414a" stroke-width=".05"/>
  <path d="m689.05 1310.8-12.9 7.64v-15.27z" fill="#3a414a"/>
  <path d="m691.95 1310.8-17.28 10.23v-20.45zm-14.33 5.05 8.54-5.05-8.54-5.05z" fill="#3a414a" stroke="#3a414a" stroke-width=".05"/>
  <use transform="matrix(1 0 0 1 447.89 1294.8) translate(.005 21.333)" xlink:href="#f"/>
  <path d="M54 1256.83a6 6 0 0 1 6-6h108a6 6 0 0 1 6 6v28a6 6 0 0 1-6 6H60a6 6 0 0 1-6-6z" fill="#fff" stroke="#282c33" stroke-width="2"/>
  <path d="M105.9 1312.3H65.1v-2.94h40.8zm57 0h-40.8v-2.94h40.8z" fill="#3a414a" stroke="#3a414a" stroke-width=".05"/>
  <path d="m69.86 1318.5-12.9-7.64 12.9-7.63z" fill="#3a414a"/>
  <path d="m71.33 1321.1-17.28-10.23 17.28-10.22zm-11.5-10.23 8.55 5.05v-10.1z" fill="#3a414a" stroke="#3a414a" stroke-width=".05"/>
  <path d="m171.05 1310.8-12.9 7.64v-15.27z" fill="#3a414a"/>
  <path d="m173.95 1310.8-17.28 10.23v-20.45zm-14.33 5.05 8.54-5.05-8.54-5.05z" fill="#3a414a" stroke="#3a414a" stroke-width=".05"/>
  <use transform="matrix(1 0 0 1 105.89 1294.8) translate(.005 21.333)" xlink:href="#g"/>
  <path d="M834 821.76V1369" fill="none" stroke="#282c33" stroke-linecap="round" stroke-width="2"/>
  <path d="m694 1256.8a6 6 0 0 1 6-6h127a6 6 0 0 1 6 6v28a6 6 0 0 1-6 6h-127a6 6 0 0 1-6-6z" fill="#fff" stroke="#282c33" stroke-width="2"/>
  <path d="m755.9 1312.3h-50.8v-2.94h50.8zm67 0h-50.8v-2.94h50.8z" fill="#3a414a" stroke="#3a414a" stroke-width=".05"/>
  <path d="m709.86 1318.5-12.9-7.64 12.9-7.63z" fill="#3a414a"/>
  <path d="m711.33 1321.1-17.28-10.23 17.28-10.22zm-11.5-10.23 8.55 5.05v-10.1z" fill="#3a414a" stroke="#3a414a" stroke-width=".05"/>
  <path d="m831.05 1310.8-12.9 7.64v-15.27z" fill="#3a414a"/>
  <path d="m833.95 1310.8-17.28 10.23v-20.45zm-14.33 5.05 8.54-5.05-8.54-5.05z" fill="#3a414a" stroke="#3a414a" stroke-width=".05"/>
  <use transform="matrix(1 0 0 1 755.89 1294.8) translate(.005 21.333)" xlink:href="#h"/>
  <path d="m835 1076.8a6 6 0 0 1 6-6h107a6 6 0 0 1 6 6v28a6 6 0 0 1-6 6h-107a6 6 0 0 1-6-6z" fill="#ffdda6" stroke="#282c33" stroke-width="2"/>
  <path d="m894.5 1068.3v-32.5a6 6 0 0 0-6-6h-71.54a6 6 0 0 0-6 6v13.38" fill="none" stroke="#3a414a" stroke-width="3"/>
  <path d="m895.98 1069.8h-2.98v-1.53h3z" fill="#3a414a" stroke="#3a414a" stroke-width=".05"/>
  <path d="m810.96 1065-4.64-14.27h9.27z" fill="#3a414a" stroke="#3a414a" stroke-width="3"/>
  <use transform="matrix(1 0 0 1 853.91 1005.5) translate(0 14.222)" xlink:href="#i"/>
  <use transform="matrix(1 0 0 1 853.91 1005.5) translate(35.556 14.222)" xlink:href="#j"/>
  <use transform="matrix(1 0 0 1 853.91 1005.5) translate(64.099 14.222)" xlink:href="#k"/>
  <path d="m1253 1167.8a6 6 0 0 1 6-6h109a6 6 0 0 1 6 6v28a6 6 0 0 1-6 6h-109a6 6 0 0 1-6-6z" fill="#ffdda6" stroke="#000" stroke-opacity="0" stroke-width="2"/>
  <path d="m974 1167.8a6 6 0 0 1 6-6h188a6 6 0 0 1 6 6v28a6 6 0 0 1-6 6h-188a6 6 0 0 1-6-6z" fill="#ffdda6" stroke="#282c33" stroke-width="2"/>
  <path d="m1174 1167.8a6 6 0 0 1 6-6h188a6 6 0 0 1 6 6v28a6 6 0 0 1-6 6h-188a6 6 0 0 1-6-6z" fill="#fff" stroke="#282c33" stroke-width="2"/>
  <path d="m974 1167.8a6 6 0 0 1 6-6h28a6 6 0 0 1 6 6v28a6 6 0 0 1-6 6h-28a6 6 0 0 1-6-6zm40 0a6 6 0 0 1 6-6h28a6 6 0 0 1 6 6v28a6 6 0 0 1-6 6h-28a6 6 0 0 1-6-6z" fill="#ffdda6" stroke="#282c33" stroke-width="2"/>
  <path d="M604.73 1183.24H176.5v-2.95h428.23zm347.65 0H688.43v-2.95h263.95z" fill="#3a414a" stroke="#3a414a" stroke-width=".05"/>
  <path d="M176.54 1183.24H175v-2.95h1.54z" fill="#3a414a" stroke="#3a414a" stroke-width=".05"/>
  <path d="m968.15 1181.8-14.27 4.63v-9.27z" fill="#3a414a"/>
  <path d="m972.92 1181.8-20.5 6.66v-13.33zm-17.56 2.6 8-2.6-8-2.6z" fill="#3a414a" stroke="#3a414a" stroke-width=".05"/>
  <use transform="matrix(1 0 0 1 604.73 1171.1) translate(0 14.222)" xlink:href="#d"/>
  <use transform="matrix(1 0 0 1 604.73 1171.1) translate(46.321 14.222)" xlink:href="#e"/>
  <path d="m1174 1167.8a6 6 0 0 1 6-6h188a6 6 0 0 1 6 6v28a6 6 0 0 1-6 6h-188a6 6 0 0 1-6-6z" fill="#ffdda6" stroke="#282c33" stroke-width="2"/>
  <path d="M1176.54 1160.2v-33.43a6 6 0 0 0-6-6H819a6 6 0 0 0-6 6v13.38" fill="none" stroke="#3a414a" stroke-width="3"/>
  <path d="M1178.02 1161.06l-.18.05-1.02.43-.94.57-.8.7v-2.64h2.94z" fill="#3a414a" stroke="#3a414a" stroke-width=".05"/>
  <path d="m813 1155.9-4.63-14.26h9.26z" fill="#3a414a" stroke="#3a414a" stroke-width="3"/>
  <use transform="matrix(1 0 0 1 1047.2 1095.4) translate(0 14.222)" xlink:href="#i"/>
  <use transform="matrix(1 0 0 1 1047.2 1095.4) translate(35.556 14.222)" xlink:href="#j"/>
  <use transform="matrix(1 0 0 1 1047.2 1095.4) translate(64.099 14.222)" xlink:href="#k"/>
  <path d="m1054 1167.8a6 6 0 0 1 6-6h108a6 6 0 0 1 6 6v28a6 6 0 0 1-6 6h-108a6 6 0 0 1-6-6z" fill="#ffdda6" stroke="#282c33" stroke-width="2"/>
  <path d="m1063.8 1201.7c0 5.52-4.48 10-10 10s-10-4.48-10-10c0-5.53 4.48-10 10-10s10 4.47 10 10z" stroke="#282c33" stroke-width="2"/>
  <path d="m-120 996.83a6 6 0 0 1 6-6h228a6 6 0 0 1 6 6v208.87a6 6 0 0 1-6 6h-228a6 6 0 0 1-6-6z" fill="none"/>
  <path d="m120 1211.7c-5.52 0-10-4.48-10-10v-90.43c0-5.53-4.48-10-10-10 5.52 0 10-4.48 10-10v-90.44c0-5.52 4.48-10 10-10" fill="none" stroke="#282c33" stroke-width="2"/>
  <use transform="matrix(1 0 0 1 -115 995.83) translate(122.31 93.056)" xlink:href="#l"/>
  <use transform="matrix(1 0 0 1 -115 995.83) translate(56.802 130.39)" xlink:href="#m"/>
  <path d="m693 1231.8v118m-518-543.1v553.1" fill="none" stroke="#282c33" stroke-linecap="round" stroke-width="2"/>
  <path d="m214 891.4a6 6 0 0 1 6-6h28a6 6 0 0 1 6 6v28a6 6 0 0 1-6 6h-28a6 6 0 0 1-6-6z" fill="#fff"/>
  <path d="M217.28 886.04l.87-.36.9-.22.95-.07h2.8m3.73 0h5.6m3.74 0h5.6m3.73 0h2.8l.94.06.9.22.88.36m2.63 2.62l.36.87.23.92.07.94v2.8m0 3.72v5.6m0 3.73v5.6m0 3.74v2.8l-.07.93-.22.9-.35.88m-2.63 2.63l-.87.36-.9.2-.95.1h-2.8m-3.73 0h-5.6m-3.74 0h-5.6m-3.73 0H220l-.94-.1-.9-.2-.88-.37m-2.63-2.62l-.36-.86-.23-.9-.07-.95v-2.8m0-3.75v-5.6m0-3.73v-5.6m0-3.73v-2.8l.07-.95.22-.92.35-.87" fill="none" stroke="#282c33" stroke-width="2"/>
  <path d="m259 924.55c0 5.53-4.48 10-10 10s-10-4.47-10-10c0-5.52 4.48-10 10-10s10 4.48 10 10z" stroke="#282c33" stroke-width="2"/>
  <path d="m793 1076.8a6 6 0 0 1 6-6h28a6 6 0 0 1 6 6v28a6 6 0 0 1-6 6h-28a6 6 0 0 1-6-6z" fill="#fff"/>
  <path d="M796.28 1071.5l.87-.37.9-.22.95-.07h2.8m3.73 0h5.6m3.74 0h5.6m3.73 0h2.8l.94.08.9.23.88.36m2.63 2.6l.36.88.23.9.07.95v2.8m0 3.74v5.6m0 3.73v5.6m0 3.73v2.8l-.07.94-.22.92-.35.86m-2.63 2.62l-.87.36-.9.22-.95.07h-2.8m-3.73 0h-5.6m-3.74 0h-5.6m-3.73 0H799l-.94-.07-.9-.22-.88-.36m-2.63-2.62l-.36-.87-.23-.93-.07-.94v-2.8m0-3.73v-5.6m0-3.73v-5.6m0-3.74v-2.8l.07-.93.22-.92.35-.87" fill="none" stroke="#282c33" stroke-width="2"/>
  <path d="m793 975.97a6 6 0 0 1 6-6h28a6 6 0 0 1 6 6v28a6 6 0 0 1-6 6h-28a6 6 0 0 1-6-6z" fill="#fff"/>
  <path d="M796.28 970.62l.87-.36.9-.22.95-.07h2.8m3.73 0h5.6m3.74 0h5.6m3.73 0h2.8l.94.07.9.22.88.36m2.63 2.63l.36.87.23.9.07.95v2.8m0 3.73v5.6m0 3.74v5.6m0 3.73v2.8l-.07.94-.22.92-.35.87m-2.63 2.62l-.87.36-.9.22-.95.07h-2.8m-3.73 0h-5.6m-3.74 0h-5.6m-3.73 0H799l-.94-.07-.9-.22-.88-.36m-2.63-2.63l-.36-.88-.23-.9-.07-.95v-2.8m0-3.73v-5.6m0-3.74v-5.6m0-3.73v-2.8l.07-.94.22-.9.35-.88" fill="none" stroke="#282c33" stroke-width="2"/>
  <use transform="matrix(1 0 0 1 805 981.97) translate(-.64198 24.889)" xlink:href="#n"/>
  <path d="M938.5 979.14H906a6 6 0 0 1-6-6v-38.17a6 6 0 0 0-6-6h-75a6 6 0 0 0-6 6v13.38M938.46 979.14H940" fill="none" stroke="#3a414a" stroke-width="3"/>
  <path d="m813 964.12-4.63-14.27h9.26z" fill="#3a414a" stroke="#3a414a" stroke-width="3"/>
  <use transform="matrix(1 0 0 1 908 940.81) translate(0 14.222)" xlink:href="#i"/>
  <use transform="matrix(1 0 0 1 908 940.81) translate(35.556 14.222)" xlink:href="#j"/>
  <use transform="matrix(1 0 0 1 908 940.81) translate(64.099 14.222)" xlink:href="#k"/>
  <path d="M-140 746a6 6 0 0 1 6-6H94a6 6 0 0 1 6 6v72.67a6 6 0 0 1-6 6h-228a6 6 0 0 1-6-6z" fill="#fff" fill-opacity="0"/>
  <use transform="matrix(1 0 0 1 -135 745) translate(89.136 43.639)" xlink:href="#o"/>
  <use transform="matrix(1 0 0 1 -135 745) translate(133.99 43.639)" xlink:href="#p"/>
  <path d="M233.8 877.5h-.94V758.68h.95z" fill="#54c45e" stroke="#54c45e" stroke-width=".05"/>
  <path d="m233.33 883.4-7.63-12.9h15.27z" fill="#54c45e"/>
  <path d="m233.33 884.34-8.47-14.32h16.94zm-6.8-13.37 6.8 11.5 6.8-11.5z" fill="#54c45e" stroke="#54c45e" stroke-width=".05"/>
  <use transform="matrix(1 0 0 1 224.69 721.33) translate(0 24.889)" xlink:href="#q"/>
  <path d="M200.47 877.5h-.94V758.68h.94z" fill="#54c45e" stroke="#54c45e" stroke-width=".05"/>
  <path d="m200 883.4-7.64-12.9h15.28z" fill="#54c45e"/>
  <path d="m200 884.34-8.47-14.32h16.94zm-6.8-13.37 6.8 11.5 6.8-11.5z" fill="#54c45e" stroke="#54c45e" stroke-width=".05"/>
  <use transform="matrix(1 0 0 1 191.36 721.33) translate(0 24.889)" xlink:href="#r"/>
  <path d="M820.48 878.5h-.96V759.68h.96z" fill="#54c45e" stroke="#54c45e" stroke-width=".05"/>
  <path d="m820 884.4-7.64-12.9h15.28z" fill="#54c45e"/>
  <path d="m820 885.34-8.47-14.32h16.94zm-6.8-13.37 6.8 11.5 6.8-11.5z" fill="#54c45e" stroke="#54c45e" stroke-width=".05"/>
  <use transform="matrix(1 0 0 1 773.07 722.33) translate(0 24.889)" xlink:href="#s"/>
  <path d="m259 1290c0 5.52-4.48 10-10 10s-10-4.48-10-10 4.48-10 10-10 10 4.48 10 10z" stroke="#282c33" stroke-width="2"/>
  <path d="m176 1256.8a6 6 0 0 1 6-6h28a6 6 0 0 1 6 6v28a6 6 0 0 1-6 6h-28a6 6 0 0 1-6-6z" fill="#fff" stroke="#282c33" stroke-width="2"/>
  <path d="M251.47 979.3h-1.3v21.34h1.3V1363h-4.94V938.06h4.94z" fill="#54c45e" stroke="#54c45e" stroke-width=".05"/>
  <path d="m249 1373.4-7.64-12.9h15.28z" fill="#54c45e"/>
  <path d="m249 1378.3-11.97-20.24h23.95zm-3.3-15.3 3.3 5.58 3.3-5.57z" fill="#54c45e" stroke="#54c45e" stroke-width=".05"/>
  <path d="M251.47 938.13h-4.94v-2.96l2.47.4 2.47-.4z" fill="#54c45e"/>
  <path d="m129 1384.3a6 6 0 0 1 6-6h228a6 6 0 0 1 6 6v51.34a6 6 0 0 1-6 6h-228a6 6 0 0 1-6-6z" fill="#fff" fill-opacity="0" stroke="#000" stroke-opacity="0" stroke-width="2"/>
  <use transform="matrix(1 0 0 1 134 1383.3) translate(77 20.972)" xlink:href="#t"/>
  <use transform="matrix(1 0 0 1 134 1383.3) translate(27.321 42.306)" xlink:href="#u"/>
  <use transform="matrix(1 0 0 1 134 1383.3) translate(118.04 42.306)" xlink:href="#v"/>
  <path d="m187.1 1311h21.8" fill="none" stroke="#3a414a" stroke-width="3"/>
  <path d="m178.95 1311 12.9-7.63v15.27zm38.1 0-12.9 7.64v-15.26z" fill="#3a414a" stroke="#3a414a" stroke-width="3"/>
  <use transform="matrix(1 0 0 1 190.59 1319.6) translate(.005 21.333)" xlink:href="#w"/>
  <path d="M938 781.98H122.74V778H938z" fill="#54c45e" stroke="#54c45e" stroke-width=".05"/>
  <path d="m120.74 784.63-14.27-4.63 14.27-4.63z" fill="#54c45e"/>
  <path d="M122.7 787.35L100.1 780l22.63-7.35zm-9.84-7.35l5.9 1.92v-3.84zM940 781.98h-2.05V778H940z" fill="#54c45e" stroke="#54c45e" stroke-width=".05"/>
  <defs>
   <path id="x" d="M182-182c0 78-84 86-111 141h115V0H12c-6-101 99-100 120-180 1-22-12-31-33-32-23 0-32 14-35 34l-49-3c5-45 32-70 84-70 51 0 83 22 83 69" fill="#333"/>
   <path id="y" d="M135-194c53 0 70 44 70 98 0 56-19 98-73 100-31 1-45-17-59-34 3 33 2 69 2 105H25l-1-265h48c2 10 0 23 3 31 11-24 29-35 60-35zM114-30c33 0 39-31 40-66 0-38-9-64-40-64-56 0-55 130 0 130" fill="#333"/>
   <g id="a">
    <use transform="scale(.074074)" xlink:href="#x"/>
    <use transform="matrix(.074074 0 0 .074074 14.815 0)" xlink:href="#y"/>
   </g>
   <path id="z" d="M240 0l2-218c-23 76-54 145-80 218h-23L58-218 59 0H30v-248h44l77 211c21-75 51-140 76-211h43V0h-30" fill="#3a414a"/>
   <path id="A" d="M141-36C126-15 110 5 73 4 37 3 15-17 15-53c-1-64 63-63 125-63 3-35-9-54-41-54-24 1-41 7-42 31l-33-3c5-37 33-52 76-52 45 0 72 20 72 64v82c-1 20 7 32 28 27v20c-31 9-61-2-59-35zM48-53c0 20 12 33 32 33 41-3 63-29 60-74-43 2-92-5-92 41" fill="#3a414a"/>
   <path id="B" d="M141 0L90-78 38 0H4l68-98-65-92h35l48 74 47-74h35l-64 92 68 98h-35" fill="#3a414a"/>
   <g id="b">
    <use transform="scale(.08642)" xlink:href="#z"/>
    <use transform="matrix(.08642 0 0 .08642 25.84 0)" xlink:href="#A"/>
    <use transform="matrix(.08642 0 0 .08642 43.123 0)" xlink:href="#B"/>
   </g>
   <path id="C" d="M30-248c87 1 191-15 191 75 0 78-77 80-158 76V0H30v-248zm33 125c57 0 124 11 124-50 0-59-68-47-124-48v98" fill="#3a414a"/>
   <path id="D" d="M114-163C36-179 61-72 57 0H25l-1-190h30c1 12-1 29 2 39 6-27 23-49 58-41v29" fill="#3a414a"/>
   <path id="E" d="M100-194c62-1 85 37 85 99 1 63-27 99-86 99S16-35 15-95c0-66 28-99 85-99zM99-20c44 1 53-31 53-75 0-43-8-75-51-75s-53 32-53 75 10 74 51 75" fill="#3a414a"/>
   <path id="F" d="M85-194c31 0 48 13 60 33l-1-100h32l1 261h-30c-2-10 0-23-3-31C134-8 116 4 85 4 32 4 16-35 15-94c0-66 23-100 70-100zm9 24c-40 0-46 34-46 75 0 40 6 74 45 74 42 0 51-32 51-76 0-42-9-74-50-73" fill="#3a414a"/>
   <path id="G" d="M84 4C-5 8 30-112 23-190h32v120c0 31 7 50 39 49 72-2 45-101 50-169h31l1 190h-30c-1-10 1-25-2-33-11 22-28 36-60 37" fill="#3a414a"/>
   <path id="H" d="m96-169c-40 0-48 33-48 73s9 75 48 75c24 0 41-14 43-38l32 2c-6 37-31 61-74 61-59 0-76-41-82-99-10-93 101-131 147-64 4 7 5 14 7 22l-32 3c-4-21-16-35-41-35" fill="#3a414a"/>
   <path id="I" d="M59-47c-2 24 18 29 38 22v24C64 9 27 4 27-40v-127H5v-23h24l9-43h21v43h35v23H59v120" fill="#3a414a"/>
   <g id="c">
    <use transform="scale(.08642)" xlink:href="#C"/>
    <use transform="matrix(.08642 0 0 .08642 20.741 0)" xlink:href="#D"/>
    <use transform="matrix(.08642 0 0 .08642 31.025 0)" xlink:href="#E"/>
    <use transform="matrix(.08642 0 0 .08642 48.309 0)" xlink:href="#F"/>
    <use transform="matrix(.08642 0 0 .08642 65.593 0)" xlink:href="#G"/>
    <use transform="matrix(.08642 0 0 .08642 82.877 0)" xlink:href="#H"/>
    <use transform="matrix(.08642 0 0 .08642 98.432 0)" xlink:href="#I"/>
   </g>
   <path id="J" d="m133-34c-16 19-30 39-64 38-37-1-58-20-58-58-1-60 55-63 116-61 1-26-3-47-28-47-18 1-26 9-28 27l-52-2c7-38 36-58 82-57s74 22 75 68l1 82c-1 14 12 18 25 15v27c-30 8-71 5-69-32zm-48 3c29 0 43-24 42-57-32 0-66-3-65 30 0 17 8 27 23 27" fill="#333"/>
   <path id="K" d="M25 0v-261h50V0H25" fill="#333"/>
   <path id="L" d="M25-224v-37h50v37H25zM25 0v-190h50V0H25" fill="#333"/>
   <path id="M" d="m195-6c11 88-120 106-164 52-4-6-6-13-8-21l49-6c3 16 16 24 34 25 40 0 42-37 40-79-11 22-30 35-61 35-53 0-70-43-70-97 0-56 18-96 73-97 30 0 46 14 59 34l2-30h47zm-90-29c32 0 41-27 41-63 0-35-9-62-40-62-32 0-39 29-40 63 0 36 9 62 39 62" fill="#333"/>
   <path id="N" d="M135-194c87-1 58 113 63 194h-50c-7-57 23-157-34-157-59 0-34 97-39 157H25l-1-190h47c2 12-1 28 3 38 12-26 28-41 61-42" fill="#333"/>
   <g id="d">
    <use transform="scale(.049383)" xlink:href="#J"/>
    <use transform="matrix(.049383 0 0 .049383 9.8765 0)" xlink:href="#K"/>
    <use transform="matrix(.049383 0 0 .049383 14.815 0)" xlink:href="#L"/>
    <use transform="matrix(.049383 0 0 .049383 19.753 0)" xlink:href="#M"/>
    <use transform="matrix(.049383 0 0 .049383 30.568 0)" xlink:href="#N"/>
   </g>
   <path id="O" d="m137-138c1-29-70-34-71-4 15 46 118 7 119 86 1 83-164 76-172 9l43-7c4 19 20 25 44 25 33 8 57-30 24-41-43-14-102-11-104-66-2-80 154-74 161-7" fill="#333"/>
   <path id="P" d="M114-157C55-157 80-60 75 0H25v-261h50l-1 109c12-26 28-41 61-42 86-1 58 113 63 194h-50c-7-57 23-157-34-157" fill="#333"/>
   <path id="Q" d="M121-226c-27-7-43 5-38 36h38v33H83V0H34v-157H6v-33h28c-9-59 32-81 87-68v32" fill="#333"/>
   <path id="R" d="M115-3C79 11 28 4 28-45v-112H4v-33h27l15-45h31v45h36v33H77v99c-1 23 16 31 38 25v30" fill="#333"/>
   <g id="e">
    <use transform="scale(.049383)" xlink:href="#O"/>
    <use transform="matrix(.049383 0 0 .049383 9.8765 0)" xlink:href="#P"/>
    <use transform="matrix(.049383 0 0 .049383 20.691 0)" xlink:href="#L"/>
    <use transform="matrix(.049383 0 0 .049383 25.63 0)" xlink:href="#Q"/>
    <use transform="matrix(.049383 0 0 .049383 31.506 0)" xlink:href="#R"/>
   </g>
   <path id="S" d="M84 4C32 4 15-41 15-95c0-55 18-99 73-99 29 0 47 12 58 34l2-30h48l-1 265h-49V-32C136-9 114 4 84 4zm21-34c32 0 41-29 41-66 0-36-9-64-40-64-33 0-39 30-40 65 0 43 13 65 39 65" fill="#333"/>
   <use id="f" transform="scale(.074074)" xlink:href="#S"/>
   <path id="T" d="m110-194c64 0 96 36 96 99 0 64-35 99-97 99-61 0-95-36-95-99 0-62 34-99 96-99zm-1 164c35 0 45-28 45-65 0-40-10-65-43-65-34 0-45 26-45 65 0 36 10 65 43 65" fill="#333"/>
   <use id="g" transform="scale(.074074)" xlink:href="#T"/>
   <use id="h" transform="scale(.074074)" xlink:href="#M"/>
   <path id="U" d="M25-224v-37h50v37H25zM75 22c2 45-34 59-81 51V38c22 5 31-5 31-27v-201h50V22" fill="#333"/>
   <path id="V" d="M220-157c-53 9-28 100-34 157h-49v-107c1-27-5-49-29-50C55-147 81-57 75 0H25l-1-190h47c2 12-1 28 3 38 10-53 101-56 108 0 13-22 24-43 59-42 82 1 51 116 57 194h-49v-107c-1-25-5-48-29-50" fill="#333"/>
   <g id="i">
    <use transform="scale(.049383)" xlink:href="#U"/>
    <use transform="matrix(.049383 0 0 .049383 4.9383 0)" xlink:href="#J"/>
    <use transform="matrix(.049383 0 0 .049383 14.815 0)" xlink:href="#V"/>
   </g>
   <path id="W" d="M135-150c-39-12-60 13-60 57V0H25l-1-190h47c2 13-1 29 3 40 6-28 27-53 61-41v41" fill="#333"/>
   <g id="j">
    <use transform="scale(.049383)" xlink:href="#Q"/>
    <use transform="matrix(.049383 0 0 .049383 5.8765 0)" xlink:href="#T"/>
    <use transform="matrix(.049383 0 0 .049383 16.691 0)" xlink:href="#W"/>
   </g>
   <path id="X" d="M240-174c0 40-23 61-54 70L253 0h-59l-57-94H76V0H24v-248c93 4 217-23 216 74zM76-134c48-2 112 12 112-38 0-48-66-32-112-35v73" fill="#333"/>
   <path id="Y" d="M136-208V0H84v-208H4v-40h212v40h-80" fill="#333"/>
   <path id="Z" d="M140-251c80 0 125 45 125 126S219 4 139 4C58 4 15-44 15-125s44-126 125-126zm-1 214c52 0 73-35 73-88 0-50-21-86-72-86-52 0-73 35-73 86s22 88 72 88" fill="#333"/>
   <g id="k">
    <use transform="scale(.049383)" xlink:href="#X"/>
    <use transform="matrix(.049383 0 0 .049383 12.79 0)" xlink:href="#Y"/>
    <use transform="matrix(.049383 0 0 .049383 23.259 0)" xlink:href="#Z"/>
   </g>
   <path id="aa" d="M140-251c81 0 123 46 123 126C263-46 219 4 140 4 59 4 17-45 17-125s42-126 123-126zm0 227c63 0 89-41 89-101s-29-99-89-99c-61 0-89 39-89 99S79-25 140-24" fill="#3a414a"/>
   <path id="ab" d="M106-169C34-169 62-67 57 0H25v-261h32l-1 103c12-21 28-36 61-36 89 0 53 116 60 194h-32v-121c2-32-8-49-39-48" fill="#3a414a"/>
   <path id="ac" d="M100-194c63 0 86 42 84 106H49c0 40 14 67 53 68 26 1 43-12 49-29l28 8c-11 28-37 45-77 45C44 4 14-33 15-96c1-61 26-98 85-98zm52 81c6-60-76-77-97-28-3 7-6 17-6 28h103" fill="#3a414a"/>
   <g id="l">
    <use transform="scale(.08642)" xlink:href="#aa"/>
    <use transform="matrix(.08642 0 0 .08642 24.198 0)" xlink:href="#I"/>
    <use transform="matrix(.08642 0 0 .08642 32.84 0)" xlink:href="#ab"/>
    <use transform="matrix(.08642 0 0 .08642 50.123 0)" xlink:href="#ac"/>
    <use transform="matrix(.08642 0 0 .08642 67.407 0)" xlink:href="#D"/>
   </g>
   <path id="ad" d="M87 75C49 33 22-17 22-94c0-76 28-126 65-167h31c-38 41-64 92-64 168S80 34 118 75H87" fill="#3a414a"/>
   <path id="ae" d="M135-143c-3-34-86-38-87 0 15 53 115 12 119 90S17 21 10-45l28-5c4 36 97 45 98 0-10-56-113-15-118-90-4-57 82-63 122-42 12 7 21 19 24 35" fill="#3a414a"/>
   <path id="af" d="M33-261c38 41 65 92 65 168S71 34 33 75H2C39 34 66-17 66-93S39-220 2-261h31" fill="#3a414a"/>
   <g id="m">
    <use transform="scale(.08642)" xlink:href="#C"/>
    <use transform="matrix(.08642 0 0 .08642 20.741 0)" xlink:href="#D"/>
    <use transform="matrix(.08642 0 0 .08642 31.025 0)" xlink:href="#E"/>
    <use transform="matrix(.08642 0 0 .08642 48.309 0)" xlink:href="#F"/>
    <use transform="matrix(.08642 0 0 .08642 65.593 0)" xlink:href="#G"/>
    <use transform="matrix(.08642 0 0 .08642 82.877 0)" xlink:href="#H"/>
    <use transform="matrix(.08642 0 0 .08642 98.432 0)" xlink:href="#I"/>
    <use transform="matrix(.08642 0 0 .08642 107.07 0)" xlink:href="#ad"/>
    <use transform="matrix(.08642 0 0 .08642 117.36 0)" xlink:href="#ae"/>
    <use transform="matrix(.08642 0 0 .08642 132.91 0)" xlink:href="#af"/>
   </g>
   <path id="ag" d="M101-251c68 0 85 55 85 127S166 4 100 4C33 4 14-52 14-124c0-73 17-127 87-127zm-1 229c47 0 54-49 54-102s-4-102-53-102c-51 0-55 48-55 102 0 53 5 102 54 102" fill="#3a414a"/>
   <use id="n" transform="scale(.08642)" xlink:href="#ag"/>
   <path id="ah" d="M160-131c35 5 61 23 61 61C221 17 115-2 30 0v-248c76 3 177-17 177 60 0 33-19 50-47 57zm-97-11c50-1 110 9 110-42 0-47-63-36-110-37v79zm0 115c55-2 124 14 124-45 0-56-70-42-124-44v89" fill="#54c45e"/>
   <path id="ai" d="M24-231v-30h32v30H24zM24 0v-190h32V0H24" fill="#54c45e"/>
   <path id="aj" d="M59-47c-2 24 18 29 38 22v24C64 9 27 4 27-40v-127H5v-23h24l9-43h21v43h35v23H59v120" fill="#54c45e"/>
   <g id="o">
    <use transform="scale(.08642)" xlink:href="#ah"/>
    <use transform="matrix(.08642 0 0 .08642 20.741 0)" xlink:href="#ai"/>
    <use transform="matrix(.08642 0 0 .08642 27.568 0)" xlink:href="#aj"/>
   </g>
   <path id="ak" d="M266 0h-40l-56-210L115 0H75L2-248h35L96-30l15-64 43-154h32l59 218 59-218h35" fill="#54c45e"/>
   <path id="al" d="M100-194c63 0 86 42 84 106H49c0 40 14 67 53 68 26 1 43-12 49-29l28 8c-11 28-37 45-77 45C44 4 14-33 15-96c1-61 26-98 85-98zm52 81c6-60-76-77-97-28-3 7-6 17-6 28h103" fill="#54c45e"/>
   <path id="am" d="M177-190C167-65 218 103 67 71c-23-6-38-20-44-43l32-5c15 47 100 32 89-28v-30C133-14 115 1 83 1 29 1 15-40 15-95c0-56 16-97 71-98 29-1 48 16 59 35 1-10 0-23 2-32h30zM94-22c36 0 50-32 50-73 0-42-14-75-50-75-39 0-46 34-46 75s6 73 46 73" fill="#54c45e"/>
   <path id="an" d="M106-169C34-169 62-67 57 0H25v-261h32l-1 103c12-21 28-36 61-36 89 0 53 116 60 194h-32v-121c2-32-8-49-39-48" fill="#54c45e"/>
   <g id="p">
    <use transform="scale(.08642)" xlink:href="#ak"/>
    <use transform="matrix(.08642 0 0 .08642 28.691 0)" xlink:href="#al"/>
    <use transform="matrix(.08642 0 0 .08642 45.975 0)" xlink:href="#ai"/>
    <use transform="matrix(.08642 0 0 .08642 52.802 0)" xlink:href="#am"/>
    <use transform="matrix(.08642 0 0 .08642 70.086 0)" xlink:href="#an"/>
    <use transform="matrix(.08642 0 0 .08642 87.37 0)" xlink:href="#aj"/>
   </g>
   <path id="ao" d="M101-251c68 0 84 54 84 127C185-50 166 4 99 4S15-52 14-124c-1-75 17-127 87-127zm-1 216c37-5 36-46 36-89s4-89-36-89c-39 0-36 45-36 89 0 43-3 85 36 89" fill="#54c45e"/>
   <use id="q" transform="scale(.08642)" xlink:href="#ao"/>
   <path id="ap" d="M23 0v-37h61v-169l-59 37v-38l62-41h46v211h57V0H23" fill="#54c45e"/>
   <use id="r" transform="scale(.08642)" xlink:href="#ap"/>
   <path id="aq" d="M14-72v-43h91v43H14" fill="#54c45e"/>
   <path id="ar" d="M84 4C32 4 15-41 15-95c0-55 18-99 73-99 29 0 47 12 58 34l2-30h48l-1 265h-49V-32C136-9 114 4 84 4zm21-34c32 0 41-29 41-66 0-36-9-64-40-64-33 0-39 30-40 65 0 43 13 65 39 65" fill="#54c45e"/>
   <path id="as" d="M125-100v72H85v-72H15v-39h70v-72h40v72h71v39h-71" fill="#54c45e"/>
   <path id="at" d="m195-6c11 88-120 106-164 52-4-6-6-13-8-21l49-6c3 16 16 24 34 25 40 0 42-37 40-79-11 22-30 35-61 35-53 0-70-43-70-97 0-56 18-96 73-97 30 0 46 14 59 34l2-30h47zm-90-29c32 0 41-27 41-63 0-35-9-62-40-62-32 0-39 29-40 63 0 36 9 62 39 62" fill="#54c45e"/>
   <g id="s">
    <use transform="scale(.08642)" xlink:href="#aq"/>
    <use transform="matrix(.08642 0 0 .08642 10.284 0)" xlink:href="#ar"/>
    <use transform="matrix(.08642 0 0 .08642 29.21 0)" xlink:href="#as"/>
    <use transform="matrix(.08642 0 0 .08642 47.358 0)" xlink:href="#ap"/>
    <use transform="matrix(.08642 0 0 .08642 64.642 0)" xlink:href="#aq"/>
    <use transform="matrix(.08642 0 0 .08642 74.926 0)" xlink:href="#at"/>
   </g>
   <path id="au" d="M220-157c-53 9-28 100-34 157h-49v-107c1-27-5-49-29-50C55-147 81-57 75 0H25l-1-190h47c2 12-1 28 3 38 10-53 101-56 108 0 13-22 24-43 59-42 82 1 51 116 57 194h-49v-107c-1-25-5-48-29-50" fill="#3a414a"/>
   <path id="av" d="m133-34c-16 19-30 39-64 38-37-1-58-20-58-58-1-60 55-63 116-61 1-26-3-47-28-47-18 1-26 9-28 27l-52-2c7-38 36-58 82-57s74 22 75 68l1 82c-1 14 12 18 25 15v27c-30 8-71 5-69-32zm-48 3c29 0 43-24 42-57-32 0-66-3-65 30 0 17 8 27 23 27" fill="#3a414a"/>
   <path id="aw" d="M144 0l-44-69L55 0H2l70-98-66-92h53l41 62 40-62h54l-67 91 71 99h-54" fill="#3a414a"/>
   <path id="ax" d="M-4 44V30h207v14H-4" fill="#3a414a"/>
   <path id="ay" d="M185-48c-13 30-37 53-82 52C43 2 14-33 14-96s30-98 90-98c62 0 83 45 84 108H66c0 31 8 55 39 56 18 0 30-7 34-22zm-45-69c5-46-57-63-70-21-2 6-4 13-4 21h74" fill="#3a414a"/>
   <path id="az" d="M135-194c53 0 70 44 70 98 0 56-19 98-73 100-31 1-45-17-59-34 3 33 2 69 2 105H25l-1-265h48c2 10 0 23 3 31 11-24 29-35 60-35zM114-30c33 0 39-31 40-66 0-38-9-64-40-64-56 0-55 130 0 130" fill="#3a414a"/>
   <g id="t">
    <use transform="scale(.049383)" xlink:href="#au"/>
    <use transform="matrix(.049383 0 0 .049383 15.802 0)" xlink:href="#av"/>
    <use transform="matrix(.049383 0 0 .049383 25.679 0)" xlink:href="#aw"/>
    <use transform="matrix(.049383 0 0 .049383 35.556 0)" xlink:href="#ax"/>
    <use transform="matrix(.049383 0 0 .049383 45.432 0)" xlink:href="#ay"/>
    <use transform="matrix(.049383 0 0 .049383 55.309 0)" xlink:href="#aw"/>
    <use transform="matrix(.049383 0 0 .049383 65.185 0)" xlink:href="#az"/>
   </g>
   <path id="aA" d="M67-93c0 74 22 123 53 168H70C40 30 18-18 18-93s22-123 52-168h50c-32 44-53 94-53 168" fill="#3a414a"/>
   <path id="aB" d="M135-150c-39-12-60 13-60 57V0H25l-1-190h47c2 13-1 29 3 40 6-28 27-53 61-41v41" fill="#3a414a"/>
   <path id="aC" d="M121-226c-27-7-43 5-38 36h38v33H83V0H34v-157H6v-33h28c-9-59 32-81 87-68v32" fill="#3a414a"/>
   <path id="aD" d="M135-194c87-1 58 113 63 194h-50c-7-57 23-157-34-157-59 0-34 97-39 157H25l-1-190h47c2 12-1 28 3 38 12-26 28-41 61-42" fill="#3a414a"/>
   <path id="aE" d="m190-63c-7 42-38 67-86 67-59 0-84-38-90-98-12-110 154-137 174-36l-49 2c-2-19-15-32-35-32-30 0-35 28-38 64-6 74 65 87 74 30" fill="#3a414a"/>
   <g id="u">
    <use transform="scale(.049383)" xlink:href="#aA"/>
    <use transform="matrix(.049383 0 0 .049383 5.8765 0)" xlink:href="#aB"/>
    <use transform="matrix(.049383 0 0 .049383 12.79 0)" xlink:href="#ay"/>
    <use transform="matrix(.049383 0 0 .049383 22.667 0)" xlink:href="#aC"/>
    <use transform="matrix(.049383 0 0 .049383 28.543 0)" xlink:href="#ay"/>
    <use transform="matrix(.049383 0 0 .049383 38.42 0)" xlink:href="#aB"/>
    <use transform="matrix(.049383 0 0 .049383 45.333 0)" xlink:href="#ay"/>
    <use transform="matrix(.049383 0 0 .049383 55.21 0)" xlink:href="#aD"/>
    <use transform="matrix(.049383 0 0 .049383 66.025 0)" xlink:href="#aE"/>
    <use transform="matrix(.049383 0 0 .049383 75.901 0)" xlink:href="#ay"/>
   </g>
   <path id="aF" d="m110-194c64 0 96 36 96 99 0 64-35 99-97 99-61 0-95-36-95-99 0-62 34-99 96-99zm-1 164c35 0 45-28 45-65 0-40-10-65-43-65-34 0-45 26-45 65 0 36 10 65 43 65" fill="#3a414a"/>
   <path id="aG" d="M115-3C79 11 28 4 28-45v-112H4v-33h27l15-45h31v45h36v33H77v99c-1 23 16 31 38 25v30" fill="#3a414a"/>
   <path id="aH" d="M102-93c0 74-22 123-52 168H0C30 29 54-18 53-93c0-74-22-123-53-168h50c30 45 52 94 52 168" fill="#3a414a"/>
   <g id="v">
    <use transform="scale(.049383)" xlink:href="#ay"/>
    <use transform="matrix(.049383 0 0 .049383 9.8765 0)" xlink:href="#aw"/>
    <use transform="matrix(.049383 0 0 .049383 19.753 0)" xlink:href="#az"/>
    <use transform="matrix(.049383 0 0 .049383 30.568 0)" xlink:href="#aF"/>
    <use transform="matrix(.049383 0 0 .049383 41.383 0)" xlink:href="#aD"/>
    <use transform="matrix(.049383 0 0 .049383 52.198 0)" xlink:href="#ay"/>
    <use transform="matrix(.049383 0 0 .049383 62.074 0)" xlink:href="#aD"/>
    <use transform="matrix(.049383 0 0 .049383 72.889 0)" xlink:href="#aG"/>
    <use transform="matrix(.049383 0 0 .049383 78.765 0)" xlink:href="#aH"/>
   </g>
   <path id="aI" d="M23 0v-37h61v-169l-59 37v-38l62-41h46v211h57V0H23" fill="#333"/>
   <use id="w" transform="scale(.074074)" xlink:href="#aI"/>
  </defs>
 </g>
</svg>
