<svg xmlns="http://www.w3.org/2000/svg" xmlns:xlink="http://www.w3.org/1999/xlink" xmlns:lucid="lucid" width="1512" height="757"><g transform="translate(116 -704)" lucid:page-tab-id="0_0"><path d="M-500 500h2000v1000H-500z" fill="#fff"/><path d="M793 1167.77a6 6 0 0 1 6-6h28a6 6 0 0 1 6 6v28a6 6 0 0 1-6 6h-28a6 6 0 0 1-6-6z" fill="#fff"/><path d="M796.28 1162.42l.87-.36.9-.22.95-.07h2.8m3.73 0h5.6m3.74 0h5.6m3.73 0h2.8l.94.07.9.22.88.36m2.63 2.62l.36.87.23.93.07.94v2.8m0 3.73v5.6m0 3.73v5.6m0 3.73v2.8l-.07.94-.22.92-.35.87m-2.63 2.6l-.87.37-.9.22-.95.07h-2.8m-3.73 0h-5.6m-3.74 0h-5.6m-3.73 0H799l-.94-.08-.9-.23-.88-.36m-2.63-2.6l-.36-.88-.23-.92-.07-.93v-2.8m0-3.74v-5.6m0-3.73v-5.6m0-3.73v-2.8l.07-.94.22-.92.35-.86" stroke="#3a414a" stroke-width="2" fill="none"/><path d="M833 1076.83a6 6 0 0 1 6-6h109a6 6 0 0 1 6 6v28a6 6 0 0 1-6 6H839a6 6 0 0 1-6-6z" stroke="#000" stroke-opacity="0" stroke-width="2" fill="#ffdda6"/><path d="M213 891.4a6 6 0 0 1 6-6h314a6 6 0 0 1 6 6v28a6 6 0 0 1-6 6H219a6 6 0 0 1-6-6z" fill="#fff"/><path d="M216.28 886.04l.87-.36.9-.22.95-.07h3.04m4.05 0h6.07m4.05 0h6.08m4.05 0h6.08m4.05 0h6.07m4.06 0h6.08m4.06 0h6.07m4.06 0h6.08m4.05 0h6.07m4.05 0h6.08m4.05 0h6.08m4.05 0h6.08m4.05 0h6.1m4.04 0h6.08m4.05 0h6.08m4.05 0h6.07m4.06 0h6.07m4.05 0h6.08m4.05 0h6.08m4.05 0h6.1m4.04 0h6.08m4.05 0h6.08m4.05 0h6.08m4.05 0H455m4.06 0h6.07m4.06 0h6.06m4.06 0h6.07m4.05 0h6.07m4.05 0h6.08m4.05 0h6.08m4.05 0h6.08m4.06 0H533l.94.06.9.22.88.36m2.63 2.62l.36.87.23.92.07.94v2.8m0 3.72v5.6m0 3.73v5.6m0 3.74v2.8l-.07.93-.22.9-.35.88m-2.63 2.63l-.87.36-.9.2-.95.1h-3.04m-4.05 0h-6.07m-4.05 0h-6.08m-4.05 0h-6.08m-4.05 0h-6.07m-4.06 0h-6.08m-4.06 0h-6.07m-4.06 0h-6.08m-4.05 0h-6.07m-4.05 0h-6.08m-4.05 0h-6.08m-4.05 0h-6.08m-4.05 0h-6.1m-4.04 0h-6.08m-4.05 0h-6.08m-4.05 0h-6.07m-4.06 0h-6.07m-4.05 0h-6.08m-4.05 0h-6.08m-4.05 0h-6.1m-4.04 0h-6.08m-4.05 0h-6.08m-4.05 0h-6.08m-4.05 0H297m-4.06 0h-6.07m-4.06 0h-6.06m-4.06 0h-6.07m-4.05 0h-6.07m-4.05 0h-6.08m-4.05 0h-6.08m-4.05 0h-6.08m-4.06 0H219l-.94-.1-.9-.2-.88-.37m-2.63-2.62l-.36-.86-.23-.9-.07-.95v-2.8m0-3.75v-5.6m0-3.73v-5.6m0-3.73v-2.8l.07-.95.22-.92.35-.87" stroke="#3a414a" stroke-width="2" fill="none"/><path d="M352.25 851.45H193.5v-2.96h158.75zm170.26 0h-93.24v-2.96h93.25z" stroke="#3a414a" stroke-width=".05" fill="#3a414a"/><path d="M192 857.47l-13-7.5 13-7.5z" fill="#3a414a"/><path d="M193.47 860.02l-17.42-10.05 17.4-10.06zm-11.52-10.05l8.56 4.94v-9.88z" stroke="#3a414a" stroke-width=".05" fill="#3a414a"/><path d="M537 849.97l-13 7.5v-15z" fill="#3a414a"/><path d="M539.95 849.97l-17.42 10.05v-20.1zm-14.47 4.94l8.57-4.93-8.57-4.95z" stroke="#3a414a" stroke-width=".05" fill="#3a414a"/><use xlink:href="#a" transform="matrix(1,0,0,1,352.2544427083334,833.8373084324879) translate(0.005000000000002558 25.833333333333332)"/><use xlink:href="#b" transform="matrix(1,0,0,1,352.2544427083334,833.8373084324879) translate(28.188593750000003 25.833333333333332)"/><use xlink:href="#c" transform="matrix(1,0,0,1,352.2544427083334,833.8373084324879) translate(52.60265625 25.833333333333332)"/><path d="M-140 873.03a6 6 0 0 1 6-6H94a6 6 0 0 1 6 6v72.67a6 6 0 0 1-6 6h-228a6 6 0 0 1-6-6z" stroke="#000" stroke-opacity="0" stroke-width="2" fill="#fff" fill-opacity="0"/><use xlink:href="#d" transform="matrix(1,0,0,1,-135,872.0298790675122) translate(43.576388888888914 48.888888888888886)"/><use xlink:href="#e" transform="matrix(1,0,0,1,-135,872.0298790675122) translate(114.88281250000001 48.888888888888886)"/><path d="M174 891.4a6 6 0 0 1 6-6h28a6 6 0 0 1 6 6v28a6 6 0 0 1-6 6h-28a6 6 0 0 1-6-6z" fill="#fff"/><path d="M177.28 886.04l.87-.36.9-.22.95-.07h2.8m3.73 0h5.6m3.74 0h5.6m3.73 0h2.8l.94.06.9.22.88.36m2.63 2.62l.36.87.23.92.07.94v2.8m0 3.72v5.6m0 3.73v5.6m0 3.74v2.8l-.07.93-.22.9-.35.88m-2.63 2.63l-.87.36-.9.2-.95.1h-2.8m-3.73 0h-5.6m-3.74 0h-5.6m-3.73 0H180l-.94-.1-.9-.2-.88-.37m-2.63-2.62l-.36-.86-.23-.9-.07-.95v-2.8m0-3.75v-5.6m0-3.73v-5.6m0-3.73v-2.8l.07-.95.22-.92.35-.87" stroke="#3a414a" stroke-width="2" fill="none"/><path d="M374 975.97a6 6 0 0 1 6-6h188a6 6 0 0 1 6 6v28a6 6 0 0 1-6 6H380a6 6 0 0 1-6-6zM574 975.97a6 6 0 0 1 6-6h188a6 6 0 0 1 6 6v28a6 6 0 0 1-6 6H580a6 6 0 0 1-6-6z" stroke="#3a414a" stroke-width="2" fill="#fff"/><path d="M374 975.97a6 6 0 0 1 6-6h28a6 6 0 0 1 6 6v28a6 6 0 0 1-6 6h-28a6 6 0 0 1-6-6zM414 975.97a6 6 0 0 1 6-6h28a6 6 0 0 1 6 6v28a6 6 0 0 1-6 6h-28a6 6 0 0 1-6-6z" stroke="#3a414a" stroke-width="2" fill="#fff"/><path d="M463.76 1009.9c0 5.52-4.48 10-10 10s-10-4.48-10-10 4.48-10 10-10 10 4.48 10 10z" stroke="#282c33" stroke-width="2"/><path d="M249.4 991.45h-72.9v-2.96h72.9zm102.98 0H334.6v-2.96h17.78z" stroke="#3a414a" stroke-width=".05" fill="#3a414a"/><path d="M176.54 991.45H175v-2.96h1.54z" stroke="#3a414a" stroke-width=".05" fill="#3a414a"/><path d="M368.15 989.97l-14.27 4.63v-9.26z" fill="#3a414a"/><path d="M372.92 989.97l-20.52 6.67V983.3zm-17.56 2.6l8-2.6-8-2.6z" stroke="#3a414a" stroke-width=".05" fill="#3a414a"/><use xlink:href="#f" transform="matrix(1,0,0,1,249.41353881123447,979.2149125991546) translate(0 17.22222222222222)"/><use xlink:href="#g" transform="matrix(1,0,0,1,249.41353881123447,979.2149125991546) translate(46.467013888888886 17.22222222222222)"/><path d="M554 1076.83a6 6 0 0 1 6-6h188a6 6 0 0 1 6 6v28a6 6 0 0 1-6 6H560a6 6 0 0 1-6-6zM754 1076.83a6 6 0 0 1 6-6h188a6 6 0 0 1 6 6v28a6 6 0 0 1-6 6H760a6 6 0 0 1-6-6z" stroke="#3a414a" stroke-width="2" fill="#fff"/><path d="M554 1076.83a6 6 0 0 1 6-6h28a6 6 0 0 1 6 6v28a6 6 0 0 1-6 6h-28a6 6 0 0 1-6-6zM594 1076.83a6 6 0 0 1 6-6h28a6 6 0 0 1 6 6v28a6 6 0 0 1-6 6h-28a6 6 0 0 1-6-6z" stroke="#3a414a" stroke-width="2" fill="#fff"/><path d="M643.76 1110.77c0 5.52-4.48 10-10 10s-10-4.48-10-10c0-5.53 4.48-10 10-10s10 4.47 10 10z" stroke="#282c33" stroke-width="2"/><path d="M355.8 1092.3H176.5v-2.94h179.3zm176.58 0h-91.4v-2.94h91.4z" stroke="#3a414a" stroke-width=".05" fill="#3a414a"/><path d="M176.54 1092.3H175v-2.94h1.54z" stroke="#3a414a" stroke-width=".05" fill="#3a414a"/><path d="M548.15 1090.83l-14.27 4.64v-9.27z" fill="#3a414a"/><path d="M552.92 1090.83l-20.5 6.67v-13.33zm-17.56 2.6l8-2.6-8-2.6z" stroke="#3a414a" stroke-width=".05" fill="#3a414a"/><use xlink:href="#f" transform="matrix(1,0,0,1,355.78537138112915,1080.0781250000002) translate(0 17.22222222222222)"/><use xlink:href="#g" transform="matrix(1,0,0,1,355.78537138112915,1080.0781250000002) translate(46.467013888888886 17.22222222222222)"/><path d="M216 1256.83a6 6 0 0 1 6-6h468a6 6 0 0 1 6 6v28a6 6 0 0 1-6 6H222a6 6 0 0 1-6-6z" stroke="#3a414a" stroke-width="2" fill="#fff"/><path d="M447.6 1312.3H237.5v-2.94h210.1zm226.9 0H464.4v-2.94h210.1z" stroke="#3a414a" stroke-width=".05" fill="#3a414a"/><path d="M236 1318.33l-13-7.5 13-7.5z" fill="#3a414a"/><path d="M237.47 1320.9l-17.42-10.07 17.4-10.05zm-11.52-10.07l8.56 4.95v-9.9z" stroke="#3a414a" stroke-width=".05" fill="#3a414a"/><path d="M689 1310.83l-13 7.5v-15z" fill="#3a414a"/><path d="M691.95 1310.83l-17.42 10.06v-20.12zm-14.47 4.95l8.57-4.95-8.56-4.94z" stroke="#3a414a" stroke-width=".05" fill="#3a414a"/><use xlink:href="#h" transform="matrix(1,0,0,1,447.5950520833334,1294.7005208333335) translate(0.005000000000000782 25.833333333333332)"/><path d="M54 1256.83a6 6 0 0 1 6-6h108a6 6 0 0 1 6 6v28a6 6 0 0 1-6 6H60a6 6 0 0 1-6-6z" stroke="#3a414a" stroke-width="2" fill="#fff"/><path d="M105.82 1312.3H71.5v-2.94h34.32zm50.7 0h-34.34v-2.94h34.33z" stroke="#3a414a" stroke-width=".05" fill="#3a414a"/><path d="M70 1318.33l-13-7.5 13-7.5z" fill="#3a414a"/><path d="M71.47 1320.9l-17.42-10.07 17.42-10.05zm-11.52-10.07l8.56 4.95.02-9.9z" stroke="#3a414a" stroke-width=".05" fill="#3a414a"/><path d="M171 1310.83l-13 7.5v-15z" fill="#3a414a"/><path d="M173.95 1310.83l-17.4 10.06-.02-20.12zm-14.46 4.95l8.55-4.95-8.56-4.94z" stroke="#3a414a" stroke-width=".05" fill="#3a414a"/><use xlink:href="#i" transform="matrix(1,0,0,1,105.82291666666661,1294.7005208333335) translate(0.005000000000000782 25.833333333333332)"/><path d="M834 821.76V1369" stroke="#282c33" stroke-width="2" stroke-linecap="round" fill="none"/><path d="M694 1256.83a6 6 0 0 1 6-6h127a6 6 0 0 1 6 6v28a6 6 0 0 1-6 6H700a6 6 0 0 1-6-6z" stroke="#3a414a" stroke-width="2" fill="#fff"/><path d="M755.58 1312.3h-44.1v-2.94h44.1zm60.93 0h-44.08v-2.94h44.1z" stroke="#3a414a" stroke-width=".05" fill="#3a414a"/><path d="M710 1318.33l-13-7.5 13-7.5z" fill="#3a414a"/><path d="M711.47 1320.9l-17.42-10.07 17.42-10.05zm-11.52-10.07l8.56 4.95v-9.9z" stroke="#3a414a" stroke-width=".05" fill="#3a414a"/><path d="M831 1310.83l-13 7.5v-15z" fill="#3a414a"/><path d="M833.95 1310.83l-17.42 10.06v-20.12zm-14.47 4.95l8.57-4.95-8.56-4.94z" stroke="#3a414a" stroke-width=".05" fill="#3a414a"/><use xlink:href="#j" transform="matrix(1,0,0,1,755.5755208333335,1294.7005208333335) translate(0.005000000000000782 25.833333333333332)"/><path d="M835 1076.83a6 6 0 0 1 6-6h107a6 6 0 0 1 6 6v28a6 6 0 0 1-6 6H841a6 6 0 0 1-6-6z" stroke="#282c33" stroke-width="2" fill="#ffdda6"/><path d="M894.5 1068.33v-32.5a6 6 0 0 0-6-6h-71.54a6 6 0 0 0-6 6v13.38" stroke="#3a414a" stroke-width="3" fill="none"/><path d="M895.98 1069.83H893v-1.53H896z" stroke="#3a414a" stroke-width=".05" fill="#3a414a"/><path d="M810.96 1064.98l-4.64-14.27h9.27z" stroke="#3a414a" stroke-width="3" fill="#3a414a"/><use xlink:href="#k" transform="matrix(1,0,0,1,853.8911569945959,1005.3690520520126) translate(0 17.22222222222222)"/><use xlink:href="#l" transform="matrix(1,0,0,1,853.8911569945959,1005.3690520520126) translate(35.57291666666667 17.22222222222222)"/><use xlink:href="#m" transform="matrix(1,0,0,1,853.8911569945959,1005.3690520520126) translate(64.61805555555556 17.22222222222222)"/><path d="M1253 1167.77a6 6 0 0 1 6-6h109a6 6 0 0 1 6 6v28a6 6 0 0 1-6 6h-109a6 6 0 0 1-6-6z" stroke="#000" stroke-opacity="0" stroke-width="2" fill="#ffdda6"/><path d="M974 1167.77a6 6 0 0 1 6-6h188a6 6 0 0 1 6 6v28a6 6 0 0 1-6 6H980a6 6 0 0 1-6-6z" stroke="#282c33" stroke-width="2" fill="#ffdda6"/><path d="M1174 1167.77a6 6 0 0 1 6-6h188a6 6 0 0 1 6 6v28a6 6 0 0 1-6 6h-188a6 6 0 0 1-6-6z" stroke="#3a414a" stroke-width="2" fill="#fff"/><path d="M974 1167.77a6 6 0 0 1 6-6h28a6 6 0 0 1 6 6v28a6 6 0 0 1-6 6h-28a6 6 0 0 1-6-6zM1014 1167.77a6 6 0 0 1 6-6h28a6 6 0 0 1 6 6v28a6 6 0 0 1-6 6h-28a6 6 0 0 1-6-6z" stroke="#282c33" stroke-width="2" fill="#ffdda6"/><path d="M604 1183.24H176.5v-2.95H604zm348.38 0h-263.2v-2.95h263.2z" stroke="#3a414a" stroke-width=".05" fill="#3a414a"/><path d="M176.54 1183.24H175v-2.95h1.54z" stroke="#3a414a" stroke-width=".05" fill="#3a414a"/><path d="M968.15 1181.77l-14.27 4.63v-9.27z" fill="#3a414a"/><path d="M972.92 1181.77l-20.5 6.66v-13.33zm-17.56 2.6l8-2.6-8-2.6z" stroke="#3a414a" stroke-width=".05" fill="#3a414a"/><use xlink:href="#f" transform="matrix(1,0,0,1,603.9863140442169,1171.0097062004231) translate(0 17.22222222222222)"/><use xlink:href="#g" transform="matrix(1,0,0,1,603.9863140442169,1171.0097062004231) translate(46.467013888888886 17.22222222222222)"/><path d="M1174 1167.77a6 6 0 0 1 6-6h188a6 6 0 0 1 6 6v28a6 6 0 0 1-6 6h-188a6 6 0 0 1-6-6z" stroke="#282c33" stroke-width="2" fill="#ffdda6"/><path d="M1176.54 1160.2v-33.43a6 6 0 0 0-6-6H819a6 6 0 0 0-6 6v13.38" stroke="#3a414a" stroke-width="3" fill="none"/><path d="M1178.02 1161.06l-.18.05-1.02.43-.94.57-.8.7v-2.64h2.94z" stroke="#3a414a" stroke-width=".05" fill="#3a414a"/><path d="M813 1155.9l-4.63-14.26h9.26z" stroke="#3a414a" stroke-width="3" fill="#3a414a"/><use xlink:href="#k" transform="matrix(1,0,0,1,1047.197246302767,1095.2545478670834) translate(0 17.22222222222222)"/><use xlink:href="#l" transform="matrix(1,0,0,1,1047.197246302767,1095.2545478670834) translate(35.57291666666667 17.22222222222222)"/><use xlink:href="#m" transform="matrix(1,0,0,1,1047.197246302767,1095.2545478670834) translate(64.61805555555556 17.22222222222222)"/><path d="M1054 1167.77a6 6 0 0 1 6-6h108a6 6 0 0 1 6 6v28a6 6 0 0 1-6 6h-108a6 6 0 0 1-6-6z" stroke="#282c33" stroke-width="2" fill="#ffdda6"/><path d="M1063.76 1201.7c0 5.52-4.48 10-10 10s-10-4.48-10-10c0-5.53 4.48-10 10-10s10 4.47 10 10z" stroke="#282c33" stroke-width="2"/><path d="M-120 996.83a6 6 0 0 1 6-6h228a6 6 0 0 1 6 6v208.87a6 6 0 0 1-6 6h-228a6 6 0 0 1-6-6z" fill="none"/><path d="M120 1211.7c-5.52 0-10-4.48-10-10v-90.43c0-5.53-4.48-10-10-10 5.52 0 10-4.48 10-10v-90.44c0-5.52 4.48-10 10-10" stroke="#3a414a" stroke-width="2" fill="none"/><use xlink:href="#n" transform="matrix(1,0,0,1,-115,995.8333333333334) translate(117.78645833333336 97.99565972222223)"/><use xlink:href="#o" transform="matrix(1,0,0,1,-115,995.8333333333334) translate(45.7660590277778 135.63888888888889)"/><path d="M693 1231.83v118M175 806.73v553.1" stroke="#282c33" stroke-width="2" stroke-linecap="round" fill="none"/><path d="M214 891.4a6 6 0 0 1 6-6h28a6 6 0 0 1 6 6v28a6 6 0 0 1-6 6h-28a6 6 0 0 1-6-6z" fill="#fff"/><path d="M217.28 886.04l.87-.36.9-.22.95-.07h2.8m3.73 0h5.6m3.74 0h5.6m3.73 0h2.8l.94.06.9.22.88.36m2.63 2.62l.36.87.23.92.07.94v2.8m0 3.72v5.6m0 3.73v5.6m0 3.74v2.8l-.07.93-.22.9-.35.88m-2.63 2.63l-.87.36-.9.2-.95.1h-2.8m-3.73 0h-5.6m-3.74 0h-5.6m-3.73 0H220l-.94-.1-.9-.2-.88-.37m-2.63-2.62l-.36-.86-.23-.9-.07-.95v-2.8m0-3.75v-5.6m0-3.73v-5.6m0-3.73v-2.8l.07-.95.22-.92.35-.87" stroke="#3a414a" stroke-width="2" fill="none"/><path d="M259 924.55c0 5.53-4.48 10-10 10s-10-4.47-10-10c0-5.52 4.48-10 10-10s10 4.48 10 10z" stroke="#282c33" stroke-width="2"/><path d="M793 1076.83a6 6 0 0 1 6-6h28a6 6 0 0 1 6 6v28a6 6 0 0 1-6 6h-28a6 6 0 0 1-6-6z" fill="#fff"/><path d="M796.28 1071.5l.87-.37.9-.22.95-.07h2.8m3.73 0h5.6m3.74 0h5.6m3.73 0h2.8l.94.08.9.23.88.36m2.63 2.6l.36.88.23.9.07.95v2.8m0 3.74v5.6m0 3.73v5.6m0 3.73v2.8l-.07.94-.22.92-.35.86m-2.63 2.62l-.87.36-.9.22-.95.07h-2.8m-3.73 0h-5.6m-3.74 0h-5.6m-3.73 0H799l-.94-.07-.9-.22-.88-.36m-2.63-2.62l-.36-.87-.23-.93-.07-.94v-2.8m0-3.73v-5.6m0-3.73v-5.6m0-3.74v-2.8l.07-.93.22-.92.35-.87" stroke="#3a414a" stroke-width="2" fill="none"/><path d="M793 975.97a6 6 0 0 1 6-6h28a6 6 0 0 1 6 6v28a6 6 0 0 1-6 6h-28a6 6 0 0 1-6-6z" fill="#fff"/><path d="M796.28 970.62l.87-.36.9-.22.95-.07h2.8m3.73 0h5.6m3.74 0h5.6m3.73 0h2.8l.94.07.9.22.88.36m2.63 2.63l.36.87.23.9.07.95v2.8m0 3.73v5.6m0 3.74v5.6m0 3.73v2.8l-.07.94-.22.92-.35.87m-2.63 2.62l-.87.36-.9.22-.95.07h-2.8m-3.73 0h-5.6m-3.74 0h-5.6m-3.73 0H799l-.94-.07-.9-.22-.88-.36m-2.63-2.63l-.36-.88-.23-.9-.07-.95v-2.8m0-3.73v-5.6m0-3.74v-5.6m0-3.73v-2.8l.07-.94.22-.9.35-.88" stroke="#3a414a" stroke-width="2" fill="none"/><path d="M938.5 979.14H906a6 6 0 0 1-6-6v-38.17a6 6 0 0 0-6-6h-75a6 6 0 0 0-6 6v13.38M938.46 979.14H940" stroke="#3a414a" stroke-width="3" fill="none"/><path d="M813 964.12l-4.63-14.27h9.26z" stroke="#3a414a" stroke-width="3" fill="#3a414a"/><use xlink:href="#k" transform="matrix(1,0,0,1,908.0000000000001,940.716415300865) translate(0 17.22222222222222)"/><use xlink:href="#l" transform="matrix(1,0,0,1,908.0000000000001,940.716415300865) translate(35.57291666666667 17.22222222222222)"/><use xlink:href="#m" transform="matrix(1,0,0,1,908.0000000000001,940.716415300865) translate(64.61805555555556 17.22222222222222)"/><path d="M-140 746a6 6 0 0 1 6-6H94a6 6 0 0 1 6 6v72.67a6 6 0 0 1-6 6h-228a6 6 0 0 1-6-6z" fill="#fff" fill-opacity="0"/><use xlink:href="#p" transform="matrix(1,0,0,1,-135,745) translate(80.77907986111114 48.888888888888886)"/><use xlink:href="#q" transform="matrix(1,0,0,1,-135,745) translate(127.59765625000003 48.888888888888886)"/><path d="M233.8 869.9h-.94V758.82h.95z" stroke="#54c45e" stroke-width=".05" fill="#54c45e"/><path d="M233.33 883.4l-7.5-13h15z" fill="#54c45e"/><path d="M233.33 884.34L225 869.92h16.66zm-6.67-13.47l6.67 11.57 6.68-11.57z" stroke="#54c45e" stroke-width=".05" fill="#54c45e"/><path stroke="#54c45e" stroke-width=".05" fill="#54c45e"/><use xlink:href="#r" transform="matrix(1,0,0,1,222.84396671247134,721.1783854166666) translate(0 30.138888888888875)"/><path d="M200.47 869.9h-.94V758.82h.94z" stroke="#54c45e" stroke-width=".05" fill="#54c45e"/><path d="M200 883.4l-7.5-13h15z" fill="#54c45e"/><path d="M200 884.34l-8.32-14.42h16.64zm-6.68-13.47l6.68 11.57 6.68-11.57z" stroke="#54c45e" stroke-width=".05" fill="#54c45e"/><path stroke="#54c45e" stroke-width=".05" fill="#54c45e"/><use xlink:href="#s" transform="matrix(1,0,0,1,193.29318576388889,721.1783854166666) translate(0 30.138888888888875)"/><path d="M820.48 870.9h-.96V759.82h.96z" stroke="#54c45e" stroke-width=".05" fill="#54c45e"/><path d="M820 884.4l-7.5-13h15z" fill="#54c45e"/><path d="M820 885.34l-8.32-14.42h16.64zm-6.68-13.47l6.68 11.57 6.68-11.57z" stroke="#54c45e" stroke-width=".05" fill="#54c45e"/><path stroke="#54c45e" stroke-width=".05" fill="#54c45e"/><use xlink:href="#t" transform="matrix(1,0,0,1,768.5481770833334,722.1782899814224) translate(0 30.138888888888875)"/><path d="M259 1290c0 5.52-4.48 10-10 10s-10-4.48-10-10 4.48-10 10-10 10 4.48 10 10z" stroke="#282c33" stroke-width="2"/><path d="M176 1256.83a6 6 0 0 1 6-6h28a6 6 0 0 1 6 6v28a6 6 0 0 1-6 6h-28a6 6 0 0 1-6-6z" stroke="#3a414a" stroke-width="2" fill="#fff"/><path d="M251.47 979.2h-2.06v21.52h2.07v357.12h-4.94V938.07h4.94z" stroke="#54c45e" stroke-width=".05" fill="#54c45e"/><path d="M249 1373.33l-7.5-13h15z" fill="#54c45e"/><path d="M249 1378.28l-11.8-20.4h23.6zm-3.2-15.46l3.2 5.56 3.2-5.56z" stroke="#54c45e" stroke-width=".05" fill="#54c45e"/><path d="M251.47 938.13h-4.94v-2.96l2.47.4 2.47-.4z" fill="#54c45e"/><path stroke="#54c45e" stroke-width=".05" fill="#54c45e"/><path d="M129 1384.33a6 6 0 0 1 6-6h228a6 6 0 0 1 6 6v51.34a6 6 0 0 1-6 6H135a6 6 0 0 1-6-6z" stroke="#000" stroke-opacity="0" stroke-width="2" fill="#fff" fill-opacity="0"/><g><use xlink:href="#u" transform="matrix(1,0,0,1,133.99999999999994,1383.3333333333333) translate(76.46267361111111 23.97222222222222)"/><use xlink:href="#v" transform="matrix(1,0,0,1,133.99999999999994,1383.3333333333333) translate(22.990451388888886 45.482638888888886)"/><use xlink:href="#w" transform="matrix(1,0,0,1,133.99999999999994,1383.3333333333333) translate(118.4157986111111 45.482638888888886)"/></g><path d="M193.5 1310.97h9" stroke="#3a414a" stroke-width="3" fill="none"/><path d="M179 1310.97l13-7.5v15zM217 1310.97l-13 7.5v-15z" stroke="#3a414a" stroke-width="3" fill="#3a414a"/><g><use xlink:href="#x" transform="matrix(1,0,0,1,192.2513020833333,1322.4747137310765) translate(0.004999999999999893 25.833333333333332)"/></g><path d="M122.74 780H938" stroke="#54c45e" stroke-width="4" fill="none"/><path d="M106.47 780l14.27-4.63v9.26z" stroke="#54c45e" stroke-width="4" fill="#54c45e"/><path d="M937.95 780H940" stroke="#54c45e" stroke-width="4" fill="none"/><path d="M801 975.97a6 6 0 0 1 6-6h12a6 6 0 0 1 6 6v24.9a6 6 0 0 1-6 6h-12a6 6 0 0 1-6-6z" fill="none"/><g><use xlink:href="#y" transform="matrix(1,0,0,1,805.9854513888889,974.9701209324879) translate(0 21.58376736111111)"/></g><defs><path fill="#333" d="M128 418v-1536h295v188h14c41-89 129-202 319-202 248 0 453 193 453 575 0 372-197 576-455 576-183 0-275-108-317-198h-9v597H128zm534-640c156 0 240-139 240-336 0-196-83-334-240-334-154 0-241 131-241 334 0 202 88 336 241 336" id="z"/><path fill="#333" d="M428-1490V0H128v-1490h300" id="A"/><g id="a"><use transform="matrix(0.013020833333333332,0,0,0.013020833333333332,0,0)" xlink:href="#z"/><use transform="matrix(0.009114583333333332,0,0,0.009114583333333332,16.809895833333332,4.520833333333333)" xlink:href="#A"/></g><path fill="#333" d="M568-82v-393H183v-240h385v-393h254v393h386v240H822v393H568" id="B"/><use transform="matrix(0.013020833333333332,0,0,0.013020833333333332,0,0)" xlink:href="#B" id="b"/><path fill="#333" d="M128 0v-1118h290v195h12c54-169 184-238 367-200v268c-27-8-86-15-130-15-138 0-239 95-239 234V0H128" id="C"/><g id="c"><use transform="matrix(0.013020833333333332,0,0,0.013020833333333332,0,0)" xlink:href="#z"/><use transform="matrix(0.009114583333333332,0,0,0.009114583333333332,16.809895833333332,4.520833333333333)" xlink:href="#C"/></g><path d="M180 0v-1490h270l367 940c28 72 75 218 110 339 35-117 81-264 110-339l362-940h271V0h-187c2-448-5-837 7-1287-157 497-311 829-483 1287H842C666-458 514-784 354-1284c12 438 5 843 7 1284H180" id="D"/><path d="M471 26C259 26 90-98 90-318c0-256 228-303 435-329 202-27 287-16 287-108 0-139-79-219-234-219-161 0-248 86-283 164l-173-57c86-203 278-265 451-265 150 0 419 46 419 395V0H815v-152h-12C765-73 660 26 471 26zm31-159c199 0 310-134 310-271v-155c-30 35-226 55-295 64-131 17-246 59-246 186 0 116 97 176 231 176" id="E"/><path d="M65 0l393-574-370-544h210c88 136 192 297 267 435 67-142 176-302 264-435h206L661-564 1053 0H844c-94-144-206-310-287-458C484-308 366-142 273 0H65" id="F"/><g id="d"><use transform="matrix(0.015190972222222219,0,0,0.015190972222222219,0,0)" xlink:href="#D"/><use transform="matrix(0.015190972222222219,0,0,0.015190972222222219,28.103298611111104,0)" xlink:href="#E"/><use transform="matrix(0.015190972222222219,0,0,0.015190972222222219,45.57291666666666,0)" xlink:href="#F"/></g><path d="M180 0v-1490h510c348 0 508 209 508 474 0 266-160 477-507 477H370V0H180zm190-706h312c236 0 327-133 327-310 0-176-91-307-329-307H370v617" id="G"/><path d="M158 0v-1118h174v172h12c41-113 157-188 290-188 26 0 70 2 91 3v181c-11-2-60-10-108-10-161 0-279 109-279 260V0H158" id="H"/><path d="M613 24c-304 0-509-231-509-576 0-350 205-580 509-580 305 0 511 230 511 580 0 345-206 576-511 576zm0-161c226 0 329-195 329-415 0-222-103-419-329-419-223 0-326 196-326 419 0 220 103 415 326 415" id="I"/><path d="M577 24c-279 0-473-224-473-580 0-354 195-576 474-576 218 0 287 134 324 193h14v-551h180V0H922v-173h-20C865-111 790 24 577 24zm27-161c203 0 314-172 314-421 0-247-108-413-314-413-212 0-317 181-317 413 0 235 108 421 317 421" id="J"/><path d="M537 14c-226 0-379-139-379-422v-710h180v695c0 172 97 275 253 275 160 0 281-109 281-300v-670h181V0H879v-209C806-46 684 14 537 14" id="K"/><path d="M613 24c-304 0-509-231-509-576 0-350 205-580 509-580 216 0 392 114 453 309l-173 49c-33-115-133-197-280-197-223 0-326 196-326 419 0 220 103 415 326 415 150 0 252-85 285-206l172 49C1010-95 832 24 613 24" id="L"/><path d="M598-1118v154H368v674c0 100 37 144 132 144 23 0 62-6 92-12L629-6c-37 13-88 20-134 20-193 0-307-107-307-290v-688H20v-154h168v-266h180v266h230" id="M"/><g id="e"><use transform="matrix(0.015190972222222219,0,0,0.015190972222222219,0,0)" xlink:href="#G"/><use transform="matrix(0.015190972222222219,0,0,0.015190972222222219,19.86979166666666,0)" xlink:href="#H"/><use transform="matrix(0.015190972222222219,0,0,0.015190972222222219,31.065538194444436,0)" xlink:href="#I"/><use transform="matrix(0.015190972222222219,0,0,0.015190972222222219,49.72005208333332,0)" xlink:href="#J"/><use transform="matrix(0.015190972222222219,0,0,0.015190972222222219,68.76953124999999,0)" xlink:href="#K"/><use transform="matrix(0.015190972222222219,0,0,0.015190972222222219,87.16579861111109,0)" xlink:href="#L"/><use transform="matrix(0.015190972222222219,0,0,0.015190972222222219,104.93923611111109,0)" xlink:href="#M"/></g><path fill="#333" d="M440 22C227 22 68-92 68-313c0-250 202-322 422-343 195-21 271-24 271-105 0-95-63-149-175-149-116 0-187 57-211 129l-275-46c57-194 237-305 487-305 240 0 474 108 474 379V0H777v-155h-10C713-51 605 22 440 22zm85-211c140 0 238-93 238-211v-121c-37 26-156 42-222 51-111 16-185 59-185 149 0 87 70 132 169 132" id="N"/><path fill="#333" d="M128 0v-1118h300V0H128zm150-1264c-91 0-165-68-165-154 0-85 74-154 165-154 90 0 165 69 165 154 0 86-75 154-165 154" id="O"/><path fill="#333" d="M625 442c-280 0-454-114-503-274l258-72c28 63 97 128 243 128 153 0 246-69 246-216v-206h-23C805-108 717-16 536-16 284-16 81-191 81-561c0-378 208-571 456-571 188 0 280 113 321 202h13v-188h295V-9c0 303-226 451-541 451zm5-686c153 0 240-119 240-319 0-198-86-329-240-329-158 0-241 137-241 329 0 195 85 319 241 319" id="P"/><path fill="#333" d="M428-647V0H128v-1118h283l4 231c63-156 176-245 348-245 232 0 384 159 384 421V0H847v-659c0-139-76-222-202-222-128 0-217 86-217 234" id="Q"/><g id="f"><use transform="matrix(0.008680555555555556,0,0,0.008680555555555556,0,0)" xlink:href="#N"/><use transform="matrix(0.008680555555555556,0,0,0.008680555555555556,10.321180555555555,0)" xlink:href="#A"/><use transform="matrix(0.008680555555555556,0,0,0.008680555555555556,15.13888888888889,0)" xlink:href="#O"/><use transform="matrix(0.008680555555555556,0,0,0.008680555555555556,19.95659722222222,0)" xlink:href="#P"/><use transform="matrix(0.008680555555555556,0,0,0.008680555555555556,31.189236111111114,0)" xlink:href="#Q"/></g><path fill="#333" d="M572 22C302 22 117-98 78-306l279-48c29 105 101 156 224 156 114 0 185-48 185-115 0-118-228-130-337-155-215-49-322-150-322-317 0-215 187-347 470-347 265 0 424 116 466 298l-266 47c-24-76-87-130-196-130-98 0-174 46-174 113 0 56 38 95 144 117l201 40c216 44 320 143 320 302 0 220-207 367-500 367" id="R"/><path fill="#333" d="M428-647V0H128v-1490h294v586c65-146 175-228 341-228 232 0 385 159 385 421V0H847v-659c0-139-76-222-202-222-128 0-217 86-217 234" id="S"/><path fill="#333" d="M750-1118v229H516V0H217v-889H20v-229h197v-86c0-238 156-356 363-356 94 0 178 20 215 31l-54 226c-25-7-61-15-100-15-123-3-131 84-125 200h234" id="T"/><path fill="#333" d="M683-1118v229H474v562c0 71 29 104 102 104 23 0 73-7 95-13l43 225C647 9 580 16 520 16 296 16 174-96 174-301v-588H20v-229h154v-266h300v266h209" id="U"/><g id="g"><use transform="matrix(0.008680555555555556,0,0,0.008680555555555556,0,0)" xlink:href="#R"/><use transform="matrix(0.008680555555555556,0,0,0.008680555555555556,9.956597222222223,0)" xlink:href="#S"/><use transform="matrix(0.008680555555555556,0,0,0.008680555555555556,21.024305555555557,0)" xlink:href="#O"/><use transform="matrix(0.008680555555555556,0,0,0.008680555555555556,25.842013888888893,0)" xlink:href="#T"/><use transform="matrix(0.008680555555555556,0,0,0.008680555555555556,32.21354166666667,0)" xlink:href="#U"/></g><path fill="#333" d="M1163 418H863v-597h-10C812-89 719 19 537 19 279 19 81-185 81-557c0-382 206-575 454-575 190 0 278 113 318 202h15v-188h295V418zM629-222c153 0 240-134 240-336 0-203-86-334-240-334-158 0-240 138-240 334 0 197 84 336 240 336" id="V"/><use transform="matrix(0.013020833333333332,0,0,0.013020833333333332,0,0)" xlink:href="#V" id="h"/><path fill="#333" d="M628 22C291 22 81-210 81-554c0-346 210-578 547-578 336 0 547 232 547 578 0 344-211 576-547 576zm0-236c160 0 242-146 242-341 0-197-82-341-242-341S387-753 387-555c0 195 81 341 241 341" id="W"/><use transform="matrix(0.013020833333333332,0,0,0.013020833333333332,0,0)" xlink:href="#W" id="i"/><use transform="matrix(0.013020833333333332,0,0,0.013020833333333332,0,0)" xlink:href="#P" id="j"/><path fill="#333" d="M127-1118h301V57c1 278-186 374-478 361V182c116 8 177-28 177-129v-1171zm151-146c-90 0-165-68-165-154 0-85 75-154 165-154s165 69 165 154c0 86-75 154-165 154" id="X"/><path fill="#333" d="M128 0v-1118h278l12 217c60-163 185-234 319-234 143 0 236 81 288 251 63-172 205-251 359-251 205 0 357 138 357 381V0h-301v-697c0-126-76-187-177-187-114 0-184 79-184 196V0H789v-705c0-109-72-179-174-179-106 0-187 74-187 208V0H128" id="Y"/><g id="k"><use transform="matrix(0.008680555555555556,0,0,0.008680555555555556,0,0)" xlink:href="#X"/><use transform="matrix(0.008680555555555556,0,0,0.008680555555555556,4.817708333333334,0)" xlink:href="#N"/><use transform="matrix(0.008680555555555556,0,0,0.008680555555555556,15.13888888888889,0)" xlink:href="#Y"/></g><g id="l"><use transform="matrix(0.008680555555555556,0,0,0.008680555555555556,0,0)" xlink:href="#T"/><use transform="matrix(0.008680555555555556,0,0,0.008680555555555556,6.692708333333333,0)" xlink:href="#W"/><use transform="matrix(0.008680555555555556,0,0,0.008680555555555556,17.59548611111111,0)" xlink:href="#C"/></g><path fill="#333" d="M135 0v-1490h581c339 0 533 192 533 485 0 204-94 351-264 424L1302 0H964L680-532H440V0H135zm305-779h220c186 0 274-77 274-226 0-150-88-233-275-233H440v459" id="Z"/><path fill="#333" d="M75-1237v-253h1217v253H837V0H531v-1237H75" id="aa"/><path fill="#333" d="M789 20C394 20 94-260 94-744c0-487 300-766 695-766s695 279 695 766c0 485-300 764-695 764zm0-271c231 0 385-174 385-493 0-321-154-495-385-495s-385 175-385 495c0 319 154 493 385 493" id="ab"/><g id="m"><use transform="matrix(0.008680555555555556,0,0,0.008680555555555556,0,0)" xlink:href="#Z"/><use transform="matrix(0.008680555555555556,0,0,0.008680555555555556,11.675347222222223,0)" xlink:href="#aa"/><use transform="matrix(0.008680555555555556,0,0,0.008680555555555556,22.977430555555557,0)" xlink:href="#ab"/></g><path d="M784 20c-382 0-662-292-662-764 0-473 280-766 662-766s660 293 660 766c0 472-278 764-660 764zm0-176c266 0 475-207 475-588 0-383-209-590-475-590-268 0-477 208-477 590 0 380 209 588 477 588" id="ac"/><path d="M338-670V0H158v-1490h180v566c73-149 190-208 336-208 226 0 379 139 379 422V0H872v-695c0-172-96-275-252-275-161 0-282 109-282 300" id="ad"/><path d="M628 24c-324 0-524-230-524-574 0-343 198-582 503-582 237 0 487 146 487 559v75H286c9 234 145 362 343 362 132 0 231-58 273-172l174 48C1024-91 857 24 628 24zM287-650h624c-17-190-120-322-304-322-192 0-309 151-320 322" id="ae"/><g id="n"><use transform="matrix(0.015190972222222219,0,0,0.015190972222222219,0,0)" xlink:href="#ac"/><use transform="matrix(0.015190972222222219,0,0,0.015190972222222219,23.789062499999993,0)" xlink:href="#M"/><use transform="matrix(0.015190972222222219,0,0,0.015190972222222219,33.96701388888888,0)" xlink:href="#ad"/><use transform="matrix(0.015190972222222219,0,0,0.015190972222222219,52.363281249999986,0)" xlink:href="#ae"/><use transform="matrix(0.015190972222222219,0,0,0.015190972222222219,70.50130208333331,0)" xlink:href="#H"/></g><path d="M218-607c0-325 108-727 258-974h175c-155 315-250 682-250 974 0 265 78 531 250 886H476C306-10 218-315 218-607" id="af"/><path d="M538 24C308 24 148-78 108-271l171-41c32 123 123 178 257 178 156 0 256-77 256-169 0-77-54-128-164-154l-186-44c-203-48-300-148-300-305 0-192 176-326 414-326 230 0 351 112 402 269l-163 42c-31-80-94-158-238-158-133 0-233 69-233 162 0 83 57 129 188 160l169 40c203 48 298 149 298 302 0 196-179 339-441 339" id="ag"/><path d="M96 279C273-86 346-350 346-607c0-292-95-659-250-974h175c150 246 258 650 258 974 0 297-91 602-258 886H96" id="ah"/><g id="o"><use transform="matrix(0.015190972222222219,0,0,0.015190972222222219,0,0)" xlink:href="#G"/><use transform="matrix(0.015190972222222219,0,0,0.015190972222222219,19.86979166666666,0)" xlink:href="#H"/><use transform="matrix(0.015190972222222219,0,0,0.015190972222222219,31.065538194444436,0)" xlink:href="#I"/><use transform="matrix(0.015190972222222219,0,0,0.015190972222222219,49.72005208333332,0)" xlink:href="#J"/><use transform="matrix(0.015190972222222219,0,0,0.015190972222222219,68.76953124999999,0)" xlink:href="#K"/><use transform="matrix(0.015190972222222219,0,0,0.015190972222222219,87.16579861111109,0)" xlink:href="#L"/><use transform="matrix(0.015190972222222219,0,0,0.015190972222222219,104.93923611111109,0)" xlink:href="#M"/><use transform="matrix(0.015190972222222219,0,0,0.015190972222222219,115.11718749999997,0)" xlink:href="#af"/><use transform="matrix(0.015190972222222219,0,0,0.015190972222222219,126.46484374999997,0)" xlink:href="#ag"/><use transform="matrix(0.015190972222222219,0,0,0.015190972222222219,142.8862847222222,0)" xlink:href="#ah"/></g><path fill="#54c45e" d="M180 0v-1490h528c311 0 458 177 458 395 0 191-114 278-244 313v14c139 9 302 137 302 371 0 225-148 397-499 397H180zm190-168h350c232 0 321-102 321-231 0-149-120-277-311-277H370v508zm0-668h328c160 0 286-101 286-255 0-129-87-231-280-231H370v486" id="ai"/><path fill="#54c45e" d="M158 0v-1118h180V0H158zm91-1301c-68 0-125-53-125-119s57-119 125-119c69 0 126 53 126 119s-57 119-126 119" id="aj"/><path fill="#54c45e" d="M598-1118v154H368v674c0 100 37 144 132 144 23 0 62-6 92-12L629-6c-37 13-88 20-134 20-193 0-307-107-307-290v-688H20v-154h168v-266h180v266h230" id="ak"/><g id="p"><use transform="matrix(0.015190972222222219,0,0,0.015190972222222219,0,0)" xlink:href="#ai"/><use transform="matrix(0.015190972222222219,0,0,0.015190972222222219,20.35590277777777,0)" xlink:href="#aj"/><use transform="matrix(0.015190972222222219,0,0,0.015190972222222219,27.890624999999993,0)" xlink:href="#ak"/></g><path fill="#54c45e" d="M458 0L52-1490h194c108 439 233 855 324 1313 92-459 221-873 331-1313h216c110 438 234 854 330 1307 92-455 216-869 323-1307h196L1558 0h-221l-256-944c-26-95-50-200-73-331-22 122-44 223-73 331L680 0H458" id="al"/><path fill="#54c45e" d="M628 24c-324 0-524-230-524-574 0-343 198-582 503-582 237 0 487 146 487 559v75H286c9 234 145 362 343 362 132 0 231-58 273-172l174 48C1024-91 857 24 628 24zM287-650h624c-17-190-120-322-304-322-192 0-309 151-320 322" id="am"/><path fill="#54c45e" d="M611 442c-248 0-391-105-460-228l146-94c47 65 117 165 314 165 178 0 307-82 307-266v-224h-17C863-141 792-18 576-18c-268 0-472-195-472-546 0-346 197-568 476-568 216 0 288 133 326 193h17v-179h175V29c0 289-215 413-487 413zm-5-620c203 0 314-146 314-390 0-237-108-403-314-403-213 0-319 180-319 403 0 230 109 390 319 390" id="an"/><path fill="#54c45e" d="M338-670V0H158v-1490h180v566c73-149 190-208 336-208 226 0 379 139 379 422V0H872v-695c0-172-96-275-252-275-161 0-282 109-282 300" id="ao"/><g id="q"><use transform="matrix(0.015190972222222219,0,0,0.015190972222222219,0,0)" xlink:href="#al"/><use transform="matrix(0.015190972222222219,0,0,0.015190972222222219,29.075520833333325,0)" xlink:href="#am"/><use transform="matrix(0.015190972222222219,0,0,0.015190972222222219,47.21354166666666,0)" xlink:href="#aj"/><use transform="matrix(0.015190972222222219,0,0,0.015190972222222219,54.74826388888888,0)" xlink:href="#an"/><use transform="matrix(0.015190972222222219,0,0,0.015190972222222219,73.82812499999999,0)" xlink:href="#ao"/><use transform="matrix(0.015190972222222219,0,0,0.015190972222222219,92.22439236111109,0)" xlink:href="#ak"/></g><path fill="#54c45e" d="M690 20C314 20 94-261 94-744c0-482 221-766 596-766 376 0 597 284 597 766 0 483-219 764-597 764zm0-253c184 0 286-184 286-511 0-328-102-514-286-514-183 0-285 187-285 514s101 511 285 511" id="ap"/><use transform="matrix(0.015190972222222215,0,0,0.015190972222222215,0,0)" xlink:href="#ap" id="r"/><path fill="#54c45e" d="M749-1490V0H444v-1221h-10L93-980v-279l329-231h327" id="aq"/><use transform="matrix(0.015190972222222215,0,0,0.015190972222222215,0,0)" xlink:href="#aq" id="s"/><path fill="#54c45e" d="M818-733v240H140v-240h678" id="ar"/><path fill="#54c45e" d="M1163 418H863v-597h-10C812-89 719 19 537 19 279 19 81-185 81-557c0-382 206-575 454-575 190 0 278 113 318 202h15v-188h295V418zM629-222c153 0 240-134 240-336 0-203-86-334-240-334-158 0-240 138-240 334 0 197 84 336 240 336" id="as"/><path fill="#54c45e" d="M568-82v-393H183v-240h385v-393h254v393h386v240H822v393H568" id="at"/><path fill="#54c45e" d="M625 442c-280 0-454-114-503-274l258-72c28 63 97 128 243 128 153 0 246-69 246-216v-206h-23C805-108 717-16 536-16 284-16 81-191 81-561c0-378 208-571 456-571 188 0 280 113 321 202h13v-188h295V-9c0 303-226 451-541 451zm5-686c153 0 240-119 240-319 0-198-86-329-240-329-158 0-241 137-241 329 0 195 85 319 241 319" id="au"/><g id="t"><use transform="matrix(0.015190972222222215,0,0,0.015190972222222215,0,0)" xlink:href="#ar"/><use transform="matrix(0.015190972222222215,0,0,0.015190972222222215,14.552951388888882,0)" xlink:href="#as"/><use transform="matrix(0.015190972222222215,0,0,0.015190972222222215,34.16449652777776,0)" xlink:href="#at"/><use transform="matrix(0.015190972222222215,0,0,0.015190972222222215,55.279947916666636,0)" xlink:href="#aq"/><use transform="matrix(0.015190972222222215,0,0,0.015190972222222215,68.69357638888886,0)" xlink:href="#ar"/><use transform="matrix(0.015190972222222215,0,0,0.015190972222222215,83.24652777777774,0)" xlink:href="#au"/></g><path d="M128 0v-1118h278l12 217c60-163 185-234 319-234 143 0 236 81 288 251 63-172 205-251 359-251 205 0 357 138 357 381V0h-301v-697c0-126-76-187-177-187-114 0-184 79-184 196V0H789v-705c0-109-72-179-174-179-106 0-187 74-187 208V0H128" id="av"/><path d="M440 22C227 22 68-92 68-313c0-250 202-322 422-343 195-21 271-24 271-105 0-95-63-149-175-149-116 0-187 57-211 129l-275-46c57-194 237-305 487-305 240 0 474 108 474 379V0H777v-155h-10C713-51 605 22 440 22zm85-211c140 0 238-93 238-211v-121c-37 26-156 42-222 51-111 16-185 59-185 149 0 87 70 132 169 132" id="aw"/><path d="M42 0l360-574-338-544h324c72 124 151 261 209 394 58-134 140-271 215-394h318L785-570 1146 0H824c-79-136-169-280-234-425C528-278 439-134 360 0H42" id="ax"/><path d="M975 0v231H0V0h975" id="ay"/><path d="M633 22C291 22 81-200 81-553c0-345 210-579 537-579 292 0 525 185 525 567v84H378c7 183 109 277 260 277 105 0 184-46 216-132l272 51C1071-99 893 22 633 22zM380-669h474c-15-146-94-237-233-237-143 0-229 99-241 237" id="az"/><path d="M128 418v-1536h295v188h14c41-89 129-202 319-202 248 0 453 193 453 575 0 372-197 576-455 576-183 0-275-108-317-198h-9v597H128zm534-640c156 0 240-139 240-336 0-196-83-334-240-334-154 0-241 131-241 334 0 202 88 336 241 336" id="aA"/><g id="u"><use transform="matrix(0.008680555555555556,0,0,0.008680555555555556,0,0)" xlink:href="#av"/><use transform="matrix(0.008680555555555556,0,0,0.008680555555555556,16.223958333333336,0)" xlink:href="#aw"/><use transform="matrix(0.008680555555555556,0,0,0.008680555555555556,26.545138888888893,0)" xlink:href="#ax"/><use transform="matrix(0.008680555555555556,0,0,0.008680555555555556,36.85763888888889,0)" xlink:href="#ay"/><use transform="matrix(0.008680555555555556,0,0,0.008680555555555556,45.32118055555556,0)" xlink:href="#az"/><use transform="matrix(0.008680555555555556,0,0,0.008680555555555556,55.55555555555556,0)" xlink:href="#ax"/><use transform="matrix(0.008680555555555556,0,0,0.008680555555555556,65.86805555555556,0)" xlink:href="#aA"/></g><path d="M169-607c0-330 107-732 258-974h279c-145 311-231 674-231 974 0 262 67 512 231 886H427C258-1 169-307 169-607" id="aB"/><path d="M128 0v-1118h290v195h12c54-169 184-238 367-200v268c-27-8-86-15-130-15-138 0-239 95-239 234V0H128" id="aC"/><path d="M750-1118v229H516V0H217v-889H20v-229h197v-86c0-238 156-356 363-356 94 0 178 20 215 31l-54 226c-25-7-61-15-100-15-123-3-131 84-125 200h234" id="aD"/><path d="M428-647V0H128v-1118h283l4 231c63-156 176-245 348-245 232 0 384 159 384 421V0H847v-659c0-139-76-222-202-222-128 0-217 86-217 234" id="aE"/><path d="M628 22C291 22 81-210 81-554c0-346 210-578 547-578 265 0 455 142 497 372l-279 52c-25-116-99-188-215-188-160 0-244 139-244 341 0 200 84 341 244 341 116 0 193-74 217-195l279 51C1085-123 896 22 628 22" id="aF"/><g id="v"><use transform="matrix(0.008680555555555556,0,0,0.008680555555555556,0,0)" xlink:href="#aB"/><use transform="matrix(0.008680555555555556,0,0,0.008680555555555556,7.022569444444445,0)" xlink:href="#aC"/><use transform="matrix(0.008680555555555556,0,0,0.008680555555555556,13.828125,0)" xlink:href="#az"/><use transform="matrix(0.008680555555555556,0,0,0.008680555555555556,24.41840277777778,0)" xlink:href="#aD"/><use transform="matrix(0.008680555555555556,0,0,0.008680555555555556,31.111111111111114,0)" xlink:href="#az"/><use transform="matrix(0.008680555555555556,0,0,0.008680555555555556,41.70138888888889,0)" xlink:href="#aC"/><use transform="matrix(0.008680555555555556,0,0,0.008680555555555556,48.50694444444445,0)" xlink:href="#az"/><use transform="matrix(0.008680555555555556,0,0,0.008680555555555556,59.09722222222222,0)" xlink:href="#aE"/><use transform="matrix(0.008680555555555556,0,0,0.008680555555555556,70.16493055555556,0)" xlink:href="#aF"/><use transform="matrix(0.008680555555555556,0,0,0.008680555555555556,80.625,0)" xlink:href="#az"/></g><path d="M628 22C291 22 81-210 81-554c0-346 210-578 547-578 336 0 547 232 547 578 0 344-211 576-547 576zm0-236c160 0 242-146 242-341 0-197-82-341-242-341S387-753 387-555c0 195 81 341 241 341" id="aG"/><path d="M683-1118v229H474v562c0 71 29 104 102 104 23 0 73-7 95-13l43 225C647 9 580 16 520 16 296 16 174-96 174-301v-588H20v-229h154v-266h300v266h209" id="aH"/><path d="M67 279c166-379 230-627 230-886 0-300-86-663-230-974h278c151 241 258 644 258 974 0 302-90 608-258 886H67" id="aI"/><g id="w"><use transform="matrix(0.008680555555555556,0,0,0.008680555555555556,0,0)" xlink:href="#az"/><use transform="matrix(0.008680555555555556,0,0,0.008680555555555556,10.234375,0)" xlink:href="#ax"/><use transform="matrix(0.008680555555555556,0,0,0.008680555555555556,20.546875,0)" xlink:href="#aA"/><use transform="matrix(0.008680555555555556,0,0,0.008680555555555556,31.75347222222222,0)" xlink:href="#aG"/><use transform="matrix(0.008680555555555556,0,0,0.008680555555555556,42.65625,0)" xlink:href="#aE"/><use transform="matrix(0.008680555555555556,0,0,0.008680555555555556,53.723958333333336,0)" xlink:href="#az"/><use transform="matrix(0.008680555555555556,0,0,0.008680555555555556,64.31423611111111,0)" xlink:href="#aE"/><use transform="matrix(0.008680555555555556,0,0,0.008680555555555556,75.38194444444444,0)" xlink:href="#aH"/><use transform="matrix(0.008680555555555556,0,0,0.008680555555555556,81.89236111111111,0)" xlink:href="#aI"/></g><path fill="#333" d="M749-1490V0H444v-1221h-10L93-980v-279l329-231h327" id="aJ"/><use transform="matrix(0.013020833333333332,0,0,0.013020833333333332,0,0)" xlink:href="#aJ" id="x"/><path d="M646 20c-332 0-524-278-524-764 0-483 194-766 524-766s524 283 524 766c0 485-191 764-524 764zm0-166c218 0 341-220 341-598 0-380-123-601-341-601s-341 222-341 601c0 378 123 598 341 598" id="aK"/><use transform="matrix(0.010850694444444444,0,0,0.010850694444444444,0,0)" xlink:href="#aK" id="y"/></defs></g></svg>
