<svg xmlns="http://www.w3.org/2000/svg" xmlns:xlink="http://www.w3.org/1999/xlink" xmlns:lucid="lucid" width="2081" height="1438.17"><g transform="translate(60.5 249)" lucid:page-tab-id="0_0"><path d="M-1696-1296h5152v2656h-5152z" fill="#fff"/><path d="M160 246a6 6 0 0 1 6-6h68a6 6 0 0 1 6 6v68a6 6 0 0 1-6 6h-68a6 6 0 0 1-6-6z" stroke="#3a414a" fill="#fff"/><use xlink:href="#a" transform="matrix(1,0,0,1,165.00000000000045,245.00000000000006) translate(24.18518518518519 41.569444444444436)"/><path d="M240 246a6 6 0 0 1 6-6h68a6 6 0 0 1 6 6v68a6 6 0 0 1-6 6h-68a6 6 0 0 1-6-6z" stroke="#3a414a" fill="#fff"/><use xlink:href="#b" transform="matrix(1,0,0,1,245.00000000000045,245.0000000000001) translate(23.148148148148152 41.569444444444436)"/><path d="M320 246a6 6 0 0 1 6-6h68a6 6 0 0 1 6 6v68a6 6 0 0 1-6 6h-68a6 6 0 0 1-6-6z" stroke="#3a414a" fill="#fff"/><use xlink:href="#c" transform="matrix(1,0,0,1,325.00000000000045,245.00000000000006) translate(22.20987654320988 41.569444444444436)"/><path d="M400 246a6 6 0 0 1 6-6h68a6 6 0 0 1 6 6v68a6 6 0 0 1-6 6h-68a6 6 0 0 1-6-6z" stroke="#3a414a" fill="#fff"/><use xlink:href="#d" transform="matrix(1,0,0,1,405.00000000000045,245.00000000000006) translate(22.20987654320988 41.569444444444436)"/><path d="M560 246a6 6 0 0 1 6-6h68a6 6 0 0 1 6 6v68a6 6 0 0 1-6 6h-68a6 6 0 0 1-6-6z" stroke="#3a414a" fill="#fff"/><use xlink:href="#e" transform="matrix(1,0,0,1,565.0000000000005,245.00000000000006) translate(23.148148148148152 41.569444444444436)"/><path d="M640 246a6 6 0 0 1 6-6h68a6 6 0 0 1 6 6v68a6 6 0 0 1-6 6h-68a6 6 0 0 1-6-6z" stroke="#3a414a" fill="#fff"/><use xlink:href="#f" transform="matrix(1,0,0,1,645.0000000000005,245.00000000000006) translate(23.148148148148152 41.569444444444436)"/><path d="M720 246a6 6 0 0 1 6-6h68a6 6 0 0 1 6 6v68a6 6 0 0 1-6 6h-68a6 6 0 0 1-6-6z" stroke="#3a414a" fill="#fff"/><use xlink:href="#g" transform="matrix(1,0,0,1,725.0000000000005,245.00000000000006) translate(25.123456790123463 41.569444444444436)"/><path d="M800 246a6 6 0 0 1 6-6h68a6 6 0 0 1 6 6v68a6 6 0 0 1-6 6h-68a6 6 0 0 1-6-6z" stroke="#3a414a" fill="#fff"/><use xlink:href="#h" transform="matrix(1,0,0,1,805.0000000000005,245.00000000000006) translate(25.123456790123463 41.569444444444436)"/><path d="M960 246a6 6 0 0 1 6-6h68a6 6 0 0 1 6 6v68a6 6 0 0 1-6 6h-68a6 6 0 0 1-6-6z" stroke="#3a414a" fill="#fff"/><use xlink:href="#i" transform="matrix(1,0,0,1,965.0000000000005,245) translate(25.123456790123463 41.569444444444436)"/><path d="M1040 246a6 6 0 0 1 6-6h68a6 6 0 0 1 6 6v68a6 6 0 0 1-6 6h-68a6 6 0 0 1-6-6z" stroke="#3a414a" fill="#fff"/><use xlink:href="#j" transform="matrix(1,0,0,1,1045.0000000000005,245.00000000000006) translate(25.123456790123463 41.569444444444436)"/><path d="M1120 246a6 6 0 0 1 6-6h68a6 6 0 0 1 6 6v68a6 6 0 0 1-6 6h-68a6 6 0 0 1-6-6z" stroke="#3a414a" fill="#fff"/><use xlink:href="#k" transform="matrix(1,0,0,1,1125.0000000000005,245) translate(25.123456790123463 41.569444444444436)"/><path d="M1200 246a6 6 0 0 1 6-6h68a6 6 0 0 1 6 6v68a6 6 0 0 1-6 6h-68a6 6 0 0 1-6-6z" stroke="#3a414a" fill="#fff"/><use xlink:href="#l" transform="matrix(1,0,0,1,1205.0000000000005,245) translate(25.123456790123463 41.569444444444436)"/><path d="M1360 246a6 6 0 0 1 6-6h68a6 6 0 0 1 6 6v68a6 6 0 0 1-6 6h-68a6 6 0 0 1-6-6z" stroke="#3a414a" fill="#fff"/><use xlink:href="#m" transform="matrix(1,0,0,1,1365.0000000000002,245.00000000000006) translate(25.123456790123463 41.569444444444436)"/><path d="M1440 246a6 6 0 0 1 6-6h68a6 6 0 0 1 6 6v68a6 6 0 0 1-6 6h-68a6 6 0 0 1-6-6z" stroke="#3a414a" fill="#fff"/><use xlink:href="#n" transform="matrix(1,0,0,1,1445.0000000000002,245.0000000000001) translate(25.123456790123463 41.569444444444436)"/><path d="M1520 246a6 6 0 0 1 6-6h68a6 6 0 0 1 6 6v68a6 6 0 0 1-6 6h-68a6 6 0 0 1-6-6z" stroke="#3a414a" fill="#fff"/><use xlink:href="#o" transform="matrix(1,0,0,1,1525.0000000000002,245.00000000000006) translate(25.123456790123463 41.569444444444436)"/><path d="M1600 246a6 6 0 0 1 6-6h68a6 6 0 0 1 6 6v68a6 6 0 0 1-6 6h-68a6 6 0 0 1-6-6z" stroke="#3a414a" fill="#fff"/><use xlink:href="#p" transform="matrix(1,0,0,1,1605.0000000000002,245.00000000000006) translate(25.123456790123463 41.569444444444436)"/><path d="M160 86a6 6 0 0 1 6-6h68a6 6 0 0 1 6 6v68a6 6 0 0 1-6 6h-68a6 6 0 0 1-6-6z" stroke="#3a414a" fill="#fff"/><use xlink:href="#a" transform="matrix(1,0,0,1,165,85.00000000000006) translate(24.18518518518519 41.569444444444436)"/><path d="M240 86a6 6 0 0 1 6-6h68a6 6 0 0 1 6 6v68a6 6 0 0 1-6 6h-68a6 6 0 0 1-6-6z" stroke="#3a414a" fill="#fff"/><use xlink:href="#b" transform="matrix(1,0,0,1,245,85.00000000000006) translate(23.148148148148152 41.569444444444436)"/><path d="M320 86a6 6 0 0 1 6-6h68a6 6 0 0 1 6 6v68a6 6 0 0 1-6 6h-68a6 6 0 0 1-6-6z" stroke="#3a414a" fill="#fff"/><use xlink:href="#c" transform="matrix(1,0,0,1,325,85.00000000000006) translate(22.20987654320988 41.569444444444436)"/><path d="M400 86a6 6 0 0 1 6-6h68a6 6 0 0 1 6 6v68a6 6 0 0 1-6 6h-68a6 6 0 0 1-6-6z" stroke="#3a414a" fill="#fff"/><use xlink:href="#d" transform="matrix(1,0,0,1,405,85.00000000000006) translate(22.20987654320988 41.569444444444436)"/><path d="M560 86a6 6 0 0 1 6-6h68a6 6 0 0 1 6 6v68a6 6 0 0 1-6 6h-68a6 6 0 0 1-6-6z" stroke="#3a414a" fill="#fff"/><use xlink:href="#e" transform="matrix(1,0,0,1,565,85.00000000000006) translate(23.148148148148152 41.569444444444436)"/><path d="M640 86a6 6 0 0 1 6-6h68a6 6 0 0 1 6 6v68a6 6 0 0 1-6 6h-68a6 6 0 0 1-6-6z" stroke="#3a414a" fill="#fff"/><use xlink:href="#f" transform="matrix(1,0,0,1,645,85.00000000000006) translate(23.148148148148152 41.569444444444436)"/><path d="M720 86a6 6 0 0 1 6-6h68a6 6 0 0 1 6 6v68a6 6 0 0 1-6 6h-68a6 6 0 0 1-6-6z" stroke="#3a414a" fill="#fff"/><use xlink:href="#g" transform="matrix(1,0,0,1,725,85.00000000000006) translate(25.123456790123463 41.569444444444436)"/><path d="M800 86a6 6 0 0 1 6-6h68a6 6 0 0 1 6 6v68a6 6 0 0 1-6 6h-68a6 6 0 0 1-6-6z" stroke="#3a414a" fill="#fff"/><use xlink:href="#h" transform="matrix(1,0,0,1,805,85.00000000000006) translate(25.123456790123463 41.569444444444436)"/><path d="M960 86a6 6 0 0 1 6-6h68a6 6 0 0 1 6 6v68a6 6 0 0 1-6 6h-68a6 6 0 0 1-6-6z" stroke="#3a414a" fill="#fff"/><use xlink:href="#i" transform="matrix(1,0,0,1,965,85) translate(25.123456790123463 41.569444444444436)"/><path d="M1040 86a6 6 0 0 1 6-6h68a6 6 0 0 1 6 6v68a6 6 0 0 1-6 6h-68a6 6 0 0 1-6-6z" stroke="#3a414a" fill="#fff"/><use xlink:href="#j" transform="matrix(1,0,0,1,1045,85.00000000000006) translate(25.123456790123463 41.569444444444436)"/><path d="M1120 86a6 6 0 0 1 6-6h68a6 6 0 0 1 6 6v68a6 6 0 0 1-6 6h-68a6 6 0 0 1-6-6z" stroke="#3a414a" fill="#fff"/><use xlink:href="#k" transform="matrix(1,0,0,1,1125,85) translate(25.123456790123463 41.569444444444436)"/><path d="M1200 86a6 6 0 0 1 6-6h68a6 6 0 0 1 6 6v68a6 6 0 0 1-6 6h-68a6 6 0 0 1-6-6z" stroke="#3a414a" fill="#fff"/><use xlink:href="#l" transform="matrix(1,0,0,1,1205,85) translate(25.123456790123463 41.569444444444436)"/><path d="M1360 86a6 6 0 0 1 6-6h68a6 6 0 0 1 6 6v68a6 6 0 0 1-6 6h-68a6 6 0 0 1-6-6z" stroke="#3a414a" fill="#fff"/><use xlink:href="#m" transform="matrix(1,0,0,1,1365.0000000000002,85.00000000000006) translate(25.123456790123463 41.569444444444436)"/><path d="M1440 86a6 6 0 0 1 6-6h68a6 6 0 0 1 6 6v68a6 6 0 0 1-6 6h-68a6 6 0 0 1-6-6z" stroke="#3a414a" fill="#fff"/><use xlink:href="#n" transform="matrix(1,0,0,1,1445.0000000000002,85.00000000000011) translate(25.123456790123463 41.569444444444436)"/><path d="M1520 86a6 6 0 0 1 6-6h68a6 6 0 0 1 6 6v68a6 6 0 0 1-6 6h-68a6 6 0 0 1-6-6z" stroke="#3a414a" fill="#fff"/><use xlink:href="#o" transform="matrix(1,0,0,1,1525.0000000000002,85.00000000000006) translate(25.123456790123463 41.569444444444436)"/><path d="M1600 86a6 6 0 0 1 6-6h68a6 6 0 0 1 6 6v68a6 6 0 0 1-6 6h-68a6 6 0 0 1-6-6z" stroke="#3a414a" fill="#fff"/><use xlink:href="#p" transform="matrix(1,0,0,1,1605.0000000000002,85.00000000000006) translate(25.123456790123463 41.569444444444436)"/><path d="M240 440c0 22.1-17.9 40-40 40s-40-17.9-40-40 17.9-40 40-40 40 17.9 40 40z" stroke="#3a414a" fill="#fff"/><use xlink:href="#q" transform="matrix(1,0,0,1,165.00000000000045,405.00000000000006) translate(26.79512345679013 44.871527777777764)"/><path d="M320 440c0 22.1-17.9 40-40 40s-40-17.9-40-40 17.9-40 40-40 40 17.9 40 40z" stroke="#3a414a" fill="#fff"/><use xlink:href="#q" transform="matrix(1,0,0,1,245.0000000000009,405.00000000000017) translate(26.79512345679013 44.871527777777764)"/><path d="M400 440c0 22.1-17.9 40-40 40s-40-17.9-40-40 17.9-40 40-40 40 17.9 40 40z" stroke="#3a414a" fill="#fff"/><use xlink:href="#q" transform="matrix(1,0,0,1,325.0000000000009,405) translate(26.79512345679013 44.871527777777764)"/><path d="M480 440c0 22.1-17.9 40-40 40s-40-17.9-40-40 17.9-40 40-40 40 17.9 40 40z" stroke="#3a414a" fill="#fff"/><use xlink:href="#q" transform="matrix(1,0,0,1,405.0000000000018,405) translate(26.79512345679013 44.871527777777764)"/><path d="M640 440c0 22.1-17.9 40-40 40s-40-17.9-40-40 17.9-40 40-40 40 17.9 40 40z" stroke="#3a414a" fill="#fff"/><use xlink:href="#q" transform="matrix(1,0,0,1,565.0000000000027,404.9999999999999) translate(26.79512345679013 44.871527777777764)"/><path d="M720 440c0 22.1-17.9 40-40 40s-40-17.9-40-40 17.9-40 40-40 40 17.9 40 40z" stroke="#3a414a" fill="#fff"/><use xlink:href="#q" transform="matrix(1,0,0,1,645.0000000000032,405) translate(26.79512345679013 44.871527777777764)"/><path d="M800 440c0 22.1-17.9 40-40 40s-40-17.9-40-40 17.9-40 40-40 40 17.9 40 40z" stroke="#3a414a" fill="#fff"/><use xlink:href="#q" transform="matrix(1,0,0,1,725.0000000000032,404.9999999999998) translate(26.79512345679013 44.871527777777764)"/><path d="M880 440c0 22.1-17.9 40-40 40s-40-17.9-40-40 17.9-40 40-40 40 17.9 40 40z" stroke="#3a414a" fill="#fff"/><use xlink:href="#q" transform="matrix(1,0,0,1,805.0000000000041,404.9999999999998) translate(26.79512345679013 44.871527777777764)"/><path d="M1040 440c0 22.1-17.9 40-40 40s-40-17.9-40-40 17.9-40 40-40 40 17.9 40 40z" stroke="#3a414a" fill="#fff"/><use xlink:href="#q" transform="matrix(1,0,0,1,964.9999999999991,404.99999999999966) translate(26.79512345679013 44.871527777777764)"/><path d="M1120 440c0 22.1-17.9 40-40 40s-40-17.9-40-40 17.9-40 40-40 40 17.9 40 40z" stroke="#3a414a" fill="#fff"/><use xlink:href="#q" transform="matrix(1,0,0,1,1044.9999999999995,404.9999999999998) translate(26.79512345679013 44.871527777777764)"/><path d="M1200 440c0 22.1-17.9 40-40 40s-40-17.9-40-40 17.9-40 40-40 40 17.9 40 40z" stroke="#3a414a" fill="#fff"/><use xlink:href="#q" transform="matrix(1,0,0,1,1124.9999999999995,404.99999999999955) translate(26.79512345679013 44.871527777777764)"/><path d="M1280 440c0 22.1-17.9 40-40 40s-40-17.9-40-40 17.9-40 40-40 40 17.9 40 40z" stroke="#3a414a" fill="#fff"/><use xlink:href="#q" transform="matrix(1,0,0,1,1205.0000000000005,404.99999999999955) translate(26.79512345679013 44.871527777777764)"/><path d="M1440 440c0 22.1-17.9 40-40 40s-40-17.9-40-40 17.9-40 40-40 40 17.9 40 40z" stroke="#3a414a" fill="#fff"/><use xlink:href="#q" transform="matrix(1,0,0,1,1365.0000000000014,404.99999999999955) translate(26.79512345679013 44.871527777777764)"/><path d="M1520 440c0 22.1-17.9 40-40 40s-40-17.9-40-40 17.9-40 40-40 40 17.9 40 40z" stroke="#3a414a" fill="#fff"/><use xlink:href="#q" transform="matrix(1,0,0,1,1445.0000000000018,404.99999999999955) translate(26.79512345679013 44.871527777777764)"/><path d="M1600 440c0 22.1-17.9 40-40 40s-40-17.9-40-40 17.9-40 40-40 40 17.9 40 40z" stroke="#3a414a" fill="#fff"/><use xlink:href="#q" transform="matrix(1,0,0,1,1525.0000000000018,404.99999999999943) translate(26.79512345679013 44.871527777777764)"/><path d="M1680 440c0 22.1-17.9 40-40 40s-40-17.9-40-40 17.9-40 40-40 40 17.9 40 40z" stroke="#3a414a" fill="#fff"/><use xlink:href="#q" transform="matrix(1,0,0,1,1605.0000000000027,404.99999999999943) translate(26.79512345679013 44.871527777777764)"/><path d="M174.66 161v231.07" stroke="#3a414a" fill="none"/><path d="M175.16 161h-1v-.5h1z" stroke="#3a414a" stroke-width=".05" fill="#3a414a"/><path d="M174.66 406.83l-4.63-14.26h9.27z" stroke="#3a414a" fill="#3a414a"/><path d="M220.03 321v41.64l-.02.02v25.77" stroke="#3a414a" fill="none"/><path d="M220.53 321h-1v-.5h1z" stroke="#3a414a" stroke-width=".05" fill="#3a414a"/><path d="M220 403.2l-4.63-14.27h9.26z" stroke="#3a414a" fill="#3a414a"/><path d="M257.33 160.5v231.08M257.33 160.5v-.5" stroke="#3a414a" fill="none"/><path d="M257.33 406.34l-4.63-14.26h9.27z" stroke="#3a414a" fill="#3a414a"/><path d="M302.67 320.45v67.5M302.67 320.46v-.5" stroke="#3a414a" fill="none"/><path d="M302.67 402.7l-4.64-14.26h9.27z" stroke="#3a414a" fill="#3a414a"/><path d="M340 160.5v231.08M340 160.5v-.5" stroke="#3a414a" fill="none"/><path d="M340 406.34l-4.63-14.26h9.26z" stroke="#3a414a" fill="#3a414a"/><path d="M385.34 320.45v67.5M385.34 320.46v-.5" stroke="#3a414a" fill="none"/><path d="M385.34 402.7l-4.64-14.26h9.27z" stroke="#3a414a" fill="#3a414a"/><path d="M420 160.5v231.08M420 160.5v-.5" stroke="#3a414a" fill="none"/><path d="M420 406.34l-4.63-14.26h9.26z" stroke="#3a414a" fill="#3a414a"/><path d="M465.34 320.45v67.5M465.34 320.46v-.5" stroke="#3a414a" fill="none"/><path d="M465.34 402.7l-4.64-14.26h9.27z" stroke="#3a414a" fill="#3a414a"/><path d="M577.33 160.5v231.08M577.33 160.5v-.5" stroke="#3a414a" fill="none"/><path d="M577.33 406.34l-4.63-14.26h9.27z" stroke="#3a414a" fill="#3a414a"/><path d="M622.67 320.45v67.5M622.67 320.46v-.5" stroke="#3a414a" fill="none"/><path d="M622.67 402.7l-4.64-14.26h9.27z" stroke="#3a414a" fill="#3a414a"/><path d="M660 160.5v231.08M660 160.5v-.5" stroke="#3a414a" fill="none"/><path d="M660 406.34l-4.63-14.26h9.26z" stroke="#3a414a" fill="#3a414a"/><path d="M705.34 320.45v67.5M705.34 320.46v-.5" stroke="#3a414a" fill="none"/><path d="M705.34 402.7l-4.64-14.26h9.27z" stroke="#3a414a" fill="#3a414a"/><path d="M737.33 160.5v231.08M737.33 160.5v-.5" stroke="#3a414a" fill="none"/><path d="M737.33 406.34l-4.63-14.26h9.27z" stroke="#3a414a" fill="#3a414a"/><path d="M782.67 320.45v67.5M782.67 320.46v-.5" stroke="#3a414a" fill="none"/><path d="M782.67 402.7l-4.64-14.26h9.27z" stroke="#3a414a" fill="#3a414a"/><path d="M820 160.5v231.08M820 160.5v-.5" stroke="#3a414a" fill="none"/><path d="M820 406.34l-4.63-14.26h9.26z" stroke="#3a414a" fill="#3a414a"/><path d="M865.34 320.45v67.5M865.34 320.46v-.5" stroke="#3a414a" fill="none"/><path d="M865.34 402.7l-4.64-14.26h9.27z" stroke="#3a414a" fill="#3a414a"/><path d="M980 160.5v231.08M980 160.5v-.5" stroke="#3a414a" fill="none"/><path d="M980 406.34l-4.63-14.26h9.26z" stroke="#3a414a" fill="#3a414a"/><path d="M1025.34 320.45v67.5M1025.34 320.46v-.5" stroke="#3a414a" fill="none"/><path d="M1025.34 402.7l-4.64-14.26h9.27z" stroke="#3a414a" fill="#3a414a"/><path d="M1057.33 160.5v231.08M1057.33 160.5v-.5" stroke="#3a414a" fill="none"/><path d="M1057.33 406.34l-4.63-14.26h9.27z" stroke="#3a414a" fill="#3a414a"/><path d="M1102.67 320.45v67.5M1102.67 320.46v-.5" stroke="#3a414a" fill="none"/><path d="M1102.67 402.7l-4.64-14.26h9.27z" stroke="#3a414a" fill="#3a414a"/><path d="M1137.33 160.5v231.08M1137.33 160.5v-.5" stroke="#3a414a" fill="none"/><path d="M1137.33 406.34l-4.63-14.26h9.27z" stroke="#3a414a" fill="#3a414a"/><path d="M1182.67 320.45v67.5M1182.67 320.46v-.5" stroke="#3a414a" fill="none"/><path d="M1182.67 402.7l-4.64-14.26h9.27z" stroke="#3a414a" fill="#3a414a"/><path d="M1220 160.5v231.08M1220 160.5v-.5" stroke="#3a414a" fill="none"/><path d="M1220 406.34l-4.63-14.26h9.27z" stroke="#3a414a" fill="#3a414a"/><path d="M1265.34 320.45v67.5M1265.34 320.46v-.5" stroke="#3a414a" fill="none"/><path d="M1265.34 402.7l-4.64-14.26h9.27z" stroke="#3a414a" fill="#3a414a"/><path d="M1380 160.5v231.08M1380 160.5v-.5" stroke="#3a414a" fill="none"/><path d="M1380 406.34l-4.63-14.26h9.27z" stroke="#3a414a" fill="#3a414a"/><path d="M1425.34 320.45v67.5M1425.34 320.46v-.5" stroke="#3a414a" fill="none"/><path d="M1425.34 402.7l-4.64-14.26h9.27z" stroke="#3a414a" fill="#3a414a"/><path d="M1457.33 160.5v231.08M1457.33 160.5v-.5" stroke="#3a414a" fill="none"/><path d="M1457.33 406.34l-4.63-14.26h9.27z" stroke="#3a414a" fill="#3a414a"/><path d="M1502.67 320.45v67.5M1502.67 320.46v-.5" stroke="#3a414a" fill="none"/><path d="M1502.67 402.7l-4.64-14.26h9.27z" stroke="#3a414a" fill="#3a414a"/><path d="M1537.33 160.5v231.08M1537.33 160.5v-.5" stroke="#3a414a" fill="none"/><path d="M1537.33 406.34l-4.63-14.26h9.27z" stroke="#3a414a" fill="#3a414a"/><path d="M1582.67 320.45v67.5M1582.67 320.46v-.5" stroke="#3a414a" fill="none"/><path d="M1582.67 402.7l-4.64-14.26h9.27z" stroke="#3a414a" fill="#3a414a"/><path d="M1620 160.5v231.08M1620 160.5v-.5" stroke="#3a414a" fill="none"/><path d="M1620 406.34l-4.63-14.26h9.27z" stroke="#3a414a" fill="#3a414a"/><path d="M1665.34 320.45v67.5M1665.34 320.46v-.5" stroke="#3a414a" fill="none"/><path d="M1665.34 402.7l-4.64-14.26h9.27z" stroke="#3a414a" fill="#3a414a"/><path d="M360 520c0 22.1-17.9 40-40 40s-40-17.9-40-40 17.9-40 40-40 40 17.9 40 40z" stroke="#3a414a" fill="#fff"/><use xlink:href="#r" transform="matrix(1,0,0,1,284.99999999999204,484.99999999999955) translate(22.04203703703704 44.30555555555554)"/><path d="M760 520c0 22.1-17.9 40-40 40s-40-17.9-40-40 17.9-40 40-40 40 17.9 40 40z" stroke="#3a414a" fill="#fff"/><use xlink:href="#r" transform="matrix(1,0,0,1,684.999999999992,484.99999999999955) translate(22.04203703703704 44.30555555555554)"/><path d="M1160 520c0 22.1-17.9 40-40 40s-40-17.9-40-40 17.9-40 40-40 40 17.9 40 40z" stroke="#3a414a" fill="#fff"/><use xlink:href="#r" transform="matrix(1,0,0,1,1084.999999999992,484.99999999999955) translate(22.04203703703704 44.30555555555554)"/><path d="M1560 520c0 22.1-17.9 40-40 40s-40-17.9-40-40 17.9-40 40-40 40 17.9 40 40z" stroke="#3a414a" fill="#fff"/><use xlink:href="#r" transform="matrix(1,0,0,1,1484.999999999992,484.99999999999955) translate(22.04203703703704 44.30555555555554)"/><path d="M160 686a6 6 0 0 1 6-6h308a6 6 0 0 1 6 6v68a6 6 0 0 1-6 6H166a6 6 0 0 1-6-6z" stroke="#3a414a" fill="#fff"/><use xlink:href="#m" transform="matrix(1,0,0,1,164.99999999999295,684.9999999999995) translate(145.62345679012347 41.569444444444436)"/><path d="M560 686a6 6 0 0 1 6-6h308a6 6 0 0 1 6 6v68a6 6 0 0 1-6 6H566a6 6 0 0 1-6-6z" stroke="#3a414a" fill="#fff"/><use xlink:href="#n" transform="matrix(1,0,0,1,564.9999999999952,684.9999999999995) translate(145.62345679012347 41.569444444444436)"/><path d="M960 686a6 6 0 0 1 6-6h308a6 6 0 0 1 6 6v68a6 6 0 0 1-6 6H966a6 6 0 0 1-6-6z" stroke="#3a414a" fill="#fff"/><use xlink:href="#o" transform="matrix(1,0,0,1,964.9999999999975,684.9999999999995) translate(145.62345679012347 41.569444444444436)"/><path d="M1360 686a6 6 0 0 1 6-6h308a6 6 0 0 1 6 6v68a6 6 0 0 1-6 6h-308a6 6 0 0 1-6-6z" stroke="#3a414a" fill="#fff"/><use xlink:href="#p" transform="matrix(1,0,0,1,1364.9999999999998,684.9999999999995) translate(145.62345679012347 41.569444444444436)"/><path d="M360 860c0 22.1-17.9 40-40 40s-40-17.9-40-40 17.9-40 40-40 40 17.9 40 40z" stroke="#3a414a" fill="#fff"/><use xlink:href="#r" transform="matrix(1,0,0,1,284.9999999999841,824.9999999999995) translate(22.04203703703704 44.30555555555554)"/><path d="M760 860c0 22.1-17.9 40-40 40s-40-17.9-40-40 17.9-40 40-40 40 17.9 40 40z" stroke="#3a414a" fill="#fff"/><use xlink:href="#r" transform="matrix(1,0,0,1,684.9999999999841,824.9999999999995) translate(22.04203703703704 44.30555555555554)"/><path d="M1160 860c0 22.1-17.9 40-40 40s-40-17.9-40-40 17.9-40 40-40 40 17.9 40 40z" stroke="#3a414a" fill="#fff"/><use xlink:href="#r" transform="matrix(1,0,0,1,1084.999999999984,824.9999999999995) translate(22.04203703703704 44.30555555555554)"/><path d="M1560 860c0 22.1-17.9 40-40 40s-40-17.9-40-40 17.9-40 40-40 40 17.9 40 40z" stroke="#3a414a" fill="#fff"/><use xlink:href="#r" transform="matrix(1,0,0,1,1484.999999999984,824.9999999999995) translate(22.04203703703704 44.30555555555554)"/><path d="M160 1026a6 6 0 0 1 6-6h308a6 6 0 0 1 6 6v68a6 6 0 0 1-6 6H166a6 6 0 0 1-6-6z" stroke="#3a414a" fill="#fff"/><use xlink:href="#m" transform="matrix(1,0,0,1,164.999999999985,1024.9999999999995) translate(145.62345679012347 41.569444444444436)"/><path d="M560 1026a6 6 0 0 1 6-6h308a6 6 0 0 1 6 6v68a6 6 0 0 1-6 6H566a6 6 0 0 1-6-6z" stroke="#3a414a" fill="#fff"/><use xlink:href="#n" transform="matrix(1,0,0,1,564.9999999999873,1024.9999999999995) translate(145.62345679012347 41.569444444444436)"/><path d="M960 1026a6 6 0 0 1 6-6h308a6 6 0 0 1 6 6v68a6 6 0 0 1-6 6H966a6 6 0 0 1-6-6z" stroke="#3a414a" fill="#fff"/><use xlink:href="#o" transform="matrix(1,0,0,1,964.9999999999898,1024.9999999999995) translate(145.62345679012347 41.569444444444436)"/><path d="M1360 1026a6 6 0 0 1 6-6h308a6 6 0 0 1 6 6v68a6 6 0 0 1-6 6h-308a6 6 0 0 1-6-6z" stroke="#3a414a" fill="#fff"/><use xlink:href="#p" transform="matrix(1,0,0,1,1364.9999999999918,1024.9999999999995) translate(145.62345679012347 41.569444444444436)"/><path d="M320 901v102.12" stroke="#3a414a" fill="none"/><path d="M320 900.5l.5-.02v.53h-1v-.53z" stroke="#3a414a" stroke-width=".05" fill="#3a414a"/><path d="M320 1017.88l-4.63-14.26h9.26z" stroke="#3a414a" fill="#3a414a"/><path d="M720 901v102.12" stroke="#3a414a" fill="none"/><path d="M720 900.5l.5-.02v.53h-1v-.53z" stroke="#3a414a" stroke-width=".05" fill="#3a414a"/><path d="M720 1017.88l-4.63-14.26h9.26z" stroke="#3a414a" fill="#3a414a"/><path d="M1120 901v102.12" stroke="#3a414a" fill="none"/><path d="M1120 900.5l.5-.02v.53h-1v-.53z" stroke="#3a414a" stroke-width=".05" fill="#3a414a"/><path d="M1120 1017.88l-4.63-14.26h9.27z" stroke="#3a414a" fill="#3a414a"/><path d="M1520 901v102.12" stroke="#3a414a" fill="none"/><path d="M1520 900.5l.5-.02v.53h-1v-.53z" stroke="#3a414a" stroke-width=".05" fill="#3a414a"/><path d="M1520 1017.88l-4.63-14.26h9.27z" stroke="#3a414a" fill="#3a414a"/><path d="M341.03 555.07v254" stroke="#3a414a" fill="none"/><path d="M341.53 555.08h-1v-.24l1-.55z" stroke="#3a414a" stroke-width=".05" fill="#3a414a"/><path d="M341.03 823.85l-4.64-14.27h9.26z" stroke="#3a414a" fill="#3a414a"/><path d="M740 555.64v252.8" stroke="#3a414a" fill="none"/><path d="M740.5 555.65h-1v-.23l1-.56z" stroke="#3a414a" stroke-width=".05" fill="#3a414a"/><path d="M740 823.2l-4.63-14.27h9.26z" stroke="#3a414a" fill="#3a414a"/><path d="M1141.75 554.66v254.88" stroke="#3a414a" fill="none"/><path d="M1142.25 554.67h-1v-.23l.6-.34.4-.3z" stroke="#3a414a" stroke-width=".05" fill="#3a414a"/><path d="M1141.75 824.3l-4.63-14.26h9.27z" stroke="#3a414a" fill="#3a414a"/><path d="M1540 555.64v252.8" stroke="#3a414a" fill="none"/><path d="M1540.5 555.65h-1v-.23l1-.56z" stroke="#3a414a" stroke-width=".05" fill="#3a414a"/><path d="M1540 823.2l-4.63-14.27h9.27z" stroke="#3a414a" fill="#3a414a"/><path d="M299.98 761v31.67l.02.02v15.78" stroke="#3a414a" fill="none"/><path d="M300.48 761h-1v-.5h1z" stroke="#3a414a" stroke-width=".05" fill="#3a414a"/><path d="M300 823.24l-4.63-14.26h9.26z" stroke="#3a414a" fill="#3a414a"/><path d="M699.98 761v31.67l.02.02v15.78" stroke="#3a414a" fill="none"/><path d="M700.48 761h-1v-.5h1z" stroke="#3a414a" stroke-width=".05" fill="#3a414a"/><path d="M700 823.24l-4.63-14.26h9.26z" stroke="#3a414a" fill="#3a414a"/><path d="M1099.98 761v31.67l.02.02v15.78" stroke="#3a414a" fill="none"/><path d="M1100.48 761h-1v-.5h1z" stroke="#3a414a" stroke-width=".05" fill="#3a414a"/><path d="M1100 823.24l-4.63-14.26h9.27z" stroke="#3a414a" fill="#3a414a"/><path d="M1499.98 761v31.67l.02.02v15.78" stroke="#3a414a" fill="none"/><path d="M1500.48 761h-1v-.5h1z" stroke="#3a414a" stroke-width=".05" fill="#3a414a"/><path d="M1500 823.24l-4.63-14.26h9.27z" stroke="#3a414a" fill="#3a414a"/><path d="M165 480h330M165.13 480H160M494.87 480H500M555 480h330M555.13 480H550M884.87 480H890M965 480h330M965.13 480H960M1294.87 480h5.13M1355 480h330M1355.13 480H1350M1684.87 480h5.13" stroke="#3a414a" stroke-width="10" fill="none"/><path d="M-40 91.67a6 6 0 0 1 6-6h228a6 6 0 0 1 6 6v56.66a6 6 0 0 1-6 6H-34a6 6 0 0 1-6-6z" stroke="#000" stroke-opacity="0" fill="#fff" fill-opacity="0"/><use xlink:href="#s" transform="matrix(1,0,0,1,-35,90.6666666666668) translate(68.8271604938272 42.798611111111086)"/><path d="M-40 261.67a6 6 0 0 1 6-6h228a6 6 0 0 1 6 6v56.66a6 6 0 0 1-6 6H-34a6 6 0 0 1-6-6z" stroke="#000" stroke-opacity="0" fill="#fff" fill-opacity="0"/><use xlink:href="#t" transform="matrix(1,0,0,1,-35,260.6666666666668) translate(68.8271604938272 42.798611111111086)"/><path d="M-40 1041.67a6 6 0 0 1 6-6h228a6 6 0 0 1 6 6v56.66a6 6 0 0 1-6 6H-34a6 6 0 0 1-6-6z" stroke="#000" stroke-opacity="0" fill="#fff" fill-opacity="0"/><use xlink:href="#u" transform="matrix(1,0,0,1,-35,1040.6666666666663) translate(33.586419753086474 42.798611111111086)"/><path d="M-40 691.67a6 6 0 0 1 6-6h228a6 6 0 0 1 6 6v56.66a6 6 0 0 1-6 6H-34a6 6 0 0 1-6-6z" stroke="#000" stroke-opacity="0" fill="#fff" fill-opacity="0"/><use xlink:href="#v" transform="matrix(1,0,0,1,-35,690.6666666666663) translate(48.59259259259264 42.798611111111086)"/><path d="M1520 6a6 6 0 0 1 6-6h228a6 6 0 0 1 6 6v56.67a6 6 0 0 1-6 6h-228a6 6 0 0 1-6-6z" stroke="#000" stroke-opacity="0" fill="#fff" fill-opacity="0"/><use xlink:href="#w" transform="matrix(1,0,0,1,1525.0000000000025,5.000000000000057) translate(55.38271604938275 42.798611111111086)"/><path d="M1520 1106a6 6 0 0 1 6-6h228a6 6 0 0 1 6 6v56.67a6 6 0 0 1-6 6h-228a6 6 0 0 1-6-6z" stroke="#000" stroke-opacity="0" fill="#fff" fill-opacity="0"/><use xlink:href="#x" transform="matrix(1,0,0,1,1525.0000000000025,1104.9999999999995) translate(41.80246913580251 42.798611111111086)"/><path d="M1520 766a6 6 0 0 1 6-6h228a6 6 0 0 1 6 6v56.67a6 6 0 0 1-6 6h-228a6 6 0 0 1-6-6z" stroke="#000" stroke-opacity="0" fill="#fff" fill-opacity="0"/><use xlink:href="#x" transform="matrix(1,0,0,1,1525.0000000000025,764.9999999999995) translate(41.80246913580251 42.798611111111086)"/><g fill="none"><path d="M1366 0a6 6 0 0 1-6-6v-68a6 6 0 0 1 6-6h308a6 6 0 0 1 6 6v68a6 6 0 0 1-6 6z"/><path d="M1680 0c0-5.52-4.48-10-10-10h-140c-5.52 0-10-4.48-10-10 0 5.52-4.48 10-10 10h-140c-5.52 0-10 4.48-10 10" stroke="#3a414a"/></g><use xlink:href="#y" transform="matrix(6.123233995736766e-17,-1,1,6.123233995736766e-17,1364.999999999984,-35) translate(0 165.27777777777777)"/><g fill="none"><path d="M1606 68.67a6 6 0 0 1-6-6v-68a6 6 0 0 1 6-6h68a6 6 0 0 1 6 6v68a6 6 0 0 1-6 6z"/><path d="M1680 68.67c0-5.53-4.48-10-10-10h-20c-5.52 0-10-4.48-10-10 0 5.52-4.48 10-10 10h-20c-5.52 0-10 4.47-10 10" stroke="#3a414a"/></g><path d="M1760 56.67a6 6 0 0 1 6-6h228a6 6 0 0 1 6 6V172a6 6 0 0 1-6 6h-228a6 6 0 0 1-6-6z" stroke="#000" stroke-opacity="0" fill="#fff" fill-opacity="0"/><use xlink:href="#z" transform="matrix(1,0,0,1,1765.0000000000025,55.6666666666668) translate(66.11111111111114 42.798611111111086)"/><use xlink:href="#A" transform="matrix(1,0,0,1,1765.0000000000025,55.6666666666668) translate(39.08641975308646 101.46527777777771)"/><path d="M1760 633a6 6 0 0 1 6-6h208a6 6 0 0 1 6 6v174a6 6 0 0 1-6 6h-208a6 6 0 0 1-6-6z" stroke="#000" stroke-opacity="0" fill="#fff" fill-opacity="0"/><use xlink:href="#B" transform="matrix(1,0,0,1,1765,632.0000000000389) translate(44.024691358024725 44.611111111111086)"/><use xlink:href="#C" transform="matrix(1,0,0,1,1765,632.0000000000389) translate(15.506172839506235 103.27777777777771)"/><use xlink:href="#A" transform="matrix(1,0,0,1,1765,632.0000000000389) translate(29.08641975308646 161.94444444444434)"/><defs><path fill="#3a414a" d="M63-220v92h138v28H63V0H30v-248h175v28H63" id="D"/><use transform="matrix(0.0987654320987654,0,0,0.0987654320987654,0,0)" xlink:href="#D" id="a"/><path fill="#3a414a" d="M30 0v-248h187v28H63v79h144v27H63v87h162V0H30" id="E"/><use transform="matrix(0.0987654320987654,0,0,0.0987654320987654,0,0)" xlink:href="#E" id="b"/><path fill="#3a414a" d="M30-248c118-7 216 8 213 122C240-48 200 0 122 0H30v-248zM63-27c89 8 146-16 146-99s-60-101-146-95v194" id="F"/><use transform="matrix(0.0987654320987654,0,0,0.0987654320987654,0,0)" xlink:href="#F" id="c"/><path fill="#3a414a" d="M212-179c-10-28-35-45-73-45-59 0-87 40-87 99 0 60 29 101 89 101 43 0 62-24 78-52l27 14C228-24 195 4 139 4 59 4 22-46 18-125c-6-104 99-153 187-111 19 9 31 26 39 46" id="G"/><use transform="matrix(0.0987654320987654,0,0,0.0987654320987654,0,0)" xlink:href="#G" id="d"/><path fill="#3a414a" d="M160-131c35 5 61 23 61 61C221 17 115-2 30 0v-248c76 3 177-17 177 60 0 33-19 50-47 57zm-97-11c50-1 110 9 110-42 0-47-63-36-110-37v79zm0 115c55-2 124 14 124-45 0-56-70-42-124-44v89" id="H"/><use transform="matrix(0.0987654320987654,0,0,0.0987654320987654,0,0)" xlink:href="#H" id="e"/><path fill="#3a414a" d="M205 0l-28-72H64L36 0H1l101-248h38L239 0h-34zm-38-99l-47-123c-12 45-31 82-46 123h93" id="I"/><use transform="matrix(0.0987654320987654,0,0,0.0987654320987654,0,0)" xlink:href="#I" id="f"/><path fill="#3a414a" d="M99-251c64 0 84 50 84 122C183-37 130 33 47-8c-14-7-20-23-25-40l30-5c6 39 69 39 84 7 9-19 16-44 16-74-10 22-31 35-62 35-49 0-73-33-73-83 0-54 28-83 82-83zm-1 141c31-1 51-18 51-49 0-36-14-67-51-67-34 0-49 23-49 58 0 34 15 58 49 58" id="J"/><use transform="matrix(0.0987654320987654,0,0,0.0987654320987654,0,0)" xlink:href="#J" id="g"/><path fill="#3a414a" d="M134-131c28 9 52 24 51 62-1 50-34 73-85 73S17-19 16-69c0-36 21-54 49-61-75-25-45-126 34-121 46 3 78 18 79 63 0 33-17 51-44 57zm-34-11c31 1 46-15 46-44 0-28-17-43-47-42-29 0-46 13-45 42 1 28 16 44 46 44zm1 122c35 0 51-18 51-52 0-30-18-46-53-46-33 0-51 17-51 47 0 34 19 51 53 51" id="K"/><use transform="matrix(0.0987654320987654,0,0,0.0987654320987654,0,0)" xlink:href="#K" id="h"/><path fill="#3a414a" d="M64 0c3-98 48-159 88-221H18v-27h164v26C143-157 98-101 97 0H64" id="L"/><use transform="matrix(0.0987654320987654,0,0,0.0987654320987654,0,0)" xlink:href="#L" id="i"/><path fill="#3a414a" d="M110-160c48 1 74 30 74 79 0 53-28 85-80 85-65 0-83-55-86-122-5-90 50-162 133-122 14 7 22 21 27 39l-31 6c-5-40-67-38-82-6-9 19-15 44-15 74 11-20 30-34 60-33zm-7 138c34 0 49-23 49-58s-16-56-50-56c-29 0-50 16-49 49 1 36 15 65 50 65" id="M"/><use transform="matrix(0.0987654320987654,0,0,0.0987654320987654,0,0)" xlink:href="#M" id="j"/><path fill="#3a414a" d="M54-142c48-35 137-8 131 61C196 18 31 33 14-55l32-4c7 23 22 37 52 37 35-1 51-22 54-58 4-55-73-65-99-34H22l8-134h141v27H59" id="N"/><use transform="matrix(0.0987654320987654,0,0,0.0987654320987654,0,0)" xlink:href="#N" id="k"/><path fill="#3a414a" d="M155-56V0h-30v-56H8v-25l114-167h33v167h35v25h-35zm-30-156c-27 46-58 90-88 131h88v-131" id="O"/><use transform="matrix(0.0987654320987654,0,0,0.0987654320987654,0,0)" xlink:href="#O" id="l"/><path fill="#3a414a" d="M126-127c33 6 58 20 58 59 0 88-139 92-164 29-3-8-5-16-6-25l32-3c6 27 21 44 54 44 32 0 52-15 52-46 0-38-36-46-79-43v-28c39 1 72-4 72-42 0-27-17-43-46-43-28 0-47 15-49 41l-32-3c6-42 35-63 81-64 48-1 79 21 79 65 0 36-21 52-52 59" id="P"/><use transform="matrix(0.0987654320987654,0,0,0.0987654320987654,0,0)" xlink:href="#P" id="m"/><path fill="#3a414a" d="M101-251c82-7 93 87 43 132L82-64C71-53 59-42 53-27h129V0H18c2-99 128-94 128-182 0-28-16-43-45-43s-46 15-49 41l-32-3c6-41 34-60 81-64" id="Q"/><use transform="matrix(0.0987654320987654,0,0,0.0987654320987654,0,0)" xlink:href="#Q" id="n"/><path fill="#3a414a" d="M27 0v-27h64v-190l-56 39v-29l58-41h29v221h61V0H27" id="R"/><use transform="matrix(0.0987654320987654,0,0,0.0987654320987654,0,0)" xlink:href="#R" id="o"/><path fill="#3a414a" d="M101-251c68 0 85 55 85 127S166 4 100 4C33 4 14-52 14-124c0-73 17-127 87-127zm-1 229c47 0 54-49 54-102s-4-102-53-102c-51 0-55 48-55 102 0 53 5 102 54 102" id="S"/><use transform="matrix(0.0987654320987654,0,0,0.0987654320987654,0,0)" xlink:href="#S" id="p"/><path fill="#3a414a" d="M80-196l47-18 7 23-49 13 32 44-20 13-27-46-27 45-21-12 33-44-49-13 8-23 47 19-2-53h23" id="T"/><use transform="matrix(0.1172839506172839,0,0,0.1172839506172839,0,0)" xlink:href="#T" id="q"/><path fill="#3a414a" d="M118-107v75H92v-75H18v-26h74v-75h26v75h74v26h-74" id="U"/><use transform="matrix(0.12345679012345674,0,0,0.12345679012345674,0,0)" xlink:href="#U" id="r"/><path fill="#3a414a" d="M137 0h-34L2-248h35l83 218 83-218h36" id="V"/><path fill="#3a414a" d="M185-189c-5-48-123-54-124 2 14 75 158 14 163 119 3 78-121 87-175 55-17-10-28-26-33-46l33-7c5 56 141 63 141-1 0-78-155-14-162-118-5-82 145-84 179-34 5 7 8 16 11 25" id="W"/><g id="s"><use transform="matrix(0.13580246913580238,0,0,0.13580246913580238,0,0)" xlink:href="#V"/><use transform="matrix(0.13580246913580238,0,0,0.13580246913580238,32.592592592592574,0)" xlink:href="#W"/><use transform="matrix(0.13580246913580238,0,0,0.13580246913580238,65.18518518518515,0)" xlink:href="#R"/></g><g id="t"><use transform="matrix(0.13580246913580238,0,0,0.13580246913580238,0,0)" xlink:href="#V"/><use transform="matrix(0.13580246913580238,0,0,0.13580246913580238,32.592592592592574,0)" xlink:href="#W"/><use transform="matrix(0.13580246913580238,0,0,0.13580246913580238,65.18518518518515,0)" xlink:href="#Q"/></g><path fill="#3a414a" d="M-5 72V49h209v23H-5" id="X"/><path fill="#3a414a" d="M100-194c62-1 85 37 85 99 1 63-27 99-86 99S16-35 15-95c0-66 28-99 85-99zM99-20c44 1 53-31 53-75 0-43-8-75-51-75s-53 32-53 75 10 74 51 75" id="Y"/><path fill="#3a414a" d="M84 4C-5 8 30-112 23-190h32v120c0 31 7 50 39 49 72-2 45-101 50-169h31l1 190h-30c-1-10 1-25-2-33-11 22-28 36-60 37" id="Z"/><path fill="#3a414a" d="M59-47c-2 24 18 29 38 22v24C64 9 27 4 27-40v-127H5v-23h24l9-43h21v43h35v23H59v120" id="aa"/><g id="u"><use transform="matrix(0.13580246913580238,0,0,0.13580246913580238,0,0)" xlink:href="#V"/><use transform="matrix(0.13580246913580238,0,0,0.13580246913580238,32.592592592592574,0)" xlink:href="#F"/><use transform="matrix(0.13580246913580238,0,0,0.13580246913580238,67.76543209876539,0)" xlink:href="#X"/><use transform="matrix(0.13580246913580238,0,0,0.13580246913580238,94.92592592592587,0)" xlink:href="#Y"/><use transform="matrix(0.13580246913580238,0,0,0.13580246913580238,122.08641975308636,0)" xlink:href="#Z"/><use transform="matrix(0.13580246913580238,0,0,0.13580246913580238,149.24691358024683,0)" xlink:href="#aa"/></g><path fill="#3a414a" d="M24-231v-30h32v30H24zM24 0v-190h32V0H24" id="ab"/><path fill="#3a414a" d="M117-194c89-4 53 116 60 194h-32v-121c0-31-8-49-39-48C34-167 62-67 57 0H25l-1-190h30c1 10-1 24 2 32 11-22 29-35 61-36" id="ac"/><g id="v"><use transform="matrix(0.13580246913580238,0,0,0.13580246913580238,0,0)" xlink:href="#V"/><use transform="matrix(0.13580246913580238,0,0,0.13580246913580238,32.592592592592574,0)" xlink:href="#F"/><use transform="matrix(0.13580246913580238,0,0,0.13580246913580238,67.76543209876539,0)" xlink:href="#X"/><use transform="matrix(0.13580246913580238,0,0,0.13580246913580238,94.92592592592587,0)" xlink:href="#ab"/><use transform="matrix(0.13580246913580238,0,0,0.13580246913580238,105.65432098765426,0)" xlink:href="#ac"/></g><path fill="#3a414a" d="M16-82v-28h88v28H16" id="ad"/><path fill="#3a414a" d="M115-194c53 0 69 39 70 98 0 66-23 100-70 100C84 3 66-7 56-30L54 0H23l1-261h32v101c10-23 28-34 59-34zm-8 174c40 0 45-34 45-75 0-40-5-75-45-74-42 0-51 32-51 76 0 43 10 73 51 73" id="ae"/><path fill="#3a414a" d="M135-143c-3-34-86-38-87 0 15 53 115 12 119 90S17 21 10-45l28-5c4 36 97 45 98 0-10-56-113-15-118-90-4-57 82-63 122-42 12 7 21 19 24 35" id="af"/><g id="w"><use transform="matrix(0.13580246913580238,0,0,0.13580246913580238,0,0)" xlink:href="#K"/><use transform="matrix(0.13580246913580238,0,0,0.13580246913580238,27.160493827160476,0)" xlink:href="#ad"/><use transform="matrix(0.13580246913580238,0,0,0.13580246913580238,43.32098765432096,0)" xlink:href="#ae"/><use transform="matrix(0.13580246913580238,0,0,0.13580246913580238,70.48148148148144,0)" xlink:href="#ab"/><use transform="matrix(0.13580246913580238,0,0,0.13580246913580238,81.20987654320984,0)" xlink:href="#aa"/><use transform="matrix(0.13580246913580238,0,0,0.13580246913580238,94.79012345679007,0)" xlink:href="#af"/></g><g id="x"><use transform="matrix(0.13580246913580238,0,0,0.13580246913580238,0,0)" xlink:href="#P"/><use transform="matrix(0.13580246913580238,0,0,0.13580246913580238,27.160493827160476,0)" xlink:href="#Q"/><use transform="matrix(0.13580246913580238,0,0,0.13580246913580238,54.32098765432095,0)" xlink:href="#ad"/><use transform="matrix(0.13580246913580238,0,0,0.13580246913580238,70.48148148148144,0)" xlink:href="#ae"/><use transform="matrix(0.13580246913580238,0,0,0.13580246913580238,97.64197530864193,0)" xlink:href="#ab"/><use transform="matrix(0.13580246913580238,0,0,0.13580246913580238,108.37037037037031,0)" xlink:href="#aa"/><use transform="matrix(0.13580246913580238,0,0,0.13580246913580238,121.95061728395055,0)" xlink:href="#af"/></g><path fill="#3a414a" d="M266 0h-40l-56-210L115 0H75L2-248h35L96-30l15-64 43-154h32l59 218 59-218h35" id="ag"/><path fill="#3a414a" d="M18-150v-26h174v26H18zm0 90v-26h174v26H18" id="ah"/><g id="y"><use transform="matrix(0.13580246913580238,0,0,0.13580246913580238,0,0)" xlink:href="#W"/><use transform="matrix(0.13580246913580238,0,0,0.13580246913580238,32.592592592592574,0)" xlink:href="#E"/><use transform="matrix(0.13580246913580238,0,0,0.13580246913580238,65.18518518518515,0)" xlink:href="#ag"/><use transform="matrix(0.13580246913580238,0,0,0.13580246913580238,111.22222222222216,0)" xlink:href="#ah"/><use transform="matrix(0.13580246913580238,0,0,0.13580246913580238,139.74074074074065,0)" xlink:href="#P"/><use transform="matrix(0.13580246913580238,0,0,0.13580246913580238,166.90123456790113,0)" xlink:href="#Q"/></g><path fill="#3a414a" d="M179-190L93 31C79 59 56 82 12 73V49c39 6 53-20 64-50L1-190h34L92-34l54-156h33" id="ai"/><path fill="#3a414a" d="M100-194c63 0 86 42 84 106H49c0 40 14 67 53 68 26 1 43-12 49-29l28 8c-11 28-37 45-77 45C44 4 14-33 15-96c1-61 26-98 85-98zm52 81c6-60-76-77-97-28-3 7-6 17-6 28h103" id="aj"/><g id="z"><use transform="matrix(0.13580246913580238,0,0,0.13580246913580238,0,0)" xlink:href="#H"/><use transform="matrix(0.13580246913580238,0,0,0.13580246913580238,32.592592592592574,0)" xlink:href="#ai"/><use transform="matrix(0.13580246913580238,0,0,0.13580246913580238,57.037037037036995,0)" xlink:href="#aa"/><use transform="matrix(0.13580246913580238,0,0,0.13580246913580238,70.61728395061724,0)" xlink:href="#aj"/></g><path fill="#3a414a" d="M85-194c31 0 48 13 60 33l-1-100h32l1 261h-30c-2-10 0-23-3-31C134-8 116 4 85 4 32 4 16-35 15-94c0-66 23-100 70-100zm9 24c-40 0-46 34-46 75 0 40 6 74 45 74 42 0 51-32 51-76 0-42-9-74-50-73" id="ak"/><path fill="#3a414a" d="M96-169c-40 0-48 33-48 73s9 75 48 75c24 0 41-14 43-38l32 2c-6 37-31 61-74 61-59 0-76-41-82-99-10-93 101-131 147-64 4 7 5 14 7 22l-32 3c-4-21-16-35-41-35" id="al"/><g id="A"><use transform="matrix(0.13580246913580238,0,0,0.13580246913580238,0,0)" xlink:href="#ab"/><use transform="matrix(0.13580246913580238,0,0,0.13580246913580238,10.728395061728389,0)" xlink:href="#ac"/><use transform="matrix(0.13580246913580238,0,0,0.13580246913580238,37.888888888888864,0)" xlink:href="#ak"/><use transform="matrix(0.13580246913580238,0,0,0.13580246913580238,65.04938271604934,0)" xlink:href="#ab"/><use transform="matrix(0.13580246913580238,0,0,0.13580246913580238,75.77777777777773,0)" xlink:href="#al"/><use transform="matrix(0.13580246913580238,0,0,0.13580246913580238,100.22222222222216,0)" xlink:href="#aj"/><use transform="matrix(0.13580246913580238,0,0,0.13580246913580238,127.38271604938264,0)" xlink:href="#af"/></g><g id="B"><use transform="matrix(0.13580246913580238,0,0,0.13580246913580238,0,0)" xlink:href="#P"/><use transform="matrix(0.13580246913580238,0,0,0.13580246913580238,27.160493827160476,0)" xlink:href="#Q"/><use transform="matrix(0.13580246913580238,0,0,0.13580246913580238,54.32098765432095,0)" xlink:href="#ad"/><use transform="matrix(0.13580246913580238,0,0,0.13580246913580238,70.48148148148144,0)" xlink:href="#ae"/><use transform="matrix(0.13580246913580238,0,0,0.13580246913580238,97.64197530864193,0)" xlink:href="#ab"/><use transform="matrix(0.13580246913580238,0,0,0.13580246913580238,108.37037037037031,0)" xlink:href="#aa"/></g><path fill="#3a414a" d="M24 0v-261h32V0H24" id="am"/><path fill="#3a414a" d="M210-169c-67 3-38 105-44 169h-31v-121c0-29-5-50-35-48C34-165 62-65 56 0H25l-1-190h30c1 10-1 24 2 32 10-44 99-50 107 0 11-21 27-35 58-36 85-2 47 119 55 194h-31v-121c0-29-5-49-35-48" id="an"/><g id="C"><use transform="matrix(0.13580246913580238,0,0,0.13580246913580238,0,0)" xlink:href="#E"/><use transform="matrix(0.13580246913580238,0,0,0.13580246913580238,32.592592592592574,0)" xlink:href="#am"/><use transform="matrix(0.13580246913580238,0,0,0.13580246913580238,43.32098765432096,0)" xlink:href="#aj"/><use transform="matrix(0.13580246913580238,0,0,0.13580246913580238,70.48148148148144,0)" xlink:href="#an"/><use transform="matrix(0.13580246913580238,0,0,0.13580246913580238,111.08641975308635,0)" xlink:href="#aj"/><use transform="matrix(0.13580246913580238,0,0,0.13580246913580238,138.24691358024683,0)" xlink:href="#ac"/><use transform="matrix(0.13580246913580238,0,0,0.13580246913580238,165.4074074074073,0)" xlink:href="#aa"/></g></defs></g></svg>