<svg xmlns="http://www.w3.org/2000/svg" xmlns:xlink="http://www.w3.org/1999/xlink" xmlns:lucid="lucid" width="1241" height="881"><g transform="translate(-219.5 80.5)" lucid:page-tab-id="-RWaRfQfrYDc"><path d="M0-500h1500v1500H0z" fill="#fff"/><path d="M1120 706a6 6 0 0 1 6-6h308a6 6 0 0 1 6 6v8a6 6 0 0 1-6 6h-308a6 6 0 0 1-6-6zM1120 686a6 6 0 0 1 6-6h308a6 6 0 0 1 6 6v8a6 6 0 0 1-6 6h-308a6 6 0 0 1-6-6zM1120 666a6 6 0 0 1 6-6h308a6 6 0 0 1 6 6v8a6 6 0 0 1-6 6h-308a6 6 0 0 1-6-6zM1120 646a6 6 0 0 1 6-6h308a6 6 0 0 1 6 6v8a6 6 0 0 1-6 6h-308a6 6 0 0 1-6-6z" stroke="#333" fill-opacity="0"/><path d="M1120 626a6 6 0 0 1 6-6h308a6 6 0 0 1 6 6v8a6 6 0 0 1-6 6h-308a6 6 0 0 1-6-6zM1120 606a6 6 0 0 1 6-6h308a6 6 0 0 1 6 6v8a6 6 0 0 1-6 6h-308a6 6 0 0 1-6-6zM1120 586a6 6 0 0 1 6-6h308a6 6 0 0 1 6 6v8a6 6 0 0 1-6 6h-308a6 6 0 0 1-6-6zM1120 566a6 6 0 0 1 6-6h308a6 6 0 0 1 6 6v8a6 6 0 0 1-6 6h-308a6 6 0 0 1-6-6z" stroke="#333" fill="#dfe3e8"/><path d="M760 706a6 6 0 0 1 6-6h308a6 6 0 0 1 6 6v8a6 6 0 0 1-6 6H766a6 6 0 0 1-6-6zM760 686a6 6 0 0 1 6-6h308a6 6 0 0 1 6 6v8a6 6 0 0 1-6 6H766a6 6 0 0 1-6-6z" stroke="#333" fill-opacity="0"/><path d="M760 666a6 6 0 0 1 6-6h308a6 6 0 0 1 6 6v8a6 6 0 0 1-6 6H766a6 6 0 0 1-6-6zM760 646a6 6 0 0 1 6-6h308a6 6 0 0 1 6 6v8a6 6 0 0 1-6 6H766a6 6 0 0 1-6-6z" stroke="#333" fill="#dfe3e8"/><path d="M760 626a6 6 0 0 1 6-6h308a6 6 0 0 1 6 6v8a6 6 0 0 1-6 6H766a6 6 0 0 1-6-6zM760 606a6 6 0 0 1 6-6h308a6 6 0 0 1 6 6v8a6 6 0 0 1-6 6H766a6 6 0 0 1-6-6z" stroke="#333" fill-opacity="0"/><path d="M760 586a6 6 0 0 1 6-6h308a6 6 0 0 1 6 6v8a6 6 0 0 1-6 6H766a6 6 0 0 1-6-6zM760 566a6 6 0 0 1 6-6h308a6 6 0 0 1 6 6v8a6 6 0 0 1-6 6H766a6 6 0 0 1-6-6z" stroke="#333" fill="#6f7681"/><path d="M400 706a6 6 0 0 1 6-6h308a6 6 0 0 1 6 6v8a6 6 0 0 1-6 6H406a6 6 0 0 1-6-6z" stroke="#333" fill-opacity="0"/><path d="M400 686a6 6 0 0 1 6-6h308a6 6 0 0 1 6 6v8a6 6 0 0 1-6 6H406a6 6 0 0 1-6-6z" stroke="#333" fill="#dfe3e8"/><path d="M400 666a6 6 0 0 1 6-6h308a6 6 0 0 1 6 6v8a6 6 0 0 1-6 6H406a6 6 0 0 1-6-6z" stroke="#333" fill-opacity="0"/><path d="M400 646a6 6 0 0 1 6-6h308a6 6 0 0 1 6 6v8a6 6 0 0 1-6 6H406a6 6 0 0 1-6-6z" stroke="#333" fill="#979ea8"/><path d="M400 626a6 6 0 0 1 6-6h308a6 6 0 0 1 6 6v8a6 6 0 0 1-6 6H406a6 6 0 0 1-6-6z" stroke="#333" fill-opacity="0"/><path d="M400 606a6 6 0 0 1 6-6h308a6 6 0 0 1 6 6v8a6 6 0 0 1-6 6H406a6 6 0 0 1-6-6z" stroke="#333" fill="#4c535d"/><path d="M400 586a6 6 0 0 1 6-6h308a6 6 0 0 1 6 6v8a6 6 0 0 1-6 6H406a6 6 0 0 1-6-6z" stroke="#333" fill-opacity="0"/><path d="M400 566a6 6 0 0 1 6-6h308a6 6 0 0 1 6 6v8a6 6 0 0 1-6 6H406a6 6 0 0 1-6-6z" stroke="#333" fill="#3a414a"/><path d="M400 746a6 6 0 0 1 6-6h308a6 6 0 0 1 6 6v28a6 6 0 0 1-6 6H406a6 6 0 0 1-6-6z" stroke="#000" stroke-opacity="0" fill="#fff" fill-opacity="0"/><use xlink:href="#a" transform="matrix(1,0,0,1,405,745) translate(66.43209876543213 17.97222222222222)"/><use xlink:href="#b" transform="matrix(1,0,0,1,405,745) translate(137 17.97222222222222)"/><use xlink:href="#c" transform="matrix(1,0,0,1,405,745) translate(176.01234567901236 17.97222222222222)"/><path d="M520 686a6 6 0 0 1 6-6h68a6 6 0 0 1 6 6v8a6 6 0 0 1-6 6h-68a6 6 0 0 1-6-6z" stroke="#000" stroke-opacity="0" fill="#fff"/><use xlink:href="#d" transform="matrix(1,0,0,1,525,685) translate(11.333333333333343 10.666666666666664)"/><path d="M520 646a6 6 0 0 1 6-6h68a6 6 0 0 1 6 6v8a6 6 0 0 1-6 6h-68a6 6 0 0 1-6-6z" stroke="#000" stroke-opacity="0" fill="#fff"/><use xlink:href="#e" transform="matrix(1,0,0,1,525,645) translate(11.333333333333343 10.666666666666664)"/><path d="M520 606a6 6 0 0 1 6-6h68a6 6 0 0 1 6 6v8a6 6 0 0 1-6 6h-68a6 6 0 0 1-6-6z" stroke="#000" stroke-opacity="0" fill="#fff"/><use xlink:href="#f" transform="matrix(1,0,0,1,525,605) translate(11.333333333333343 10.666666666666664)"/><path d="M520 566a6 6 0 0 1 6-6h68a6 6 0 0 1 6 6v8a6 6 0 0 1-6 6h-68a6 6 0 0 1-6-6z" stroke="#000" stroke-opacity="0" fill="#fff"/><use xlink:href="#g" transform="matrix(1,0,0,1,525,565) translate(11.333333333333343 10.666666666666664)"/><path d="M760 746a6 6 0 0 1 6-6h308a6 6 0 0 1 6 6v28a6 6 0 0 1-6 6H766a6 6 0 0 1-6-6z" stroke="#000" stroke-opacity="0" fill="#fff" fill-opacity="0"/><use xlink:href="#h" transform="matrix(1,0,0,1,765,745) translate(61.49382716049385 17.97222222222222)"/><use xlink:href="#i" transform="matrix(1,0,0,1,765,745) translate(141.93827160493828 17.97222222222222)"/><use xlink:href="#j" transform="matrix(1,0,0,1,765,745) translate(180.9506172839506 17.97222222222222)"/><path d="M880 656a6 6 0 0 1 6-6h68a6 6 0 0 1 6 6v8a6 6 0 0 1-6 6h-68a6 6 0 0 1-6-6z" stroke="#000" stroke-opacity="0" fill="#fff"/><use xlink:href="#d" transform="matrix(1,0,0,1,885,655) translate(11.333333333333343 10.666666666666664)"/><path d="M880 576a6 6 0 0 1 6-6h68a6 6 0 0 1 6 6v8a6 6 0 0 1-6 6h-68a6 6 0 0 1-6-6z" stroke="#000" stroke-opacity="0" fill="#fff"/><use xlink:href="#e" transform="matrix(1,0,0,1,885,575) translate(11.333333333333343 10.666666666666664)"/><path d="M1240 596a6 6 0 0 1 6-6h68a6 6 0 0 1 6 6v8a6 6 0 0 1-6 6h-68a6 6 0 0 1-6-6z" stroke="#000" stroke-opacity="0" fill="#fff"/><use xlink:href="#d" transform="matrix(1,0,0,1,1245,595) translate(11.333333333333343 10.666666666666664)"/><path d="M1120 746a6 6 0 0 1 6-6h308a6 6 0 0 1 6 6v28a6 6 0 0 1-6 6h-308a6 6 0 0 1-6-6z" stroke="#000" stroke-opacity="0" fill="#fff" fill-opacity="0"/><use xlink:href="#k" transform="matrix(1,0,0,1,1125,745) translate(49.14814814814818 17.97222222222222)"/><use xlink:href="#l" transform="matrix(1,0,0,1,1125,745) translate(154.28395061728395 17.97222222222222)"/><use xlink:href="#m" transform="matrix(1,0,0,1,1125,745) translate(193.29629629629628 17.97222222222222)"/><path d="M340 706a6 6 0 0 1 6-6h28a6 6 0 0 1 6 6v8a6 6 0 0 1-6 6h-28a6 6 0 0 1-6-6z" stroke="#000" stroke-opacity="0" fill="#fff" fill-opacity="0"/><use xlink:href="#n" transform="matrix(1,0,0,1,345,705) translate(0.5309787326388964 12.942708333333327)"/><path d="M340 686a6 6 0 0 1 6-6h28a6 6 0 0 1 6 6v8a6 6 0 0 1-6 6h-28a6 6 0 0 1-6-6z" stroke="#000" stroke-opacity="0" fill="#fff" fill-opacity="0"/><use xlink:href="#o" transform="matrix(1,0,0,1,345,685) translate(0.5309787326388964 12.942708333333327)"/><path d="M340 666a6 6 0 0 1 6-6h28a6 6 0 0 1 6 6v8a6 6 0 0 1-6 6h-28a6 6 0 0 1-6-6z" stroke="#000" stroke-opacity="0" fill="#fff" fill-opacity="0"/><use xlink:href="#p" transform="matrix(1,0,0,1,345,665) translate(0.5309787326388964 12.942708333333327)"/><path d="M340 646a6 6 0 0 1 6-6h28a6 6 0 0 1 6 6v8a6 6 0 0 1-6 6h-28a6 6 0 0 1-6-6z" stroke="#000" stroke-opacity="0" fill="#fff" fill-opacity="0"/><use xlink:href="#q" transform="matrix(1,0,0,1,345,645) translate(0.5309787326388964 12.942708333333327)"/><path d="M340 626a6 6 0 0 1 6-6h28a6 6 0 0 1 6 6v8a6 6 0 0 1-6 6h-28a6 6 0 0 1-6-6z" stroke="#000" stroke-opacity="0" fill="#fff" fill-opacity="0"/><use xlink:href="#r" transform="matrix(1,0,0,1,345,625) translate(0.5309787326388964 12.942708333333327)"/><path d="M340 606a6 6 0 0 1 6-6h28a6 6 0 0 1 6 6v8a6 6 0 0 1-6 6h-28a6 6 0 0 1-6-6z" stroke="#000" stroke-opacity="0" fill="#fff" fill-opacity="0"/><use xlink:href="#s" transform="matrix(1,0,0,1,345,605) translate(0.5309787326388964 12.942708333333327)"/><path d="M340 586a6 6 0 0 1 6-6h28a6 6 0 0 1 6 6v8a6 6 0 0 1-6 6h-28a6 6 0 0 1-6-6z" stroke="#000" stroke-opacity="0" fill="#fff" fill-opacity="0"/><use xlink:href="#t" transform="matrix(1,0,0,1,345,585) translate(0.5309787326388964 12.942708333333327)"/><path d="M340 566a6 6 0 0 1 6-6h28a6 6 0 0 1 6 6v8a6 6 0 0 1-6 6h-28a6 6 0 0 1-6-6z" stroke="#000" stroke-opacity="0" fill="#fff" fill-opacity="0"/><use xlink:href="#u" transform="matrix(1,0,0,1,345,565) translate(0.5309787326388964 12.942708333333327)"/><path d="M340 546a6 6 0 0 1 6-6h68a6 6 0 0 1 6 6v8a6 6 0 0 1-6 6h-68a6 6 0 0 1-6-6z" stroke="#000" stroke-opacity="0" fill="#fff" fill-opacity="0"/><use xlink:href="#v" transform="matrix(1,0,0,1,345,545) translate(0 11.093749999999995)"/><path d="M1120 466a6 6 0 0 1 6-6h308a6 6 0 0 1 6 6v8a6 6 0 0 1-6 6h-308a6 6 0 0 1-6-6zM1120 446a6 6 0 0 1 6-6h308a6 6 0 0 1 6 6v8a6 6 0 0 1-6 6h-308a6 6 0 0 1-6-6zM1120 426a6 6 0 0 1 6-6h308a6 6 0 0 1 6 6v8a6 6 0 0 1-6 6h-308a6 6 0 0 1-6-6zM1120 406a6 6 0 0 1 6-6h308a6 6 0 0 1 6 6v8a6 6 0 0 1-6 6h-308a6 6 0 0 1-6-6z" stroke="#333" fill="#dfe3e8"/><path d="M1120 386a6 6 0 0 1 6-6h308a6 6 0 0 1 6 6v8a6 6 0 0 1-6 6h-308a6 6 0 0 1-6-6zM1120 366a6 6 0 0 1 6-6h308a6 6 0 0 1 6 6v8a6 6 0 0 1-6 6h-308a6 6 0 0 1-6-6zM1120 346a6 6 0 0 1 6-6h308a6 6 0 0 1 6 6v8a6 6 0 0 1-6 6h-308a6 6 0 0 1-6-6zM1120 326a6 6 0 0 1 6-6h308a6 6 0 0 1 6 6v8a6 6 0 0 1-6 6h-308a6 6 0 0 1-6-6z" stroke="#333" fill-opacity="0"/><path d="M760 466a6 6 0 0 1 6-6h308a6 6 0 0 1 6 6v8a6 6 0 0 1-6 6H766a6 6 0 0 1-6-6zM760 446a6 6 0 0 1 6-6h308a6 6 0 0 1 6 6v8a6 6 0 0 1-6 6H766a6 6 0 0 1-6-6z" stroke="#333" fill="#dfe3e8"/><path d="M760 426a6 6 0 0 1 6-6h308a6 6 0 0 1 6 6v8a6 6 0 0 1-6 6H766a6 6 0 0 1-6-6zM760 406a6 6 0 0 1 6-6h308a6 6 0 0 1 6 6v8a6 6 0 0 1-6 6H766a6 6 0 0 1-6-6z" stroke="#333" fill-opacity="0"/><path d="M760 386a6 6 0 0 1 6-6h308a6 6 0 0 1 6 6v8a6 6 0 0 1-6 6H766a6 6 0 0 1-6-6zM760 366a6 6 0 0 1 6-6h308a6 6 0 0 1 6 6v8a6 6 0 0 1-6 6H766a6 6 0 0 1-6-6z" stroke="#333" fill="#6f7681"/><path d="M760 346a6 6 0 0 1 6-6h308a6 6 0 0 1 6 6v8a6 6 0 0 1-6 6H766a6 6 0 0 1-6-6zM760 326a6 6 0 0 1 6-6h308a6 6 0 0 1 6 6v8a6 6 0 0 1-6 6H766a6 6 0 0 1-6-6z" stroke="#333" fill-opacity="0"/><path d="M400 466a6 6 0 0 1 6-6h308a6 6 0 0 1 6 6v8a6 6 0 0 1-6 6H406a6 6 0 0 1-6-6z" stroke="#333" fill="#dfe3e8"/><path d="M400 446a6 6 0 0 1 6-6h308a6 6 0 0 1 6 6v8a6 6 0 0 1-6 6H406a6 6 0 0 1-6-6z" stroke="#333" fill-opacity="0"/><path d="M400 426a6 6 0 0 1 6-6h308a6 6 0 0 1 6 6v8a6 6 0 0 1-6 6H406a6 6 0 0 1-6-6z" stroke="#333" fill="#979ea8"/><path d="M400 406a6 6 0 0 1 6-6h308a6 6 0 0 1 6 6v8a6 6 0 0 1-6 6H406a6 6 0 0 1-6-6z" stroke="#333" fill-opacity="0"/><path d="M400 386a6 6 0 0 1 6-6h308a6 6 0 0 1 6 6v8a6 6 0 0 1-6 6H406a6 6 0 0 1-6-6z" stroke="#333" fill="#4c535d"/><path d="M400 366a6 6 0 0 1 6-6h308a6 6 0 0 1 6 6v8a6 6 0 0 1-6 6H406a6 6 0 0 1-6-6z" stroke="#333" fill-opacity="0"/><path d="M400 346a6 6 0 0 1 6-6h308a6 6 0 0 1 6 6v8a6 6 0 0 1-6 6H406a6 6 0 0 1-6-6z" stroke="#333" fill="#3a414a"/><path d="M400 326a6 6 0 0 1 6-6h308a6 6 0 0 1 6 6v8a6 6 0 0 1-6 6H406a6 6 0 0 1-6-6z" stroke="#333" fill-opacity="0"/><path d="M520 466a6 6 0 0 1 6-6h68a6 6 0 0 1 6 6v8a6 6 0 0 1-6 6h-68a6 6 0 0 1-6-6z" stroke="#000" stroke-opacity="0" fill="#fff"/><use xlink:href="#d" transform="matrix(1,0,0,1,525,465) translate(11.333333333333343 10.666666666666664)"/><path d="M520 426a6 6 0 0 1 6-6h68a6 6 0 0 1 6 6v8a6 6 0 0 1-6 6h-68a6 6 0 0 1-6-6z" stroke="#000" stroke-opacity="0" fill="#fff"/><use xlink:href="#e" transform="matrix(1,0,0,1,525,425) translate(11.333333333333343 10.666666666666664)"/><path d="M520 386a6 6 0 0 1 6-6h68a6 6 0 0 1 6 6v8a6 6 0 0 1-6 6h-68a6 6 0 0 1-6-6z" stroke="#000" stroke-opacity="0" fill="#fff"/><use xlink:href="#f" transform="matrix(1,0,0,1,525,385) translate(11.333333333333343 10.666666666666664)"/><path d="M520 346a6 6 0 0 1 6-6h68a6 6 0 0 1 6 6v8a6 6 0 0 1-6 6h-68a6 6 0 0 1-6-6z" stroke="#000" stroke-opacity="0" fill="#fff"/><use xlink:href="#g" transform="matrix(1,0,0,1,525,345) translate(11.333333333333343 10.666666666666664)"/><path d="M880 456a6 6 0 0 1 6-6h68a6 6 0 0 1 6 6v8a6 6 0 0 1-6 6h-68a6 6 0 0 1-6-6z" stroke="#000" stroke-opacity="0" fill="#fff"/><use xlink:href="#d" transform="matrix(1,0,0,1,885,455) translate(11.333333333333343 10.666666666666664)"/><path d="M880 376a6 6 0 0 1 6-6h68a6 6 0 0 1 6 6v8a6 6 0 0 1-6 6h-68a6 6 0 0 1-6-6z" stroke="#000" stroke-opacity="0" fill="#fff"/><use xlink:href="#e" transform="matrix(1,0,0,1,885,375) translate(11.333333333333343 10.666666666666664)"/><path d="M1240 436a6 6 0 0 1 6-6h68a6 6 0 0 1 6 6v8a6 6 0 0 1-6 6h-68a6 6 0 0 1-6-6z" stroke="#000" stroke-opacity="0" fill="#fff"/><use xlink:href="#d" transform="matrix(1,0,0,1,1245,435) translate(11.333333333333343 10.666666666666664)"/><path d="M340 466a6 6 0 0 1 6-6h28a6 6 0 0 1 6 6v8a6 6 0 0 1-6 6h-28a6 6 0 0 1-6-6z" stroke="#000" stroke-opacity="0" fill="#fff" fill-opacity="0"/><use xlink:href="#n" transform="matrix(1,0,0,1,345,465) translate(0.5309787326388964 12.942708333333327)"/><path d="M340 446a6 6 0 0 1 6-6h28a6 6 0 0 1 6 6v8a6 6 0 0 1-6 6h-28a6 6 0 0 1-6-6z" stroke="#000" stroke-opacity="0" fill="#fff" fill-opacity="0"/><use xlink:href="#o" transform="matrix(1,0,0,1,345,445) translate(0.5309787326388964 12.942708333333327)"/><path d="M340 426a6 6 0 0 1 6-6h28a6 6 0 0 1 6 6v8a6 6 0 0 1-6 6h-28a6 6 0 0 1-6-6z" stroke="#000" stroke-opacity="0" fill="#fff" fill-opacity="0"/><use xlink:href="#p" transform="matrix(1,0,0,1,345,425) translate(0.5309787326388964 12.942708333333327)"/><path d="M340 406a6 6 0 0 1 6-6h28a6 6 0 0 1 6 6v8a6 6 0 0 1-6 6h-28a6 6 0 0 1-6-6z" stroke="#000" stroke-opacity="0" fill="#fff" fill-opacity="0"/><use xlink:href="#q" transform="matrix(1,0,0,1,345,405) translate(0.5309787326388964 12.942708333333327)"/><path d="M340 386a6 6 0 0 1 6-6h28a6 6 0 0 1 6 6v8a6 6 0 0 1-6 6h-28a6 6 0 0 1-6-6z" stroke="#000" stroke-opacity="0" fill="#fff" fill-opacity="0"/><use xlink:href="#r" transform="matrix(1,0,0,1,345,385) translate(0.5309787326388964 12.942708333333327)"/><path d="M340 366a6 6 0 0 1 6-6h28a6 6 0 0 1 6 6v8a6 6 0 0 1-6 6h-28a6 6 0 0 1-6-6z" stroke="#000" stroke-opacity="0" fill="#fff" fill-opacity="0"/><use xlink:href="#s" transform="matrix(1,0,0,1,345,365) translate(0.5309787326388964 12.942708333333327)"/><path d="M340 346a6 6 0 0 1 6-6h28a6 6 0 0 1 6 6v8a6 6 0 0 1-6 6h-28a6 6 0 0 1-6-6z" stroke="#000" stroke-opacity="0" fill="#fff" fill-opacity="0"/><use xlink:href="#t" transform="matrix(1,0,0,1,345,345) translate(0.5309787326388964 12.942708333333327)"/><path d="M340 326a6 6 0 0 1 6-6h28a6 6 0 0 1 6 6v8a6 6 0 0 1-6 6h-28a6 6 0 0 1-6-6z" stroke="#000" stroke-opacity="0" fill="#fff" fill-opacity="0"/><use xlink:href="#u" transform="matrix(1,0,0,1,345,325) translate(0.5309787326388964 12.942708333333327)"/><path d="M340 306a6 6 0 0 1 6-6h68a6 6 0 0 1 6 6v8a6 6 0 0 1-6 6h-68a6 6 0 0 1-6-6z" stroke="#000" stroke-opacity="0" fill="#fff" fill-opacity="0"/><use xlink:href="#v" transform="matrix(1,0,0,1,345,305) translate(0 11.093749999999995)"/><path d="M240 386a6 6 0 0 1 6-6h68a6 6 0 0 1 6 6v28a6 6 0 0 1-6 6h-68a6 6 0 0 1-6-6z" stroke="#000" stroke-opacity="0" fill="#fff" fill-opacity="0"/><use xlink:href="#w" transform="matrix(1,0,0,1,245,385) translate(0.5061728395061778 17.97222222222222)"/><use xlink:href="#x" transform="matrix(1,0,0,1,245,385) translate(36.95061728395062 17.97222222222222)"/><path d="M240 626a6 6 0 0 1 6-6h68a6 6 0 0 1 6 6v28a6 6 0 0 1-6 6h-68a6 6 0 0 1-6-6z" stroke="#000" stroke-opacity="0" fill="#fff" fill-opacity="0"/><use xlink:href="#w" transform="matrix(1,0,0,1,245,625) translate(8.432098765432102 17.97222222222222)"/><use xlink:href="#y" transform="matrix(1,0,0,1,245,625) translate(44.876543209876544 17.97222222222222)"/><path d="M1120 146a6 6 0 0 1 6-6h308a6 6 0 0 1 6 6v8a6 6 0 0 1-6 6h-308a6 6 0 0 1-6-6zM1120 126a6 6 0 0 1 6-6h308a6 6 0 0 1 6 6v8a6 6 0 0 1-6 6h-308a6 6 0 0 1-6-6zM1120 106a6 6 0 0 1 6-6h308a6 6 0 0 1 6 6v8a6 6 0 0 1-6 6h-308a6 6 0 0 1-6-6zM1120 86a6 6 0 0 1 6-6h308a6 6 0 0 1 6 6v8a6 6 0 0 1-6 6h-308a6 6 0 0 1-6-6zM1120 66a6 6 0 0 1 6-6h308a6 6 0 0 1 6 6v8a6 6 0 0 1-6 6h-308a6 6 0 0 1-6-6zM1120 46a6 6 0 0 1 6-6h308a6 6 0 0 1 6 6v8a6 6 0 0 1-6 6h-308a6 6 0 0 1-6-6zM1120 26a6 6 0 0 1 6-6h308a6 6 0 0 1 6 6v8a6 6 0 0 1-6 6h-308a6 6 0 0 1-6-6zM1120 6a6 6 0 0 1 6-6h308a6 6 0 0 1 6 6v8a6 6 0 0 1-6 6h-308a6 6 0 0 1-6-6zM760 146a6 6 0 0 1 6-6h308a6 6 0 0 1 6 6v8a6 6 0 0 1-6 6H766a6 6 0 0 1-6-6zM760 126a6 6 0 0 1 6-6h308a6 6 0 0 1 6 6v8a6 6 0 0 1-6 6H766a6 6 0 0 1-6-6zM760 106a6 6 0 0 1 6-6h308a6 6 0 0 1 6 6v8a6 6 0 0 1-6 6H766a6 6 0 0 1-6-6zM760 86a6 6 0 0 1 6-6h308a6 6 0 0 1 6 6v8a6 6 0 0 1-6 6H766a6 6 0 0 1-6-6z" stroke="#333" fill="#dfe3e8"/><path d="M760 66a6 6 0 0 1 6-6h308a6 6 0 0 1 6 6v8a6 6 0 0 1-6 6H766a6 6 0 0 1-6-6zM760 46a6 6 0 0 1 6-6h308a6 6 0 0 1 6 6v8a6 6 0 0 1-6 6H766a6 6 0 0 1-6-6zM760 26a6 6 0 0 1 6-6h308a6 6 0 0 1 6 6v8a6 6 0 0 1-6 6H766a6 6 0 0 1-6-6zM760 6a6 6 0 0 1 6-6h308a6 6 0 0 1 6 6v8a6 6 0 0 1-6 6H766a6 6 0 0 1-6-6z" stroke="#333" fill="#6f7681"/><path d="M400 146a6 6 0 0 1 6-6h308a6 6 0 0 1 6 6v8a6 6 0 0 1-6 6H406a6 6 0 0 1-6-6zM400 126a6 6 0 0 1 6-6h308a6 6 0 0 1 6 6v8a6 6 0 0 1-6 6H406a6 6 0 0 1-6-6z" stroke="#333" fill="#dfe3e8"/><path d="M400 106a6 6 0 0 1 6-6h308a6 6 0 0 1 6 6v8a6 6 0 0 1-6 6H406a6 6 0 0 1-6-6zM400 86a6 6 0 0 1 6-6h308a6 6 0 0 1 6 6v8a6 6 0 0 1-6 6H406a6 6 0 0 1-6-6z" stroke="#333" fill="#979ea8"/><path d="M400 66a6 6 0 0 1 6-6h308a6 6 0 0 1 6 6v8a6 6 0 0 1-6 6H406a6 6 0 0 1-6-6zM400 46a6 6 0 0 1 6-6h308a6 6 0 0 1 6 6v8a6 6 0 0 1-6 6H406a6 6 0 0 1-6-6z" stroke="#333" fill="#4c535d"/><path d="M400 26a6 6 0 0 1 6-6h308a6 6 0 0 1 6 6v8a6 6 0 0 1-6 6H406a6 6 0 0 1-6-6zM400 6a6 6 0 0 1 6-6h308a6 6 0 0 1 6 6v8a6 6 0 0 1-6 6H406a6 6 0 0 1-6-6z" stroke="#333" fill="#3a414a"/><path d="M400 186a6 6 0 0 1 6-6h308a6 6 0 0 1 6 6v28a6 6 0 0 1-6 6H406a6 6 0 0 1-6-6z" stroke="#000" stroke-opacity="0" fill="#fff" fill-opacity="0"/><use xlink:href="#a" transform="matrix(1,0,0,1,405,185) translate(66.43209876543213 17.97222222222222)"/><use xlink:href="#b" transform="matrix(1,0,0,1,405,185) translate(137 17.97222222222222)"/><use xlink:href="#j" transform="matrix(1,0,0,1,405,185) translate(176.01234567901236 17.97222222222222)"/><path d="M520 136a6 6 0 0 1 6-6h68a6 6 0 0 1 6 6v8a6 6 0 0 1-6 6h-68a6 6 0 0 1-6-6z" stroke="#000" stroke-opacity="0" fill="#fff"/><use xlink:href="#d" transform="matrix(1,0,0,1,525,135) translate(11.333333333333343 10.666666666666664)"/><path d="M520 96a6 6 0 0 1 6-6h68a6 6 0 0 1 6 6v8a6 6 0 0 1-6 6h-68a6 6 0 0 1-6-6z" stroke="#000" stroke-opacity="0" fill="#fff"/><use xlink:href="#e" transform="matrix(1,0,0,1,525,95) translate(11.333333333333343 10.666666666666664)"/><path d="M520 56a6 6 0 0 1 6-6h68a6 6 0 0 1 6 6v8a6 6 0 0 1-6 6h-68a6 6 0 0 1-6-6z" stroke="#000" stroke-opacity="0" fill="#fff"/><use xlink:href="#f" transform="matrix(1,0,0,1,525,55) translate(11.333333333333343 10.666666666666664)"/><path d="M520 16a6 6 0 0 1 6-6h68a6 6 0 0 1 6 6v8a6 6 0 0 1-6 6h-68a6 6 0 0 1-6-6z" stroke="#000" stroke-opacity="0" fill="#fff"/><use xlink:href="#g" transform="matrix(1,0,0,1,525,15) translate(11.333333333333343 10.666666666666664)"/><path d="M760 186a6 6 0 0 1 6-6h308a6 6 0 0 1 6 6v28a6 6 0 0 1-6 6H766a6 6 0 0 1-6-6z" stroke="#000" stroke-opacity="0" fill="#fff" fill-opacity="0"/><use xlink:href="#h" transform="matrix(1,0,0,1,765,185) translate(61.49382716049385 17.97222222222222)"/><use xlink:href="#i" transform="matrix(1,0,0,1,765,185) translate(141.93827160493828 17.97222222222222)"/><use xlink:href="#m" transform="matrix(1,0,0,1,765,185) translate(180.9506172839506 17.97222222222222)"/><path d="M880 116a6 6 0 0 1 6-6h68a6 6 0 0 1 6 6v8a6 6 0 0 1-6 6h-68a6 6 0 0 1-6-6z" stroke="#000" stroke-opacity="0" fill="#fff"/><use xlink:href="#d" transform="matrix(1,0,0,1,885,115) translate(11.333333333333343 10.666666666666664)"/><path d="M880 36a6 6 0 0 1 6-6h68a6 6 0 0 1 6 6v8a6 6 0 0 1-6 6h-68a6 6 0 0 1-6-6z" stroke="#000" stroke-opacity="0" fill="#fff"/><use xlink:href="#e" transform="matrix(1,0,0,1,885,35) translate(11.333333333333343 10.666666666666664)"/><path d="M1240 76a6 6 0 0 1 6-6h68a6 6 0 0 1 6 6v8a6 6 0 0 1-6 6h-68a6 6 0 0 1-6-6z" stroke="#000" stroke-opacity="0" fill="#fff"/><use xlink:href="#d" transform="matrix(1,0,0,1,1245,75) translate(11.333333333333343 10.666666666666664)"/><path d="M1120 186a6 6 0 0 1 6-6h308a6 6 0 0 1 6 6v28a6 6 0 0 1-6 6h-308a6 6 0 0 1-6-6z" stroke="#000" stroke-opacity="0" fill="#fff" fill-opacity="0"/><use xlink:href="#k" transform="matrix(1,0,0,1,1125,185) translate(49.14814814814818 17.97222222222222)"/><use xlink:href="#l" transform="matrix(1,0,0,1,1125,185) translate(154.28395061728395 17.97222222222222)"/><use xlink:href="#z" transform="matrix(1,0,0,1,1125,185) translate(193.29629629629628 17.97222222222222)"/><path d="M340 146a6 6 0 0 1 6-6h28a6 6 0 0 1 6 6v8a6 6 0 0 1-6 6h-28a6 6 0 0 1-6-6z" stroke="#000" stroke-opacity="0" fill="#fff" fill-opacity="0"/><use xlink:href="#n" transform="matrix(1,0,0,1,345,145) translate(0.5309787326388964 12.942708333333327)"/><path d="M340 126a6 6 0 0 1 6-6h28a6 6 0 0 1 6 6v8a6 6 0 0 1-6 6h-28a6 6 0 0 1-6-6z" stroke="#000" stroke-opacity="0" fill="#fff" fill-opacity="0"/><use xlink:href="#o" transform="matrix(1,0,0,1,345,125) translate(0.5309787326388964 12.942708333333327)"/><path d="M340 106a6 6 0 0 1 6-6h28a6 6 0 0 1 6 6v8a6 6 0 0 1-6 6h-28a6 6 0 0 1-6-6z" stroke="#000" stroke-opacity="0" fill="#fff" fill-opacity="0"/><use xlink:href="#p" transform="matrix(1,0,0,1,345,105) translate(0.5309787326388964 12.942708333333327)"/><path d="M340 86a6 6 0 0 1 6-6h28a6 6 0 0 1 6 6v8a6 6 0 0 1-6 6h-28a6 6 0 0 1-6-6z" stroke="#000" stroke-opacity="0" fill="#fff" fill-opacity="0"/><use xlink:href="#q" transform="matrix(1,0,0,1,345,85) translate(0.5309787326388964 12.942708333333327)"/><path d="M340 66a6 6 0 0 1 6-6h28a6 6 0 0 1 6 6v8a6 6 0 0 1-6 6h-28a6 6 0 0 1-6-6z" stroke="#000" stroke-opacity="0" fill="#fff" fill-opacity="0"/><g><use xlink:href="#r" transform="matrix(1,0,0,1,345,65) translate(0.5309787326388964 12.942708333333327)"/></g><path d="M340 46a6 6 0 0 1 6-6h28a6 6 0 0 1 6 6v8a6 6 0 0 1-6 6h-28a6 6 0 0 1-6-6z" stroke="#000" stroke-opacity="0" fill="#fff" fill-opacity="0"/><g><use xlink:href="#s" transform="matrix(1,0,0,1,345,45) translate(0.5309787326388964 12.942708333333327)"/></g><path d="M340 26a6 6 0 0 1 6-6h28a6 6 0 0 1 6 6v8a6 6 0 0 1-6 6h-28a6 6 0 0 1-6-6z" stroke="#000" stroke-opacity="0" fill="#fff" fill-opacity="0"/><g><use xlink:href="#t" transform="matrix(1,0,0,1,345,25) translate(0.5309787326388964 12.942708333333327)"/></g><path d="M340 6a6 6 0 0 1 6-6h28a6 6 0 0 1 6 6v8a6 6 0 0 1-6 6h-28a6 6 0 0 1-6-6z" stroke="#000" stroke-opacity="0" fill="#fff" fill-opacity="0"/><g><use xlink:href="#u" transform="matrix(1,0,0,1,345,5) translate(0.5309787326388964 12.942708333333327)"/></g><path d="M340-14a6 6 0 0 1 6-6h68a6 6 0 0 1 6 6v8a6 6 0 0 1-6 6h-68a6 6 0 0 1-6-6z" stroke="#000" stroke-opacity="0" fill="#fff" fill-opacity="0"/><g><use xlink:href="#v" transform="matrix(1,0,0,1,345,-15) translate(0 11.093749999999995)"/></g><path d="M860-54a6 6 0 0 1 6-6h108a6 6 0 0 1 6 6v28a6 6 0 0 1-6 6H866a6 6 0 0 1-6-6z" stroke="#000" stroke-opacity="0" fill="#fff" fill-opacity="0"/><g><use xlink:href="#A" transform="matrix(1,0,0,1,865,-55) translate(-3.8888888888888715 19.444444444444443)"/></g><path d="M860 266a6 6 0 0 1 6-6h108a6 6 0 0 1 6 6v28a6 6 0 0 1-6 6H866a6 6 0 0 1-6-6z" stroke="#000" stroke-opacity="0" fill="#fff" fill-opacity="0"/><g><use xlink:href="#B" transform="matrix(1,0,0,1,865,265) translate(-3.8888888888888715 19.444444444444443)"/></g><defs><path fill="#3a414a" d="M185-189c-5-48-123-54-124 2 14 75 158 14 163 119 3 78-121 87-175 55-17-10-28-26-33-46l33-7c5 56 141 63 141-1 0-78-155-14-162-118-5-82 145-84 179-34 5 7 8 16 11 25" id="C"/><path fill="#3a414a" d="M30 0v-248h187v28H63v79h144v27H63v87h162V0H30" id="D"/><path fill="#3a414a" d="M266 0h-40l-56-210L115 0H75L2-248h35L96-30l15-64 43-154h32l59 218 59-218h35" id="E"/><path fill="#3a414a" d="M18-150v-26h174v26H18zm0 90v-26h174v26H18" id="F"/><path fill="#3a414a" d="M134-131c28 9 52 24 51 62-1 50-34 73-85 73S17-19 16-69c0-36 21-54 49-61-75-25-45-126 34-121 46 3 78 18 79 63 0 33-17 51-44 57zm-34-11c31 1 46-15 46-44 0-28-17-43-47-42-29 0-46 13-45 42 1 28 16 44 46 44zm1 122c35 0 51-18 51-52 0-30-18-46-53-46-33 0-51 17-51 47 0 34 19 51 53 51" id="G"/><path fill="#3a414a" d="M68-38c1 34 0 65-14 84H32c9-13 17-26 17-46H33v-38h35" id="H"/><g id="a"><use transform="matrix(0.049382716049382706,0,0,0.049382716049382706,0,0)" xlink:href="#C"/><use transform="matrix(0.049382716049382706,0,0,0.049382716049382706,11.85185185185185,0)" xlink:href="#D"/><use transform="matrix(0.049382716049382706,0,0,0.049382716049382706,23.7037037037037,0)" xlink:href="#E"/><use transform="matrix(0.049382716049382706,0,0,0.049382716049382706,40.444444444444436,0)" xlink:href="#F"/><use transform="matrix(0.049382716049382706,0,0,0.049382716049382706,50.8148148148148,0)" xlink:href="#G"/><use transform="matrix(0.049382716049382706,0,0,0.049382716049382706,60.69135802469133,0)" xlink:href="#H"/></g><path fill="#3a414a" d="M143 0L79-87 56-68V0H24v-261h32v163l83-92h37l-77 82L181 0h-38" id="I"/><path fill="#3a414a" d="M155-56V0h-30v-56H8v-25l114-167h33v167h35v25h-35zm-30-156c-27 46-58 90-88 131h88v-131" id="J"/><g id="b"><use transform="matrix(0.049382716049382706,0,0,0.049382716049382706,0,0)" xlink:href="#I"/><use transform="matrix(0.049382716049382706,0,0,0.049382716049382706,8.888888888888888,0)" xlink:href="#F"/><use transform="matrix(0.049382716049382706,0,0,0.049382716049382706,19.259259259259256,0)" xlink:href="#J"/><use transform="matrix(0.049382716049382706,0,0,0.049382716049382706,29.135802469135797,0)" xlink:href="#H"/></g><path fill="#3a414a" d="M30 0v-248h33v221h125V0H30" id="K"/><path fill="#3a414a" d="M240 0l2-218c-23 76-54 145-80 218h-23L58-218 59 0H30v-248h44l77 211c21-75 51-140 76-211h43V0h-30" id="L"/><path fill="#3a414a" d="M232-93c-1 65-40 97-104 97C67 4 28-28 28-90v-158h33c8 89-33 224 67 224 102 0 64-133 71-224h33v155" id="M"/><path fill="#3a414a" d="M27 0v-27h64v-190l-56 39v-29l58-41h29v221h61V0H27" id="N"/><g id="c"><use transform="matrix(0.049382716049382706,0,0,0.049382716049382706,0,0)" xlink:href="#K"/><use transform="matrix(0.049382716049382706,0,0,0.049382716049382706,9.87654320987654,0)" xlink:href="#L"/><use transform="matrix(0.049382716049382706,0,0,0.049382716049382706,24.641975308641968,0)" xlink:href="#M"/><use transform="matrix(0.049382716049382706,0,0,0.049382716049382706,37.43209876543209,0)" xlink:href="#K"/><use transform="matrix(0.049382716049382706,0,0,0.049382716049382706,47.30864197530863,0)" xlink:href="#F"/><use transform="matrix(0.049382716049382706,0,0,0.049382716049382706,57.679012345679,0)" xlink:href="#N"/></g><path fill="#3a414a" d="M233-177c-1 41-23 64-60 70L243 0h-38l-65-103H63V0H30v-248c88 3 205-21 203 71zM63-129c60-2 137 13 137-47 0-61-80-42-137-45v92" id="O"/><path fill="#3a414a" d="M140-251c81 0 123 46 123 126C263-46 219 4 140 4 59 4 17-45 17-125s42-126 123-126zm0 227c63 0 89-41 89-101s-29-99-89-99c-61 0-89 39-89 99S79-25 140-24" id="P"/><path fill="#3a414a" d="M26 75v-336h71v23H56V52h41v23H26" id="Q"/><path fill="#3a414a" d="M101-251c68 0 85 55 85 127S166 4 100 4C33 4 14-52 14-124c0-73 17-127 87-127zm-1 229c47 0 54-49 54-102s-4-102-53-102c-51 0-55 48-55 102 0 53 5 102 54 102" id="R"/><path fill="#3a414a" d="M3 75V52h41v-290H3v-23h71V75H3" id="S"/><g id="d"><use transform="matrix(0.03703703703703702,0,0,0.03703703703703702,0,0)" xlink:href="#O"/><use transform="matrix(0.03703703703703702,0,0,0.03703703703703702,9.592592592592588,0)" xlink:href="#P"/><use transform="matrix(0.03703703703703702,0,0,0.03703703703703702,19.962962962962955,0)" xlink:href="#E"/><use transform="matrix(0.03703703703703702,0,0,0.03703703703703702,32.518518518518505,0)" xlink:href="#Q"/><use transform="matrix(0.03703703703703702,0,0,0.03703703703703702,36.22222222222221,0)" xlink:href="#R"/><use transform="matrix(0.03703703703703702,0,0,0.03703703703703702,43.62962962962961,0)" xlink:href="#S"/></g><g id="e"><use transform="matrix(0.03703703703703702,0,0,0.03703703703703702,0,0)" xlink:href="#O"/><use transform="matrix(0.03703703703703702,0,0,0.03703703703703702,9.592592592592588,0)" xlink:href="#P"/><use transform="matrix(0.03703703703703702,0,0,0.03703703703703702,19.962962962962955,0)" xlink:href="#E"/><use transform="matrix(0.03703703703703702,0,0,0.03703703703703702,32.518518518518505,0)" xlink:href="#Q"/><use transform="matrix(0.03703703703703702,0,0,0.03703703703703702,36.22222222222221,0)" xlink:href="#N"/><use transform="matrix(0.03703703703703702,0,0,0.03703703703703702,43.62962962962961,0)" xlink:href="#S"/></g><path fill="#3a414a" d="M101-251c82-7 93 87 43 132L82-64C71-53 59-42 53-27h129V0H18c2-99 128-94 128-182 0-28-16-43-45-43s-46 15-49 41l-32-3c6-41 34-60 81-64" id="T"/><g id="f"><use transform="matrix(0.03703703703703702,0,0,0.03703703703703702,0,0)" xlink:href="#O"/><use transform="matrix(0.03703703703703702,0,0,0.03703703703703702,9.592592592592588,0)" xlink:href="#P"/><use transform="matrix(0.03703703703703702,0,0,0.03703703703703702,19.962962962962955,0)" xlink:href="#E"/><use transform="matrix(0.03703703703703702,0,0,0.03703703703703702,32.518518518518505,0)" xlink:href="#Q"/><use transform="matrix(0.03703703703703702,0,0,0.03703703703703702,36.22222222222221,0)" xlink:href="#T"/><use transform="matrix(0.03703703703703702,0,0,0.03703703703703702,43.62962962962961,0)" xlink:href="#S"/></g><path fill="#3a414a" d="M126-127c33 6 58 20 58 59 0 88-139 92-164 29-3-8-5-16-6-25l32-3c6 27 21 44 54 44 32 0 52-15 52-46 0-38-36-46-79-43v-28c39 1 72-4 72-42 0-27-17-43-46-43-28 0-47 15-49 41l-32-3c6-42 35-63 81-64 48-1 79 21 79 65 0 36-21 52-52 59" id="U"/><g id="g"><use transform="matrix(0.03703703703703702,0,0,0.03703703703703702,0,0)" xlink:href="#O"/><use transform="matrix(0.03703703703703702,0,0,0.03703703703703702,9.592592592592588,0)" xlink:href="#P"/><use transform="matrix(0.03703703703703702,0,0,0.03703703703703702,19.962962962962955,0)" xlink:href="#E"/><use transform="matrix(0.03703703703703702,0,0,0.03703703703703702,32.518518518518505,0)" xlink:href="#Q"/><use transform="matrix(0.03703703703703702,0,0,0.03703703703703702,36.22222222222221,0)" xlink:href="#U"/><use transform="matrix(0.03703703703703702,0,0,0.03703703703703702,43.62962962962961,0)" xlink:href="#S"/></g><path fill="#3a414a" d="M110-160c48 1 74 30 74 79 0 53-28 85-80 85-65 0-83-55-86-122-5-90 50-162 133-122 14 7 22 21 27 39l-31 6c-5-40-67-38-82-6-9 19-15 44-15 74 11-20 30-34 60-33zm-7 138c34 0 49-23 49-58s-16-56-50-56c-29 0-50 16-49 49 1 36 15 65 50 65" id="V"/><g id="h"><use transform="matrix(0.049382716049382706,0,0,0.049382716049382706,0,0)" xlink:href="#C"/><use transform="matrix(0.049382716049382706,0,0,0.049382716049382706,11.85185185185185,0)" xlink:href="#D"/><use transform="matrix(0.049382716049382706,0,0,0.049382716049382706,23.7037037037037,0)" xlink:href="#E"/><use transform="matrix(0.049382716049382706,0,0,0.049382716049382706,40.444444444444436,0)" xlink:href="#F"/><use transform="matrix(0.049382716049382706,0,0,0.049382716049382706,50.8148148148148,0)" xlink:href="#N"/><use transform="matrix(0.049382716049382706,0,0,0.049382716049382706,60.69135802469133,0)" xlink:href="#V"/><use transform="matrix(0.049382716049382706,0,0,0.049382716049382706,70.56790123456788,0)" xlink:href="#H"/></g><g id="i"><use transform="matrix(0.049382716049382706,0,0,0.049382716049382706,0,0)" xlink:href="#I"/><use transform="matrix(0.049382716049382706,0,0,0.049382716049382706,8.888888888888888,0)" xlink:href="#F"/><use transform="matrix(0.049382716049382706,0,0,0.049382716049382706,19.259259259259256,0)" xlink:href="#T"/><use transform="matrix(0.049382716049382706,0,0,0.049382716049382706,29.135802469135797,0)" xlink:href="#H"/></g><g id="j"><use transform="matrix(0.049382716049382706,0,0,0.049382716049382706,0,0)" xlink:href="#K"/><use transform="matrix(0.049382716049382706,0,0,0.049382716049382706,9.87654320987654,0)" xlink:href="#L"/><use transform="matrix(0.049382716049382706,0,0,0.049382716049382706,24.641975308641968,0)" xlink:href="#M"/><use transform="matrix(0.049382716049382706,0,0,0.049382716049382706,37.43209876543209,0)" xlink:href="#K"/><use transform="matrix(0.049382716049382706,0,0,0.049382716049382706,47.30864197530863,0)" xlink:href="#F"/><use transform="matrix(0.049382716049382706,0,0,0.049382716049382706,57.679012345679,0)" xlink:href="#T"/></g><path fill="#3a414a" d="M0 4l72-265h28L28 4H0" id="W"/><g id="k"><use transform="matrix(0.049382716049382706,0,0,0.049382716049382706,0,0)" xlink:href="#C"/><use transform="matrix(0.049382716049382706,0,0,0.049382716049382706,11.85185185185185,0)" xlink:href="#D"/><use transform="matrix(0.049382716049382706,0,0,0.049382716049382706,23.7037037037037,0)" xlink:href="#E"/><use transform="matrix(0.049382716049382706,0,0,0.049382716049382706,40.444444444444436,0)" xlink:href="#F"/><use transform="matrix(0.049382716049382706,0,0,0.049382716049382706,50.8148148148148,0)" xlink:href="#U"/><use transform="matrix(0.049382716049382706,0,0,0.049382716049382706,60.69135802469133,0)" xlink:href="#T"/><use transform="matrix(0.049382716049382706,0,0,0.049382716049382706,70.56790123456788,0)" xlink:href="#W"/><use transform="matrix(0.049382716049382706,0,0,0.049382716049382706,75.50617283950615,0)" xlink:href="#V"/><use transform="matrix(0.049382716049382706,0,0,0.049382716049382706,85.3827160493827,0)" xlink:href="#J"/><use transform="matrix(0.049382716049382706,0,0,0.049382716049382706,95.25925925925924,0)" xlink:href="#H"/></g><g id="l"><use transform="matrix(0.049382716049382706,0,0,0.049382716049382706,0,0)" xlink:href="#I"/><use transform="matrix(0.049382716049382706,0,0,0.049382716049382706,8.888888888888888,0)" xlink:href="#F"/><use transform="matrix(0.049382716049382706,0,0,0.049382716049382706,19.259259259259256,0)" xlink:href="#N"/><use transform="matrix(0.049382716049382706,0,0,0.049382716049382706,29.135802469135797,0)" xlink:href="#H"/></g><g id="m"><use transform="matrix(0.049382716049382706,0,0,0.049382716049382706,0,0)" xlink:href="#K"/><use transform="matrix(0.049382716049382706,0,0,0.049382716049382706,9.87654320987654,0)" xlink:href="#L"/><use transform="matrix(0.049382716049382706,0,0,0.049382716049382706,24.641975308641968,0)" xlink:href="#M"/><use transform="matrix(0.049382716049382706,0,0,0.049382716049382706,37.43209876543209,0)" xlink:href="#K"/><use transform="matrix(0.049382716049382706,0,0,0.049382716049382706,47.30864197530863,0)" xlink:href="#F"/><use transform="matrix(0.049382716049382706,0,0,0.049382716049382706,57.679012345679,0)" xlink:href="#J"/></g><path fill="#3a414a" d="M713 0H515L10-1349h201C345-955 498-579 615-168c116-411 269-787 402-1181h201" id="X"/><path fill="#3a414a" d="M706-1102c241 0 344 136 343 381V0H868v-695c1-168-57-273-220-268-190 6-283 138-283 336V0H185c-3-360 6-732-6-1082h170c4 54 7 126 8 185h3c63-121 164-204 346-205" id="Y"/><path fill="#3a414a" d="M687-608v428H540v-428H116v-146h424v-428h147v428h424v146H687" id="Z"/><path fill="#3a414a" d="M1065-1013c47 164 49 500-1 665C999-130 875 20 611 20c-377 0-484-300-487-695-2-245 41-425 141-551 77-98 191-144 352-144 261 0 386 140 448 357zM741-155c199-92 203-504 159-785-26-168-96-284-283-284-281 0-308 256-311 549-2 181 18 324 80 428 46 77 115 118 227 120 47 0 90-10 128-28zM496-555v-249h235v249H496" id="aa"/><g id="n"><use transform="matrix(0.0075954861111111075,0,0,0.0075954861111111075,0,0)" xlink:href="#X"/><use transform="matrix(0.005316840277777775,0,0,0.005316840277777775,9.334852430555552,2.264973958333332)" xlink:href="#Y"/><use transform="matrix(0.005316840277777775,0,0,0.005316840277777775,15.869249131944438,2.264973958333332)" xlink:href="#Z"/><use transform="matrix(0.005316840277777775,0,0,0.005316840277777775,22.40364583333332,2.264973958333332)" xlink:href="#aa"/></g><path fill="#3a414a" d="M148-1120c216-7 379-89 463-229h166v1204h353V0H157v-145h439v-1021c-79 124-254 184-448 194v-148" id="ab"/><g id="o"><use transform="matrix(0.0075954861111111075,0,0,0.0075954861111111075,0,0)" xlink:href="#X"/><use transform="matrix(0.005316840277777775,0,0,0.005316840277777775,9.334852430555552,2.264973958333332)" xlink:href="#Y"/><use transform="matrix(0.005316840277777775,0,0,0.005316840277777775,15.869249131944438,2.264973958333332)" xlink:href="#Z"/><use transform="matrix(0.005316840277777775,0,0,0.005316840277777775,22.40364583333332,2.264973958333332)" xlink:href="#ab"/></g><path fill="#3a414a" d="M611-1370c266 0 451 106 451 368 0 147-77 243-154 327-132 144-316 255-451 395-42 44-75 87-96 134h723V0H144v-117c124-264 387-411 582-603 73-72 151-147 151-271 0-161-104-231-266-231-163 0-249 90-268 238l-184-17c35-233 185-369 452-369" id="ac"/><g id="p"><use transform="matrix(0.0075954861111111075,0,0,0.0075954861111111075,0,0)" xlink:href="#X"/><use transform="matrix(0.005316840277777775,0,0,0.005316840277777775,9.334852430555552,2.264973958333332)" xlink:href="#Y"/><use transform="matrix(0.005316840277777775,0,0,0.005316840277777775,15.869249131944438,2.264973958333332)" xlink:href="#Z"/><use transform="matrix(0.005316840277777775,0,0,0.005316840277777775,22.40364583333332,2.264973958333332)" xlink:href="#ac"/></g><path fill="#3a414a" d="M1060-1016c0 191-128 285-295 323v4c154 18 262 91 313 209 14 35 21 72 21 110 0 277-194 390-478 390-292 0-457-129-493-382l186-17c24 161 121 250 307 250 172 1 298-80 291-247-8-208-220-239-446-233v-156c217 9 409-34 409-232 0-152-102-225-264-225-159 0-264 88-278 233l-181-14c33-239 196-367 461-367 264 0 447 102 447 354" id="ad"/><g id="q"><use transform="matrix(0.0075954861111111075,0,0,0.0075954861111111075,0,0)" xlink:href="#X"/><use transform="matrix(0.005316840277777775,0,0,0.005316840277777775,9.334852430555552,2.264973958333332)" xlink:href="#Y"/><use transform="matrix(0.005316840277777775,0,0,0.005316840277777775,15.869249131944438,2.264973958333332)" xlink:href="#Z"/><use transform="matrix(0.005316840277777775,0,0,0.005316840277777775,22.40364583333332,2.264973958333332)" xlink:href="#ad"/></g><path fill="#3a414a" d="M937-319V0H757v-319H103v-140l635-890h199v888h188v142H937zm-180-835L257-461h500v-693" id="ae"/><g id="r"><use transform="matrix(0.0075954861111111075,0,0,0.0075954861111111075,0,0)" xlink:href="#X"/><use transform="matrix(0.005316840277777775,0,0,0.005316840277777775,9.334852430555552,2.264973958333332)" xlink:href="#Y"/><use transform="matrix(0.005316840277777775,0,0,0.005316840277777775,15.869249131944438,2.264973958333332)" xlink:href="#Z"/><use transform="matrix(0.005316840277777775,0,0,0.005316840277777775,22.40364583333332,2.264973958333332)" xlink:href="#ae"/></g><path fill="#3a414a" d="M353-779c69-51 166-92 291-90 218 3 357 100 423 255 21 52 32 109 32 170 0 305-189 464-500 464-268 0-424-116-471-335l182-21c35 130 124 212 293 209 198-4 309-114 309-313 0-182-118-282-305-282-120 0-198 45-262 101H169l47-728h801v145H382" id="af"/><g id="s"><use transform="matrix(0.0075954861111111075,0,0,0.0075954861111111075,0,0)" xlink:href="#X"/><use transform="matrix(0.005316840277777775,0,0,0.005316840277777775,9.334852430555552,2.264973958333332)" xlink:href="#Y"/><use transform="matrix(0.005316840277777775,0,0,0.005316840277777775,15.869249131944438,2.264973958333332)" xlink:href="#Z"/><use transform="matrix(0.005316840277777775,0,0,0.005316840277777775,22.40364583333332,2.264973958333332)" xlink:href="#af"/></g><path fill="#3a414a" d="M672-881c271 0 424 163 424 435 0 291-160 466-455 466-367 0-490-287-490-662 0-324 85-568 293-680 129-70 351-59 460 16 73 50 125 123 153 223l-172 31c-31-108-107-172-232-172-259 0-316 252-323 529 59-113 178-186 342-186zm-37 756c186 0 278-124 278-313s-96-304-284-304c-163 0-281 93-281 261 0 157 65 270 168 327 35 19 75 29 119 29" id="ag"/><g id="t"><use transform="matrix(0.0075954861111111075,0,0,0.0075954861111111075,0,0)" xlink:href="#X"/><use transform="matrix(0.005316840277777775,0,0,0.005316840277777775,9.334852430555552,2.264973958333332)" xlink:href="#Y"/><use transform="matrix(0.005316840277777775,0,0,0.005316840277777775,15.869249131944438,2.264973958333332)" xlink:href="#Z"/><use transform="matrix(0.005316840277777775,0,0,0.005316840277777775,22.40364583333332,2.264973958333332)" xlink:href="#ag"/></g><path fill="#3a414a" d="M1069-1210C890-948 720-664 634-316c-25 105-38 210-38 316H408c9-385 153-667 302-925 57-98 120-190 185-279H158v-145h911v139" id="ah"/><g id="u"><use transform="matrix(0.0075954861111111075,0,0,0.0075954861111111075,0,0)" xlink:href="#X"/><use transform="matrix(0.005316840277777775,0,0,0.005316840277777775,9.334852430555552,2.264973958333332)" xlink:href="#Y"/><use transform="matrix(0.005316840277777775,0,0,0.005316840277777775,15.869249131944438,2.264973958333332)" xlink:href="#Z"/><use transform="matrix(0.005316840277777775,0,0,0.005316840277777775,22.40364583333332,2.264973958333332)" xlink:href="#ah"/></g><path fill="#3a414a" d="M116-856v-148h995v148H116zm0 512v-148h995v148H116" id="ai"/><path fill="#3a414a" d="M259 363l169-662h265L382 363H259" id="aj"/><path fill="#3a414a" d="M809-709c168 33 285 134 285 331 0 277-191 398-480 398-287 0-481-120-481-396 0-192 118-296 281-331v-4c-145-39-248-139-248-313 0-238 192-346 444-346 211 0 357 75 422 217 19 41 27 86 27 131 0 172-101 274-250 309v4zm-197-70c168 0 260-73 260-233 0-158-100-224-262-224-160 0-260 68-260 224 0 155 97 232 262 233zm4 664c194 1 291-91 291-280 0-172-115-249-297-249-178 0-291 85-291 253 0 186 106 275 297 276" id="ak"/><g id="v"><use transform="matrix(0.0065104166666666635,0,0,0.0065104166666666635,0,0)" xlink:href="#Y"/><use transform="matrix(0.0065104166666666635,0,0,0.0065104166666666635,8.001302083333329,0)" xlink:href="#ai"/><use transform="matrix(0.0065104166666666635,0,0,0.0065104166666666635,16.002604166666657,0)" xlink:href="#aa"/><use transform="matrix(0.0065104166666666635,0,0,0.0065104166666666635,24.003906249999986,0)" xlink:href="#aj"/><use transform="matrix(0.0065104166666666635,0,0,0.0065104166666666635,32.005208333333314,0)" xlink:href="#ak"/><use transform="matrix(0.0065104166666666635,0,0,0.0065104166666666635,40.00651041666664,0)" xlink:href="#aj"/><use transform="matrix(0.0065104166666666635,0,0,0.0065104166666666635,48.00781249999997,0)" xlink:href="#ab"/><use transform="matrix(0.0065104166666666635,0,0,0.0065104166666666635,56.00911458333331,0)" xlink:href="#ag"/><use transform="matrix(0.0065104166666666635,0,0,0.0065104166666666635,64.01041666666663,0)" xlink:href="#aj"/><use transform="matrix(0.0065104166666666635,0,0,0.0065104166666666635,72.01171874999996,0)" xlink:href="#ac"/><use transform="matrix(0.0065104166666666635,0,0,0.0065104166666666635,80.01302083333329,0)" xlink:href="#ae"/></g><path fill="#3a414a" d="M197 0v-115H63V0H30v-248h33v105h134v-105h34V0h-34" id="al"/><path fill="#3a414a" d="M141-36C126-15 110 5 73 4 37 3 15-17 15-53c-1-64 63-63 125-63 3-35-9-54-41-54-24 1-41 7-42 31l-33-3c5-37 33-52 76-52 45 0 72 20 72 64v82c-1 20 7 32 28 27v20c-31 9-61-2-59-35zM48-53c0 20 12 33 32 33 41-3 63-29 60-74-43 2-92-5-92 41" id="am"/><path fill="#3a414a" d="M24 0v-261h32V0H24" id="an"/><path fill="#3a414a" d="M101-234c-31-9-42 10-38 44h38v23H63V0H32v-167H5v-23h27c-7-52 17-82 69-68v24" id="ao"/><g id="w"><use transform="matrix(0.049382716049382706,0,0,0.049382716049382706,0,0)" xlink:href="#al"/><use transform="matrix(0.049382716049382706,0,0,0.049382716049382706,12.790123456790122,0)" xlink:href="#am"/><use transform="matrix(0.049382716049382706,0,0,0.049382716049382706,22.666666666666664,0)" xlink:href="#an"/><use transform="matrix(0.049382716049382706,0,0,0.049382716049382706,26.567901234567895,0)" xlink:href="#ao"/></g><path fill="#3a414a" d="M100-194c62-1 85 37 85 99 1 63-27 99-86 99S16-35 15-95c0-66 28-99 85-99zM99-20c44 1 53-31 53-75 0-43-8-75-51-75s-53 32-53 75 10 74 51 75" id="ap"/><path fill="#3a414a" d="M206 0h-36l-40-164L89 0H53L-1-190h32L70-26l43-164h34l41 164 42-164h31" id="aq"/><g id="x"><use transform="matrix(0.049382716049382706,0,0,0.049382716049382706,0,0)" xlink:href="#K"/><use transform="matrix(0.049382716049382706,0,0,0.049382716049382706,9.87654320987654,0)" xlink:href="#ap"/><use transform="matrix(0.049382716049382706,0,0,0.049382716049382706,19.75308641975308,0)" xlink:href="#aq"/></g><path fill="#3a414a" d="M24-231v-30h32v30H24zM24 0v-190h32V0H24" id="ar"/><g id="y"><use transform="matrix(0.049382716049382706,0,0,0.049382716049382706,0,0)" xlink:href="#al"/><use transform="matrix(0.049382716049382706,0,0,0.049382716049382706,12.790123456790122,0)" xlink:href="#ar"/></g><g id="z"><use transform="matrix(0.049382716049382706,0,0,0.049382716049382706,0,0)" xlink:href="#K"/><use transform="matrix(0.049382716049382706,0,0,0.049382716049382706,9.87654320987654,0)" xlink:href="#L"/><use transform="matrix(0.049382716049382706,0,0,0.049382716049382706,24.641975308641968,0)" xlink:href="#M"/><use transform="matrix(0.049382716049382706,0,0,0.049382716049382706,37.43209876543209,0)" xlink:href="#K"/><use transform="matrix(0.049382716049382706,0,0,0.049382716049382706,47.30864197530863,0)" xlink:href="#F"/><use transform="matrix(0.049382716049382706,0,0,0.049382716049382706,57.679012345679,0)" xlink:href="#G"/></g><path fill="#3a414a" d="M127-220V0H93v-220H8v-28h204v28h-85" id="as"/><path fill="#3a414a" d="M137 0h-34L2-248h35l83 218 83-218h36" id="at"/><path fill="#3a414a" d="M190 0L58-211 59 0H30v-248h39L202-35l-2-213h31V0h-41" id="au"/><g id="A"><use transform="matrix(0.061728395061728385,0,0,0.061728395061728385,0,0)" xlink:href="#as"/><use transform="matrix(0.061728395061728385,0,0,0.061728395061728385,13.518518518518515,0)" xlink:href="#D"/><use transform="matrix(0.061728395061728385,0,0,0.061728395061728385,28.33333333333333,0)" xlink:href="#F"/><use transform="matrix(0.061728395061728385,0,0,0.061728395061728385,41.29629629629629,0)" xlink:href="#at"/><use transform="matrix(0.061728395061728385,0,0,0.061728395061728385,56.1111111111111,0)" xlink:href="#K"/><use transform="matrix(0.061728395061728385,0,0,0.061728395061728385,68.45679012345678,0)" xlink:href="#D"/><use transform="matrix(0.061728395061728385,0,0,0.061728395061728385,83.2716049382716,0)" xlink:href="#au"/><use transform="matrix(0.061728395061728385,0,0,0.061728395061728385,99.25925925925924,0)" xlink:href="#W"/><use transform="matrix(0.061728395061728385,0,0,0.061728395061728385,105.43209876543207,0)" xlink:href="#J"/></g><path fill="#3a414a" d="M18-100v-36l175-74v27L42-118l151 64v27" id="av"/><g id="B"><use transform="matrix(0.061728395061728385,0,0,0.061728395061728385,0,0)" xlink:href="#as"/><use transform="matrix(0.061728395061728385,0,0,0.061728395061728385,13.518518518518515,0)" xlink:href="#D"/><use transform="matrix(0.061728395061728385,0,0,0.061728395061728385,28.33333333333333,0)" xlink:href="#av"/><use transform="matrix(0.061728395061728385,0,0,0.061728395061728385,41.29629629629629,0)" xlink:href="#at"/><use transform="matrix(0.061728395061728385,0,0,0.061728395061728385,56.1111111111111,0)" xlink:href="#K"/><use transform="matrix(0.061728395061728385,0,0,0.061728395061728385,68.45679012345678,0)" xlink:href="#D"/><use transform="matrix(0.061728395061728385,0,0,0.061728395061728385,83.2716049382716,0)" xlink:href="#au"/><use transform="matrix(0.061728395061728385,0,0,0.061728395061728385,99.25925925925924,0)" xlink:href="#W"/><use transform="matrix(0.061728395061728385,0,0,0.061728395061728385,105.43209876543207,0)" xlink:href="#J"/></g></defs></g></svg>
