<?xml version="1.0" encoding="UTF-8" standalone="no"?>
<!DOCTYPE svg PUBLIC "-//W3C//DTD SVG 1.1//EN"
 "http://www.w3.org/Graphics/SVG/1.1/DTD/svg11.dtd">
<!-- Generated by graphviz version 14.1.4 (20260321.0153)
 -->
<!-- Title: G Pages: 1 -->
<svg width="84pt" height="287pt"
 viewBox="0.00 0.00 84.00 287.00" xmlns="http://www.w3.org/2000/svg" xmlns:xlink="http://www.w3.org/1999/xlink">
<g id="graph0" class="graph" transform="scale(1 1) rotate(0) translate(0 286.75)">
<title>G</title>
<polygon fill="white" stroke="none" points="0,0 0,-286.75 83.63,-286.75 83.63,0 0,0"/>
<!-- eiid0 -->
<g id="node1" class="node">
<title>eiid0</title>
<text xml:space="preserve" text-anchor="middle" x="48.12" y="-275.15" font-family="Times,serif" font-size="8.00">a: Wx=3</text>
</g>
<!-- eiid1 -->
<g id="node2" class="node">
<title>eiid1</title>
<text xml:space="preserve" text-anchor="middle" x="21.12" y="-207.9" font-family="Times,serif" font-size="8.00">b: Wy=1</text>
</g>
<!-- eiid0&#45;&gt;eiid1 -->
<g id="edge1" class="edge">
<title>eiid0&#45;&gt;eiid1</title>
<path fill="none" stroke="darkgreen" stroke-width="3" d="M36.13,-269.96C30.38,-265.34 24.06,-259.04 20.71,-251.39 17.87,-244.64 17.24,-237.05 17.47,-230.14"/>
<path fill="none" stroke="indigo" stroke-width="3" d="M37.39,-268.4C31.79,-263.92 25.47,-257.62 22.54,-250.61 19.86,-244.48 19.23,-236.88 19.47,-230.21"/>
<polygon fill="darkgreen" stroke="darkgreen" stroke-width="3" points="20.77,-230.62 19.11,-223.75 16.13,-230.15 20.77,-230.62"/>
<text xml:space="preserve" text-anchor="start" x="21.62" y="-241.55" font-family="Times,serif" font-size="11.00" fill="darkgreen">fence</text>
<text xml:space="preserve" text-anchor="start" x="46.38" y="-241.55" font-family="Times,serif" font-size="11.00" fill="indigo">ppo</text>
</g>
<!-- eiid3 -->
<g id="node4" class="node">
<title>eiid3</title>
<text xml:space="preserve" text-anchor="middle" x="51.12" y="-73.4" font-family="Times,serif" font-size="8.00">d: Wx=1</text>
</g>
<!-- eiid0&#45;&gt;eiid3 -->
<g id="edge2" class="edge">
<title>eiid0&#45;&gt;eiid3</title>
<path fill="none" stroke="blue" stroke-width="3" d="M53.63,-269.14C56.8,-264.21 60.47,-257.54 62.12,-251 78.27,-187.23 75.26,-167.45 62.12,-103 61.57,-100.26 60.7,-97.44 59.71,-94.73"/>
<polygon fill="blue" stroke="blue" stroke-width="3" points="61.88,-93.88 57.06,-88.72 57.61,-95.76 61.88,-93.88"/>
<text xml:space="preserve" text-anchor="start" x="73.13" y="-173.25" font-family="Times,serif" font-size="11.00" fill="blue">co</text>
</g>
<!-- eiid2 -->
<g id="node3" class="node">
<title>eiid2</title>
<text xml:space="preserve" text-anchor="middle" x="25.12" y="-140.65" font-family="Times,serif" font-size="8.00">c: Ry=1</text>
</g>
<!-- eiid1&#45;&gt;eiid2 -->
<g id="edge3" class="edge">
<title>eiid1&#45;&gt;eiid2</title>
<path fill="none" stroke="red" stroke-width="3" d="M21.6,-201.88C22.18,-192.37 23.19,-175.9 23.98,-163.01"/>
<polygon fill="red" stroke="red" stroke-width="3" points="26.29,-163.44 24.37,-156.64 21.64,-163.15 26.29,-163.44"/>
<text xml:space="preserve" text-anchor="start" x="23.48" y="-173.25" font-family="Times,serif" font-size="11.00" fill="red">rf</text>
</g>
<!-- eiid2&#45;&gt;eiid3 -->
<g id="edge4" class="edge">
<title>eiid2&#45;&gt;eiid3</title>
<path fill="none" stroke="indigo" stroke-width="3" d="M24.17,-134.78C23.45,-126.6 23.25,-113.35 27.62,-103 29.19,-99.31 31.5,-95.81 34.09,-92.63"/>
<polygon fill="indigo" stroke="indigo" stroke-width="3" points="35.6,-94.42 38.51,-87.98 32.22,-91.2 35.6,-94.42"/>
<text xml:space="preserve" text-anchor="start" x="27.62" y="-107.05" font-family="Times,serif" font-size="11.00" fill="indigo">data</text>
<text xml:space="preserve" text-anchor="start" x="46.38" y="-107.05" font-family="Times,serif" font-size="11.00" fill="indigo">ppo</text>
</g>
<!-- eiid4 -->
<g id="node5" class="node">
<title>eiid4</title>
<text xml:space="preserve" text-anchor="middle" x="51.12" y="-6.15" font-family="Times,serif" font-size="8.00">e: Wx=2</text>
</g>
<!-- eiid3&#45;&gt;eiid4 -->
<g id="edge5" class="edge">
<title>eiid3&#45;&gt;eiid4</title>
<path fill="none" stroke="blue" stroke-width="3" d="M50.13,-67.38C50.12,-57.87 50.12,-41.4 50.13,-28.51"/>
<path fill="none" stroke="indigo" stroke-width="3" d="M52.12,-67.38C52.12,-57.87 52.12,-41.4 52.12,-28.51"/>
<polygon fill="blue" stroke="blue" stroke-width="3" points="53.46,-28.81 51.13,-22.15 48.79,-28.81 53.46,-28.81"/>
<text xml:space="preserve" text-anchor="start" x="51.12" y="-39.8" font-family="Times,serif" font-size="11.00" fill="blue">co</text>
<text xml:space="preserve" text-anchor="start" x="61.62" y="-39.8" font-family="Times,serif" font-size="11.00" fill="indigo">ppo</text>
</g>
</g>
</svg>
