<svg xmlns="http://www.w3.org/2000/svg" xmlns:xlink="http://www.w3.org/1999/xlink" xmlns:lucid="lucid" width="961" height="821"><g transform="translate(-1329.5 -1079.5)" lucid:page-tab-id="IWfnuYwrT15B"><path d="M1000 1000h1500v1000H1000z" fill="#fff"/><path d="M1810 1686a6 6 0 0 1 6-6h448a6 6 0 0 1 6 6v148a6 6 0 0 1-6 6h-448a6 6 0 0 1-6-6z" stroke="#3a414a" fill="#fff"/><path d="M2040 1706a6 6 0 0 1 6-6h208a6 6 0 0 1 6 6v108a6 6 0 0 1-6 6h-208a6 6 0 0 1-6-6z" stroke="#3a414a" fill="#fff"/><path d="M2130 1806a6 6 0 0 1 6-6h28a6 6 0 0 1 6 6v8a6 6 0 0 1-6 6h-28a6 6 0 0 1-6-6z" stroke="#000" stroke-opacity="0" fill="#fff" fill-opacity="0"/><use xlink:href="#a" transform="matrix(1,0,0,1,2135,1805) translate(0.7623456790123484 12.444444444444443)"/><path d="M2150 1726a6 6 0 0 1 6-6h88a6 6 0 0 1 6 6v68a6 6 0 0 1-6 6h-88a6 6 0 0 1-6-6z" stroke="#3a414a" fill="#fff"/><path d="M2200 1746a6 6 0 0 1 6-6h28a6 6 0 0 1 6 6v28a6 6 0 0 1-6 6h-28a6 6 0 0 1-6-6z" stroke="#333" fill-opacity="0"/><use xlink:href="#b" transform="matrix(1,0,0,1,2205,1745) translate(2.0370370370370416 18.069444444444443)"/><path d="M2160 1746a6 6 0 0 1 6-6h28a6 6 0 0 1 6 6v28a6 6 0 0 1-6 6h-28a6 6 0 0 1-6-6z" stroke="#333" fill-opacity="0"/><use xlink:href="#c" transform="matrix(1,0,0,1,2165,1745) translate(2.0370370370370416 18.069444444444443)"/><path d="M2180 1786a6 6 0 0 1 6-6h28a6 6 0 0 1 6 6v8a6 6 0 0 1-6 6h-28a6 6 0 0 1-6-6z" stroke="#000" stroke-opacity="0" fill="#fff" fill-opacity="0"/><use xlink:href="#d" transform="matrix(1,0,0,1,2185,1785) translate(2.0370370370370416 12.444444444444443)"/><path d="M2050 1726a6 6 0 0 1 6-6h88a6 6 0 0 1 6 6v68a6 6 0 0 1-6 6h-88a6 6 0 0 1-6-6z" stroke="#3a414a" fill="#fff"/><path d="M2100 1746a6 6 0 0 1 6-6h28a6 6 0 0 1 6 6v28a6 6 0 0 1-6 6h-28a6 6 0 0 1-6-6z" stroke="#333" fill-opacity="0"/><use xlink:href="#e" transform="matrix(1,0,0,1,2105,1745) translate(2.0370370370370416 18.069444444444443)"/><path d="M2060 1746a6 6 0 0 1 6-6h28a6 6 0 0 1 6 6v28a6 6 0 0 1-6 6h-28a6 6 0 0 1-6-6z" stroke="#333" fill-opacity="0"/><use xlink:href="#f" transform="matrix(1,0,0,1,2065,1745) translate(2.0370370370370416 18.069444444444443)"/><path d="M2080 1786a6 6 0 0 1 6-6h28a6 6 0 0 1 6 6v8a6 6 0 0 1-6 6h-28a6 6 0 0 1-6-6z" stroke="#000" stroke-opacity="0" fill="#fff" fill-opacity="0"/><use xlink:href="#g" transform="matrix(1,0,0,1,2085,1785) translate(2.0370370370370416 12.444444444444443)"/><path d="M1820 1706a6 6 0 0 1 6-6h208a6 6 0 0 1 6 6v108a6 6 0 0 1-6 6h-208a6 6 0 0 1-6-6z" stroke="#3a414a" fill="#fff"/><path d="M1910 1806a6 6 0 0 1 6-6h28a6 6 0 0 1 6 6v8a6 6 0 0 1-6 6h-28a6 6 0 0 1-6-6z" stroke="#000" stroke-opacity="0" fill="#fff" fill-opacity="0"/><use xlink:href="#h" transform="matrix(1,0,0,1,1915,1805) translate(0.7623456790123484 12.444444444444443)"/><path d="M1930 1726a6 6 0 0 1 6-6h88a6 6 0 0 1 6 6v68a6 6 0 0 1-6 6h-88a6 6 0 0 1-6-6z" stroke="#3a414a" fill="#fff"/><path d="M1980 1746a6 6 0 0 1 6-6h28a6 6 0 0 1 6 6v28a6 6 0 0 1-6 6h-28a6 6 0 0 1-6-6z" stroke="#333" fill-opacity="0"/><use xlink:href="#i" transform="matrix(1,0,0,1,1985,1745) translate(2.0370370370370416 18.069444444444443)"/><path d="M1940 1746a6 6 0 0 1 6-6h28a6 6 0 0 1 6 6v28a6 6 0 0 1-6 6h-28a6 6 0 0 1-6-6z" stroke="#333" fill-opacity="0"/><use xlink:href="#j" transform="matrix(1,0,0,1,1945,1745) translate(2.620370370370374 18.069444444444443)"/><path d="M1960 1786a6 6 0 0 1 6-6h28a6 6 0 0 1 6 6v8a6 6 0 0 1-6 6h-28a6 6 0 0 1-6-6z" stroke="#000" stroke-opacity="0" fill="#fff" fill-opacity="0"/><use xlink:href="#k" transform="matrix(1,0,0,1,1965,1785) translate(2.0370370370370416 12.444444444444443)"/><path d="M1830 1726a6 6 0 0 1 6-6h88a6 6 0 0 1 6 6v68a6 6 0 0 1-6 6h-88a6 6 0 0 1-6-6z" stroke="#3a414a" fill="#fff"/><path d="M1880 1746a6 6 0 0 1 6-6h28a6 6 0 0 1 6 6v28a6 6 0 0 1-6 6h-28a6 6 0 0 1-6-6z" stroke="#333" fill-opacity="0"/><use xlink:href="#l" transform="matrix(1,0,0,1,1885,1745) translate(2.0370370370370416 18.069444444444443)"/><path d="M1840 1746a6 6 0 0 1 6-6h28a6 6 0 0 1 6 6v28a6 6 0 0 1-6 6h-28a6 6 0 0 1-6-6z" stroke="#333" fill-opacity="0"/><use xlink:href="#m" transform="matrix(1,0,0,1,1845,1745) translate(2.0370370370370416 18.069444444444443)"/><path d="M1860 1786a6 6 0 0 1 6-6h28a6 6 0 0 1 6 6v8a6 6 0 0 1-6 6h-28a6 6 0 0 1-6-6z" stroke="#000" stroke-opacity="0" fill="#fff" fill-opacity="0"/><use xlink:href="#n" transform="matrix(1,0,0,1,1865,1785) translate(2.620370370370374 12.444444444444443)"/><path d="M2020 1826a6 6 0 0 1 6-6h28a6 6 0 0 1 6 6v8a6 6 0 0 1-6 6h-28a6 6 0 0 1-6-6z" stroke="#000" stroke-opacity="0" fill="#fff" fill-opacity="0"/><use xlink:href="#o" transform="matrix(1,0,0,1,2025,1825) translate(2.0370370370370416 12.444444444444443)"/><path d="M1350 1686a6 6 0 0 1 6-6h448a6 6 0 0 1 6 6v148a6 6 0 0 1-6 6h-448a6 6 0 0 1-6-6z" stroke="#3a414a" fill="#fff"/><path d="M1580 1706a6 6 0 0 1 6-6h208a6 6 0 0 1 6 6v108a6 6 0 0 1-6 6h-208a6 6 0 0 1-6-6z" stroke="#3a414a" fill="#fff"/><path d="M1670 1806a6 6 0 0 1 6-6h28a6 6 0 0 1 6 6v8a6 6 0 0 1-6 6h-28a6 6 0 0 1-6-6z" stroke="#000" stroke-opacity="0" fill="#fff" fill-opacity="0"/><use xlink:href="#p" transform="matrix(1,0,0,1,1675,1805) translate(0.7623456790123484 12.444444444444443)"/><path d="M1690 1726a6 6 0 0 1 6-6h88a6 6 0 0 1 6 6v68a6 6 0 0 1-6 6h-88a6 6 0 0 1-6-6z" stroke="#3a414a" fill="#fff"/><path d="M1740 1746a6 6 0 0 1 6-6h28a6 6 0 0 1 6 6v28a6 6 0 0 1-6 6h-28a6 6 0 0 1-6-6z" stroke="#333" fill-opacity="0"/><use xlink:href="#q" transform="matrix(1,0,0,1,1745,1745) translate(2.0370370370370416 18.069444444444443)"/><path d="M1700 1746a6 6 0 0 1 6-6h28a6 6 0 0 1 6 6v28a6 6 0 0 1-6 6h-28a6 6 0 0 1-6-6z" stroke="#333" fill-opacity="0"/><use xlink:href="#r" transform="matrix(1,0,0,1,1705,1745) translate(2.0370370370370416 18.069444444444443)"/><path d="M1720 1786a6 6 0 0 1 6-6h28a6 6 0 0 1 6 6v8a6 6 0 0 1-6 6h-28a6 6 0 0 1-6-6z" stroke="#000" stroke-opacity="0" fill="#fff" fill-opacity="0"/><use xlink:href="#s" transform="matrix(1,0,0,1,1725,1785) translate(2.0370370370370416 12.444444444444443)"/><path d="M1590 1726a6 6 0 0 1 6-6h88a6 6 0 0 1 6 6v68a6 6 0 0 1-6 6h-88a6 6 0 0 1-6-6z" stroke="#3a414a" fill="#fff"/><path d="M1640 1746a6 6 0 0 1 6-6h28a6 6 0 0 1 6 6v28a6 6 0 0 1-6 6h-28a6 6 0 0 1-6-6z" stroke="#333" fill-opacity="0"/><use xlink:href="#t" transform="matrix(1,0,0,1,1645,1745) translate(2.0370370370370416 18.069444444444443)"/><path d="M1600 1746a6 6 0 0 1 6-6h28a6 6 0 0 1 6 6v28a6 6 0 0 1-6 6h-28a6 6 0 0 1-6-6z" stroke="#333" fill-opacity="0"/><use xlink:href="#u" transform="matrix(1,0,0,1,1605,1745) translate(2.0370370370370416 18.069444444444443)"/><path d="M1620 1786a6 6 0 0 1 6-6h28a6 6 0 0 1 6 6v8a6 6 0 0 1-6 6h-28a6 6 0 0 1-6-6z" stroke="#000" stroke-opacity="0" fill="#fff" fill-opacity="0"/><use xlink:href="#v" transform="matrix(1,0,0,1,1625,1785) translate(2.0370370370370416 12.444444444444443)"/><path d="M1360 1706a6 6 0 0 1 6-6h208a6 6 0 0 1 6 6v108a6 6 0 0 1-6 6h-208a6 6 0 0 1-6-6z" stroke="#3a414a" fill="#fff"/><path d="M1450 1806a6 6 0 0 1 6-6h28a6 6 0 0 1 6 6v8a6 6 0 0 1-6 6h-28a6 6 0 0 1-6-6z" stroke="#000" stroke-opacity="0" fill="#fff" fill-opacity="0"/><use xlink:href="#w" transform="matrix(1,0,0,1,1455,1805) translate(1.3456790123456805 12.444444444444443)"/><path d="M1470 1726a6 6 0 0 1 6-6h88a6 6 0 0 1 6 6v68a6 6 0 0 1-6 6h-88a6 6 0 0 1-6-6z" stroke="#3a414a" fill="#fff"/><path d="M1520 1746a6 6 0 0 1 6-6h28a6 6 0 0 1 6 6v28a6 6 0 0 1-6 6h-28a6 6 0 0 1-6-6z" stroke="#333" fill-opacity="0"/><use xlink:href="#x" transform="matrix(1,0,0,1,1525,1745) translate(2.0370370370370416 18.069444444444443)"/><path d="M1480 1746a6 6 0 0 1 6-6h28a6 6 0 0 1 6 6v28a6 6 0 0 1-6 6h-28a6 6 0 0 1-6-6z" stroke="#333" fill-opacity="0"/><use xlink:href="#y" transform="matrix(1,0,0,1,1485,1745) translate(2.0370370370370416 18.069444444444443)"/><path d="M1500 1786a6 6 0 0 1 6-6h28a6 6 0 0 1 6 6v8a6 6 0 0 1-6 6h-28a6 6 0 0 1-6-6z" stroke="#000" stroke-opacity="0" fill="#fff" fill-opacity="0"/><use xlink:href="#z" transform="matrix(1,0,0,1,1505,1785) translate(2.0370370370370416 12.444444444444443)"/><path d="M1370 1726a6 6 0 0 1 6-6h88a6 6 0 0 1 6 6v68a6 6 0 0 1-6 6h-88a6 6 0 0 1-6-6z" stroke="#3a414a" fill="#fff"/><path d="M1420 1746a6 6 0 0 1 6-6h28a6 6 0 0 1 6 6v28a6 6 0 0 1-6 6h-28a6 6 0 0 1-6-6z" stroke="#333" fill-opacity="0"/><use xlink:href="#A" transform="matrix(1,0,0,1,1425,1745) translate(2.0370370370370416 18.069444444444443)"/><path d="M1380 1746a6 6 0 0 1 6-6h28a6 6 0 0 1 6 6v28a6 6 0 0 1-6 6h-28a6 6 0 0 1-6-6z" stroke="#333" fill-opacity="0"/><use xlink:href="#B" transform="matrix(1,0,0,1,1385,1745) translate(2.0370370370370416 18.069444444444443)"/><path d="M1400 1786a6 6 0 0 1 6-6h28a6 6 0 0 1 6 6v8a6 6 0 0 1-6 6h-28a6 6 0 0 1-6-6z" stroke="#000" stroke-opacity="0" fill="#fff" fill-opacity="0"/><use xlink:href="#C" transform="matrix(1,0,0,1,1405,1785) translate(2.0370370370370416 12.444444444444443)"/><path d="M1560 1826a6 6 0 0 1 6-6h28a6 6 0 0 1 6 6v8a6 6 0 0 1-6 6h-28a6 6 0 0 1-6-6z" stroke="#000" stroke-opacity="0" fill="#fff" fill-opacity="0"/><use xlink:href="#D" transform="matrix(1,0,0,1,1565,1825) translate(2.0370370370370416 12.444444444444443)"/><path d="M1810 1506a6 6 0 0 1 6-6h448a6 6 0 0 1 6 6v148a6 6 0 0 1-6 6h-448a6 6 0 0 1-6-6z" stroke="#3a414a" fill="#fff"/><path d="M2040 1526a6 6 0 0 1 6-6h208a6 6 0 0 1 6 6v108a6 6 0 0 1-6 6h-208a6 6 0 0 1-6-6z" stroke="#3a414a" fill="#fff"/><path d="M2130 1626a6 6 0 0 1 6-6h28a6 6 0 0 1 6 6v8a6 6 0 0 1-6 6h-28a6 6 0 0 1-6-6z" stroke="#000" stroke-opacity="0" fill="#fff" fill-opacity="0"/><use xlink:href="#E" transform="matrix(1,0,0,1,2135,1625) translate(0.7623456790123484 12.444444444444443)"/><path d="M2150 1546a6 6 0 0 1 6-6h88a6 6 0 0 1 6 6v68a6 6 0 0 1-6 6h-88a6 6 0 0 1-6-6z" stroke="#3a414a" fill="#fff"/><path d="M2200 1566a6 6 0 0 1 6-6h28a6 6 0 0 1 6 6v28a6 6 0 0 1-6 6h-28a6 6 0 0 1-6-6z" stroke="#333" fill="#dfe3e8"/><use xlink:href="#b" transform="matrix(1,0,0,1,2205,1565) translate(2.0370370370370416 18.069444444444443)"/><path d="M2160 1566a6 6 0 0 1 6-6h28a6 6 0 0 1 6 6v28a6 6 0 0 1-6 6h-28a6 6 0 0 1-6-6z" stroke="#333" fill="#dfe3e8"/><use xlink:href="#c" transform="matrix(1,0,0,1,2165,1565) translate(2.0370370370370416 18.069444444444443)"/><path d="M2180 1606a6 6 0 0 1 6-6h28a6 6 0 0 1 6 6v8a6 6 0 0 1-6 6h-28a6 6 0 0 1-6-6z" stroke="#000" stroke-opacity="0" fill="#fff" fill-opacity="0"/><use xlink:href="#F" transform="matrix(1,0,0,1,2185,1605) translate(2.0370370370370416 12.444444444444443)"/><path d="M2050 1546a6 6 0 0 1 6-6h88a6 6 0 0 1 6 6v68a6 6 0 0 1-6 6h-88a6 6 0 0 1-6-6z" stroke="#3a414a" fill="#fff"/><path d="M2100 1566a6 6 0 0 1 6-6h28a6 6 0 0 1 6 6v28a6 6 0 0 1-6 6h-28a6 6 0 0 1-6-6z" stroke="#333" fill="#dfe3e8"/><use xlink:href="#e" transform="matrix(1,0,0,1,2105,1565) translate(2.0370370370370416 18.069444444444443)"/><path d="M2060 1566a6 6 0 0 1 6-6h28a6 6 0 0 1 6 6v28a6 6 0 0 1-6 6h-28a6 6 0 0 1-6-6z" stroke="#333" fill="#dfe3e8"/><use xlink:href="#f" transform="matrix(1,0,0,1,2065,1565) translate(2.0370370370370416 18.069444444444443)"/><path d="M2080 1606a6 6 0 0 1 6-6h28a6 6 0 0 1 6 6v8a6 6 0 0 1-6 6h-28a6 6 0 0 1-6-6z" stroke="#000" stroke-opacity="0" fill="#fff" fill-opacity="0"/><use xlink:href="#G" transform="matrix(1,0,0,1,2085,1605) translate(2.0370370370370416 12.444444444444443)"/><path d="M1820 1526a6 6 0 0 1 6-6h208a6 6 0 0 1 6 6v108a6 6 0 0 1-6 6h-208a6 6 0 0 1-6-6z" stroke="#3a414a" fill="#fff"/><path d="M1910 1626a6 6 0 0 1 6-6h28a6 6 0 0 1 6 6v8a6 6 0 0 1-6 6h-28a6 6 0 0 1-6-6z" stroke="#000" stroke-opacity="0" fill="#fff" fill-opacity="0"/><use xlink:href="#H" transform="matrix(1,0,0,1,1915,1625) translate(0.7623456790123484 12.444444444444443)"/><path d="M1930 1546a6 6 0 0 1 6-6h88a6 6 0 0 1 6 6v68a6 6 0 0 1-6 6h-88a6 6 0 0 1-6-6z" stroke="#3a414a" fill="#fff"/><path d="M1980 1566a6 6 0 0 1 6-6h28a6 6 0 0 1 6 6v28a6 6 0 0 1-6 6h-28a6 6 0 0 1-6-6z" stroke="#333" fill="#dfe3e8"/><use xlink:href="#i" transform="matrix(1,0,0,1,1985,1565) translate(2.0370370370370416 18.069444444444443)"/><path d="M1940 1566a6 6 0 0 1 6-6h28a6 6 0 0 1 6 6v28a6 6 0 0 1-6 6h-28a6 6 0 0 1-6-6z" stroke="#333" fill="#dfe3e8"/><use xlink:href="#j" transform="matrix(1,0,0,1,1945,1565) translate(2.620370370370374 18.069444444444443)"/><path d="M1960 1606a6 6 0 0 1 6-6h28a6 6 0 0 1 6 6v8a6 6 0 0 1-6 6h-28a6 6 0 0 1-6-6z" stroke="#000" stroke-opacity="0" fill="#fff" fill-opacity="0"/><use xlink:href="#I" transform="matrix(1,0,0,1,1965,1605) translate(2.0370370370370416 12.444444444444443)"/><path d="M1830 1546a6 6 0 0 1 6-6h88a6 6 0 0 1 6 6v68a6 6 0 0 1-6 6h-88a6 6 0 0 1-6-6z" stroke="#3a414a" fill="#fff"/><path d="M1880 1566a6 6 0 0 1 6-6h28a6 6 0 0 1 6 6v28a6 6 0 0 1-6 6h-28a6 6 0 0 1-6-6z" stroke="#333" fill="#dfe3e8"/><use xlink:href="#l" transform="matrix(1,0,0,1,1885,1565) translate(2.0370370370370416 18.069444444444443)"/><path d="M1840 1566a6 6 0 0 1 6-6h28a6 6 0 0 1 6 6v28a6 6 0 0 1-6 6h-28a6 6 0 0 1-6-6z" stroke="#333" fill="#dfe3e8"/><use xlink:href="#m" transform="matrix(1,0,0,1,1845,1565) translate(2.0370370370370416 18.069444444444443)"/><path d="M1860 1606a6 6 0 0 1 6-6h28a6 6 0 0 1 6 6v8a6 6 0 0 1-6 6h-28a6 6 0 0 1-6-6z" stroke="#000" stroke-opacity="0" fill="#fff" fill-opacity="0"/><use xlink:href="#J" transform="matrix(1,0,0,1,1865,1605) translate(2.0370370370370416 12.444444444444443)"/><path d="M2020 1646a6 6 0 0 1 6-6h28a6 6 0 0 1 6 6v8a6 6 0 0 1-6 6h-28a6 6 0 0 1-6-6z" stroke="#000" stroke-opacity="0" fill="#fff" fill-opacity="0"/><use xlink:href="#K" transform="matrix(1,0,0,1,2025,1645) translate(2.0370370370370416 12.444444444444443)"/><path d="M1350 1506a6 6 0 0 1 6-6h448a6 6 0 0 1 6 6v148a6 6 0 0 1-6 6h-448a6 6 0 0 1-6-6z" stroke="#3a414a" fill="#fff"/><path d="M1580 1526a6 6 0 0 1 6-6h208a6 6 0 0 1 6 6v108a6 6 0 0 1-6 6h-208a6 6 0 0 1-6-6z" stroke="#3a414a" fill="#fff"/><path d="M1670 1626a6 6 0 0 1 6-6h28a6 6 0 0 1 6 6v8a6 6 0 0 1-6 6h-28a6 6 0 0 1-6-6z" stroke="#000" stroke-opacity="0" fill="#fff" fill-opacity="0"/><use xlink:href="#L" transform="matrix(1,0,0,1,1675,1625) translate(0.7623456790123484 12.444444444444443)"/><path d="M1690 1546a6 6 0 0 1 6-6h88a6 6 0 0 1 6 6v68a6 6 0 0 1-6 6h-88a6 6 0 0 1-6-6z" stroke="#3a414a" fill="#fff"/><path d="M1740 1566a6 6 0 0 1 6-6h28a6 6 0 0 1 6 6v28a6 6 0 0 1-6 6h-28a6 6 0 0 1-6-6z" stroke="#333" fill="#dfe3e8"/><use xlink:href="#q" transform="matrix(1,0,0,1,1745,1565) translate(2.0370370370370416 18.069444444444443)"/><path d="M1700 1566a6 6 0 0 1 6-6h28a6 6 0 0 1 6 6v28a6 6 0 0 1-6 6h-28a6 6 0 0 1-6-6z" stroke="#333" fill="#dfe3e8"/><use xlink:href="#r" transform="matrix(1,0,0,1,1705,1565) translate(2.0370370370370416 18.069444444444443)"/><path d="M1720 1606a6 6 0 0 1 6-6h28a6 6 0 0 1 6 6v8a6 6 0 0 1-6 6h-28a6 6 0 0 1-6-6z" stroke="#000" stroke-opacity="0" fill="#fff" fill-opacity="0"/><use xlink:href="#M" transform="matrix(1,0,0,1,1725,1605) translate(2.0370370370370416 12.444444444444443)"/><path d="M1590 1546a6 6 0 0 1 6-6h88a6 6 0 0 1 6 6v68a6 6 0 0 1-6 6h-88a6 6 0 0 1-6-6z" stroke="#3a414a" fill="#fff"/><path d="M1640 1566a6 6 0 0 1 6-6h28a6 6 0 0 1 6 6v28a6 6 0 0 1-6 6h-28a6 6 0 0 1-6-6z" stroke="#333" fill="#dfe3e8"/><use xlink:href="#t" transform="matrix(1,0,0,1,1645,1565) translate(2.0370370370370416 18.069444444444443)"/><path d="M1600 1566a6 6 0 0 1 6-6h28a6 6 0 0 1 6 6v28a6 6 0 0 1-6 6h-28a6 6 0 0 1-6-6z" stroke="#333" fill="#dfe3e8"/><use xlink:href="#u" transform="matrix(1,0,0,1,1605,1565) translate(2.0370370370370416 18.069444444444443)"/><path d="M1620 1606a6 6 0 0 1 6-6h28a6 6 0 0 1 6 6v8a6 6 0 0 1-6 6h-28a6 6 0 0 1-6-6z" stroke="#000" stroke-opacity="0" fill="#fff" fill-opacity="0"/><use xlink:href="#N" transform="matrix(1,0,0,1,1625,1605) translate(2.0370370370370416 12.444444444444443)"/><path d="M1360 1526a6 6 0 0 1 6-6h208a6 6 0 0 1 6 6v108a6 6 0 0 1-6 6h-208a6 6 0 0 1-6-6z" stroke="#3a414a" fill="#fff"/><path d="M1450 1626a6 6 0 0 1 6-6h28a6 6 0 0 1 6 6v8a6 6 0 0 1-6 6h-28a6 6 0 0 1-6-6z" stroke="#000" stroke-opacity="0" fill="#fff" fill-opacity="0"/><use xlink:href="#O" transform="matrix(1,0,0,1,1455,1625) translate(0.7623456790123484 12.444444444444443)"/><path d="M1470 1546a6 6 0 0 1 6-6h88a6 6 0 0 1 6 6v68a6 6 0 0 1-6 6h-88a6 6 0 0 1-6-6z" stroke="#3a414a" fill="#fff"/><path d="M1520 1566a6 6 0 0 1 6-6h28a6 6 0 0 1 6 6v28a6 6 0 0 1-6 6h-28a6 6 0 0 1-6-6z" stroke="#333" fill="#dfe3e8"/><use xlink:href="#x" transform="matrix(1,0,0,1,1525,1565) translate(2.0370370370370416 18.069444444444443)"/><path d="M1480 1566a6 6 0 0 1 6-6h28a6 6 0 0 1 6 6v28a6 6 0 0 1-6 6h-28a6 6 0 0 1-6-6z" stroke="#333" fill="#dfe3e8"/><use xlink:href="#y" transform="matrix(1,0,0,1,1485,1565) translate(2.0370370370370416 18.069444444444443)"/><path d="M1500 1606a6 6 0 0 1 6-6h28a6 6 0 0 1 6 6v8a6 6 0 0 1-6 6h-28a6 6 0 0 1-6-6z" stroke="#000" stroke-opacity="0" fill="#fff" fill-opacity="0"/><use xlink:href="#P" transform="matrix(1,0,0,1,1505,1605) translate(2.0370370370370416 12.444444444444443)"/><path d="M1370 1546a6 6 0 0 1 6-6h88a6 6 0 0 1 6 6v68a6 6 0 0 1-6 6h-88a6 6 0 0 1-6-6z" stroke="#3a414a" fill="#fff"/><path d="M1420 1566a6 6 0 0 1 6-6h28a6 6 0 0 1 6 6v28a6 6 0 0 1-6 6h-28a6 6 0 0 1-6-6z" stroke="#333" fill="#dfe3e8"/><use xlink:href="#A" transform="matrix(1,0,0,1,1425,1565) translate(2.0370370370370416 18.069444444444443)"/><path d="M1380 1566a6 6 0 0 1 6-6h28a6 6 0 0 1 6 6v28a6 6 0 0 1-6 6h-28a6 6 0 0 1-6-6z" stroke="#333" fill="#dfe3e8"/><use xlink:href="#B" transform="matrix(1,0,0,1,1385,1565) translate(2.0370370370370416 18.069444444444443)"/><path d="M1400 1606a6 6 0 0 1 6-6h28a6 6 0 0 1 6 6v8a6 6 0 0 1-6 6h-28a6 6 0 0 1-6-6z" stroke="#000" stroke-opacity="0" fill="#fff" fill-opacity="0"/><use xlink:href="#Q" transform="matrix(1,0,0,1,1405,1605) translate(2.0370370370370416 12.444444444444443)"/><path d="M1560 1646a6 6 0 0 1 6-6h28a6 6 0 0 1 6 6v8a6 6 0 0 1-6 6h-28a6 6 0 0 1-6-6z" stroke="#000" stroke-opacity="0" fill="#fff" fill-opacity="0"/><use xlink:href="#R" transform="matrix(1,0,0,1,1565,1645) translate(2.620370370370374 12.444444444444443)"/><path d="M1810 1326a6 6 0 0 1 6-6h448a6 6 0 0 1 6 6v148a6 6 0 0 1-6 6h-448a6 6 0 0 1-6-6z" stroke="#3a414a" fill="#dfe3e8"/><path d="M2040 1346a6 6 0 0 1 6-6h208a6 6 0 0 1 6 6v108a6 6 0 0 1-6 6h-208a6 6 0 0 1-6-6z" stroke="#3a414a" fill="#fff"/><path d="M2130 1446a6 6 0 0 1 6-6h28a6 6 0 0 1 6 6v8a6 6 0 0 1-6 6h-28a6 6 0 0 1-6-6z" stroke="#000" stroke-opacity="0" fill="#fff" fill-opacity="0"/><use xlink:href="#S" transform="matrix(1,0,0,1,2135,1445) translate(0.7623456790123484 12.444444444444443)"/><path d="M2150 1366a6 6 0 0 1 6-6h88a6 6 0 0 1 6 6v68a6 6 0 0 1-6 6h-88a6 6 0 0 1-6-6z" stroke="#3a414a" fill="#dfe3e8"/><path d="M2200 1386a6 6 0 0 1 6-6h28a6 6 0 0 1 6 6v28a6 6 0 0 1-6 6h-28a6 6 0 0 1-6-6z" stroke="#333" fill="#979ea8"/><use xlink:href="#b" transform="matrix(1,0,0,1,2205,1385) translate(2.0370370370370416 18.069444444444443)"/><path d="M2160 1386a6 6 0 0 1 6-6h28a6 6 0 0 1 6 6v28a6 6 0 0 1-6 6h-28a6 6 0 0 1-6-6z" stroke="#333" fill="#979ea8"/><use xlink:href="#c" transform="matrix(1,0,0,1,2165,1385) translate(2.0370370370370416 18.069444444444443)"/><path d="M2180 1426a6 6 0 0 1 6-6h28a6 6 0 0 1 6 6v8a6 6 0 0 1-6 6h-28a6 6 0 0 1-6-6z" stroke="#000" stroke-opacity="0" fill="#fff" fill-opacity="0"/><use xlink:href="#d" transform="matrix(1,0,0,1,2185,1425) translate(2.0370370370370416 12.444444444444443)"/><path d="M2050 1366a6 6 0 0 1 6-6h88a6 6 0 0 1 6 6v68a6 6 0 0 1-6 6h-88a6 6 0 0 1-6-6z" stroke="#3a414a" fill="#dfe3e8"/><path d="M2100 1386a6 6 0 0 1 6-6h28a6 6 0 0 1 6 6v28a6 6 0 0 1-6 6h-28a6 6 0 0 1-6-6z" stroke="#333" fill="#979ea8"/><use xlink:href="#e" transform="matrix(1,0,0,1,2105,1385) translate(2.0370370370370416 18.069444444444443)"/><path d="M2060 1386a6 6 0 0 1 6-6h28a6 6 0 0 1 6 6v28a6 6 0 0 1-6 6h-28a6 6 0 0 1-6-6z" stroke="#333" fill="#979ea8"/><use xlink:href="#f" transform="matrix(1,0,0,1,2065,1385) translate(2.0370370370370416 18.069444444444443)"/><path d="M2080 1426a6 6 0 0 1 6-6h28a6 6 0 0 1 6 6v8a6 6 0 0 1-6 6h-28a6 6 0 0 1-6-6z" stroke="#000" stroke-opacity="0" fill="#fff" fill-opacity="0"/><use xlink:href="#g" transform="matrix(1,0,0,1,2085,1425) translate(2.0370370370370416 12.444444444444443)"/><path d="M1820 1346a6 6 0 0 1 6-6h208a6 6 0 0 1 6 6v108a6 6 0 0 1-6 6h-208a6 6 0 0 1-6-6z" stroke="#3a414a" fill="#fff"/><path d="M1910 1446a6 6 0 0 1 6-6h28a6 6 0 0 1 6 6v8a6 6 0 0 1-6 6h-28a6 6 0 0 1-6-6z" stroke="#000" stroke-opacity="0" fill="#fff" fill-opacity="0"/><use xlink:href="#T" transform="matrix(1,0,0,1,1915,1445) translate(0.7623456790123484 12.444444444444443)"/><path d="M1930 1366a6 6 0 0 1 6-6h88a6 6 0 0 1 6 6v68a6 6 0 0 1-6 6h-88a6 6 0 0 1-6-6z" stroke="#3a414a" fill="#dfe3e8"/><path d="M1980 1386a6 6 0 0 1 6-6h28a6 6 0 0 1 6 6v28a6 6 0 0 1-6 6h-28a6 6 0 0 1-6-6z" stroke="#333" fill="#979ea8"/><use xlink:href="#i" transform="matrix(1,0,0,1,1985,1385) translate(2.0370370370370416 18.069444444444443)"/><path d="M1940 1386a6 6 0 0 1 6-6h28a6 6 0 0 1 6 6v28a6 6 0 0 1-6 6h-28a6 6 0 0 1-6-6z" stroke="#333" fill="#979ea8"/><use xlink:href="#j" transform="matrix(1,0,0,1,1945,1385) translate(2.620370370370374 18.069444444444443)"/><path d="M1960 1426a6 6 0 0 1 6-6h28a6 6 0 0 1 6 6v8a6 6 0 0 1-6 6h-28a6 6 0 0 1-6-6z" stroke="#000" stroke-opacity="0" fill="#fff" fill-opacity="0"/><use xlink:href="#k" transform="matrix(1,0,0,1,1965,1425) translate(2.0370370370370416 12.444444444444443)"/><path d="M1830 1366a6 6 0 0 1 6-6h88a6 6 0 0 1 6 6v68a6 6 0 0 1-6 6h-88a6 6 0 0 1-6-6z" stroke="#3a414a" fill="#dfe3e8"/><path d="M1880 1386a6 6 0 0 1 6-6h28a6 6 0 0 1 6 6v28a6 6 0 0 1-6 6h-28a6 6 0 0 1-6-6z" stroke="#333" fill="#979ea8"/><use xlink:href="#l" transform="matrix(1,0,0,1,1885,1385) translate(2.0370370370370416 18.069444444444443)"/><path d="M1840 1386a6 6 0 0 1 6-6h28a6 6 0 0 1 6 6v28a6 6 0 0 1-6 6h-28a6 6 0 0 1-6-6z" stroke="#333" fill="#979ea8"/><use xlink:href="#m" transform="matrix(1,0,0,1,1845,1385) translate(2.0370370370370416 18.069444444444443)"/><path d="M1860 1426a6 6 0 0 1 6-6h28a6 6 0 0 1 6 6v8a6 6 0 0 1-6 6h-28a6 6 0 0 1-6-6z" stroke="#000" stroke-opacity="0" fill="#fff" fill-opacity="0"/><use xlink:href="#n" transform="matrix(1,0,0,1,1865,1425) translate(2.620370370370374 12.444444444444443)"/><path d="M2020 1466a6 6 0 0 1 6-6h28a6 6 0 0 1 6 6v8a6 6 0 0 1-6 6h-28a6 6 0 0 1-6-6z" stroke="#000" stroke-opacity="0" fill="#fff" fill-opacity="0"/><use xlink:href="#o" transform="matrix(1,0,0,1,2025,1465) translate(2.0370370370370416 12.444444444444443)"/><path d="M1350 1326a6 6 0 0 1 6-6h448a6 6 0 0 1 6 6v148a6 6 0 0 1-6 6h-448a6 6 0 0 1-6-6z" stroke="#3a414a" fill="#dfe3e8"/><path d="M1580 1346a6 6 0 0 1 6-6h208a6 6 0 0 1 6 6v108a6 6 0 0 1-6 6h-208a6 6 0 0 1-6-6z" stroke="#3a414a" fill="#fff"/><path d="M1670 1446a6 6 0 0 1 6-6h28a6 6 0 0 1 6 6v8a6 6 0 0 1-6 6h-28a6 6 0 0 1-6-6z" stroke="#000" stroke-opacity="0" fill="#fff" fill-opacity="0"/><use xlink:href="#U" transform="matrix(1,0,0,1,1675,1445) translate(0.7623456790123484 12.444444444444443)"/><path d="M1690 1366a6 6 0 0 1 6-6h88a6 6 0 0 1 6 6v68a6 6 0 0 1-6 6h-88a6 6 0 0 1-6-6z" stroke="#3a414a" fill="#dfe3e8"/><path d="M1740 1386a6 6 0 0 1 6-6h28a6 6 0 0 1 6 6v28a6 6 0 0 1-6 6h-28a6 6 0 0 1-6-6z" stroke="#333" fill="#979ea8"/><use xlink:href="#q" transform="matrix(1,0,0,1,1745,1385) translate(2.0370370370370416 18.069444444444443)"/><path d="M1700 1386a6 6 0 0 1 6-6h28a6 6 0 0 1 6 6v28a6 6 0 0 1-6 6h-28a6 6 0 0 1-6-6z" stroke="#333" fill="#979ea8"/><use xlink:href="#r" transform="matrix(1,0,0,1,1705,1385) translate(2.0370370370370416 18.069444444444443)"/><path d="M1720 1426a6 6 0 0 1 6-6h28a6 6 0 0 1 6 6v8a6 6 0 0 1-6 6h-28a6 6 0 0 1-6-6z" stroke="#000" stroke-opacity="0" fill="#fff" fill-opacity="0"/><use xlink:href="#s" transform="matrix(1,0,0,1,1725,1425) translate(2.0370370370370416 12.444444444444443)"/><path d="M1590 1366a6 6 0 0 1 6-6h88a6 6 0 0 1 6 6v68a6 6 0 0 1-6 6h-88a6 6 0 0 1-6-6z" stroke="#3a414a" fill="#dfe3e8"/><path d="M1640 1386a6 6 0 0 1 6-6h28a6 6 0 0 1 6 6v28a6 6 0 0 1-6 6h-28a6 6 0 0 1-6-6z" stroke="#333" fill="#979ea8"/><use xlink:href="#t" transform="matrix(1,0,0,1,1645,1385) translate(2.0370370370370416 18.069444444444443)"/><path d="M1600 1386a6 6 0 0 1 6-6h28a6 6 0 0 1 6 6v28a6 6 0 0 1-6 6h-28a6 6 0 0 1-6-6z" stroke="#333" fill="#979ea8"/><use xlink:href="#u" transform="matrix(1,0,0,1,1605,1385) translate(2.0370370370370416 18.069444444444443)"/><path d="M1620 1426a6 6 0 0 1 6-6h28a6 6 0 0 1 6 6v8a6 6 0 0 1-6 6h-28a6 6 0 0 1-6-6z" stroke="#000" stroke-opacity="0" fill="#fff" fill-opacity="0"/><use xlink:href="#v" transform="matrix(1,0,0,1,1625,1425) translate(2.0370370370370416 12.444444444444443)"/><path d="M1360 1346a6 6 0 0 1 6-6h208a6 6 0 0 1 6 6v108a6 6 0 0 1-6 6h-208a6 6 0 0 1-6-6z" stroke="#3a414a" fill="#fff"/><path d="M1450 1446a6 6 0 0 1 6-6h28a6 6 0 0 1 6 6v8a6 6 0 0 1-6 6h-28a6 6 0 0 1-6-6z" stroke="#000" stroke-opacity="0" fill="#fff" fill-opacity="0"/><use xlink:href="#V" transform="matrix(1,0,0,1,1455,1445) translate(0.7623456790123484 12.444444444444443)"/><path d="M1470 1366a6 6 0 0 1 6-6h88a6 6 0 0 1 6 6v68a6 6 0 0 1-6 6h-88a6 6 0 0 1-6-6z" stroke="#3a414a" fill="#dfe3e8"/><path d="M1520 1386a6 6 0 0 1 6-6h28a6 6 0 0 1 6 6v28a6 6 0 0 1-6 6h-28a6 6 0 0 1-6-6z" stroke="#333" fill="#979ea8"/><use xlink:href="#x" transform="matrix(1,0,0,1,1525,1385) translate(2.0370370370370416 18.069444444444443)"/><path d="M1480 1386a6 6 0 0 1 6-6h28a6 6 0 0 1 6 6v28a6 6 0 0 1-6 6h-28a6 6 0 0 1-6-6z" stroke="#333" fill="#979ea8"/><use xlink:href="#y" transform="matrix(1,0,0,1,1485,1385) translate(2.0370370370370416 18.069444444444443)"/><path d="M1500 1426a6 6 0 0 1 6-6h28a6 6 0 0 1 6 6v8a6 6 0 0 1-6 6h-28a6 6 0 0 1-6-6z" stroke="#000" stroke-opacity="0" fill="#fff" fill-opacity="0"/><use xlink:href="#z" transform="matrix(1,0,0,1,1505,1425) translate(2.0370370370370416 12.444444444444443)"/><path d="M1370 1366a6 6 0 0 1 6-6h88a6 6 0 0 1 6 6v68a6 6 0 0 1-6 6h-88a6 6 0 0 1-6-6z" stroke="#3a414a" fill="#dfe3e8"/><path d="M1420 1386a6 6 0 0 1 6-6h28a6 6 0 0 1 6 6v28a6 6 0 0 1-6 6h-28a6 6 0 0 1-6-6z" stroke="#333" fill="#979ea8"/><use xlink:href="#A" transform="matrix(1,0,0,1,1425,1385) translate(2.0370370370370416 18.069444444444443)"/><path d="M1380 1386a6 6 0 0 1 6-6h28a6 6 0 0 1 6 6v28a6 6 0 0 1-6 6h-28a6 6 0 0 1-6-6z" stroke="#333" fill="#979ea8"/><use xlink:href="#B" transform="matrix(1,0,0,1,1385,1385) translate(2.0370370370370416 18.069444444444443)"/><path d="M1400 1426a6 6 0 0 1 6-6h28a6 6 0 0 1 6 6v8a6 6 0 0 1-6 6h-28a6 6 0 0 1-6-6z" stroke="#000" stroke-opacity="0" fill="#fff" fill-opacity="0"/><use xlink:href="#C" transform="matrix(1,0,0,1,1405,1425) translate(2.0370370370370416 12.444444444444443)"/><path d="M1560 1466a6 6 0 0 1 6-6h28a6 6 0 0 1 6 6v8a6 6 0 0 1-6 6h-28a6 6 0 0 1-6-6z" stroke="#000" stroke-opacity="0" fill="#fff" fill-opacity="0"/><use xlink:href="#D" transform="matrix(1,0,0,1,1565,1465) translate(2.0370370370370416 12.444444444444443)"/><path d="M1810 1146a6 6 0 0 1 6-6h448a6 6 0 0 1 6 6v148a6 6 0 0 1-6 6h-448a6 6 0 0 1-6-6z" stroke="#3a414a" fill="#dfe3e8"/><path d="M2040 1166a6 6 0 0 1 6-6h208a6 6 0 0 1 6 6v108a6 6 0 0 1-6 6h-208a6 6 0 0 1-6-6z" stroke="#3a414a" fill="#fff"/><path d="M2130 1266a6 6 0 0 1 6-6h28a6 6 0 0 1 6 6v8a6 6 0 0 1-6 6h-28a6 6 0 0 1-6-6z" stroke="#000" stroke-opacity="0" fill="#fff" fill-opacity="0"/><use xlink:href="#W" transform="matrix(1,0,0,1,2135,1265) translate(0.7623456790123484 12.444444444444443)"/><path d="M2150 1186a6 6 0 0 1 6-6h88a6 6 0 0 1 6 6v68a6 6 0 0 1-6 6h-88a6 6 0 0 1-6-6z" stroke="#3a414a" fill="#dfe3e8"/><path d="M2200 1206a6 6 0 0 1 6-6h28a6 6 0 0 1 6 6v28a6 6 0 0 1-6 6h-28a6 6 0 0 1-6-6z" stroke="#333" fill="#4c535d"/><use xlink:href="#X" transform="matrix(1,0,0,1,2205,1205) translate(2.0370370370370416 18.069444444444443)"/><path d="M2160 1206a6 6 0 0 1 6-6h28a6 6 0 0 1 6 6v28a6 6 0 0 1-6 6h-28a6 6 0 0 1-6-6z" stroke="#333" fill="#4c535d"/><use xlink:href="#Y" transform="matrix(1,0,0,1,2165,1205) translate(2.0370370370370416 18.069444444444443)"/><path d="M2180 1246a6 6 0 0 1 6-6h28a6 6 0 0 1 6 6v8a6 6 0 0 1-6 6h-28a6 6 0 0 1-6-6z" stroke="#000" stroke-opacity="0" fill="#fff" fill-opacity="0"/><use xlink:href="#F" transform="matrix(1,0,0,1,2185,1245) translate(2.0370370370370416 12.444444444444443)"/><path d="M2050 1186a6 6 0 0 1 6-6h88a6 6 0 0 1 6 6v68a6 6 0 0 1-6 6h-88a6 6 0 0 1-6-6z" stroke="#3a414a" fill="#dfe3e8"/><path d="M2100 1206a6 6 0 0 1 6-6h28a6 6 0 0 1 6 6v28a6 6 0 0 1-6 6h-28a6 6 0 0 1-6-6z" stroke="#333" fill="#4c535d"/><use xlink:href="#Z" transform="matrix(1,0,0,1,2105,1205) translate(2.0370370370370416 18.069444444444443)"/><path d="M2060 1206a6 6 0 0 1 6-6h28a6 6 0 0 1 6 6v28a6 6 0 0 1-6 6h-28a6 6 0 0 1-6-6z" stroke="#333" fill="#4c535d"/><use xlink:href="#aa" transform="matrix(1,0,0,1,2065,1205) translate(2.0370370370370416 18.069444444444443)"/><path d="M2080 1246a6 6 0 0 1 6-6h28a6 6 0 0 1 6 6v8a6 6 0 0 1-6 6h-28a6 6 0 0 1-6-6z" stroke="#000" stroke-opacity="0" fill="#fff" fill-opacity="0"/><use xlink:href="#G" transform="matrix(1,0,0,1,2085,1245) translate(2.0370370370370416 12.444444444444443)"/><path d="M1820 1166a6 6 0 0 1 6-6h208a6 6 0 0 1 6 6v108a6 6 0 0 1-6 6h-208a6 6 0 0 1-6-6z" stroke="#3a414a" fill="#fff"/><path d="M1910 1266a6 6 0 0 1 6-6h28a6 6 0 0 1 6 6v8a6 6 0 0 1-6 6h-28a6 6 0 0 1-6-6z" stroke="#000" stroke-opacity="0" fill="#fff" fill-opacity="0"/><use xlink:href="#ab" transform="matrix(1,0,0,1,1915,1265) translate(0.7623456790123484 12.444444444444443)"/><path d="M1930 1186a6 6 0 0 1 6-6h88a6 6 0 0 1 6 6v68a6 6 0 0 1-6 6h-88a6 6 0 0 1-6-6z" stroke="#3a414a" fill="#dfe3e8"/><path d="M1980 1206a6 6 0 0 1 6-6h28a6 6 0 0 1 6 6v28a6 6 0 0 1-6 6h-28a6 6 0 0 1-6-6z" stroke="#333" fill="#4c535d"/><use xlink:href="#ac" transform="matrix(1,0,0,1,1985,1205) translate(2.0370370370370416 18.069444444444443)"/><path d="M1940 1206a6 6 0 0 1 6-6h28a6 6 0 0 1 6 6v28a6 6 0 0 1-6 6h-28a6 6 0 0 1-6-6z" stroke="#333" fill="#4c535d"/><use xlink:href="#ad" transform="matrix(1,0,0,1,1945,1205) translate(2.620370370370374 18.069444444444443)"/><path d="M1960 1246a6 6 0 0 1 6-6h28a6 6 0 0 1 6 6v8a6 6 0 0 1-6 6h-28a6 6 0 0 1-6-6z" stroke="#000" stroke-opacity="0" fill="#fff" fill-opacity="0"/><use xlink:href="#I" transform="matrix(1,0,0,1,1965,1245) translate(2.0370370370370416 12.444444444444443)"/><path d="M1830 1186a6 6 0 0 1 6-6h88a6 6 0 0 1 6 6v68a6 6 0 0 1-6 6h-88a6 6 0 0 1-6-6z" stroke="#3a414a" fill="#dfe3e8"/><path d="M1880 1206a6 6 0 0 1 6-6h28a6 6 0 0 1 6 6v28a6 6 0 0 1-6 6h-28a6 6 0 0 1-6-6z" stroke="#333" fill="#4c535d"/><use xlink:href="#ae" transform="matrix(1,0,0,1,1885,1205) translate(2.0370370370370416 18.069444444444443)"/><path d="M1840 1206a6 6 0 0 1 6-6h28a6 6 0 0 1 6 6v28a6 6 0 0 1-6 6h-28a6 6 0 0 1-6-6z" stroke="#333" fill="#4c535d"/><use xlink:href="#af" transform="matrix(1,0,0,1,1845,1205) translate(2.0370370370370416 18.069444444444443)"/><path d="M1860 1246a6 6 0 0 1 6-6h28a6 6 0 0 1 6 6v8a6 6 0 0 1-6 6h-28a6 6 0 0 1-6-6z" stroke="#000" stroke-opacity="0" fill="#fff" fill-opacity="0"/><use xlink:href="#J" transform="matrix(1,0,0,1,1865,1245) translate(2.0370370370370416 12.444444444444443)"/><path d="M2020 1286a6 6 0 0 1 6-6h28a6 6 0 0 1 6 6v8a6 6 0 0 1-6 6h-28a6 6 0 0 1-6-6z" stroke="#000" stroke-opacity="0" fill="#fff" fill-opacity="0"/><use xlink:href="#K" transform="matrix(1,0,0,1,2025,1285) translate(2.0370370370370416 12.444444444444443)"/><path d="M1350 1146a6 6 0 0 1 6-6h448a6 6 0 0 1 6 6v148a6 6 0 0 1-6 6h-448a6 6 0 0 1-6-6z" stroke="#3a414a" fill="#dfe3e8"/><path d="M1580 1166a6 6 0 0 1 6-6h208a6 6 0 0 1 6 6v108a6 6 0 0 1-6 6h-208a6 6 0 0 1-6-6z" stroke="#3a414a" fill="#fff"/><path d="M1670 1266a6 6 0 0 1 6-6h28a6 6 0 0 1 6 6v8a6 6 0 0 1-6 6h-28a6 6 0 0 1-6-6z" stroke="#000" stroke-opacity="0" fill="#fff" fill-opacity="0"/><use xlink:href="#ag" transform="matrix(1,0,0,1,1675,1265) translate(0.7623456790123484 12.444444444444443)"/><path d="M1690 1186a6 6 0 0 1 6-6h88a6 6 0 0 1 6 6v68a6 6 0 0 1-6 6h-88a6 6 0 0 1-6-6z" stroke="#3a414a" fill="#dfe3e8"/><path d="M1740 1206a6 6 0 0 1 6-6h28a6 6 0 0 1 6 6v28a6 6 0 0 1-6 6h-28a6 6 0 0 1-6-6z" stroke="#333" fill="#4c535d"/><use xlink:href="#ah" transform="matrix(1,0,0,1,1745,1205) translate(2.0370370370370416 18.069444444444443)"/><path d="M1700 1206a6 6 0 0 1 6-6h28a6 6 0 0 1 6 6v28a6 6 0 0 1-6 6h-28a6 6 0 0 1-6-6z" stroke="#333" fill="#4c535d"/><use xlink:href="#ai" transform="matrix(1,0,0,1,1705,1205) translate(2.0370370370370416 18.069444444444443)"/><path d="M1720 1246a6 6 0 0 1 6-6h28a6 6 0 0 1 6 6v8a6 6 0 0 1-6 6h-28a6 6 0 0 1-6-6z" stroke="#000" stroke-opacity="0" fill="#fff" fill-opacity="0"/><use xlink:href="#M" transform="matrix(1,0,0,1,1725,1245) translate(2.0370370370370416 12.444444444444443)"/><path d="M1590 1186a6 6 0 0 1 6-6h88a6 6 0 0 1 6 6v68a6 6 0 0 1-6 6h-88a6 6 0 0 1-6-6z" stroke="#3a414a" fill="#dfe3e8"/><path d="M1640 1206a6 6 0 0 1 6-6h28a6 6 0 0 1 6 6v28a6 6 0 0 1-6 6h-28a6 6 0 0 1-6-6z" stroke="#333" fill="#4c535d"/><use xlink:href="#aj" transform="matrix(1,0,0,1,1645,1205) translate(2.0370370370370416 18.069444444444443)"/><path d="M1600 1206a6 6 0 0 1 6-6h28a6 6 0 0 1 6 6v28a6 6 0 0 1-6 6h-28a6 6 0 0 1-6-6z" stroke="#333" fill="#4c535d"/><use xlink:href="#ak" transform="matrix(1,0,0,1,1605,1205) translate(2.0370370370370416 18.069444444444443)"/><path d="M1620 1246a6 6 0 0 1 6-6h28a6 6 0 0 1 6 6v8a6 6 0 0 1-6 6h-28a6 6 0 0 1-6-6z" stroke="#000" stroke-opacity="0" fill="#fff" fill-opacity="0"/><use xlink:href="#N" transform="matrix(1,0,0,1,1625,1245) translate(2.0370370370370416 12.444444444444443)"/><path d="M1360 1166a6 6 0 0 1 6-6h208a6 6 0 0 1 6 6v108a6 6 0 0 1-6 6h-208a6 6 0 0 1-6-6z" stroke="#3a414a" fill="#fff"/><path d="M1450 1266a6 6 0 0 1 6-6h28a6 6 0 0 1 6 6v8a6 6 0 0 1-6 6h-28a6 6 0 0 1-6-6z" stroke="#000" stroke-opacity="0" fill="#fff" fill-opacity="0"/><use xlink:href="#al" transform="matrix(1,0,0,1,1455,1265) translate(0.7623456790123484 12.444444444444443)"/><path d="M1470 1186a6 6 0 0 1 6-6h88a6 6 0 0 1 6 6v68a6 6 0 0 1-6 6h-88a6 6 0 0 1-6-6z" stroke="#3a414a" fill="#dfe3e8"/><path d="M1520 1206a6 6 0 0 1 6-6h28a6 6 0 0 1 6 6v28a6 6 0 0 1-6 6h-28a6 6 0 0 1-6-6z" stroke="#333" fill="#4c535d"/><use xlink:href="#am" transform="matrix(1,0,0,1,1525,1205) translate(2.0370370370370416 18.069444444444443)"/><path d="M1480 1206a6 6 0 0 1 6-6h28a6 6 0 0 1 6 6v28a6 6 0 0 1-6 6h-28a6 6 0 0 1-6-6z" stroke="#333" fill="#4c535d"/><use xlink:href="#an" transform="matrix(1,0,0,1,1485,1205) translate(2.0370370370370416 18.069444444444443)"/><path d="M1500 1246a6 6 0 0 1 6-6h28a6 6 0 0 1 6 6v8a6 6 0 0 1-6 6h-28a6 6 0 0 1-6-6z" stroke="#000" stroke-opacity="0" fill="#fff" fill-opacity="0"/><use xlink:href="#P" transform="matrix(1,0,0,1,1505,1245) translate(2.0370370370370416 12.444444444444443)"/><path d="M1370 1186a6 6 0 0 1 6-6h88a6 6 0 0 1 6 6v68a6 6 0 0 1-6 6h-88a6 6 0 0 1-6-6z" stroke="#3a414a" fill="#dfe3e8"/><path d="M1420 1206a6 6 0 0 1 6-6h28a6 6 0 0 1 6 6v28a6 6 0 0 1-6 6h-28a6 6 0 0 1-6-6z" stroke="#333" fill="#4c535d"/><use xlink:href="#ao" transform="matrix(1,0,0,1,1425,1205) translate(2.0370370370370416 18.069444444444443)"/><path d="M1380 1206a6 6 0 0 1 6-6h28a6 6 0 0 1 6 6v28a6 6 0 0 1-6 6h-28a6 6 0 0 1-6-6z" stroke="#333" fill="#4c535d"/><use xlink:href="#ap" transform="matrix(1,0,0,1,1385,1205) translate(2.0370370370370416 18.069444444444443)"/><path d="M1400 1246a6 6 0 0 1 6-6h28a6 6 0 0 1 6 6v8a6 6 0 0 1-6 6h-28a6 6 0 0 1-6-6z" stroke="#000" stroke-opacity="0" fill="#fff" fill-opacity="0"/><use xlink:href="#Q" transform="matrix(1,0,0,1,1405,1245) translate(2.0370370370370416 12.444444444444443)"/><path d="M1560 1286a6 6 0 0 1 6-6h28a6 6 0 0 1 6 6v8a6 6 0 0 1-6 6h-28a6 6 0 0 1-6-6z" stroke="#000" stroke-opacity="0" fill="#fff" fill-opacity="0"/><use xlink:href="#R" transform="matrix(1,0,0,1,1565,1285) translate(2.620370370370374 12.444444444444443)"/><path d="M1360 1866a6 6 0 0 1 6-6h148a6 6 0 0 1 6 6v8a6 6 0 0 1-6 6h-148a6 6 0 0 1-6-6z" stroke="#333" fill="#fff"/><use xlink:href="#aq" transform="matrix(1,0,0,1,1365,1865) translate(53.9567901234568 12.444444444444443)"/><path d="M1600 1866a6 6 0 0 1 6-6h148a6 6 0 0 1 6 6v8a6 6 0 0 1-6 6h-148a6 6 0 0 1-6-6z" stroke="#333" fill="#dfe3e8"/><use xlink:href="#ar" transform="matrix(1,0,0,1,1605,1865) translate(53.9567901234568 12.444444444444443)"/><path d="M1840 1866a6 6 0 0 1 6-6h148a6 6 0 0 1 6 6v8a6 6 0 0 1-6 6h-148a6 6 0 0 1-6-6z" stroke="#333" fill="#979ea8"/><use xlink:href="#as" transform="matrix(1,0,0,1,1845,1865) translate(53.9567901234568 12.444444444444443)"/><path d="M2080 1866a6 6 0 0 1 6-6h148a6 6 0 0 1 6 6v8a6 6 0 0 1-6 6h-148a6 6 0 0 1-6-6z" stroke="#333" fill="#4c535d"/><use xlink:href="#at" transform="matrix(1,0,0,1,2085,1865) translate(53.9567901234568 12.444444444444443)"/><path d="M1360 1106a6 6 0 0 1 6-6h148a6 6 0 0 1 6 6v8a6 6 0 0 1-6 6h-148a6 6 0 0 1-6-6z" stroke="#333" fill="#fff"/><use xlink:href="#au" transform="matrix(1,0,0,1,1365,1105) translate(16.21666666666669 10.666666666666664)"/><use xlink:href="#av" transform="matrix(1,0,0,1,1365,1105) translate(41.74629629629631 10.666666666666664)"/><use xlink:href="#aw" transform="matrix(1,0,0,1,1365,1105) translate(49.857407407407415 10.666666666666664)"/><use xlink:href="#ax" transform="matrix(1,0,0,1,1365,1105) translate(80.22777777777779 10.666666666666664)"/><path d="M1600 1106a6 6 0 0 1 6-6h148a6 6 0 0 1 6 6v8a6 6 0 0 1-6 6h-148a6 6 0 0 1-6-6z" stroke="#333" fill="#fff"/><use xlink:href="#ay" transform="matrix(1,0,0,1,1605,1105) translate(13.679629629629659 10.666666666666664)"/><use xlink:href="#av" transform="matrix(1,0,0,1,1605,1105) translate(39.91296296296298 10.666666666666664)"/><use xlink:href="#az" transform="matrix(1,0,0,1,1605,1105) translate(48.02407407407409 10.666666666666664)"/><use xlink:href="#aA" transform="matrix(1,0,0,1,1605,1105) translate(75.35740740740741 10.666666666666664)"/><path d="M1840 1106a6 6 0 0 1 6-6h148a6 6 0 0 1 6 6v8a6 6 0 0 1-6 6h-148a6 6 0 0 1-6-6z" stroke="#333" fill="#fff"/><g><use xlink:href="#aB" transform="matrix(1,0,0,1,1845,1105) translate(8.253703703703735 10.666666666666664)"/><use xlink:href="#av" transform="matrix(1,0,0,1,1845,1105) translate(37.45000000000002 10.666666666666664)"/><use xlink:href="#aC" transform="matrix(1,0,0,1,1845,1105) translate(45.56111111111113 10.666666666666664)"/><use xlink:href="#aD" transform="matrix(1,0,0,1,1845,1105) translate(80.78333333333333 10.666666666666664)"/></g><path d="M2080 1106a6 6 0 0 1 6-6h148a6 6 0 0 1 6 6v8a6 6 0 0 1-6 6h-148a6 6 0 0 1-6-6z" stroke="#333" fill="#fff"/><g><use xlink:href="#aE" transform="matrix(1,0,0,1,2085,1105) translate(4.420370370370392 10.666666666666664)"/><use xlink:href="#av" transform="matrix(1,0,0,1,2085,1105) translate(30.653703703703716 10.666666666666664)"/><use xlink:href="#aF" transform="matrix(1,0,0,1,2085,1105) translate(38.76481481481483 10.666666666666664)"/><use xlink:href="#aG" transform="matrix(1,0,0,1,2085,1105) translate(84.61666666666666 10.666666666666664)"/></g><defs><path fill="#3a414a" d="M206 0h-36l-40-164L89 0H53L-1-190h32L70-26l43-164h34l41 164 42-164h31" id="aH"/><path fill="#3a414a" d="M101-251c68 0 85 55 85 127S166 4 100 4C33 4 14-52 14-124c0-73 17-127 87-127zm-1 229c47 0 54-49 54-102s-4-102-53-102c-51 0-55 48-55 102 0 53 5 102 54 102" id="aI"/><g id="a"><use transform="matrix(0.04320987654320987,0,0,0.04320987654320987,0,0)" xlink:href="#aH"/><use transform="matrix(0.04320987654320987,0,0,0.04320987654320987,11.191358024691356,0)" xlink:href="#aI"/><use transform="matrix(0.04320987654320987,0,0,0.04320987654320987,19.83333333333333,0)" xlink:href="#aI"/></g><path fill="#3a414a" d="M115-194c53 0 69 39 70 98 0 66-23 100-70 100C84 3 66-7 56-30L54 0H23l1-261h32v101c10-23 28-34 59-34zm-8 174c40 0 45-34 45-75 0-40-5-75-45-74-42 0-51 32-51 76 0 43 10 73 51 73" id="aJ"/><g id="b"><use transform="matrix(0.04320987654320987,0,0,0.04320987654320987,0,0)" xlink:href="#aJ"/><use transform="matrix(0.04320987654320987,0,0,0.04320987654320987,8.641975308641973,0)" xlink:href="#aI"/><use transform="matrix(0.04320987654320987,0,0,0.04320987654320987,17.283950617283946,0)" xlink:href="#aI"/></g><path fill="#3a414a" d="M27 0v-27h64v-190l-56 39v-29l58-41h29v221h61V0H27" id="aK"/><g id="c"><use transform="matrix(0.04320987654320987,0,0,0.04320987654320987,0,0)" xlink:href="#aJ"/><use transform="matrix(0.04320987654320987,0,0,0.04320987654320987,8.641975308641973,0)" xlink:href="#aI"/><use transform="matrix(0.04320987654320987,0,0,0.04320987654320987,17.283950617283946,0)" xlink:href="#aK"/></g><path fill="#3a414a" d="M106-169C34-169 62-67 57 0H25v-261h32l-1 103c12-21 28-36 61-36 89 0 53 116 60 194h-32v-121c2-32-8-49-39-48" id="aL"/><g id="d"><use transform="matrix(0.04320987654320987,0,0,0.04320987654320987,0,0)" xlink:href="#aL"/><use transform="matrix(0.04320987654320987,0,0,0.04320987654320987,8.641975308641973,0)" xlink:href="#aI"/><use transform="matrix(0.04320987654320987,0,0,0.04320987654320987,17.283950617283946,0)" xlink:href="#aI"/></g><path fill="#3a414a" d="M101-251c82-7 93 87 43 132L82-64C71-53 59-42 53-27h129V0H18c2-99 128-94 128-182 0-28-16-43-45-43s-46 15-49 41l-32-3c6-41 34-60 81-64" id="aM"/><g id="e"><use transform="matrix(0.04320987654320987,0,0,0.04320987654320987,0,0)" xlink:href="#aJ"/><use transform="matrix(0.04320987654320987,0,0,0.04320987654320987,8.641975308641973,0)" xlink:href="#aI"/><use transform="matrix(0.04320987654320987,0,0,0.04320987654320987,17.283950617283946,0)" xlink:href="#aM"/></g><path fill="#3a414a" d="M126-127c33 6 58 20 58 59 0 88-139 92-164 29-3-8-5-16-6-25l32-3c6 27 21 44 54 44 32 0 52-15 52-46 0-38-36-46-79-43v-28c39 1 72-4 72-42 0-27-17-43-46-43-28 0-47 15-49 41l-32-3c6-42 35-63 81-64 48-1 79 21 79 65 0 36-21 52-52 59" id="aN"/><g id="f"><use transform="matrix(0.04320987654320987,0,0,0.04320987654320987,0,0)" xlink:href="#aJ"/><use transform="matrix(0.04320987654320987,0,0,0.04320987654320987,8.641975308641973,0)" xlink:href="#aI"/><use transform="matrix(0.04320987654320987,0,0,0.04320987654320987,17.283950617283946,0)" xlink:href="#aN"/></g><g id="g"><use transform="matrix(0.04320987654320987,0,0,0.04320987654320987,0,0)" xlink:href="#aL"/><use transform="matrix(0.04320987654320987,0,0,0.04320987654320987,8.641975308641973,0)" xlink:href="#aI"/><use transform="matrix(0.04320987654320987,0,0,0.04320987654320987,17.283950617283946,0)" xlink:href="#aK"/></g><g id="h"><use transform="matrix(0.04320987654320987,0,0,0.04320987654320987,0,0)" xlink:href="#aH"/><use transform="matrix(0.04320987654320987,0,0,0.04320987654320987,11.191358024691356,0)" xlink:href="#aI"/><use transform="matrix(0.04320987654320987,0,0,0.04320987654320987,19.83333333333333,0)" xlink:href="#aK"/></g><g id="i"><use transform="matrix(0.04320987654320987,0,0,0.04320987654320987,0,0)" xlink:href="#aJ"/><use transform="matrix(0.04320987654320987,0,0,0.04320987654320987,8.641975308641973,0)" xlink:href="#aK"/><use transform="matrix(0.04320987654320987,0,0,0.04320987654320987,17.283950617283946,0)" xlink:href="#aI"/></g><g id="j"><use transform="matrix(0.04320987654320987,0,0,0.04320987654320987,0,0)" xlink:href="#aJ"/><use transform="matrix(0.04320987654320987,0,0,0.04320987654320987,8.641975308641973,0)" xlink:href="#aK"/><use transform="matrix(0.04320987654320987,0,0,0.04320987654320987,16.117283950617278,0)" xlink:href="#aK"/></g><g id="k"><use transform="matrix(0.04320987654320987,0,0,0.04320987654320987,0,0)" xlink:href="#aL"/><use transform="matrix(0.04320987654320987,0,0,0.04320987654320987,8.641975308641973,0)" xlink:href="#aK"/><use transform="matrix(0.04320987654320987,0,0,0.04320987654320987,17.283950617283946,0)" xlink:href="#aI"/></g><g id="l"><use transform="matrix(0.04320987654320987,0,0,0.04320987654320987,0,0)" xlink:href="#aJ"/><use transform="matrix(0.04320987654320987,0,0,0.04320987654320987,8.641975308641973,0)" xlink:href="#aK"/><use transform="matrix(0.04320987654320987,0,0,0.04320987654320987,17.283950617283946,0)" xlink:href="#aM"/></g><g id="m"><use transform="matrix(0.04320987654320987,0,0,0.04320987654320987,0,0)" xlink:href="#aJ"/><use transform="matrix(0.04320987654320987,0,0,0.04320987654320987,8.641975308641973,0)" xlink:href="#aK"/><use transform="matrix(0.04320987654320987,0,0,0.04320987654320987,17.283950617283946,0)" xlink:href="#aN"/></g><g id="n"><use transform="matrix(0.04320987654320987,0,0,0.04320987654320987,0,0)" xlink:href="#aL"/><use transform="matrix(0.04320987654320987,0,0,0.04320987654320987,8.641975308641973,0)" xlink:href="#aK"/><use transform="matrix(0.04320987654320987,0,0,0.04320987654320987,16.117283950617278,0)" xlink:href="#aK"/></g><path fill="#3a414a" d="M85-194c31 0 48 13 60 33l-1-100h32l1 261h-30c-2-10 0-23-3-31C134-8 116 4 85 4 32 4 16-35 15-94c0-66 23-100 70-100zm9 24c-40 0-46 34-46 75 0 40 6 74 45 74 42 0 51-32 51-76 0-42-9-74-50-73" id="aO"/><g id="o"><use transform="matrix(0.04320987654320987,0,0,0.04320987654320987,0,0)" xlink:href="#aO"/><use transform="matrix(0.04320987654320987,0,0,0.04320987654320987,8.641975308641973,0)" xlink:href="#aI"/><use transform="matrix(0.04320987654320987,0,0,0.04320987654320987,17.283950617283946,0)" xlink:href="#aI"/></g><g id="p"><use transform="matrix(0.04320987654320987,0,0,0.04320987654320987,0,0)" xlink:href="#aH"/><use transform="matrix(0.04320987654320987,0,0,0.04320987654320987,11.191358024691356,0)" xlink:href="#aK"/><use transform="matrix(0.04320987654320987,0,0,0.04320987654320987,19.83333333333333,0)" xlink:href="#aI"/></g><g id="q"><use transform="matrix(0.04320987654320987,0,0,0.04320987654320987,0,0)" xlink:href="#aJ"/><use transform="matrix(0.04320987654320987,0,0,0.04320987654320987,8.641975308641973,0)" xlink:href="#aM"/><use transform="matrix(0.04320987654320987,0,0,0.04320987654320987,17.283950617283946,0)" xlink:href="#aI"/></g><g id="r"><use transform="matrix(0.04320987654320987,0,0,0.04320987654320987,0,0)" xlink:href="#aJ"/><use transform="matrix(0.04320987654320987,0,0,0.04320987654320987,8.641975308641973,0)" xlink:href="#aM"/><use transform="matrix(0.04320987654320987,0,0,0.04320987654320987,17.283950617283946,0)" xlink:href="#aK"/></g><g id="s"><use transform="matrix(0.04320987654320987,0,0,0.04320987654320987,0,0)" xlink:href="#aL"/><use transform="matrix(0.04320987654320987,0,0,0.04320987654320987,8.641975308641973,0)" xlink:href="#aI"/><use transform="matrix(0.04320987654320987,0,0,0.04320987654320987,17.283950617283946,0)" xlink:href="#aM"/></g><g id="t"><use transform="matrix(0.04320987654320987,0,0,0.04320987654320987,0,0)" xlink:href="#aJ"/><use transform="matrix(0.04320987654320987,0,0,0.04320987654320987,8.641975308641973,0)" xlink:href="#aM"/><use transform="matrix(0.04320987654320987,0,0,0.04320987654320987,17.283950617283946,0)" xlink:href="#aM"/></g><g id="u"><use transform="matrix(0.04320987654320987,0,0,0.04320987654320987,0,0)" xlink:href="#aJ"/><use transform="matrix(0.04320987654320987,0,0,0.04320987654320987,8.641975308641973,0)" xlink:href="#aM"/><use transform="matrix(0.04320987654320987,0,0,0.04320987654320987,17.283950617283946,0)" xlink:href="#aN"/></g><g id="v"><use transform="matrix(0.04320987654320987,0,0,0.04320987654320987,0,0)" xlink:href="#aL"/><use transform="matrix(0.04320987654320987,0,0,0.04320987654320987,8.641975308641973,0)" xlink:href="#aI"/><use transform="matrix(0.04320987654320987,0,0,0.04320987654320987,17.283950617283946,0)" xlink:href="#aN"/></g><g id="w"><use transform="matrix(0.04320987654320987,0,0,0.04320987654320987,0,0)" xlink:href="#aH"/><use transform="matrix(0.04320987654320987,0,0,0.04320987654320987,11.191358024691356,0)" xlink:href="#aK"/><use transform="matrix(0.04320987654320987,0,0,0.04320987654320987,18.666666666666664,0)" xlink:href="#aK"/></g><g id="x"><use transform="matrix(0.04320987654320987,0,0,0.04320987654320987,0,0)" xlink:href="#aJ"/><use transform="matrix(0.04320987654320987,0,0,0.04320987654320987,8.641975308641973,0)" xlink:href="#aN"/><use transform="matrix(0.04320987654320987,0,0,0.04320987654320987,17.283950617283946,0)" xlink:href="#aI"/></g><g id="y"><use transform="matrix(0.04320987654320987,0,0,0.04320987654320987,0,0)" xlink:href="#aJ"/><use transform="matrix(0.04320987654320987,0,0,0.04320987654320987,8.641975308641973,0)" xlink:href="#aN"/><use transform="matrix(0.04320987654320987,0,0,0.04320987654320987,17.283950617283946,0)" xlink:href="#aK"/></g><g id="z"><use transform="matrix(0.04320987654320987,0,0,0.04320987654320987,0,0)" xlink:href="#aL"/><use transform="matrix(0.04320987654320987,0,0,0.04320987654320987,8.641975308641973,0)" xlink:href="#aK"/><use transform="matrix(0.04320987654320987,0,0,0.04320987654320987,17.283950617283946,0)" xlink:href="#aM"/></g><g id="A"><use transform="matrix(0.04320987654320987,0,0,0.04320987654320987,0,0)" xlink:href="#aJ"/><use transform="matrix(0.04320987654320987,0,0,0.04320987654320987,8.641975308641973,0)" xlink:href="#aN"/><use transform="matrix(0.04320987654320987,0,0,0.04320987654320987,17.283950617283946,0)" xlink:href="#aM"/></g><g id="B"><use transform="matrix(0.04320987654320987,0,0,0.04320987654320987,0,0)" xlink:href="#aJ"/><use transform="matrix(0.04320987654320987,0,0,0.04320987654320987,8.641975308641973,0)" xlink:href="#aN"/><use transform="matrix(0.04320987654320987,0,0,0.04320987654320987,17.283950617283946,0)" xlink:href="#aN"/></g><g id="C"><use transform="matrix(0.04320987654320987,0,0,0.04320987654320987,0,0)" xlink:href="#aL"/><use transform="matrix(0.04320987654320987,0,0,0.04320987654320987,8.641975308641973,0)" xlink:href="#aK"/><use transform="matrix(0.04320987654320987,0,0,0.04320987654320987,17.283950617283946,0)" xlink:href="#aN"/></g><g id="D"><use transform="matrix(0.04320987654320987,0,0,0.04320987654320987,0,0)" xlink:href="#aO"/><use transform="matrix(0.04320987654320987,0,0,0.04320987654320987,8.641975308641973,0)" xlink:href="#aI"/><use transform="matrix(0.04320987654320987,0,0,0.04320987654320987,17.283950617283946,0)" xlink:href="#aK"/></g><g id="E"><use transform="matrix(0.04320987654320987,0,0,0.04320987654320987,0,0)" xlink:href="#aH"/><use transform="matrix(0.04320987654320987,0,0,0.04320987654320987,11.191358024691356,0)" xlink:href="#aI"/><use transform="matrix(0.04320987654320987,0,0,0.04320987654320987,19.83333333333333,0)" xlink:href="#aM"/></g><g id="F"><use transform="matrix(0.04320987654320987,0,0,0.04320987654320987,0,0)" xlink:href="#aL"/><use transform="matrix(0.04320987654320987,0,0,0.04320987654320987,8.641975308641973,0)" xlink:href="#aM"/><use transform="matrix(0.04320987654320987,0,0,0.04320987654320987,17.283950617283946,0)" xlink:href="#aI"/></g><g id="G"><use transform="matrix(0.04320987654320987,0,0,0.04320987654320987,0,0)" xlink:href="#aL"/><use transform="matrix(0.04320987654320987,0,0,0.04320987654320987,8.641975308641973,0)" xlink:href="#aM"/><use transform="matrix(0.04320987654320987,0,0,0.04320987654320987,17.283950617283946,0)" xlink:href="#aK"/></g><g id="H"><use transform="matrix(0.04320987654320987,0,0,0.04320987654320987,0,0)" xlink:href="#aH"/><use transform="matrix(0.04320987654320987,0,0,0.04320987654320987,11.191358024691356,0)" xlink:href="#aI"/><use transform="matrix(0.04320987654320987,0,0,0.04320987654320987,19.83333333333333,0)" xlink:href="#aN"/></g><g id="I"><use transform="matrix(0.04320987654320987,0,0,0.04320987654320987,0,0)" xlink:href="#aL"/><use transform="matrix(0.04320987654320987,0,0,0.04320987654320987,8.641975308641973,0)" xlink:href="#aN"/><use transform="matrix(0.04320987654320987,0,0,0.04320987654320987,17.283950617283946,0)" xlink:href="#aI"/></g><g id="J"><use transform="matrix(0.04320987654320987,0,0,0.04320987654320987,0,0)" xlink:href="#aL"/><use transform="matrix(0.04320987654320987,0,0,0.04320987654320987,8.641975308641973,0)" xlink:href="#aN"/><use transform="matrix(0.04320987654320987,0,0,0.04320987654320987,17.283950617283946,0)" xlink:href="#aK"/></g><g id="K"><use transform="matrix(0.04320987654320987,0,0,0.04320987654320987,0,0)" xlink:href="#aO"/><use transform="matrix(0.04320987654320987,0,0,0.04320987654320987,8.641975308641973,0)" xlink:href="#aK"/><use transform="matrix(0.04320987654320987,0,0,0.04320987654320987,17.283950617283946,0)" xlink:href="#aI"/></g><g id="L"><use transform="matrix(0.04320987654320987,0,0,0.04320987654320987,0,0)" xlink:href="#aH"/><use transform="matrix(0.04320987654320987,0,0,0.04320987654320987,11.191358024691356,0)" xlink:href="#aK"/><use transform="matrix(0.04320987654320987,0,0,0.04320987654320987,19.83333333333333,0)" xlink:href="#aM"/></g><g id="M"><use transform="matrix(0.04320987654320987,0,0,0.04320987654320987,0,0)" xlink:href="#aL"/><use transform="matrix(0.04320987654320987,0,0,0.04320987654320987,8.641975308641973,0)" xlink:href="#aM"/><use transform="matrix(0.04320987654320987,0,0,0.04320987654320987,17.283950617283946,0)" xlink:href="#aM"/></g><g id="N"><use transform="matrix(0.04320987654320987,0,0,0.04320987654320987,0,0)" xlink:href="#aL"/><use transform="matrix(0.04320987654320987,0,0,0.04320987654320987,8.641975308641973,0)" xlink:href="#aM"/><use transform="matrix(0.04320987654320987,0,0,0.04320987654320987,17.283950617283946,0)" xlink:href="#aN"/></g><g id="O"><use transform="matrix(0.04320987654320987,0,0,0.04320987654320987,0,0)" xlink:href="#aH"/><use transform="matrix(0.04320987654320987,0,0,0.04320987654320987,11.191358024691356,0)" xlink:href="#aK"/><use transform="matrix(0.04320987654320987,0,0,0.04320987654320987,19.83333333333333,0)" xlink:href="#aN"/></g><g id="P"><use transform="matrix(0.04320987654320987,0,0,0.04320987654320987,0,0)" xlink:href="#aL"/><use transform="matrix(0.04320987654320987,0,0,0.04320987654320987,8.641975308641973,0)" xlink:href="#aN"/><use transform="matrix(0.04320987654320987,0,0,0.04320987654320987,17.283950617283946,0)" xlink:href="#aM"/></g><g id="Q"><use transform="matrix(0.04320987654320987,0,0,0.04320987654320987,0,0)" xlink:href="#aL"/><use transform="matrix(0.04320987654320987,0,0,0.04320987654320987,8.641975308641973,0)" xlink:href="#aN"/><use transform="matrix(0.04320987654320987,0,0,0.04320987654320987,17.283950617283946,0)" xlink:href="#aN"/></g><g id="R"><use transform="matrix(0.04320987654320987,0,0,0.04320987654320987,0,0)" xlink:href="#aO"/><use transform="matrix(0.04320987654320987,0,0,0.04320987654320987,8.641975308641973,0)" xlink:href="#aK"/><use transform="matrix(0.04320987654320987,0,0,0.04320987654320987,16.117283950617278,0)" xlink:href="#aK"/></g><g id="S"><use transform="matrix(0.04320987654320987,0,0,0.04320987654320987,0,0)" xlink:href="#aH"/><use transform="matrix(0.04320987654320987,0,0,0.04320987654320987,11.191358024691356,0)" xlink:href="#aM"/><use transform="matrix(0.04320987654320987,0,0,0.04320987654320987,19.83333333333333,0)" xlink:href="#aI"/></g><g id="T"><use transform="matrix(0.04320987654320987,0,0,0.04320987654320987,0,0)" xlink:href="#aH"/><use transform="matrix(0.04320987654320987,0,0,0.04320987654320987,11.191358024691356,0)" xlink:href="#aM"/><use transform="matrix(0.04320987654320987,0,0,0.04320987654320987,19.83333333333333,0)" xlink:href="#aK"/></g><g id="U"><use transform="matrix(0.04320987654320987,0,0,0.04320987654320987,0,0)" xlink:href="#aH"/><use transform="matrix(0.04320987654320987,0,0,0.04320987654320987,11.191358024691356,0)" xlink:href="#aN"/><use transform="matrix(0.04320987654320987,0,0,0.04320987654320987,19.83333333333333,0)" xlink:href="#aI"/></g><g id="V"><use transform="matrix(0.04320987654320987,0,0,0.04320987654320987,0,0)" xlink:href="#aH"/><use transform="matrix(0.04320987654320987,0,0,0.04320987654320987,11.191358024691356,0)" xlink:href="#aN"/><use transform="matrix(0.04320987654320987,0,0,0.04320987654320987,19.83333333333333,0)" xlink:href="#aK"/></g><g id="W"><use transform="matrix(0.04320987654320987,0,0,0.04320987654320987,0,0)" xlink:href="#aH"/><use transform="matrix(0.04320987654320987,0,0,0.04320987654320987,11.191358024691356,0)" xlink:href="#aM"/><use transform="matrix(0.04320987654320987,0,0,0.04320987654320987,19.83333333333333,0)" xlink:href="#aM"/></g><path fill="#fff" d="M115-194c53 0 69 39 70 98 0 66-23 100-70 100C84 3 66-7 56-30L54 0H23l1-261h32v101c10-23 28-34 59-34zm-8 174c40 0 45-34 45-75 0-40-5-75-45-74-42 0-51 32-51 76 0 43 10 73 51 73" id="aP"/><path fill="#fff" d="M101-251c68 0 85 55 85 127S166 4 100 4C33 4 14-52 14-124c0-73 17-127 87-127zm-1 229c47 0 54-49 54-102s-4-102-53-102c-51 0-55 48-55 102 0 53 5 102 54 102" id="aQ"/><g id="X"><use transform="matrix(0.04320987654320987,0,0,0.04320987654320987,0,0)" xlink:href="#aP"/><use transform="matrix(0.04320987654320987,0,0,0.04320987654320987,8.641975308641973,0)" xlink:href="#aQ"/><use transform="matrix(0.04320987654320987,0,0,0.04320987654320987,17.283950617283946,0)" xlink:href="#aQ"/></g><path fill="#fff" d="M27 0v-27h64v-190l-56 39v-29l58-41h29v221h61V0H27" id="aR"/><g id="Y"><use transform="matrix(0.04320987654320987,0,0,0.04320987654320987,0,0)" xlink:href="#aP"/><use transform="matrix(0.04320987654320987,0,0,0.04320987654320987,8.641975308641973,0)" xlink:href="#aQ"/><use transform="matrix(0.04320987654320987,0,0,0.04320987654320987,17.283950617283946,0)" xlink:href="#aR"/></g><path fill="#fff" d="M101-251c82-7 93 87 43 132L82-64C71-53 59-42 53-27h129V0H18c2-99 128-94 128-182 0-28-16-43-45-43s-46 15-49 41l-32-3c6-41 34-60 81-64" id="aS"/><g id="Z"><use transform="matrix(0.04320987654320987,0,0,0.04320987654320987,0,0)" xlink:href="#aP"/><use transform="matrix(0.04320987654320987,0,0,0.04320987654320987,8.641975308641973,0)" xlink:href="#aQ"/><use transform="matrix(0.04320987654320987,0,0,0.04320987654320987,17.283950617283946,0)" xlink:href="#aS"/></g><path fill="#fff" d="M126-127c33 6 58 20 58 59 0 88-139 92-164 29-3-8-5-16-6-25l32-3c6 27 21 44 54 44 32 0 52-15 52-46 0-38-36-46-79-43v-28c39 1 72-4 72-42 0-27-17-43-46-43-28 0-47 15-49 41l-32-3c6-42 35-63 81-64 48-1 79 21 79 65 0 36-21 52-52 59" id="aT"/><g id="aa"><use transform="matrix(0.04320987654320987,0,0,0.04320987654320987,0,0)" xlink:href="#aP"/><use transform="matrix(0.04320987654320987,0,0,0.04320987654320987,8.641975308641973,0)" xlink:href="#aQ"/><use transform="matrix(0.04320987654320987,0,0,0.04320987654320987,17.283950617283946,0)" xlink:href="#aT"/></g><g id="ab"><use transform="matrix(0.04320987654320987,0,0,0.04320987654320987,0,0)" xlink:href="#aH"/><use transform="matrix(0.04320987654320987,0,0,0.04320987654320987,11.191358024691356,0)" xlink:href="#aM"/><use transform="matrix(0.04320987654320987,0,0,0.04320987654320987,19.83333333333333,0)" xlink:href="#aN"/></g><g id="ac"><use transform="matrix(0.04320987654320987,0,0,0.04320987654320987,0,0)" xlink:href="#aP"/><use transform="matrix(0.04320987654320987,0,0,0.04320987654320987,8.641975308641973,0)" xlink:href="#aR"/><use transform="matrix(0.04320987654320987,0,0,0.04320987654320987,17.283950617283946,0)" xlink:href="#aQ"/></g><g id="ad"><use transform="matrix(0.04320987654320987,0,0,0.04320987654320987,0,0)" xlink:href="#aP"/><use transform="matrix(0.04320987654320987,0,0,0.04320987654320987,8.641975308641973,0)" xlink:href="#aR"/><use transform="matrix(0.04320987654320987,0,0,0.04320987654320987,16.117283950617278,0)" xlink:href="#aR"/></g><g id="ae"><use transform="matrix(0.04320987654320987,0,0,0.04320987654320987,0,0)" xlink:href="#aP"/><use transform="matrix(0.04320987654320987,0,0,0.04320987654320987,8.641975308641973,0)" xlink:href="#aR"/><use transform="matrix(0.04320987654320987,0,0,0.04320987654320987,17.283950617283946,0)" xlink:href="#aS"/></g><g id="af"><use transform="matrix(0.04320987654320987,0,0,0.04320987654320987,0,0)" xlink:href="#aP"/><use transform="matrix(0.04320987654320987,0,0,0.04320987654320987,8.641975308641973,0)" xlink:href="#aR"/><use transform="matrix(0.04320987654320987,0,0,0.04320987654320987,17.283950617283946,0)" xlink:href="#aT"/></g><g id="ag"><use transform="matrix(0.04320987654320987,0,0,0.04320987654320987,0,0)" xlink:href="#aH"/><use transform="matrix(0.04320987654320987,0,0,0.04320987654320987,11.191358024691356,0)" xlink:href="#aN"/><use transform="matrix(0.04320987654320987,0,0,0.04320987654320987,19.83333333333333,0)" xlink:href="#aM"/></g><g id="ah"><use transform="matrix(0.04320987654320987,0,0,0.04320987654320987,0,0)" xlink:href="#aP"/><use transform="matrix(0.04320987654320987,0,0,0.04320987654320987,8.641975308641973,0)" xlink:href="#aS"/><use transform="matrix(0.04320987654320987,0,0,0.04320987654320987,17.283950617283946,0)" xlink:href="#aQ"/></g><g id="ai"><use transform="matrix(0.04320987654320987,0,0,0.04320987654320987,0,0)" xlink:href="#aP"/><use transform="matrix(0.04320987654320987,0,0,0.04320987654320987,8.641975308641973,0)" xlink:href="#aS"/><use transform="matrix(0.04320987654320987,0,0,0.04320987654320987,17.283950617283946,0)" xlink:href="#aR"/></g><g id="aj"><use transform="matrix(0.04320987654320987,0,0,0.04320987654320987,0,0)" xlink:href="#aP"/><use transform="matrix(0.04320987654320987,0,0,0.04320987654320987,8.641975308641973,0)" xlink:href="#aS"/><use transform="matrix(0.04320987654320987,0,0,0.04320987654320987,17.283950617283946,0)" xlink:href="#aS"/></g><g id="ak"><use transform="matrix(0.04320987654320987,0,0,0.04320987654320987,0,0)" xlink:href="#aP"/><use transform="matrix(0.04320987654320987,0,0,0.04320987654320987,8.641975308641973,0)" xlink:href="#aS"/><use transform="matrix(0.04320987654320987,0,0,0.04320987654320987,17.283950617283946,0)" xlink:href="#aT"/></g><g id="al"><use transform="matrix(0.04320987654320987,0,0,0.04320987654320987,0,0)" xlink:href="#aH"/><use transform="matrix(0.04320987654320987,0,0,0.04320987654320987,11.191358024691356,0)" xlink:href="#aN"/><use transform="matrix(0.04320987654320987,0,0,0.04320987654320987,19.83333333333333,0)" xlink:href="#aN"/></g><g id="am"><use transform="matrix(0.04320987654320987,0,0,0.04320987654320987,0,0)" xlink:href="#aP"/><use transform="matrix(0.04320987654320987,0,0,0.04320987654320987,8.641975308641973,0)" xlink:href="#aT"/><use transform="matrix(0.04320987654320987,0,0,0.04320987654320987,17.283950617283946,0)" xlink:href="#aQ"/></g><g id="an"><use transform="matrix(0.04320987654320987,0,0,0.04320987654320987,0,0)" xlink:href="#aP"/><use transform="matrix(0.04320987654320987,0,0,0.04320987654320987,8.641975308641973,0)" xlink:href="#aT"/><use transform="matrix(0.04320987654320987,0,0,0.04320987654320987,17.283950617283946,0)" xlink:href="#aR"/></g><g id="ao"><use transform="matrix(0.04320987654320987,0,0,0.04320987654320987,0,0)" xlink:href="#aP"/><use transform="matrix(0.04320987654320987,0,0,0.04320987654320987,8.641975308641973,0)" xlink:href="#aT"/><use transform="matrix(0.04320987654320987,0,0,0.04320987654320987,17.283950617283946,0)" xlink:href="#aS"/></g><g id="ap"><use transform="matrix(0.04320987654320987,0,0,0.04320987654320987,0,0)" xlink:href="#aP"/><use transform="matrix(0.04320987654320987,0,0,0.04320987654320987,8.641975308641973,0)" xlink:href="#aT"/><use transform="matrix(0.04320987654320987,0,0,0.04320987654320987,17.283950617283946,0)" xlink:href="#aT"/></g><path fill="#3a414a" d="M127-220V0H93v-220H8v-28h204v28h-85" id="aU"/><path fill="#3a414a" d="M24-231v-30h32v30H24zM24 0v-190h32V0H24" id="aV"/><path fill="#3a414a" d="M24 0v-261h32V0H24" id="aW"/><path fill="#3a414a" d="M100-194c63 0 86 42 84 106H49c0 40 14 67 53 68 26 1 43-12 49-29l28 8c-11 28-37 45-77 45C44 4 14-33 15-96c1-61 26-98 85-98zm52 81c6-60-76-77-97-28-3 7-6 17-6 28h103" id="aX"/><path fill="#3a414a" d="M118-107v75H92v-75H18v-26h74v-75h26v75h74v26h-74" id="aY"/><g id="aq"><use transform="matrix(0.04320987654320987,0,0,0.04320987654320987,0,0)" xlink:href="#aU"/><use transform="matrix(0.04320987654320987,0,0,0.04320987654320987,8.901234567901232,0)" xlink:href="#aV"/><use transform="matrix(0.04320987654320987,0,0,0.04320987654320987,12.314814814814811,0)" xlink:href="#aW"/><use transform="matrix(0.04320987654320987,0,0,0.04320987654320987,15.728395061728389,0)" xlink:href="#aX"/><use transform="matrix(0.04320987654320987,0,0,0.04320987654320987,24.370370370370367,0)" xlink:href="#aY"/><use transform="matrix(0.04320987654320987,0,0,0.04320987654320987,33.444444444444436,0)" xlink:href="#aI"/></g><g id="ar"><use transform="matrix(0.04320987654320987,0,0,0.04320987654320987,0,0)" xlink:href="#aU"/><use transform="matrix(0.04320987654320987,0,0,0.04320987654320987,8.901234567901232,0)" xlink:href="#aV"/><use transform="matrix(0.04320987654320987,0,0,0.04320987654320987,12.314814814814811,0)" xlink:href="#aW"/><use transform="matrix(0.04320987654320987,0,0,0.04320987654320987,15.728395061728389,0)" xlink:href="#aX"/><use transform="matrix(0.04320987654320987,0,0,0.04320987654320987,24.370370370370367,0)" xlink:href="#aY"/><use transform="matrix(0.04320987654320987,0,0,0.04320987654320987,33.444444444444436,0)" xlink:href="#aK"/></g><g id="as"><use transform="matrix(0.04320987654320987,0,0,0.04320987654320987,0,0)" xlink:href="#aU"/><use transform="matrix(0.04320987654320987,0,0,0.04320987654320987,8.901234567901232,0)" xlink:href="#aV"/><use transform="matrix(0.04320987654320987,0,0,0.04320987654320987,12.314814814814811,0)" xlink:href="#aW"/><use transform="matrix(0.04320987654320987,0,0,0.04320987654320987,15.728395061728389,0)" xlink:href="#aX"/><use transform="matrix(0.04320987654320987,0,0,0.04320987654320987,24.370370370370367,0)" xlink:href="#aY"/><use transform="matrix(0.04320987654320987,0,0,0.04320987654320987,33.444444444444436,0)" xlink:href="#aM"/></g><path fill="#fff" d="M127-220V0H93v-220H8v-28h204v28h-85" id="aZ"/><path fill="#fff" d="M24-231v-30h32v30H24zM24 0v-190h32V0H24" id="ba"/><path fill="#fff" d="M24 0v-261h32V0H24" id="bb"/><path fill="#fff" d="M100-194c63 0 86 42 84 106H49c0 40 14 67 53 68 26 1 43-12 49-29l28 8c-11 28-37 45-77 45C44 4 14-33 15-96c1-61 26-98 85-98zm52 81c6-60-76-77-97-28-3 7-6 17-6 28h103" id="bc"/><path fill="#fff" d="M118-107v75H92v-75H18v-26h74v-75h26v75h74v26h-74" id="bd"/><g id="at"><use transform="matrix(0.04320987654320987,0,0,0.04320987654320987,0,0)" xlink:href="#aZ"/><use transform="matrix(0.04320987654320987,0,0,0.04320987654320987,8.901234567901232,0)" xlink:href="#ba"/><use transform="matrix(0.04320987654320987,0,0,0.04320987654320987,12.314814814814811,0)" xlink:href="#bb"/><use transform="matrix(0.04320987654320987,0,0,0.04320987654320987,15.728395061728389,0)" xlink:href="#bc"/><use transform="matrix(0.04320987654320987,0,0,0.04320987654320987,24.370370370370367,0)" xlink:href="#bd"/><use transform="matrix(0.04320987654320987,0,0,0.04320987654320987,33.444444444444436,0)" xlink:href="#aT"/></g><path fill="#3a414a" d="M160-131c35 5 61 23 61 61C221 17 115-2 30 0v-248c76 3 177-17 177 60 0 33-19 50-47 57zm-97-11c50-1 110 9 110-42 0-47-63-36-110-37v79zm0 115c55-2 124 14 124-45 0-56-70-42-124-44v89" id="be"/><path fill="#3a414a" d="M210-169c-67 3-38 105-44 169h-31v-121c0-29-5-50-35-48C34-165 62-65 56 0H25l-1-190h30c1 10-1 24 2 32 10-44 99-50 107 0 11-21 27-35 58-36 85-2 47 119 55 194h-31v-121c0-29-5-49-35-48" id="bf"/><path fill="#3a414a" d="M117-194c89-4 53 116 60 194h-32v-121c0-31-8-49-39-48C34-167 62-67 57 0H25l-1-190h30c1 10-1 24 2 32 11-22 29-35 61-36" id="bg"/><g id="au"><use transform="matrix(0.03703703703703702,0,0,0.03703703703703702,0,0)" xlink:href="#be"/><use transform="matrix(0.025925925925925915,0,0,0.025925925925925915,8.888888888888886,1.8666666666666658)" xlink:href="#bf"/><use transform="matrix(0.025925925925925915,0,0,0.025925925925925915,16.640740740740736,1.8666666666666658)" xlink:href="#bg"/></g><path fill="#3a414a" d="M16-82v-28h88v28H16" id="bh"/><use transform="matrix(0.03703703703703702,0,0,0.03703703703703702,0,0)" xlink:href="#bh" id="av"/><path fill="#3a414a" d="M179-190L93 31C79 59 56 82 12 73V49c39 6 53-20 64-50L1-190h34L92-34l54-156h33" id="bi"/><path fill="#3a414a" d="M59-47c-2 24 18 29 38 22v24C64 9 27 4 27-40v-127H5v-23h24l9-43h21v43h35v23H59v120" id="bj"/><g id="aw"><use transform="matrix(0.03703703703703702,0,0,0.03703703703703702,0,0)" xlink:href="#be"/><use transform="matrix(0.03703703703703702,0,0,0.03703703703703702,8.888888888888886,0)" xlink:href="#bi"/><use transform="matrix(0.03703703703703702,0,0,0.03703703703703702,15.555555555555552,0)" xlink:href="#bj"/><use transform="matrix(0.03703703703703702,0,0,0.03703703703703702,19.259259259259252,0)" xlink:href="#aX"/></g><path fill="#3a414a" d="M87 75C49 33 22-17 22-94c0-76 28-126 65-167h31c-38 41-64 92-64 168S80 34 118 75H87" id="bk"/><path fill="#3a414a" d="M30 0v-248h187v28H63v79h144v27H63v87h162V0H30" id="bl"/><path fill="#3a414a" d="M266 0h-40l-56-210L115 0H75L2-248h35L96-30l15-64 43-154h32l59 218 59-218h35" id="bm"/><path fill="#3a414a" d="M18-150v-26h174v26H18zm0 90v-26h174v26H18" id="bn"/><path fill="#3a414a" d="M134-131c28 9 52 24 51 62-1 50-34 73-85 73S17-19 16-69c0-36 21-54 49-61-75-25-45-126 34-121 46 3 78 18 79 63 0 33-17 51-44 57zm-34-11c31 1 46-15 46-44 0-28-17-43-47-42-29 0-46 13-45 42 1 28 16 44 46 44zm1 122c35 0 51-18 51-52 0-30-18-46-53-46-33 0-51 17-51 47 0 34 19 51 53 51" id="bo"/><path fill="#3a414a" d="M33-261c38 41 65 92 65 168S71 34 33 75H2C39 34 66-17 66-93S39-220 2-261h31" id="bp"/><g id="ax"><use transform="matrix(0.03703703703703702,0,0,0.03703703703703702,0,0)" xlink:href="#bk"/><use transform="matrix(0.03703703703703702,0,0,0.03703703703703702,4.407407407407406,0)" xlink:href="#aU"/><use transform="matrix(0.03703703703703702,0,0,0.03703703703703702,12.51851851851851,0)" xlink:href="#bl"/><use transform="matrix(0.03703703703703702,0,0,0.03703703703703702,21.407407407407398,0)" xlink:href="#bm"/><use transform="matrix(0.03703703703703702,0,0,0.03703703703703702,33.96296296296295,0)" xlink:href="#bn"/><use transform="matrix(0.03703703703703702,0,0,0.03703703703703702,41.740740740740726,0)" xlink:href="#bo"/><use transform="matrix(0.03703703703703702,0,0,0.03703703703703702,49.148148148148124,0)" xlink:href="#bp"/></g><path fill="#3a414a" d="M197 0v-115H63V0H30v-248h33v105h134v-105h34V0h-34" id="bq"/><g id="ay"><use transform="matrix(0.03703703703703702,0,0,0.03703703703703702,0,0)" xlink:href="#bq"/><use transform="matrix(0.025925925925925915,0,0,0.025925925925925915,9.592592592592588,1.8666666666666658)" xlink:href="#bf"/><use transform="matrix(0.025925925925925915,0,0,0.025925925925925915,17.344444444444438,1.8666666666666658)" xlink:href="#bg"/></g><path fill="#3a414a" d="M141-36C126-15 110 5 73 4 37 3 15-17 15-53c-1-64 63-63 125-63 3-35-9-54-41-54-24 1-41 7-42 31l-33-3c5-37 33-52 76-52 45 0 72 20 72 64v82c-1 20 7 32 28 27v20c-31 9-61-2-59-35zM48-53c0 20 12 33 32 33 41-3 63-29 60-74-43 2-92-5-92 41" id="br"/><path fill="#3a414a" d="M101-234c-31-9-42 10-38 44h38v23H63V0H32v-167H5v-23h27c-7-52 17-82 69-68v24" id="bs"/><g id="az"><use transform="matrix(0.03703703703703702,0,0,0.03703703703703702,0,0)" xlink:href="#bq"/><use transform="matrix(0.03703703703703702,0,0,0.03703703703703702,9.592592592592588,0)" xlink:href="#br"/><use transform="matrix(0.03703703703703702,0,0,0.03703703703703702,16.999999999999993,0)" xlink:href="#aW"/><use transform="matrix(0.03703703703703702,0,0,0.03703703703703702,19.925925925925917,0)" xlink:href="#bs"/></g><path fill="#3a414a" d="M110-160c48 1 74 30 74 79 0 53-28 85-80 85-65 0-83-55-86-122-5-90 50-162 133-122 14 7 22 21 27 39l-31 6c-5-40-67-38-82-6-9 19-15 44-15 74 11-20 30-34 60-33zm-7 138c34 0 49-23 49-58s-16-56-50-56c-29 0-50 16-49 49 1 36 15 65 50 65" id="bt"/><g id="aA"><use transform="matrix(0.03703703703703702,0,0,0.03703703703703702,0,0)" xlink:href="#bk"/><use transform="matrix(0.03703703703703702,0,0,0.03703703703703702,4.407407407407406,0)" xlink:href="#aU"/><use transform="matrix(0.03703703703703702,0,0,0.03703703703703702,12.51851851851851,0)" xlink:href="#bl"/><use transform="matrix(0.03703703703703702,0,0,0.03703703703703702,21.407407407407398,0)" xlink:href="#bm"/><use transform="matrix(0.03703703703703702,0,0,0.03703703703703702,33.96296296296295,0)" xlink:href="#bn"/><use transform="matrix(0.03703703703703702,0,0,0.03703703703703702,41.740740740740726,0)" xlink:href="#aK"/><use transform="matrix(0.03703703703703702,0,0,0.03703703703703702,49.148148148148124,0)" xlink:href="#bt"/><use transform="matrix(0.03703703703703702,0,0,0.03703703703703702,56.55555555555553,0)" xlink:href="#bp"/></g><g id="aB"><use transform="matrix(0.03703703703703702,0,0,0.03703703703703702,0,0)" xlink:href="#bm"/><use transform="matrix(0.025925925925925915,0,0,0.025925925925925915,12.55555555555555,1.8666666666666658)" xlink:href="#bf"/><use transform="matrix(0.025925925925925915,0,0,0.025925925925925915,20.3074074074074,1.8666666666666658)" xlink:href="#bg"/></g><path fill="#3a414a" d="M100-194c62-1 85 37 85 99 1 63-27 99-86 99S16-35 15-95c0-66 28-99 85-99zM99-20c44 1 53-31 53-75 0-43-8-75-51-75s-53 32-53 75 10 74 51 75" id="bu"/><path fill="#3a414a" d="M114-163C36-179 61-72 57 0H25l-1-190h30c1 12-1 29 2 39 6-27 23-49 58-41v29" id="bv"/><g id="aC"><use transform="matrix(0.03703703703703702,0,0,0.03703703703703702,0,0)" xlink:href="#bm"/><use transform="matrix(0.03703703703703702,0,0,0.03703703703703702,12.29629629629629,0)" xlink:href="#bu"/><use transform="matrix(0.03703703703703702,0,0,0.03703703703703702,19.703703703703695,0)" xlink:href="#bv"/><use transform="matrix(0.03703703703703702,0,0,0.03703703703703702,24.1111111111111,0)" xlink:href="#aO"/></g><g id="aD"><use transform="matrix(0.03703703703703702,0,0,0.03703703703703702,0,0)" xlink:href="#bk"/><use transform="matrix(0.03703703703703702,0,0,0.03703703703703702,4.407407407407406,0)" xlink:href="#aU"/><use transform="matrix(0.03703703703703702,0,0,0.03703703703703702,12.51851851851851,0)" xlink:href="#bl"/><use transform="matrix(0.03703703703703702,0,0,0.03703703703703702,21.407407407407398,0)" xlink:href="#bm"/><use transform="matrix(0.03703703703703702,0,0,0.03703703703703702,33.96296296296295,0)" xlink:href="#bn"/><use transform="matrix(0.03703703703703702,0,0,0.03703703703703702,41.740740740740726,0)" xlink:href="#aN"/><use transform="matrix(0.03703703703703702,0,0,0.03703703703703702,49.148148148148124,0)" xlink:href="#aM"/><use transform="matrix(0.03703703703703702,0,0,0.03703703703703702,56.55555555555553,0)" xlink:href="#bp"/></g><path fill="#3a414a" d="M30-248c118-7 216 8 213 122C240-48 200 0 122 0H30v-248zM63-27c89 8 146-16 146-99s-60-101-146-95v194" id="bw"/><g id="aE"><use transform="matrix(0.03703703703703702,0,0,0.03703703703703702,0,0)" xlink:href="#bw"/><use transform="matrix(0.025925925925925915,0,0,0.025925925925925915,9.592592592592588,1.8666666666666658)" xlink:href="#bf"/><use transform="matrix(0.025925925925925915,0,0,0.025925925925925915,17.344444444444438,1.8666666666666658)" xlink:href="#bg"/></g><path fill="#3a414a" d="M84 4C-5 8 30-112 23-190h32v120c0 31 7 50 39 49 72-2 45-101 50-169h31l1 190h-30c-1-10 1-25-2-33-11 22-28 36-60 37" id="bx"/><g id="aF"><use transform="matrix(0.03703703703703702,0,0,0.03703703703703702,0,0)" xlink:href="#bw"/><use transform="matrix(0.03703703703703702,0,0,0.03703703703703702,9.592592592592588,0)" xlink:href="#bu"/><use transform="matrix(0.03703703703703702,0,0,0.03703703703703702,16.999999999999993,0)" xlink:href="#bx"/><use transform="matrix(0.03703703703703702,0,0,0.03703703703703702,24.407407407407398,0)" xlink:href="#aJ"/><use transform="matrix(0.03703703703703702,0,0,0.03703703703703702,31.814814814814802,0)" xlink:href="#aW"/><use transform="matrix(0.03703703703703702,0,0,0.03703703703703702,34.740740740740726,0)" xlink:href="#aX"/></g><path fill="#3a414a" d="M155-56V0h-30v-56H8v-25l114-167h33v167h35v25h-35zm-30-156c-27 46-58 90-88 131h88v-131" id="by"/><g id="aG"><use transform="matrix(0.03703703703703702,0,0,0.03703703703703702,0,0)" xlink:href="#bk"/><use transform="matrix(0.03703703703703702,0,0,0.03703703703703702,4.407407407407406,0)" xlink:href="#aU"/><use transform="matrix(0.03703703703703702,0,0,0.03703703703703702,12.51851851851851,0)" xlink:href="#bl"/><use transform="matrix(0.03703703703703702,0,0,0.03703703703703702,21.407407407407398,0)" xlink:href="#bm"/><use transform="matrix(0.03703703703703702,0,0,0.03703703703703702,33.96296296296295,0)" xlink:href="#bn"/><use transform="matrix(0.03703703703703702,0,0,0.03703703703703702,41.740740740740726,0)" xlink:href="#bt"/><use transform="matrix(0.03703703703703702,0,0,0.03703703703703702,49.148148148148124,0)" xlink:href="#by"/><use transform="matrix(0.03703703703703702,0,0,0.03703703703703702,56.55555555555553,0)" xlink:href="#bp"/></g></defs></g></svg>
